<svg height="463pt" viewBox="-55 0 463 463.2" width="463pt" xmlns="http://www.w3.org/2000/svg"><path d="m56.101562 0h32c44.179688 0 80 35.816406 80 80h-32c-44.183593 0-80-35.816406-80-80zm0 0" fill="#c8d952"/><path d="m160.101562 160s-18.867187-101.464844 68.6875-142.503906c2.164063-.992188 4.519532-1.503906 6.902344-1.496094h3.898438c6.707031-.007812 12.707031 4.167969 15.027344 10.460938 2.324218 6.289062.476562 13.363281-4.628907 17.714843-32.007812 27.550781-69.503906 71.6875-49.886719 115.824219 0 0-24 16-40 0zm0 0" fill="#55b56a"/><path d="m224.101562 120c-17.15625.1875-33.867187 5.480469-48 15.199219-14.136718-9.71875-30.847656-15.011719-48-15.199219-61.859374 0-128 25.839844-128 112s66.140626 231.199219 128 231.199219c17.152344-.1875 33.863282-5.480469 48-15.199219 14.132813 9.71875 30.84375 15.011719 48 15.199219 61.855469 0 128-145.054688 128-231.199219s-66.144531-112-128-112zm0 0" fill="#dd3e46"/><g fill="#f4f4e6"><path d="m280.101562 368c-2.667968 0-5.15625-1.324219-6.644531-3.539062-1.484375-2.210938-1.773437-5.019532-.765625-7.484376 36.472656-89.160156 30.289063-136.550781 18.679688-160.609374-5.539063-13.140626-16.15625-23.480469-29.4375-28.671876-4.175782-1.246093-6.589844-5.601562-5.425782-9.800781 1.164063-4.199219 5.476563-6.695312 9.695313-5.613281 17.507813 6.292969 31.6875 19.464844 39.25 36.460938 19.351563 39.242187 13.3125 97.882812-17.945313 174.28125-1.230468 3.011718-4.15625 4.976562-7.40625 4.976562zm0 0"/><path d="m240.101562 424c-3.238281 0-6.152343-1.949219-7.390624-4.9375-1.238282-2.988281-.554688-6.429688 1.734374-8.71875l24-24c3.136719-3.03125 8.128907-2.988281 11.214844.097656 3.085938 3.085938 3.128906 8.074219.097656 11.214844l-24 24c-1.5 1.5-3.535156 2.34375-5.65625 2.34375zm0 0"/></g></svg>