<svg height="512pt" viewBox="0 -4 512 511" width="512pt" xmlns="http://www.w3.org/2000/svg"><path d="m408.425781 92.648438c-7.699219-6.179688-16.066406-10.980469-24.824219-14.625-1.464843 1.894531-3.75 3.113281-7.050781 2.726562-28.894531-3.40625-60.019531 8.164062-89.707031 7.546875-34.332031-.714844-67.902344-3.742187-102.292969-3.40625-5.449219.050781-8.300781-3.761719-8.820312-7.945313l-123.445313 77.503907c-33.519531 45.921875-43.457031 106.367187-43.457031 159.429687 0 104.816406 96.363281 189.792969 225.722656 189.792969h21.289063c128.820312 6.902344 238.503906-97.890625 238.503906-229.519531 0-73.84375-33.648438-139.519532-85.917969-181.503906zm0 0" fill="#dc691d"/><path d="m510.394531 246.894531c0-.035156-.011719-.070312-.019531-.105469-7.441406-62.582031-40.050781-117.425781-87.425781-154.140624-1.203125-.933594-2.519531-1.648438-3.753907-2.523438-29.941406-17.886719-69.234374-11.75-92.046874 16.046875-25.148438 30.640625-20.734376 75.902344 9.878906 101.078125 20.03125 16.488281 31.523437 40.765625 31.523437 66.601562 0 47.519532-38.609375 86.183594-86.066406 86.183594s-86.070313-38.65625-86.070313-86.183594c0-25.847656 11.484376-50.113281 31.523438-66.601562 30.613281-25.175781 35.027344-70.4375 9.878906-101.078125-12.457031-15.171875-29.820312-23.894531-47.890625-25.800781-6.929687 73.460937-58.773437 127.089844-128.511719 131.664062-5.542968 19.886719-8.449218 40.648438-8.449218 61.816406 0 126.722657 102.964844 229.820313 229.519531 229.820313 3.589844 0 7.167969-.109375 10.722656-.273437 108.210938-7.222657 198.058594-87.378907 215.640625-191.808594.082032-.503906.1875-1.003906.273438-1.507813.433594-2.691406.769531-5.421875 1.105468-8.140625.167969-1.351562.371094-2.683594.511719-4.042968.210938-2.03125.335938-4.09375.492188-6.144532.152343-1.949218.347656-3.902344.453125-5.867187.121094-2.339844.140625-4.714844.191406-7.074219.035156-1.597656.125-3.183594.125-4.800781-.007812-9.171875-.546875-18.230469-1.605469-27.117188zm0 0" fill="#f7e6a1"/><g fill="#be6e41"><path d="m171.386719 141.675781c-2.074219 3.789063-4.324219 7.441407-6.691407 10.984375 2.382813-3.542968 4.609376-7.203125 6.691407-10.984375zm0 0"/><path d="m164.695312 152.660156c-.175781.253906-.324218.527344-.503906.785156.179688-.257812.328125-.53125.503906-.785156zm0 0"/><path d="m171.582031 141.296875c-.070312.125-.125.257813-.195312.378906.0625-.121093.125-.253906.195312-.378906zm0 0"/><path d="m156.820312 163.269531c-.261718.316407-.492187.664063-.75.980469.257813-.316406.488282-.664062.75-.980469zm0 0"/><path d="m156.0625 164.242188c-2.84375 3.414062-5.835938 6.679687-8.96875 9.78125 3.152344-3.089844 6.117188-6.375 8.96875-9.78125zm0 0"/><path d="m316.964844 75.136719c-6.410156 1.894531-13.347656 3.203125-20.578125 3.988281l-23.550781.449219c-8.804688-.652344-17.171876-2.171875-24.832032-4.4375-19.007812-5.617188-38.78125-6.738281-57.644531-3.375-1.191406 25.796875-7.824219 49.363281-18.769531 69.535156 9.78125-17.910156 16.21875-38.441406 18.34375-60.925781 18.070312 1.90625 35.433594 10.628906 47.890625 25.800781 25.148437 30.640625 20.734375 75.902344-9.878907 101.078125-20.027343 16.488281-31.515624 40.765625-31.515624 66.601562 0 47.519532 38.613281 86.183594 86.070312 86.183594s86.070312-38.65625 86.070312-86.183594c0-25.847656-11.484374-50.113281-31.515624-66.601562-30.613282-25.175781-35.027344-70.4375-9.878907-101.078125 22.8125-27.796875 62.113281-33.933594 92.046875-16.046875 1.234375.875 2.550782 1.597656 3.75 2.523438-30.03125-23.25-69.59375-28.28125-106.007812-17.511719zm0 0"/><path d="m164.191406 153.445312c-2.3125 3.40625-4.792968 6.664063-7.371094 9.824219 2.589844-3.152343 5.050782-6.425781 7.371094-9.824219zm0 0"/></g><path d="m289.878906 108.160156c-3.707031 11.871094-15.675781 7.960938-15.933594-5.148437-.414062-21.097657-2.417968-48.054688-8.570312-73.84375-2.367188-9.867188 3.285156-19.84375 11.546875-19.84375h10.875c6.789063 0 12.234375 6.816406 12.324219 15.265625.195312 19.402344-1.007813 53.953125-10.242188 83.570312zm0 0" fill="#a05732"/><path d="m190.710938 64.472656c-.503907 87.046875-62.214844 150.878906-144.761719 147.78125-1.503907-45.761718 15.914062-104.484375 42.328125-132.308594 36.269531 4.863282 71.511718 12.304688 102.433594-15.472656zm0 0" fill="#3d6f44"/><path d="m98.621094 164.742188c-2.160156 0-4.324219-.785157-6.027344-2.382813-3.566406-3.328125-3.753906-8.914063-.425781-12.480469l69.96875-74.832031c3.328125-3.546875 8.914062-3.75 12.472656-.414063 3.566406 3.328126 3.753906 8.914063.425781 12.480469l-69.96875 74.832031c-1.730468 1.863282-4.085937 2.796876-6.445312 2.796876zm0 0" fill="#6c4127"/><path d="m282.484375 335.945312c-4.875 0-8.828125-3.953124-8.828125-8.828124 0-4.871094 3.953125-8.828126 8.828125-8.828126 24.335937 0 44.136719-19.796874 44.136719-44.136718 0-4.871094 3.953125-8.828125 8.828125-8.828125 4.871093 0 8.828125 3.957031 8.828125 8.828125 0 34.074218-27.71875 61.792968-61.792969 61.792968zm0 0" fill="#a05732"/><path d="m0 50.292969c57.863281-66.390625 146.988281-66.390625 204.851562 0-57.863281 66.382812-146.988281 66.382812-204.851562 0zm0 0" fill="#23a24d"/><path d="m282.484375 53.464844h-203.035156c-4.875 0-8.828125-3.957032-8.828125-8.828125 0-4.875 3.953125-8.828125 8.828125-8.828125h203.035156c4.871094 0 8.824219 3.953125 8.824219 8.828125 0 4.871093-3.953125 8.828125-8.824219 8.828125zm0 0" fill="#6c4127"/></svg>