<svg height="512pt" viewBox="-31 0 512 512.00462" width="512pt" xmlns="http://www.w3.org/2000/svg"><path d="m381.425781 236.425781c-7.363281-19.191406-15.90625-37.871093-25.429687-56.007812l-86.242188-116.871094c-21.765625-21.050781-44.25-37.0625-62.316406-37.0625-1.464844 0-2.941406.238281-4.414062.335937-1.476563-.097656-2.949219-.335937-4.414063-.335937-22.640625 0-52.230469 25.128906-78.648437 53.851563-41.636719 45.265624-73.300782 98.667968-95.339844 156.089843-14.660156 38.226563-24.61718775 72.519531-24.61718775 107.828125 0 147.171875 98.66796875 190.734375 149.14843775 156.933594.105468-.070312 26.9375 10.816406 53.789062 10.816406 26.90625 0 53.835938-10.886718 53.945313-10.816406 50.488281 33.800781 149.15625-9.761719 149.15625-156.933594 0-35.308594-9.957031-69.601562-24.617188-107.828125zm0 0" fill="#e4c05c"/><path d="m269.394531 56.707031c.476563 77.15625 58.972657 133.738281 137.230469 130.984375 1.421875-40.5625-13.097656-75.824218-38.140625-100.488281 33.929687-4.246094-138.097656-63.261719-99.089844-30.496094zm0 0" fill="#3d6f44"/><path d="m353.082031 141.234375c-2.214843 0-4.441406-.832031-6.152343-2.5l-62.714844-60.976563c-3.496094-3.398437-3.578125-8.984374-.179688-12.480468 3.390625-3.496094 8.988282-3.574219 12.484375-.175782l62.714844 60.976563c3.496094 3.398437 3.574219 8.984375.175781 12.480469-1.730468 1.785156-4.023437 2.675781-6.328125 2.675781zm0 0" fill="#6c4127"/><g fill="#bc9942"><path d="m194.195312 123.578125c-4.871093 0-8.828124-3.953125-8.828124-8.824219 0-4.875 3.957031-8.828125 8.828124-8.828125 9.738282 0 17.65625-7.917969 17.65625-17.652343 0-4.875 3.953126-8.828126 8.824219-8.828126 4.875 0 8.828125 3.953126 8.828125 8.828126 0 19.472656-15.835937 35.304687-35.308594 35.304687zm0 0"/><path d="m48.410156 317.914062c-.636718 0-1.28125-.0625-1.925781-.210937-4.757813-1.058594-7.757813-5.773437-6.699219-10.53125 1.191406-5.394531 2.667969-10.890625 4.371094-16.355469 1.445312-4.660156 6.398438-7.257812 11.050781-5.800781 4.652344 1.457031 7.246094 6.402344 5.796875 11.050781-1.550781 4.988282-2.902344 10.011719-3.988281 14.929688-.910156 4.121094-4.554687 6.917968-8.605469 6.917968zm0 0"/><path d="m77.007812 450.214844c-2.550781 0-5.082031-1.105469-6.820312-3.230469-25.175781-30.683594-37.121094-68.976563-34.542969-110.734375.300781-4.867188 4.539063-8.554688 9.359375-8.273438 4.863282.300782 8.570313 4.484376 8.269532 9.355469-2.296876 37.234375 8.269531 71.28125 30.558593 98.457031 3.097657 3.769532 2.542969 9.332032-1.226562 12.421876-1.640625 1.347656-3.628907 2.003906-5.597657 2.003906zm0 0"/></g><path d="m450.179688 44.136719c-54.859376-58.847657-139.335938-58.847657-194.195313 0 54.859375 58.851562 139.335937 58.851562 194.195313 0zm0 0" fill="#23a24d"/><path d="m185.367188 88.273438c-4.871094 0-8.824219-3.957032-8.824219-8.828126 0-24.335937 19.796875-44.136718 44.132812-44.136718h158.886719c4.871094 0 8.828125 3.957031 8.828125 8.828125 0 4.871093-3.957031 8.828125-8.828125 8.828125h-158.886719c-14.597656 0-26.480469 11.878906-26.480469 26.480468 0 4.871094-3.953124 8.828126-8.828124 8.828126zm0 0" fill="#6c4127"/></svg>