<svg height="512pt" viewBox="0 -9 512 512" width="512pt" xmlns="http://www.w3.org/2000/svg"><path d="m406.890625 169.878906c-25.628906-8.050781-49.503906-6.4375-67.921875-2.359375-1.109375-20.132812-6.855469-49.75-28.195312-76.339843-36.589844-45.585938-54.878907-91.179688-54.878907-91.179688s-18.292969 45.59375-54.882812 91.1875c-21.316407 26.574219-27.074219 56.164062-28.195313 76.289062-18.386718-4.042968-42.175781-5.613281-67.707031 2.410157-55.859375 17.550781-105.109375 18.097656-105.109375 18.097656s36.042969 33.464844 65.484375 83.941406c21.421875 36.722657 56.007813 52.628907 73.3125 58.597657-10.601563 14.960937-20.808594 35.355468-23.625 60.652343-6.46875 58.035157-25.871094 103.167969-25.871094 103.167969s45.277344-19.339844 103.484375-25.792969c26.722656-2.957031 47.917969-14.070312 63.109375-25.230469 15.191407 11.160157 36.386719 22.273438 63.109375 25.230469 58.207032 6.453125 103.476563 25.792969 103.476563 25.792969s-19.402344-45.132812-25.875-103.167969c-2.816407-25.273437-12.992188-45.636719-23.585938-60.589843 17.25-5.925782 51.992188-21.824219 73.488281-58.660157 29.449219-50.476562 65.492188-83.941406 65.492188-83.941406s-49.25-.546875-105.109375-18.105469zm0 0" fill="#6c4127"/><g fill="#be7c6d"><path d="m256.105469 100.34375c-5.464844-2.5625-38.453125 131.628906 0 136.78125 38.453125-5.164062 5.464843-139.34375 0-136.78125zm0 0"/><path d="m362.488281 423.390625c-2.457031 5.425781-111.414062-66.296875-86.042969-95.515625 31.859376-22.007812 91.71875 93.667969 86.042969 95.515625zm0 0"/><path d="m406.847656 219.535156c4.773438 3.5625-89.125 94.003906-112.21875 62.972656-14.636718-35.777343 111.632813-68.898437 112.21875-62.972656zm0 0"/><path d="m105.296875 219.535156c-4.777344 3.5625 89.121094 94.003906 112.214844 62.972656 14.628906-35.777343-111.640625-68.898437-112.214844-62.972656zm0 0"/><path d="m157.085938 423.390625c2.453124 5.425781 111.414062-66.296875 86.042968-95.515625-31.847656-22.007812-91.710937 93.667969-86.042968 95.515625zm0 0"/></g></svg>