<svg height="511pt" viewBox="-118 0 511 511.98971" width="511pt" xmlns="http://www.w3.org/2000/svg"><path d="m147.601562 511.613281c2.289063-.1875 4.582032-.402343 6.863282-.644531 33.511718-3.566406 63.613281-22.78125 80.902344-51.328125.253906-.410156.503906-.824219.746093-1.238281 25.492188-42.488282 36.476563-91.972656 33.335938-141.25-4.296875-67.257813-20.132813-143.953125-59.816407-218.496094-8.074218 15.160156-15.109374 30.035156-21.441406 44.667969-9.789062-41.882813-26.011718-86.824219-51.308594-134.351563-20.902343 39.28125-35.558593 76.773438-45.601562 112.273438-7.644531-19.035156-16.527344-38.488282-27.15625-58.457032-48.046875 90.28125-63.675781 180.1875-63.628906 256.171876.015625 34.238281 6.84375 68.140624 20.632812 99.570312 5.253906 11.964844 11.550782 24.566406 19.078125 37.367188 22.015625 37.402343 63.695313 59.265624 107.394531 55.714843zm0 0" fill="#fc3952"/><g fill="#f998a9"><path d="m266.976562 297.535156c-3.539062 0-6.886718-2.101562-8.316406-5.585937l-2.929687-7.230469c-8.730469-21.640625-19.363281-47.976562-38.570313-71.714844-4.570312 7.640625-7.941406 15.359375-10.894531 24.746094-1.492187 4.722656-6.53125 7.375-11.265625 5.863281-4.734375-1.488281-7.355469-6.539062-5.863281-11.261719 4.742187-15.039062 10.660156-26.832031 19.8125-39.425781 1.582031-2.171875 4.042969-3.519531 6.71875-3.683593 2.652343-.222657 5.292969.882812 7.117187 2.839843 26.34375 28.257813 39.242188 60.226563 49.609375 85.898438l2.902344 7.140625c1.875 4.589844-.324219 9.835937-4.914063 11.714844-1.125.484374-2.273437.699218-3.40625.699218zm0 0"/><path d="m154.335938 260.125c-.5625 0-1.140626-.054688-1.714844-.164062-4.867188-.941407-8.046875-5.65625-7.113282-10.527344 9.980469-51.53125 28.886719-103.675782 56.195313-154.980469 2.335937-4.386719 7.769531-6.039063 12.152344-3.710937 4.375 2.335937 6.035156 7.769531 3.710937 12.152343-26.472656 49.738281-44.777344 100.183594-54.417968 149.960938-.835938 4.285156-4.597657 7.269531-8.8125 7.269531zm0 0"/><path d="m74.359375 225.480469c-.207031 0-.425781-.011719-.640625-.019531-4.949219-.351563-8.675781-4.644532-8.335938-9.585938 4.914063-70.0625 26.292969-141.09375 63.570313-211.113281 2.335937-4.375 7.761719-6.035157 12.152344-3.710938 4.375 2.335938 6.035156 7.769531 3.710937 12.15625-36.082031 67.769531-56.777344 136.386719-61.511718 203.917969-.332032 4.742188-4.277344 8.355469-8.945313 8.355469zm0 0"/><path d="m109.597656 340.859375c-4.1875 0-7.933594-2.9375-8.796875-7.195313-8.882812-43.800781-18.285156-72.066406-18.375-72.34375-13.726562-40.136718-33.613281-80.375-59.105469-119.550781-2.703124-4.15625-1.527343-9.726562 2.632813-12.429687 4.15625-2.703125 9.726563-1.527344 12.429687 2.632812 26.300782 40.417969 46.84375 82 61.0625 123.578125.414063 1.242188 9.871094 29.671875 18.972657 74.539063.988281 4.867187-2.15625 9.601562-7.015625 10.589844-.621094.117187-1.222656.179687-1.804688.179687zm0 0"/><path d="m82.667969 245.222656c-.820313 0-1.652344-.117187-2.480469-.351562-4.769531-1.363282-7.527344-6.339844-6.164062-11.109375 16.980468-59.304688 38.347656-100.558594 63.515624-122.640625 1.808594-1.578125 4.152344-2.40625 6.585938-2.199219 2.398438.179687 4.632812 1.3125 6.1875 3.152344 19.347656 22.824219 26.660156 44.1875 32.492188 64.125 1.390624 4.761719-1.339844 9.746093-6.101563 11.148437-4.761719 1.382813-9.753906-1.328125-11.136719-6.097656-5.695312-19.464844-11.570312-34.53125-22.949218-49.980469-19.519532 21.128907-37.144532 57.972657-51.320313 107.449219-1.128906 3.933594-4.722656 6.503906-8.628906 6.503906zm0 0"/><path d="m43.429688 252.425781c-2.316407 0-4.632813-.898437-6.394532-2.675781-3.484375-3.53125-3.449218-9.21875.089844-12.703125l9.089844-8.972656c3.53125-3.492188 9.21875-3.449219 12.703125.089843 3.484375 3.53125 3.449219 9.214844-.089844 12.703126l-9.089844 8.972656c-1.753906 1.734375-4.035156 2.585937-6.308593 2.585937zm0 0"/><path d="m52.519531 288.3125c-2.316406 0-4.632812-.898438-6.394531-2.679688-3.484375-3.527343-3.449219-9.214843.089844-12.699218l9.089844-8.972656c3.53125-3.496094 9.21875-3.460938 12.703124.089843 3.484376 3.527344 3.449219 9.214844-.089843 12.699219l-9.089844 8.972656c-1.742187 1.726563-4.023437 2.589844-6.308594 2.589844zm0 0"/><path d="m61.613281 324.1875c-2.320312 0-4.636719-.898438-6.398437-2.675781-3.484375-3.53125-3.449219-9.21875.089844-12.703125l9.089843-8.972656c3.53125-3.496094 9.21875-3.449219 12.703125.089843 3.484375 3.53125 3.449219 9.214844-.089844 12.699219l-9.089843 8.976562c-1.742188 1.722657-4.023438 2.585938-6.304688 2.585938zm0 0"/></g></svg>