<svg height="512pt" viewBox="-53 0 512 512" width="512pt" xmlns="http://www.w3.org/2000/svg"><path d="m346.703125 188.664062c-17.796875-20.851562-28.980469-46.53125-32.953125-73.648437l-.035156-.257813c-8.722656-59.875-20.746094-90.457031-49.335938-104.484374-3.683594-1.800782-8.167968-1.074219-10.753906 2.101562-.0625.070312-.113281.152344-.175781.222656-5.773438 7.148438-16.90625 6.445313-21.945313-1.253906-.113281-.1875-.238281-.363281-.363281-.546875-4.226563-6.367187-11.253906-10.433594-18.890625-10.664063-2.984375-.0898432-6.046875-.132812-9.214844-.132812-1.164062 0-2.296875.0078125-3.417968.0351562-5.234376.0976558-10.160157 2.6562498-13.257813 6.8867188-1.140625 1.550781-2.171875 3.054687-3.117187 4.492187-5.023438 7.6875-16.144532 8.308594-21.9375 1.175782-.070313-.082032-.128907-.167969-.203126-.25-3.625-4.414063-9.824218-5.808594-15.074218-3.539063-30.828125 13.328125-44.632813 43.933594-53.671875 105.957031l-.035157.246094c-3.972656 27.128906-15.160156 52.808594-32.953124 73.652344-36.679688 42.972656-59.367188 98.082031-59.367188 146.792969 0 97.507812 90.898438 176.550781 203.035156 176.550781 112.136719 0 203.035156-79.042969 203.035156-176.550781 0-48.710938-22.6875-103.820313-59.367187-146.785157zm0 0" fill="#61b872"/><g fill="#9ce2a8"><path d="m92.726562 291.308594c-1.246093 0-2.5-.261719-3.699218-.808594-4.421875-2.050781-6.347656-7.300781-4.300782-11.726562 7.34375-15.863282 17.195313-31.230469 28.496094-44.4375 25.695313-30.019532 42.511719-66.957032 48.648438-106.832032l.390625-2.609375c.722656-4.820312 5.199219-8.175781 10.035156-7.425781 4.820313.722656 8.148437 5.207031 7.425781 10.035156l-.398437 2.648438c-6.628907 43.160156-24.851563 83.140625-52.691407 115.660156-10.257812 11.988281-19.21875 25.953125-25.890624 40.367188-1.492188 3.242187-4.679688 5.128906-8.015626 5.128906zm0 0"/><path d="m102.902344 400.382812c-2.382813 0-4.757813-.953124-6.496094-2.851562-16.871094-18.324219-25.785156-39.792969-25.785156-62.082031 0-6.082031.625-12.5625 1.863281-19.261719.882813-4.792969 5.488281-7.953125 10.28125-7.082031 4.796875.882812 7.964844 5.492187 7.082031 10.285156-1.042968 5.640625-1.570312 11.042969-1.570312 16.058594 0 17.785156 7.300781 35.113281 21.121094 50.132812 3.304687 3.582031 3.074218 9.171875-.519532 12.472657-1.695312 1.5625-3.839844 2.328124-5.976562 2.328124zm0 0"/></g></svg>