<svg height="472pt" viewBox="-4 0 472 472.04334" width="472pt" xmlns="http://www.w3.org/2000/svg"><path d="m267.597656 456.839844-27.574218-13.785156v-19.054688c0-4.417969-3.582032-8-8-8-4.421876 0-8 3.582031-8 8v19.054688l-27.578126 13.785156c-3.953124 1.976562-5.558593 6.78125-3.582031 10.734375 1.972657 3.957031 6.78125 5.5625 10.734375 3.585937l28.425782-14.214844 28.421874 14.253907c3.953126 1.976562 8.761719.371093 10.738282-3.582031 1.972656-3.957032.367187-8.761719-3.585938-10.738282zm0 0" fill="#5a6470"/><path d="m208.023438 352h48v48c0 13.253906-10.746094 24-24 24-13.257813 0-24-10.746094-24-24zm0 0" fill="#cfdfe8"/><path d="m384.023438 144h80l-56-48s0-48-48-48c-80 0-43.777344 83.777344-80 120-24 24-96 32-160 0-31.761719-15.878906-120.0000005-56-120.0000005-56s18.8867185 64 66.8867185 96l-66.8867185-8c8.0664065 20.632812 23.2890625 37.667969 42.8867185 48h-42.8867185c29.6328125 24.507812 57.3398435 51.253906 82.8867185 80 34.710938 39.679688 72.078125 48 144 48 82.472656 0 152-50.144531 152-112 0-12.894531-1.800781-79.199219 5.113282-120zm0 0" fill="#f4f4e6"/><path d="m368.023438 104c0 8.835938-7.164063 16-16 16-8.839844 0-16-7.164062-16-16s7.160156-16 16-16c8.835937 0 16 7.164062 16 16zm0 0" fill="#5a6470"/><path d="m408.023438 96-24 48h80zm0 0" fill="#d3843d"/><path d="m400.023438 24h-16c0-8 0-24-24-24s-24 16-24 24h-16c-13.257813 0-24 10.746094-24 24s10.742187 24 24 24c12.921874-.765625 23.234374-11.074219 24-24 4.167968 4.539062 9.863281 7.386719 16 8 6.132812-.613281 11.828124-3.460938 16-8 .761718 12.925781 11.074218 23.234375 24 24 13.253906 0 24-10.746094 24-24s-10.746094-24-24-24zm0 0" fill="#dd3e46"/><path d="m96.023438 232h152c22.089843 0 40 17.910156 40 40v16c0 22.089844-17.910157 40-40 40h-72c-44.183594 0-80-35.816406-80-80zm0 0" fill="#cfdfe8"/><g fill="#5a6470"><path d="m184.023438 272h-80c-4.421876 0-8-3.582031-8-8s3.578124-8 8-8h80c4.417968 0 8 3.582031 8 8s-3.582032 8-8 8zm0 0"/><path d="m232.023438 304h-120c-4.421876 0-8-3.582031-8-8s3.578124-8 8-8h120c4.417968 0 8 3.582031 8 8s-3.582032 8-8 8zm0 0"/><path d="m232.023438 272h-16c-4.421876 0-8-3.582031-8-8s3.578124-8 8-8h16c4.417968 0 8 3.582031 8 8s-3.582032 8-8 8zm0 0"/><path d="m344.023438 264h-16c-4.421876 0-8-3.582031-8-8s3.578124-8 8-8h16c4.417968 0 8 3.582031 8 8s-3.582032 8-8 8zm0 0"/><path d="m336.023438 296h-16c-4.421876 0-8-3.582031-8-8s3.578124-8 8-8h16c4.417968 0 8 3.582031 8 8s-3.582032 8-8 8zm0 0"/></g></svg>