<svg height="512pt" viewBox="-47 0 511 512" width="512pt" xmlns="http://www.w3.org/2000/svg"><path d="m408.363281 203.933594c0-19.484375-7.601562-37.144532-19.941406-50.332032 1.632813-6.101562 2.585937-12.480468 2.585937-19.09375 0-40.734374-33.027343-73.761718-73.761718-73.761718-19.195313 0-36.621094 7.394531-49.75 19.414062-6.789063-26.132812-30.46875-45.449218-58.726563-45.449218-28.253906 0-51.9375 19.316406-58.722656 45.449218-13.128906-12.019531-30.554687-19.414062-49.75-19.414062-40.734375 0-73.761719 33.027344-73.761719 73.761718 0 6.613282.953125 12.992188 2.585938 19.09375-12.339844 13.1875-19.941406 30.847657-19.941406 50.332032 0 26.109375 13.597656 48.996094 34.066406 62.097656-5.101563 10.03125-8.035156 21.339844-8.035156 33.359375 0 36.957031 27.214843 67.480469 62.671874 72.84375-11.835937 11.078125-19.28125 26.804687-19.28125 44.308594 0 33.546875 27.195313 60.746093 60.746094 60.746093 4.753906 0 9.371094-.609374 13.816406-1.640624 9.398438 21.390624 30.746094 36.351562 55.605469 36.351562 24.863281 0 46.210938-14.960938 55.609375-36.351562 4.445313 1.03125 9.058594 1.640624 13.816406 1.640624 33.546876 0 60.746094-27.199218 60.746094-60.746093 0-17.503907-7.445312-33.230469-19.28125-44.308594 35.457032-5.363281 62.671875-35.886719 62.671875-72.84375 0-12.019531-2.933593-23.328125-8.039062-33.359375 20.472656-13.101562 34.070312-35.988281 34.070312-62.097656zm0 0" fill="#75348b"/><g fill="#9054a8"><path d="m269.515625 104.136719c-4.789063 0-8.675781-3.890625-8.675781-8.679688 0-28.714843-23.363282-52.066406-52.070313-52.066406-28.703125 0-52.066406 23.351563-52.066406 52.066406 0 4.789063-3.886719 8.679688-8.675781 8.679688-4.792969 0-8.679688-3.890625-8.679688-8.679688 0-38.277343 31.144532-69.421875 69.421875-69.421875 38.28125 0 69.425781 31.144532 69.425781 69.421875 0 4.789063-3.886718 8.679688-8.679687 8.679688zm0 0"/><path d="m208.769531 173.558594c-19.140625 0-34.710937-15.566406-34.710937-34.710938 0-4.789062 3.886718-8.679687 8.679687-8.679687 4.789063 0 8.675781 3.890625 8.675781 8.679687 0 9.570313 7.785157 17.355469 17.355469 17.355469 9.574219 0 17.359375-7.785156 17.359375-17.355469 0-4.789062 3.886719-8.679687 8.675782-8.679687 4.789062 0 8.679687 3.890625 8.679687 8.679687 0 19.144532-15.570313 34.710938-34.714844 34.710938zm0 0"/><path d="m76.527344 250.167969c-10.125 0-18.179688-2.925781-23.949219-8.6875-3.585937-3.582031-6.101563-8.128907-7.472656-13.511719-.851563-3.382812-1.257813-7.125-1.214844-11.132812.070313-4.789063 3.859375-8.433594 8.796875-8.566407 4.792969.0625 8.628906 4.003907 8.558594 8.792969-.035156 2.488281.191406 4.71875.675781 6.621094.597656 2.34375 1.554687 4.148437 2.917969 5.511718 2.464844 2.472657 6.59375 3.703126 12.164062 3.609376 4.78125-.261719 8.730469 3.765624 8.792969 8.554687.058594 4.792969-3.765625 8.730469-8.566406 8.800781-.226563.007813-.46875.007813-.703125.007813zm0 0"/><path d="m341.96875 249.96875c-.242188 0-.476562 0-.71875 0-4.792969-.0625-8.625-4-8.566406-8.800781.070312-4.789063 4.121094-8.816407 8.792968-8.554688 5.671876.242188 9.699219-1.136719 12.15625-3.601562 1.371094-1.371094 2.324219-3.175781 2.925782-5.519531.484375-1.898438.710937-4.128907.675781-6.621094-.0625-4.789063 3.773437-8.730469 8.566406-8.789063 4.917969-.28125 8.726563 3.765625 8.789063 8.5625.050781 4-.355469 7.75-1.214844 11.125-1.363281 5.382813-3.878906 9.929688-7.472656 13.519531-5.753906 5.765626-13.816406 8.679688-23.933594 8.679688zm0 0"/><path d="m121.394531 347.117188c-10.128906 0-18.183593-2.921876-23.953125-8.683594-3.582031-3.585938-6.101562-8.132813-7.472656-13.511719-.859375-3.386719-1.265625-7.125-1.214844-11.125.070313-4.792969 3.84375-8.773437 8.792969-8.566406 4.789063.058593 8.625 4 8.5625 8.789062-.035156 2.492188.191406 4.714844.679687 6.621094.597657 2.34375 1.550782 4.148437 2.914063 5.511719 2.464844 2.472656 6.578125 3.765625 12.167969 3.609375 4.695312-.113281 8.730468 3.765625 8.789062 8.558593.0625 4.789063-3.765625 8.730469-8.566406 8.796876-.222656 0-.464844 0-.699219 0zm0 0"/><path d="m304.828125 347.117188c-.234375 0-.476563 0-.722656 0-4.789063-.058594-8.625-4-8.5625-8.796876.070312-4.792968 4.042969-8.402343 8.789062-8.558593 5.660157.183593 9.695313-1.136719 12.160157-3.601563 1.371093-1.371094 2.324218-3.175781 2.921874-5.519531.488282-1.90625.710938-4.136719.679688-6.621094-.0625-4.789062 3.773438-8.730469 8.5625-8.789062 4.894531-.277344 8.730469 3.773437 8.792969 8.566406.050781 4-.355469 7.746094-1.214844 11.125-1.371094 5.386719-3.890625 9.933594-7.472656 13.519531-5.746094 5.753906-13.796875 8.675782-23.933594 8.675782zm0 0"/><path d="m217.449219 415.066406c-.042969 0-.078125 0-.121094 0-4.789063-.070312-8.625-4-8.558594-8.796875.078125-5.609375-1.136719-9.695312-3.601562-12.152343-1.371094-1.378907-3.175781-2.332032-5.527344-2.921876-1.890625-.488281-4.121094-.773437-6.609375-.679687-5.175781-.101563-8.730469-3.773437-8.792969-8.5625-.058593-4.792969 3.773438-8.730469 8.566407-8.792969 3.972656-.128906 7.75.355469 11.125 1.214844 5.386718 1.371094 9.933593 3.890625 13.519531 7.472656 5.902343 5.902344 8.824219 14.199219 8.679687 24.664063-.070312 4.753906-3.941406 8.554687-8.679687 8.554687zm0 0"/><path d="m156.105469 451.253906c-10.128907 0-18.179688-2.925781-23.953125-8.6875-3.582032-3.582031-6.097656-8.128906-7.46875-13.511718-.859375-3.382813-1.269532-7.125-1.21875-11.125.0625-4.753907 3.941406-8.5625 8.679687-8.5625h.113281c4.789063.058593 8.625 4 8.566407 8.789062-.035157 2.492188.1875 4.710938.675781 6.621094.597656 2.34375 1.554688 4.148437 2.914062 5.511718 2.464844 2.472657 6.542969 3.660157 12.167969 3.609376 4.703125-.105469 8.730469 3.765624 8.789063 8.554687.0625 4.792969-3.765625 8.730469-8.5625 8.800781-.226563 0-.46875 0-.703125 0zm0 0"/><path d="m261.4375 451.253906c-.242188 0-.476562 0-.71875 0-4.792969-.058594-8.628906-4-8.566406-8.800781.070312-4.789063 3.929687-8.441406 8.789062-8.554687 5.660156.25 9.695313-1.128907 12.160156-3.601563 1.371094-1.371094 2.324219-3.175781 2.925782-5.519531.484375-1.898438.710937-4.128906.675781-6.621094-.0625-4.789062 3.773437-8.730469 8.5625-8.789062 5.027344.15625 8.730469 3.773437 8.792969 8.5625.050781 4-.355469 7.75-1.214844 11.125-1.371094 5.390624-3.886719 9.9375-7.472656 13.523437-5.746094 5.761719-13.796875 8.675781-23.933594 8.675781zm0 0"/><path d="m82.941406 286.371094c-45.457031 0-82.441406-36.984375-82.441406-82.4375 0-45.457032 36.984375-82.441406 82.441406-82.441406 4.789063 0 8.675782 3.886718 8.675782 8.675781 0 4.792969-3.886719 8.679687-8.675782 8.679687-35.882812 0-65.085937 29.191406-65.085937 65.085938 0 35.890625 29.203125 65.082031 65.085937 65.082031 4.789063 0 8.675782 3.890625 8.675782 8.679687 0 4.789063-3.886719 8.675782-8.675782 8.675782zm0 0"/><path d="m334.601562 286.371094c-4.789062 0-8.679687-3.886719-8.679687-8.675782 0-4.789062 3.890625-8.679687 8.679687-8.679687 35.882813 0 65.085938-29.191406 65.085938-65.082031 0-35.894532-29.203125-65.085938-65.085938-65.085938-4.789062 0-8.679687-3.886718-8.679687-8.679687 0-4.789063 3.890625-8.675781 8.679687-8.675781 45.457032 0 82.441407 36.984374 82.441407 82.441406 0 45.453125-36.984375 82.4375-82.441407 82.4375zm0 0"/><path d="m308.566406 381.832031c-19.523437 0-38.476562-6.953125-53.34375-19.578125-3.652344-3.097656-4.09375-8.574218-.996094-12.238281 3.097657-3.660156 8.582032-4.101563 12.226563-.996094 11.742187 9.96875 26.695313 15.453125 42.113281 15.453125 35.886719 0 65.085938-29.191406 65.085938-65.082031 0-4.792969 3.886718-8.679687 8.679687-8.679687 4.789063 0 8.675781 3.886718 8.675781 8.679687 0 45.453125-36.984374 82.441406-82.441406 82.441406zm0 0"/><path d="m108.972656 381.832031c-45.453125 0-82.4375-36.988281-82.4375-82.441406 0-4.792969 3.886719-8.679687 8.675782-8.679687 4.792968 0 8.679687 3.886718 8.679687 8.679687 0 35.890625 29.199219 65.082031 65.082031 65.082031 15.421875 0 30.382813-5.492187 42.117188-15.460937 3.644531-3.109375 9.128906-2.65625 12.226562.996093 3.105469 3.652344 2.65625 9.128907-1 12.238282-14.855468 12.625-33.808594 19.585937-53.34375 19.585937zm0 0"/><path d="m139.347656 485.964844c-38.277344 0-69.425781-31.144532-69.425781-69.421875 0-4.789063 3.890625-8.679688 8.679687-8.679688 4.789063 0 8.679688 3.890625 8.679688 8.679688 0 28.714843 23.359375 52.066406 52.066406 52.066406 13.703125 0 26.648438-5.285156 36.4375-14.875 3.421875-3.355469 8.914063-3.304687 12.273438.132813 3.347656 3.425781 3.296875 8.910156-.132813 12.269531-13.050781 12.78125-30.300781 19.828125-48.578125 19.828125zm0 0"/><path d="m278.195312 485.964844c-18.277343 0-35.535156-7.046875-48.589843-19.835938-3.425781-3.359375-3.476563-8.851562-.121094-12.269531 3.359375-3.4375 8.851563-3.480469 12.273437-.132813 9.785157 9.597657 22.726563 14.882813 36.4375 14.882813 28.707032 0 52.066407-23.351563 52.066407-52.066406 0-4.789063 3.890625-8.679688 8.679687-8.679688 4.789063 0 8.675782 3.890625 8.675782 8.679688 0 38.277343-31.144532 69.421875-69.421876 69.421875zm0 0"/><path d="m211.574219 286.183594c-4.617188 0-8.453125-3.636719-8.660157-8.289063-.21875-4.789062 3.496094-8.84375 8.277344-9.058593 19.464844-.867188 38.46875-9.347657 52.136719-23.257813 3.359375-3.410156 8.863281-3.460937 12.273437-.105469 3.417969 3.359375 3.460938 8.859375.101563 12.28125-16.703125 17-39.945313 27.359375-63.738281 28.417969-.128906 0-.261719.011719-.390625.011719zm0 0"/><path d="m172.601562 278.136719c-1.265624 0-2.550781-.277344-3.765624-.867188-10.085938-4.875-19.1875-11.464843-27.042969-19.570312-3.332031-3.445313-3.242188-8.9375.203125-12.269531 3.433594-3.332032 8.9375-3.238282 12.269531.191406 6.429687 6.648437 13.875 12.035156 22.121094 16.019531 4.3125 2.082031 6.125 7.273437 4.035156 11.585937-1.503906 3.105469-4.601563 4.910157-7.820313 4.910157zm0 0"/></g><path d="m208.769531 95.457031c-4.789062 0-8.675781-3.886719-8.675781-8.675781 0-47.851562 38.929688-86.78125 86.777344-86.78125 4.792968 0 8.679687 3.886719 8.679687 8.679688 0 4.789062-3.886719 8.675781-8.679687 8.675781-38.277344 0-69.421875 31.144531-69.421875 69.425781 0 4.789062-3.886719 8.675781-8.679688 8.675781zm0 0" fill="#be6e41"/></svg>