<svg height="464pt" viewBox="0 -20 464.6168 464" width="464pt" xmlns="http://www.w3.org/2000/svg"><path d="m352 312.308594c99.601562 0 112-77.503906 112.617188-111.894532.042968-4.269531-1.625-8.371093-4.632813-11.398437s-7.101563-4.722656-11.367187-4.707031h-96.617188v40h64s-8 48-64 48zm0 0" fill="#9c2d20"/><path d="m409.320312 424.308594h-354.640624c-9.921876.117187-19.578126-3.191406-27.335938-9.375l-27.34375-22.625h464l-27.34375 22.625c-7.757812 6.183594-17.414062 9.492187-27.335938 9.375zm0 0" fill="#9c2d20"/><path d="m88 136.308594h288v176c0 44.183594-35.816406 80-80 80h-128c-44.183594 0-80-35.816406-80-80zm0 0" fill="#d3843d"/><path d="m120 232.308594c-4.417969 0-8-3.582032-8-8v-56c0-4.417969 3.582031-8 8-8s8 3.582031 8 8v56c0 4.417968-3.582031 8-8 8zm0 0" fill="#ffd782"/><path d="m120 328.308594c-4.417969 0-8-3.582032-8-8v-64c0-4.417969 3.582031-8 8-8s8 3.582031 8 8v64c0 4.417968-3.582031 8-8 8zm0 0" fill="#ffd782"/><g fill="#e97424"><path d="m240 112.308594c-4.417969 0-8-3.582032-8-8 0-1.6875-.800781-2.578125-4.800781-5.601563-6.628907-3.816406-10.851563-10.753906-11.199219-18.398437.347656-7.644532 4.570312-14.582032 11.199219-18.398438 4-3.035156 4.800781-3.921875 4.800781-5.601562 0-1.679688-.800781-2.578125-4.800781-5.601563-6.628907-3.816406-10.851563-10.753906-11.199219-18.398437.347656-7.644532 4.570312-14.582032 11.199219-18.398438 4-3.027344 4.800781-3.914062 4.800781-5.601562 0-4.417969 3.582031-8 8-8s8 3.582031 8 8c-.347656 7.644531-4.570312 14.582031-11.199219 18.398437-4 3.023438-4.800781 3.914063-4.800781 5.601563s.800781 2.566406 4.800781 5.601562c6.628907 3.816406 10.851563 10.753906 11.199219 18.398438-.347656 7.644531-4.570312 14.582031-11.199219 18.398437-4.039062 3.035157-4.800781 3.929688-4.800781 5.601563s.800781 2.566406 4.800781 5.601562c6.628907 3.816406 10.851563 10.753906 11.199219 18.398438 0 4.417968-3.582031 8-8 8zm0 0"/><path d="m288 112.308594c-4.417969 0-8-3.582032-8-8 0-1.6875-.800781-2.578125-4.800781-5.601563-6.628907-3.816406-10.851563-10.753906-11.199219-18.398437.347656-7.644532 4.570312-14.582032 11.199219-18.398438 4.039062-3.035156 4.800781-3.921875 4.800781-5.601562 0-1.679688-.800781-2.578125-4.800781-5.601563-6.628907-3.816406-10.851563-10.753906-11.199219-18.398437.347656-7.644532 4.570312-14.582032 11.199219-18.398438 4-3.027344 4.800781-3.914062 4.800781-5.601562 0-4.417969 3.582031-8 8-8s8 3.582031 8 8c-.347656 7.644531-4.570312 14.582031-11.199219 18.398437-4 3.023438-4.800781 3.914063-4.800781 5.601563s.800781 2.566406 4.800781 5.601562c6.628907 3.816406 10.851563 10.753906 11.199219 18.398438-.347656 7.644531-4.570312 14.582031-11.199219 18.398437-4.039062 3.035157-4.800781 3.929688-4.800781 5.601563s.800781 2.566406 4.800781 5.601562c6.628907 3.816406 10.851563 10.753906 11.199219 18.398438 0 4.417968-3.582031 8-8 8zm0 0"/><path d="m192 112.308594c-4.417969 0-8-3.582032-8-8 0-1.6875-.800781-2.578125-4.800781-5.601563-6.628907-3.816406-10.851563-10.753906-11.199219-18.398437.347656-7.644532 4.570312-14.582032 11.199219-18.398438 4-3.035156 4.800781-3.921875 4.800781-5.601562 0-1.679688-.800781-2.578125-4.800781-5.601563-6.628907-3.816406-10.851563-10.753906-11.199219-18.398437.347656-7.644532 4.570312-14.582032 11.199219-18.398438 4-3.027344 4.800781-3.914062 4.800781-5.601562 0-4.417969 3.582031-8 8-8s8 3.582031 8 8c-.347656 7.644531-4.570312 14.582031-11.199219 18.398437-4 3.023438-4.800781 3.914063-4.800781 5.601563s.800781 2.566406 4.800781 5.601562c6.628907 3.816406 10.851563 10.753906 11.199219 18.398438-.347656 7.644531-4.570312 14.582031-11.199219 18.398437-4 3.035157-4.800781 3.929688-4.800781 5.601563s.800781 2.566406 4.800781 5.601562c6.628907 3.816406 10.851563 10.753906 11.199219 18.398438 0 4.417968-3.582031 8-8 8zm0 0"/></g></svg>