<svg height="512pt" viewBox="0 0 512 512" width="512pt" xmlns="http://www.w3.org/2000/svg"><path d="m512 256c0 141.386719-114.613281 256-256 256s-256-114.613281-256-256 114.613281-256 256-256 256 114.613281 256 256zm0 0" fill="#ed8a19"/><path d="m300.136719 256c0 24.375-19.761719 44.136719-44.136719 44.136719s-44.136719-19.761719-44.136719-44.136719 19.761719-44.136719 44.136719-44.136719 44.136719 19.761719 44.136719 44.136719zm0 0" fill="#fff"/><path d="m63.097656 203.671875c9.375-10.234375 23.308594-13.65625 35.769532-8.804687l36.628906 11.292968 83.046875 43.800782c-.324219 1.988281-.617188 3.992187-.617188 6.066406-.007812 8.316406 2.71875 15.941406 7.230469 22.199218l-126.445312 39.160157c-12.484376 4.875-26.402344 1.464843-35.753907-8.746094-6.40625-7.003906-10-16.507813-9.992187-26.429687l.0625-52.085938c.019531-9.921875 3.636718-19.4375 10.070312-26.453125zm0 0" fill="#f7e6a1"/><path d="m94.199219 130.992188 36.871093-36.855469c7.019532-7.015625 16.304688-11.203125 25.8125-11.625 13.851563-.617188 26.09375 6.804687 31.472657 19.058593l17.867187 33.90625 27.621094 89.742188c-8.015625 5.789062-13.628906 14.582031-15.28125 24.753906l-116.957031-61.6875c-12.242188-5.378906-19.660157-17.628906-19.042969-31.480468.425781-9.507813 4.609375-18.792969 11.636719-25.8125zm0 0" fill="#ebba16"/><path d="m101.4375 323.972656 33.941406-17.9375 89.785156-27.808594c5.773438 8 14.558594 13.597657 24.71875 15.230469l-61.925781 117.078125c-5.402343 12.261719-17.664062 19.703125-31.515625 19.113282-9.507812-.40625-18.773437-4.574219-25.785156-11.582032l-36.785156-36.804687c-7-7.007813-11.164063-16.285157-11.5625-25.785157-.574219-13.839843 6.867187-26.109374 19.128906-31.503906zm0 0" fill="#ebba16"/><path d="m194.542969 413.261719 11.371093-36.660157 43.96875-83.136718c1.984376.316406 3.988282.609375 6.0625.609375 8.316407-.007813 15.945313-2.753907 22.210938-7.285157l38.894531 126.378907c4.847657 12.472656 1.414063 26.394531-8.816406 35.769531-7.019531 6.433594-16.535156 10.054688-26.457031 10.0625l-52.074219.035156c-9.921875.007813-19.429687-3.59375-26.429687-10.019531-10.207032-9.359375-13.605469-23.277344-8.730469-35.753906zm0 0" fill="#f7e6a1"/><path d="m293.4375 262.039062 116.949219 61.6875c12.242187 5.375 19.65625 17.628907 19.039062 31.476563-.421875 9.507813-4.605469 18.785156-11.625 25.8125l-36.871093 36.863281c-7.019532 7.019532-16.304688 11.203125-25.8125 11.617188-13.851563.621094-26.09375-6.804688-31.472657-19.058594l-17.867187-33.90625-27.621094-89.730469c8.015625-5.808593 13.640625-14.59375 15.28125-24.761719zm0 0" fill="#ebba16"/><path d="m294.066406 255.964844c.007813-8.316406-2.722656-15.941406-7.230468-22.203125l126.445312-39.15625c12.480469-4.875 26.402344-1.464844 35.75 8.746093 6.417969 7.011719 10.019531 16.515626 10.011719 26.4375l-.0625 52.085938c-.007813 9.921875-3.636719 19.429688-10.070313 26.453125-9.375 10.234375-23.304687 13.65625-35.769531 8.804687l-36.625-11.292968-83.058594-43.800782c.308594-1.996093.609375-3.992187.609375-6.074218zm0 0" fill="#f7e6a1"/><path d="m262.109375 218.542969 61.925781-117.078125c5.402344-12.261719 17.664063-19.703125 31.511719-19.113282 9.507813.40625 18.777344 4.574219 25.789063 11.582032l36.78125 36.804687c7 7.007813 11.167968 16.285157 11.566406 25.785157.582031 13.847656-6.859375 26.109374-19.121094 31.503906l-33.941406 17.9375-89.785156 27.808594c-5.785157-8.007813-14.558594-13.605469-24.726563-15.230469zm0 0" fill="#ebba16"/><path d="m203.757812 63.074219c7.019532-6.4375 16.535157-10.054688 26.457032-10.066407l52.082031-.042968c9.921875-.007813 19.429687 3.59375 26.429687 10.019531 10.207032 9.359375 13.605469 23.277344 8.730469 35.753906l-11.371093 36.660157-43.96875 83.136718c-1.984376-.316406-3.988282-.609375-6.0625-.609375-8.316407.007813-15.945313 2.753907-22.210938 7.285157l-38.894531-126.378907c-4.855469-12.464843-1.421875-26.394531 8.808593-35.757812zm0 0" fill="#f7e6a1"/></svg>