<svg height="512pt" viewBox="0 0 512 512" width="512pt" xmlns="http://www.w3.org/2000/svg"><path d="m397.242188 132.414062h-2.78125c-14.734376-75.121093-90.765626-132.414062-182.597657-132.414062-91.835937 0-167.867187 57.292969-182.601562 132.414062h-2.777344c-14.566406 0-26.484375 11.917969-26.484375 26.484376 0 14.5625 11.917969 26.480468 26.484375 26.480468h2.777344c9.746093 49.664063 46.371093 91.410156 96.550781 114.089844l260.21875-87.007812c3.6875-8.703126 6.59375-17.722657 8.429688-27.082032h2.78125c14.566406 0 26.480468-11.917968 26.480468-26.480468 0-14.566407-11.914062-26.484376-26.480468-26.484376zm0 0" fill="#1c7f3b"/><path d="m61.800781 150.070312c-.5625 0-1.136719-.054687-1.710937-.167968-4.785156-.9375-7.902344-5.582032-6.964844-10.363282 8.457031-43.070312 45.277344-82.8125 93.800781-101.253906 4.554688-1.710937 9.65625.554688 11.386719 5.121094 1.730469 4.554688-.554688 9.65625-5.117188 11.386719-42.957031 16.3125-75.433593 50.917969-82.742187 88.144531-.820313 4.210938-4.519531 7.132812-8.652344 7.132812zm0 0" fill="#f7e6a1"/><path d="m273.65625 79.449219c-2.261719 0-4.519531-.867188-6.242188-2.585938-3.453124-3.453125-3.453124-9.03125 0-12.484375l8.828126-8.828125c3.441406-3.449219 9.039062-3.449219 12.480468 0 3.453125 3.453125 3.453125 9.03125 0 12.484375l-8.828125 8.828125c-1.71875 1.71875-3.980469 2.585938-6.238281 2.585938zm0 0" fill="#f7e6a1"/><path d="m308.964844 97.101562c-2.257813 0-4.519532-.863281-6.242188-2.585937-3.449218-3.449219-3.449218-9.027344 0-12.480469l8.828125-8.828125c3.445313-3.453125 9.039063-3.453125 12.484375 0 3.449219 3.453125 3.449219 9.03125 0 12.480469l-8.828125 8.828125c-1.722656 1.722656-3.980469 2.585937-6.242187 2.585937zm0 0" fill="#f7e6a1"/><path d="m256 123.585938c-2.261719 0-4.519531-.863282-6.242188-2.585938-3.449218-3.453125-3.449218-9.03125 0-12.484375l8.828126-8.824219c3.441406-3.453125 9.039062-3.453125 12.484374 0 3.449219 3.449219 3.449219 9.027344 0 12.480469l-8.828124 8.828125c-1.722657 1.722656-3.980469 2.585938-6.242188 2.585938zm0 0" fill="#f7e6a1"/><path d="m291.308594 141.242188c-2.257813 0-4.519532-.867188-6.238282-2.585938-3.453124-3.453125-3.453124-9.03125 0-12.484375l8.828126-8.828125c3.441406-3.449219 9.039062-3.449219 12.480468 0 3.453125 3.453125 3.453125 9.03125 0 12.484375l-8.828125 8.828125c-1.722656 1.71875-3.980469 2.585938-6.242187 2.585938zm0 0" fill="#f7e6a1"/><path d="m335.449219 132.414062c-2.261719 0-4.519531-.867187-6.242188-2.585937-3.453125-3.453125-3.453125-9.03125 0-12.484375l8.828125-8.828125c3.441406-3.449219 9.039063-3.449219 12.480469 0 3.453125 3.453125 3.453125 9.03125 0 12.484375l-8.828125 8.828125c-1.71875 1.71875-3.980469 2.585937-6.238281 2.585937zm0 0" fill="#f7e6a1"/><path d="m485.515625 326.621094h-2.777344c-14.734375-75.125-90.765625-132.414063-182.601562-132.414063-91.832031 0-167.863281 57.289063-182.597657 132.414063h-2.78125c-14.566406 0-26.480468 11.917968-26.480468 26.480468 0 14.566407 11.914062 26.484376 26.480468 26.484376h2.78125c14.734376 75.121093 90.765626 132.414062 182.597657 132.414062 91.835937 0 167.867187-57.292969 182.601562-132.414062h2.777344c14.566406 0 26.484375-11.917969 26.484375-26.484376 0-14.5625-11.917969-26.480468-26.484375-26.480468zm0 0" fill="#23a24d"/><g fill="#f7e6a1"><path d="m194.207031 45.019531c-4.476562 0-8.316406-3.398437-8.773437-7.945312-.488282-4.84375 3.054687-9.179688 7.898437-9.664063 6.117188-.617187 12.351563-.925781 18.53125-.925781 4.871094 0 8.828125 3.953125 8.828125 8.824219 0 4.875-3.957031 8.828125-8.828125 8.828125-5.597656 0-11.230469.285156-16.757812.839843-.296875.027344-.597657.042969-.898438.042969zm0 0"/><path d="m282.484375 248.054688c-4.476563 0-8.316406-3.398438-8.777344-7.945313-.484375-4.84375 3.054688-9.179687 7.902344-9.664063 6.117187-.617187 12.347656-.929687 18.527344-.929687 4.875 0 8.828125 3.957031 8.828125 8.828125 0 4.875-3.953125 8.828125-8.828125 8.828125-5.59375 0-11.226563.28125-16.753907.839844-.300781.027343-.601562.042969-.898437.042969zm0 0"/><path d="m150.078125 344.277344c-.566406 0-1.140625-.054688-1.710937-.167969-4.785157-.9375-7.902344-5.582031-6.96875-10.363281 8.457031-43.070313 45.277343-82.8125 93.804687-101.253906 4.546875-1.710938 9.65625.554687 11.386719 5.121093 1.730468 4.554688-.554688 9.65625-5.121094 11.386719-42.953125 16.3125-75.429688 50.917969-82.738281 88.144531-.824219 4.210938-4.519531 7.132813-8.652344 7.132813zm0 0"/><path d="m361.929688 273.65625c-2.257813 0-4.519532-.867188-6.238282-2.585938-3.453125-3.453124-3.453125-9.03125 0-12.484374l8.824219-8.828126c3.445313-3.449218 9.042969-3.449218 12.484375 0 3.453125 3.453126 3.453125 9.03125 0 12.484376l-8.828125 8.828124c-1.722656 1.71875-3.980469 2.585938-6.242187 2.585938zm0 0"/><path d="m397.242188 291.308594c-2.261719 0-4.519532-.863282-6.242188-2.585938-3.453125-3.449218-3.453125-9.03125 0-12.480468l8.828125-8.828126c3.441406-3.453124 9.039063-3.453124 12.480469 0 3.453125 3.453126 3.453125 9.03125 0 12.480469l-8.824219 8.828125c-1.722656 1.722656-3.984375 2.585938-6.242187 2.585938zm0 0"/><path d="m344.277344 317.792969c-2.261719 0-4.519532-.863281-6.242188-2.585938-3.453125-3.453125-3.453125-9.03125 0-12.484375l8.828125-8.824218c3.441407-3.453126 9.039063-3.453126 12.480469 0 3.453125 3.449218 3.453125 9.027343 0 12.480468l-8.828125 8.828125c-1.71875 1.722657-3.980469 2.585938-6.238281 2.585938zm0 0"/><path d="m379.585938 335.449219c-2.257813 0-4.519532-.867188-6.242188-2.585938-3.449219-3.453125-3.449219-9.03125 0-12.484375l8.828125-8.828125c3.445313-3.449219 9.039063-3.449219 12.484375 0 3.449219 3.453125 3.449219 9.03125 0 12.484375l-8.828125 8.828125c-1.722656 1.71875-3.980469 2.585938-6.242187 2.585938zm0 0"/><path d="m423.722656 326.621094c-2.257812 0-4.519531-.867188-6.238281-2.585938-3.453125-3.453125-3.453125-9.03125 0-12.484375l8.828125-8.828125c3.441406-3.449218 9.039062-3.449218 12.480469 0 3.453125 3.453125 3.453125 9.03125 0 12.484375l-8.828125 8.828125c-1.722656 1.71875-3.980469 2.585938-6.242188 2.585938zm0 0"/></g></svg>