<svg height="464pt" viewBox="-83 0 464 464" width="464pt" xmlns="http://www.w3.org/2000/svg"><path d="m122.730469 392h48v56c0 8.835938-7.164063 16-16 16h-16c-8.835938 0-16-7.164062-16-16zm0 0" fill="#55b56a"/><path d="m250.730469 208c0 100.480469-35.601563 184.320312-82.960938 203.679688-.039062.046874-.097656.074218-.160156.082031-6.609375 2.78125-13.707031 4.222656-20.878906 4.238281-5.828125 0-11.613281-.972656-17.121094-2.878906-17.359375-8.640625-36.320313-28.082032-54.640625-54.722656-19.917969-37.839844-32.238281-91.199219-32.238281-150.398438-.121094-31.070312 3.503906-62.039062 10.800781-92.238281 16.957031-68.640625 52.320312-115.761719 93.199219-115.761719 57.441406 0 104 93.121094 104 208zm0 0" fill="#fcf05a"/><path d="m298.320312 88c-20.058593 8.597656-39.371093 18.847656-57.734374 30.640625 6.839843 29.289063 10.246093 59.28125 10.144531 89.359375 0 114.871094-46.558594 208-104 208-2.738281 0-3.921875.542969-4 1.457031 35.609375 8.855469 86.398437-51.921875 123.449219-137.511719 38.628906-89.21875 32.140624-191.945312 32.140624-191.945312zm0 0" fill="#c8d952"/><g fill="#e97424"><path d="m98.730469 72h-24c-4.417969 0-8-3.582031-8-8s3.582031-8 8-8h24c4.417969 0 8 3.582031 8 8s-3.582031 8-8 8zm0 0"/><path d="m218.730469 72h-24c-4.417969 0-8-3.582031-8-8s3.582031-8 8-8h24c4.417969 0 8 3.582031 8 8s-3.582031 8-8 8zm0 0"/><path d="m154.730469 40h-16c-4.417969 0-8-3.582031-8-8s3.582031-8 8-8h16c4.417969 0 8 3.582031 8 8s-3.582031 8-8 8zm0 0"/><path d="m122.730469 104h-24c-4.417969 0-8-3.582031-8-8s3.582031-8 8-8h24c4.417969 0 8 3.582031 8 8s-3.582031 8-8 8zm0 0"/><path d="m194.730469 104h-24c-4.417969 0-8-3.582031-8-8s3.582031-8 8-8h24c4.417969 0 8 3.582031 8 8s-3.582031 8-8 8zm0 0"/><path d="m138.730469 168h-24c-4.417969 0-8-3.582031-8-8s3.582031-8 8-8h24c4.417969 0 8 3.582031 8 8s-3.582031 8-8 8zm0 0"/><path d="m210.730469 168h-24c-4.417969 0-8-3.582031-8-8s3.582031-8 8-8h24c4.417969 0 8 3.582031 8 8s-3.582031 8-8 8zm0 0"/><path d="m170.730469 200h-24c-4.417969 0-8-3.582031-8-8s3.582031-8 8-8h24c4.417969 0 8 3.582031 8 8s-3.582031 8-8 8zm0 0"/><path d="m242.730469 200h-24c-4.417969 0-8-3.582031-8-8s3.582031-8 8-8h24c4.417969 0 8 3.582031 8 8s-3.582031 8-8 8zm0 0"/><path d="m210.730469 232h-24c-4.417969 0-8-3.582031-8-8s3.582031-8 8-8h24c4.417969 0 8 3.582031 8 8s-3.582031 8-8 8zm0 0"/><path d="m242.730469 264h-24c-4.417969 0-8-3.582031-8-8s3.582031-8 8-8h24c4.417969 0 8 3.582031 8 8s-3.582031 8-8 8zm0 0"/><path d="m218.730469 296h-24c-4.417969 0-8-3.582031-8-8s3.582031-8 8-8h24c4.417969 0 8 3.582031 8 8s-3.582031 8-8 8zm0 0"/><path d="m162.730469 72h-32c-4.417969 0-8-3.582031-8-8s3.582031-8 8-8h32c4.417969 0 8 3.582031 8 8s-3.582031 8-8 8zm0 0"/><path d="m98.730469 136h-24c-4.417969 0-8-3.582031-8-8s3.582031-8 8-8h24c4.417969 0 8 3.582031 8 8s-3.582031 8-8 8zm0 0"/><path d="m218.730469 136h-24c-4.417969 0-8-3.582031-8-8s3.582031-8 8-8h24c4.417969 0 8 3.582031 8 8s-3.582031 8-8 8zm0 0"/><path d="m162.730469 136h-32c-4.417969 0-8-3.582031-8-8s3.582031-8 8-8h32c4.417969 0 8 3.582031 8 8s-3.582031 8-8 8zm0 0"/></g><path d="m167.769531 411.679688c-.039062.046874-.097656.074218-.160156.082031-2.210937 1.707031-4.628906 3.132812-7.199219 4.238281-10.164062 3.824219-21.523437 2.765625-30.800781-2.878906-17.359375-8.640625-36.320313-28.082032-54.640625-54.722656-16.609375-24.757813-30.832031-51.035157-42.480469-78.476563-38.558593-89.203125-32.078125-191.921875-32.078125-191.921875 18.394532 7.875 36.152344 17.15625 53.121094 27.761719 38.398438 23.597656 87.917969 62.398437 114.878906 116.238281 40.320313 80.71875 29.601563 156.878906-.640625 179.679688zm0 0" fill="#c8d952"/><path d="m146.730469 416c-.660157 0-1.3125-.082031-1.953125-.238281-4.242188-1.070313-6.839844-5.34375-5.832032-9.601563.234376-1.03125 13.160157-64.152344-71.054687-201.953125-2.300781-3.773437-1.109375-8.695312 2.664063-11 3.773437-2.300781 8.699218-1.109375 11 2.664063 88.71875 145.183594 73.597656 211.359375 72.925781 214.105468-.902344 3.542969-4.09375 6.023438-7.75 6.023438zm0 0" fill="#fcf05a"/></svg>