<svg height="512pt" viewBox="-31 0 512 512.00097" width="512pt" xmlns="http://www.w3.org/2000/svg"><path d="m0 91.785156c67.136719-100.082031 193.816406-121.328125 291.203125-48.832031-67.125 100.085937-193.816406 121.328125-291.203125 48.832031zm0 0" fill="#1c7f3b"/><path d="m105.886719 83.007812c-4.320313 0-8.128907-3.125-8.859375-7.527343-.796875-4.894531 2.515625-9.511719 7.414062-10.3125l217.472656-35.597657c4.941407-.789062 9.519532 2.523438 10.3125 7.410157.796876 4.898437-2.515624 9.515625-7.410156 10.3125l-217.476562 35.597656c-.484375.082031-.976563.117187-1.453125.117187zm0 0" fill="#f7e6a1"/><path d="m116.773438 333.476562s39.433593-14.195312 64.878906-8.941406c22.402344 4.628906 35.472656 17.285156 42.910156 35.3125 7.4375-18.027344 20.507812-31.851562 42.910156-36.476562 8.089844-1.671875 17.59375-27.148438 26.800782-25.96875 1.367187-7.386719 2.148437-14.984375 2.148437-22.78125 0-41.8125-8.652344-84.867188-51.890625-93.804688-25.449219-5.253906-64.882812 8.9375-64.882812 8.9375s-39.433594-14.191406-64.878907-8.9375c-43.242187 8.9375-51.890625 51.992188-51.890625 93.804688 0 7.464844.746094 14.75 2.011719 21.835937 24 .0625 51.882813 37.019531 51.882813 37.019531zm0 0" fill="#6b1e31"/><path d="m397.230469 297.589844c-25.445313-5.253906-64.878907 8.9375-64.878907 8.9375s-39.433593-14.191406-64.878906-8.9375c-22.402344 4.625-35.472656 18.449218-42.910156 36.476562 6.925781 16.769532-17.964844 37.179688-17.964844 57.328125 0 16.445313 23.738282 32.109375 17.964844 46.394531 17.605469 43.574219 59.222656 74.210938 107.789062 74.210938 64.492188 0 116.773438-53.992188 116.773438-120.605469 0-41.8125-8.652344-84.867187-51.894531-93.804687zm0 0" fill="#b02721"/><path d="m330.023438 359.300781c-11.675782 0-22.292969-4.941406-27.710938-12.910156-2.792969-4.105469-1.722656-9.691406 2.382812-12.476563 4.105469-2.785156 9.691407-1.714843 12.476563 2.382813 1.652344 2.421875 6.375 5.039063 12.851563 5.039063 6.488281 0 11.210937-2.617188 12.855468-5.050782 2.792969-4.105468 8.378906-5.171875 12.476563-2.386718 4.105469 2.792968 5.175781 8.371093 2.390625 12.476562-5.410156 7.976562-16.035156 12.925781-27.722656 12.925781zm0 0" fill="#6b1e31"/><path d="m98.808594 252.246094c-4.960938 0-8.984375-4.023438-8.984375-8.980469 0-11.992187 3.441406-23.328125 9.945312-32.769531 2.8125-4.085938 8.40625-5.128906 12.492188-2.308594 4.089843 2.8125 5.121093 8.40625 2.308593 12.496094-4.4375 6.429687-6.78125 14.234375-6.78125 22.582031 0 4.957031-4.023437 8.980469-8.980468 8.980469zm0 0" fill="#8e465a"/><path d="m118.660156 332.351562c-.667968 0-1.339844-.070312-2.011718-.222656-4.84375-1.105468-7.863282-5.929687-6.757813-10.761718 6.511719-28.492188 33.136719-124.765626 102.410156-167.335938 55.90625-34.355469 70.046875-51.386719 96.5625-100.835938 2.144531-4.007812 4.328125-8.148437 6.527344-12.40625 1.386719-2.675781 4.015625-4.480468 7.007813-4.804687 2.992187-.324219 5.957031.871094 7.878906 3.179687 2.234375 2.6875 54.640625 66.75 46.007812 150.382813-1.996094 19.339844-10.664062 40.980469-19.035156 61.917969-8.902344 22.25-18.109375 45.253906-18 62.859375.027344 4.957031-3.96875 9-8.929688 9.035156-.015624 0-.035156 0-.054687 0-4.9375 0-8.953125-3.988281-8.980469-8.925781-.125-21.128906 9.738282-45.792969 19.285156-69.644532 7.914063-19.785156 16.097657-40.238281 17.839844-57.082031 5.847656-56.671875-20.101562-104.734375-33.875-125.746093-27.828125 51.855468-43.84375 71.113281-102.828125 107.378906-63.308593 38.902344-88.183593 129.257812-94.300781 156.023437-.949219 4.167969-4.652344 6.988281-8.746094 6.988281zm0 0" fill="#f7e6a1"/><path d="m323.367188 53.894531c-4.957032 0-8.980469-4.023437-8.980469-8.980469v-17.964843c0-4.960938 4.023437-8.984375 8.980469-8.984375 4.960937 0 8.984374 4.023437 8.984374 8.984375v17.964843c0 4.957032-4.023437 8.980469-8.984374 8.980469zm0 0" fill="#f7e6a1"/><path d="m181.652344 297.589844c-25.445313-5.253906-64.878906 8.9375-64.878906 8.9375s-39.433594-14.191406-64.882813-8.9375c-43.238281 8.9375-51.890625 51.992187-51.890625 93.804687 0 66.613281 52.277344 120.605469 116.773438 120.605469 64.492187 0 116.769531-53.992188 116.769531-120.605469 0-41.8125-8.648438-84.867187-51.890625-93.804687zm0 0" fill="#dd352e"/><path d="m114.445312 359.300781c-11.675781 0-22.292968-4.941406-27.710937-12.898437-2.792969-4.105469-1.722656-9.695313 2.371094-12.480469 4.105469-2.792969 9.691406-1.730469 12.476562 2.375 1.664063 2.421875 6.386719 5.039063 12.863281 5.039063 6.484376 0 11.210938-2.617188 12.855469-5.050782 2.785157-4.105468 8.371094-5.183594 12.476563-2.386718 4.105468 2.78125 5.171875 8.371093 2.386718 12.476562-5.398437 7.976562-16.023437 12.925781-27.71875 12.925781zm0 0" fill="#b02721"/></svg>