<svg height="464pt" viewBox="0 0 464 464" width="464pt" xmlns="http://www.w3.org/2000/svg"><path d="m340.449219 176h59.550781c35.347656 0 64-28.652344 64-64h-120zm0 0" fill="#cfdfe8"/><path d="m120 112h-120c0 35.347656 28.652344 64 64 64h59.457031zm0 0" fill="#cfdfe8"/><path d="m96 152h-32c-4.417969 0-8-3.582031-8-8s3.582031-8 8-8h32c4.417969 0 8 3.582031 8 8s-3.582031 8-8 8zm0 0" fill="#5a6470"/><path d="m400 152h-32c-4.417969 0-8-3.582031-8-8s3.582031-8 8-8h32c4.417969 0 8 3.582031 8 8s-3.582031 8-8 8zm0 0" fill="#5a6470"/><path d="m64 0s9.601562 64 33.601562 88l-1.601562-32h56c-18.757812-31.597656-51.429688-52.390625-88-56zm0 0" fill="#cfdfe8"/><path d="m400 0s-9.222656 64-33.222656 88l1.222656-32h-56c18.757812-31.597656 51.429688-52.390625 88-56zm0 0" fill="#cfdfe8"/><path d="m352 360h-240l-16-304h272.425781zm0 0" fill="#aabece"/><path d="m366.777344 85.601562c-46.539063-1.082031-95.183594 41.597657-110.777344 98.398438-17.535156 63.910156 12.871094 129.976562 64 144 10.859375 2.902344 22.238281 3.292969 33.273438 1.136719zm0 0" fill="#7d8d9c"/><path d="m209.929688 184c-15.769532-57.464844-65.320313-100.390625-112.328126-98.296875l13.140626 243.097656c11.628906 2.558594 23.703124 2.28125 35.203124-.800781 51.109376-14.023438 81.519532-80.089844 63.984376-144zm0 0" fill="#7d8d9c"/><path d="m112 360h240c26.507812 0 48 21.492188 48 48v8c0 26.507812-21.492188 48-48 48h-240c-26.507812 0-48-21.492188-48-48v-8c0-26.507812 21.492188-48 48-48zm0 0" fill="#5a6470"/><path d="m160 208h-24c-4.417969 0-8-3.582031-8-8s3.582031-8 8-8h24c4.417969 0 8 3.582031 8 8s-3.582031 8-8 8zm0 0" fill="#f4f4e6"/><path d="m328 208h-24c-4.417969 0-8-3.582031-8-8s3.582031-8 8-8h24c4.417969 0 8 3.582031 8 8s-3.582031 8-8 8zm0 0" fill="#f4f4e6"/><g fill="#cfdfe8"><path d="m208 412c0 11.046875-8.953125 20-20 20s-20-8.953125-20-20 8.953125-20 20-20 20 8.953125 20 20zm0 0"/><path d="m296 412c0 11.046875-8.953125 20-20 20s-20-8.953125-20-20 8.953125-20 20-20 20 8.953125 20 20zm0 0"/></g></svg>