<svg height="511pt" viewBox="0 -4 511.99753 511" width="511pt" xmlns="http://www.w3.org/2000/svg"><path d="m389.675781 209.351562c-18.910156 0-36.484375 5.816407-51.324219 15.757813-10.988281-42.921875-48.152343-74.542969-92.441406-74.542969-52.929687 0-95.839844 45.109375-95.839844 100.769532 0 27.894531 10.785157 53.132812 28.195313 71.371093.105469-.105469.21875-.195312.316406-.300781-17.59375 18.261719-28.511719 43.617188-28.511719 71.671875 0 55.648437 42.910157 100.765625 95.839844 100.765625 52.929688 0 95.839844-45.117188 95.839844-100.765625 0 1.050781-.113281 2.0625-.148438 3.105469 14.140626 8.652344 30.523438 13.683594 48.066407 13.683594 52.9375.007812 95.847656-45.109376 95.847656-100.757813s-42.910156-100.757813-95.839844-100.757813zm0 0" fill="#1f3d32"/><g fill="#23a24d"><path d="m223.992188 142.871094c-20.65625-78.011719-87.269532-135.019532-176.992188-142.117188-13.191406 87.738282 25.960938 164.546875 95.40625 202.894532-40.773438 89.007812 139.015625-68.757813 81.585938-60.777344zm0 0"/><path d="m317.792969 256.5c16.394531-10.453125 35.824219-16.5625 56.71875-16.5625 4.863281 0 32.660156-35.960938 37.347656-35.328125 70.824219-37.929687 110.929687-115.445313 97.597656-204.109375-106.285156 8.421875-180.136719 86.851562-183.558593 187.3125 6.671874 9.726562-11.246094 56.988281-8.105469 68.6875zm0 0"/><path d="m132.414062 397.738281c0-29.492187 77.65625-56.152343 97.101563-75.351562-.113281.117187-.238281.214843-.351563.320312-16.675781-16.613281-93.394531-38.761719-96.089843-63.445312-60.175781 16.453125-110.183594 62.480469-133.074219 130.402343 45.320312 18.898438 91.3125 21.449219 132.519531 10.125-.015625-.691406-.105469-1.359374-.105469-2.050781zm0 0"/></g><path d="m96.496094 354.785156c-3.375 0-6.597656-1.941406-8.0625-5.21875-1.992188-4.449218 0-9.671875 4.441406-11.667968l62.570312-28.046876c4.441407-2.003906 9.675782-.007812 11.667969 4.441407 1.996094 4.449219 0 9.675781-4.4375 11.671875l-62.570312 28.042968c-1.175781.53125-2.402344.777344-3.609375.777344zm0 0" fill="#3d6f44"/><path d="m339.28125 223.695312c-1.695312 0-3.417969-.484374-4.925781-1.507812-4.042969-2.730469-5.113281-8.210938-2.386719-12.253906 39.144531-58.078125 86.839844-117.847656 141.761719-177.671875 3.304687-3.585938 8.890625-3.824219 12.476562-.539063 3.589844 3.300782 3.828125 8.878906.539063 12.472656-54.335938 59.179688-101.484375 118.253907-140.132813 175.605469-1.710937 2.527344-4.5 3.894531-7.332031 3.894531zm0 0" fill="#3d6f44"/><path d="m178.386719 169.511719c-2.683594 0-5.332031-1.21875-7.0625-3.523438-29.898438-39.777343-64.070313-80.675781-101.585938-121.535156-3.300781-3.59375-3.054687-9.183594.539063-12.476563 3.59375-3.308593 9.179687-3.054687 12.472656.539063 37.898438 41.289063 72.457031 82.628906 102.691406 122.871094 2.929688 3.894531 2.144532 9.429687-1.757812 12.359375-1.597656 1.191406-3.449219 1.765625-5.296875 1.765625zm0 0" fill="#3d6f44"/><path d="m344.601562 397.738281c0 58.507813-47.425781 105.933594-105.929687 105.933594s-105.929687-47.425781-105.929687-105.933594c0-58.503906 47.425781-105.929687 105.929687-105.929687s105.929687 47.425781 105.929687 105.929687zm0 0" fill="#426d5f"/><path d="m397.566406 203.535156c-57.394531 0-104.023437 45.679688-105.761718 102.664063 31.539062 18.34375 52.796874 52.425781 52.796874 91.539062 0 1.105469-.132812 2.171875-.167968 3.269531 15.636718 9.089844 33.75 14.386719 53.132812 14.386719 58.503906 0 105.933594-47.429687 105.933594-105.929687s-47.429688-105.929688-105.933594-105.929688zm0 0" fill="#2d5144"/><path d="m163.910156 322.707031c19.15625-19.085937 45.578125-30.898437 74.761719-30.898437 19.386719 0 37.5 5.296875 53.132813 14.390625 1.101562-36.238281 20.410156-67.851563 49.046874-86.105469-12.15625-45.109375-53.230468-78.355469-102.179687-78.355469-58.5 0-105.929687 47.433594-105.929687 105.933594 0 29.324219 11.914062 55.851563 31.167968 75.035156zm0 0" fill="#1f3d32"/><path d="m243.078125 362.429688c-16.605469 0-31.4375-8.5625-38.703125-22.34375-2.265625-4.316407-.617188-9.65625 3.691406-11.925782 4.316406-2.269531 9.648438-.625 11.925782 3.691406 4.140624 7.855469 13.207031 12.921876 23.085937 12.921876 9.894531 0 18.949219-5.074219 23.089844-12.929688 2.269531-4.316406 7.601562-5.976562 11.925781-3.710938 4.320312 2.269532 5.976562 7.609376 3.710938 11.929688-7.265626 13.796875-22.105469 22.367188-38.726563 22.367188zm0 0" fill="#f7e6a1"/><path d="m401.972656 274.152344c-16.605468 0-31.433594-8.5625-38.699218-22.339844-2.269532-4.316406-.617188-9.660156 3.6875-11.925781 4.320312-2.269531 9.660156-.621094 11.929687 3.6875 4.136719 7.859375 13.203125 12.925781 23.082031 12.925781 9.894532 0 18.953125-5.078125 23.09375-12.933594 2.269532-4.316406 7.601563-5.984375 11.925782-3.707031 4.316406 2.269531 5.976562 7.609375 3.707031 11.925781-7.265625 13.796875-22.105469 22.367188-38.726563 22.367188zm0 0" fill="#f7e6a1"/><path d="m243.078125 212.359375c-16.605469 0-31.4375-8.5625-38.703125-22.339844-2.265625-4.316406-.617188-9.660156 3.691406-11.925781 4.316406-2.269531 9.648438-.621094 11.925782 3.6875 4.140624 7.855469 13.207031 12.925781 23.085937 12.925781 9.894531 0 18.949219-5.078125 23.089844-12.933593 2.269531-4.316407 7.601562-5.984376 11.925781-3.707032 4.320312 2.269532 5.976562 7.609375 3.710938 11.925782-7.265626 13.796874-22.105469 22.367187-38.726563 22.367187zm0 0" fill="#f7e6a1"/></svg>