<svg height="464pt" viewBox="0 -72 464 464" width="464pt" xmlns="http://www.w3.org/2000/svg"><path d="m168 0c-35.34375 0-64 39.398438-64 88-.433594 22.960938 6.648438 45.4375 20.167969 64h87.664062c13.519531-18.5625 20.601563-41.039062 20.167969-64 0-48.601562-28.65625-88-64-88zm0 0" fill="#f9be58"/><path d="m339.832031 152c13.519531-18.5625 20.601563-41.039062 20.167969-64 0-48.601562-28.65625-88-64-88s-64 39.398438-64 88c-.433594 22.960938 6.648438 45.4375 20.167969 64zm0 0" fill="#f9be58"/><path d="m298.785156 184h-258.785156l14.96875 121.953125c.984375 8.019531 7.796875 14.046875 15.878906 14.046875h71.863282c8.082031 0 14.894531-6.027344 15.882812-14.046875l10.796875-87.953125 10.800781 87.953125c.988282 8.019531 7.800782 14.046875 15.878906 14.046875h71.859376c8.078124 0 14.890624-6.027344 15.878906-14.046875l10.800781-87.953125 10.796875 87.953125c.988281 8.019531 7.800781 14.046875 15.882812 14.046875h71.863282c8.082031 0 14.894531-6.027344 15.878906-14.046875l14.96875-121.953125zm0 0" fill="#d3843d"/><path d="m16 152h432c8.835938 0 16 7.164062 16 16s-7.164062 16-16 16h-432c-8.835938 0-16-7.164062-16-16s7.164062-16 16-16zm0 0" fill="#5a6470"/><g fill="#ffd782"><path d="m104 48c-35.34375 0-64 39.398438-64 88 .015625 5.351562.382812 10.695312 1.105469 16h125.789062c.722657-5.304688 1.089844-10.648438 1.105469-16 0-48.601562-28.65625-88-64-88zm0 0"/><path d="m232 48c-35.34375 0-64 39.398438-64 88 .015625 5.351562.382812 10.695312 1.105469 16h125.789062c.722657-5.304688 1.089844-10.648438 1.105469-16 0-48.601562-28.65625-88-64-88zm0 0"/><path d="m360 48c-35.34375 0-64 39.398438-64 88 .015625 5.351562.382812 10.695312 1.105469 16h125.789062c.722657-5.304688 1.089844-10.648438 1.105469-16 0-48.601562-28.65625-88-64-88zm0 0"/><path d="m104 248h-56c-4.417969 0-8-3.582031-8-8s3.582031-8 8-8h56c4.417969 0 8 3.582031 8 8s-3.582031 8-8 8zm0 0"/><path d="m128 280h-72c-4.417969 0-8-3.582031-8-8s3.582031-8 8-8h72c4.417969 0 8 3.582031 8 8s-3.582031 8-8 8zm0 0"/><path d="m408 264h-56c-4.417969 0-8-3.582031-8-8s3.582031-8 8-8h56c4.417969 0 8 3.582031 8 8s-3.582031 8-8 8zm0 0"/><path d="m408 296h-72c-4.417969 0-8-3.582031-8-8s3.582031-8 8-8h72c4.417969 0 8 3.582031 8 8s-3.582031 8-8 8zm0 0"/></g><path d="m72 128c-4.417969 0-8-3.582031-8-8 0-37.335938 28.265625-47.199219 29.472656-47.59375 4.195313-1.414062 8.746094.839844 10.164063 5.039062 1.414062 4.195313-.839844 8.746094-5.035157 10.164063-.90625.277344-18.601562 7-18.601562 32.390625 0 4.417969-3.582031 8-8 8zm0 0" fill="#d3843d"/><path d="m200 128c-4.417969 0-8-3.582031-8-8 0-37.335938 28.265625-47.199219 29.472656-47.59375 4.195313-1.414062 8.746094.839844 10.164063 5.039062 1.414062 4.195313-.839844 8.746094-5.035157 10.164063-.90625.277344-18.601562 7-18.601562 32.390625 0 4.417969-3.582031 8-8 8zm0 0" fill="#d3843d"/><path d="m328 128c-4.417969 0-8-3.582031-8-8 0-37.335938 28.265625-47.199219 29.472656-47.59375 4.195313-1.414062 8.746094.839844 10.164063 5.039062 1.414062 4.195313-.839844 8.746094-5.035157 10.164063-.90625.277344-18.601562 7-18.601562 32.390625 0 4.417969-3.582031 8-8 8zm0 0" fill="#d3843d"/></svg>