<svg height="512pt" viewBox="0 -14 512.00125 512" width="512pt" xmlns="http://www.w3.org/2000/svg"><path d="m.105469 17.761719 33.210937-.105469c64.6875-.195312 118.164063 47.359375 127.566406 109.382812-7.671874 11.070313 10.0625 44.835938 6.84375 58.339844l-26.484374 8.828125c-15.765626-.050781-42.867188-27.207031-56.839844-22.066406-49.339844-18.152344-84.570313-65.492187-84.402344-121.167969zm0 0" fill="#61b872"/><path d="m430.714844 153.34375c-7.882813-2.0625-33.765625 23.210938-42.300782 23.210938-17.195312 0-30.128906-7.839844-44.136718 0v-8.828126c-2.066406-8.097656 8.996094-21.097656 5.25-28.371093l-.023438-10.171875c-.222656-71.433594 57.75-129.402344 129.179688-129.183594l33.210937.105469.105469 33.210937c.167969 54.5-33.570312 101.066406-81.285156 120.027344zm0 0" fill="#3d6f44"/><g fill="#61b872"><path d="m356.378906 164.449219c-2.257812 0-4.519531-.863281-6.242187-2.585938-3.449219-3.449219-3.449219-9.03125 0-12.480469l111.484375-111.484374c3.453125-3.453126 9.03125-3.453126 12.484375 0 3.449219 3.453124 3.449219 9.03125 0 12.480468l-111.484375 111.484375c-1.730469 1.730469-3.980469 2.585938-6.242188 2.585938zm0 0"/><path d="m459.035156 97.105469h-35.308594c-4.875 0-8.828124-3.957031-8.828124-8.828125 0-4.875 3.953124-8.828125 8.828124-8.828125h35.308594c4.871094 0 8.828125 3.953125 8.828125 8.828125 0 4.871094-3.957031 8.828125-8.828125 8.828125zm0 0"/><path d="m423.726562 97.105469c-4.875 0-8.828124-3.957031-8.828124-8.828125v-35.3125c0-4.871094 3.953124-8.824219 8.828124-8.824219 4.871094 0 8.824219 3.953125 8.824219 8.824219v35.3125c0 4.871094-3.953125 8.828125-8.824219 8.828125zm0 0"/><path d="m423.726562 132.414062h-35.3125c-4.871093 0-8.828124-3.953124-8.828124-8.828124 0-4.871094 3.957031-8.824219 8.828124-8.824219h35.3125c4.871094 0 8.824219 3.953125 8.824219 8.824219 0 4.875-3.953125 8.828124-8.824219 8.828124zm0 0"/><path d="m388.414062 132.414062c-4.871093 0-8.828124-3.953124-8.828124-8.828124v-35.308594c0-4.875 3.957031-8.828125 8.828124-8.828125 4.875 0 8.828126 3.953125 8.828126 8.828125v35.308594c0 4.875-3.953126 8.828124-8.828126 8.828124zm0 0"/></g><path d="m485.519531 246c0-50.433594-40.574219-91.3125-90.632812-91.3125-16.171875 0-31.332031 4.316406-44.476563 11.800781-11.304687-44.929687-51.597656-78.210937-99.707031-78.210937-56.875 0-102.992187 46.460937-102.992187 103.757812 0 12.890625 2.445312 25.1875 6.710937 36.574219-23.933594 16.4375-39.664063 44.109375-39.664063 75.492187 0 50.433594 40.574219 91.3125 90.632813 91.3125 15.890625 0 30.808594-4.148437 43.796875-11.386718 2.839844 11.8125 8.015625 23.136718 15.578125 33.148437 24.9375 32.96875 65.941406 43.429688 101.183594 31.550781 4.890625-1.652343 10.28125-.214843 13.929687 3.46875l15.007813 15.667969v-22.644531h24.714843v-24.902344h22.429688l-15.5625-15.085937c-3.652344-3.6875-5.058594-9.136719-3.414062-14.085938 6.265624-18.910156 6.089843-39.425781-.238282-58.308593 36.378906-11.871094 62.703125-46.238282 62.703125-86.835938zm0 0" fill="#466aaa"/><path d="m129.183594 164.125 15.164062.042969c-1.957031 8.234375 23.378906 21.203125 23.378906 30.039062 0 13.710938 4.253907 23.199219 8.824219 35.3125-24.433593 16.648438-68.878906 43.34375-70.378906 74.769531-20.753906 14.148438-45.824219 22.414063-72.855469 22.332032l-33.210937-.105469-.105469-33.210937c-.21875-71.429688 57.75-129.402344 129.183594-129.179688zm0 0" fill="#25ae88"/><path d="m439.921875 416.511719 16.667969 16.042969h-24.039063v26.480468h-26.480469v24.082032l-16.085937-16.667969c-3.910156-3.910157-9.683594-5.4375-14.925781-3.6875-37.757813 12.632812-81.691406 1.507812-108.402344-33.554688-26.484375-34.753906-25.890625-84.390625 1.304688-118.589843 36.804687-46.265626 104.351562-49.109376 144.933593-8.527344 26.90625 26.90625 34.648438 65.640625 23.355469 99.433594-1.746094 5.269531-.253906 11.070312 3.671875 14.988281zm0 0" fill="#466aaa"/><path d="m203.035156 211.863281c45.664063 0 83.851563 31.558594 94.226563 74.019531-10.894531 6.027344-20.921875 14.203126-29.300781 24.734376-18.871094 23.730468-24.902344 54.871093-18.007813 83.339843-13.902344 7.707031-29.890625 12.113281-46.917969 12.113281-53.628906 0-97.101562-43.476562-97.101562-97.105468 0-53.625 43.472656-97.101563 97.101562-97.101563zm0 0" fill="#2e5387"/><path d="m412.894531 302.097656c-26.703125-26.703125-65.042969-34.46875-98.660156-23.578125-3.363281-9.84375-5.269531-20.363281-5.269531-31.347656 0-53.625 43.476562-97.101563 97.105468-97.101563 53.625 0 97.101563 43.476563 97.101563 97.101563 0 43.175781-28.203125 79.734375-67.175781 92.355469-4.617188-13.664063-12.210938-26.535156-23.101563-37.429688zm0 0" fill="#2e5387"/><path d="m44.136719 291.3125c-2.257813 0-4.519531-.867188-6.238281-2.585938-3.453126-3.453124-3.453126-9.03125 0-12.484374l97.101562-97.101563c3.453125-3.453125 9.03125-3.453125 12.484375 0 3.449219 3.449219 3.449219 9.03125 0 12.480469l-97.105469 97.105468c-1.71875 1.71875-3.980468 2.585938-6.242187 2.585938zm0 0" fill="#6bddb9"/><path d="m88.277344 247.171875h-35.3125c-4.871094 0-8.828125-3.953125-8.828125-8.824219 0-4.875 3.957031-8.828125 8.828125-8.828125h35.3125c4.871094 0 8.828125 3.953125 8.828125 8.828125 0 4.871094-3.957031 8.824219-8.828125 8.824219zm0 0" fill="#6bddb9"/><path d="m88.277344 282.484375c-4.875 0-8.828125-3.957031-8.828125-8.828125v-35.308594c0-4.875 3.953125-8.828125 8.828125-8.828125 4.871094 0 8.828125 3.953125 8.828125 8.828125v35.308594c0 4.871094-3.957031 8.828125-8.828125 8.828125zm0 0" fill="#6bddb9"/><path d="m123.585938 211.863281h-35.308594c-4.875 0-8.828125-3.953125-8.828125-8.828125 0-4.871094 3.953125-8.828125 8.828125-8.828125h35.308594c4.875 0 8.828124 3.957031 8.828124 8.828125 0 4.875-3.953124 8.828125-8.828124 8.828125zm0 0" fill="#6bddb9"/><path d="m144.78125 171.265625c-2.257812 0-4.519531-.867187-6.242188-2.585937l-100.640624-100.644532c-3.453126-3.453125-3.453126-9.03125 0-12.480468 3.449218-3.453126 9.03125-3.453126 12.480468 0l100.644532 100.640624c3.449218 3.453126 3.449218 9.03125 0 12.484376-1.722657 1.730468-3.980469 2.585937-6.242188 2.585937zm0 0" fill="#3d6f44"/><path d="m88.277344 114.761719h-35.3125c-4.871094 0-8.828125-3.957031-8.828125-8.828125 0-4.875 3.957031-8.828125 8.828125-8.828125h35.3125c4.871094 0 8.828125 3.953125 8.828125 8.828125 0 4.871094-3.957031 8.828125-8.828125 8.828125zm0 0" fill="#3d6f44"/><path d="m88.277344 114.761719c-4.875 0-8.828125-3.957031-8.828125-8.828125v-35.3125c0-4.871094 3.953125-8.828125 8.828125-8.828125 4.871094 0 8.828125 3.957031 8.828125 8.828125v35.3125c0 4.871094-3.957031 8.828125-8.828125 8.828125zm0 0" fill="#3d6f44"/><path d="m123.585938 150.070312h-35.308594c-4.875 0-8.828125-3.953124-8.828125-8.828124 0-4.871094 3.953125-8.828126 8.828125-8.828126h35.308594c4.875 0 8.828124 3.957032 8.828124 8.828126 0 4.875-3.953124 8.828124-8.828124 8.828124zm0 0" fill="#3d6f44"/><path d="m123.585938 150.070312c-4.871094 0-8.828126-3.953124-8.828126-8.828124v-35.308594c0-4.875 3.957032-8.828125 8.828126-8.828125 4.875 0 8.828124 3.953125 8.828124 8.828125v35.308594c0 4.875-3.953124 8.828124-8.828124 8.828124zm0 0" fill="#3d6f44"/><path d="m433.601562 196.40625-10.503906-1.949219c-8.421875-1.5625-16.4375 4.253907-17.550781 12.753907l-1.394531 10.59375-5.09375 9.382812c-4.085938 7.53125-1.03125 16.949219 6.703125 20.628906l9.636719 4.601563 7.355468 7.75c5.898438 6.214843 15.800782 6.214843 21.699219 0l7.351563-7.75 9.640624-4.601563c7.734376-3.6875 10.796876-13.097656 6.699219-20.628906l-5.09375-9.382812-1.394531-10.59375c-1.121094-8.492188-9.128906-14.308594-17.546875-12.753907zm0 0" fill="#1f436d"/><path d="m336.5 319.992188-10.503906-1.949219c-8.421875-1.5625-16.4375 4.253906-17.550782 12.753906l-1.394531 10.59375-5.09375 9.382813c-4.085937 7.53125-1.03125 16.949218 6.699219 20.628906l9.640625 4.601562 7.351563 7.75c5.898437 6.214844 15.804687 6.214844 21.699218 0l7.355469-7.75 9.636719-4.601562c7.734375-3.6875 10.796875-13.097656 6.703125-20.628906l-5.09375-9.382813-1.394531-10.59375c-1.121094-8.492187-9.128907-14.308594-17.550782-12.753906zm0 0" fill="#1f436d"/><path d="m177.601562 293.507812-10.503906-1.949218c-8.421875-1.5625-16.4375 4.253906-17.550781 12.757812l-1.394531 10.589844-5.09375 9.386719c-4.085938 7.527343-1.03125 16.949219 6.703125 20.628906l9.636719 4.597656 7.355468 7.75c5.898438 6.214844 15.800782 6.214844 21.699219 0l7.351563-7.75 9.640624-4.597656c7.734376-3.691406 10.796876-13.101563 6.699219-20.628906l-5.09375-9.386719-1.394531-10.589844c-1.121094-8.492187-9.128906-14.3125-17.546875-12.757812zm0 0" fill="#1f436d"/><path d="m251.585938 79.449219c51.546874 0 94.710937 35.398437 106.832031 83.171875-29.5 16.660156-49.453125 48.253906-49.453125 84.550781 0 10.984375 1.90625 21.503906 5.269531 31.347656-5.832031 1.890625-11.507813 4.34375-16.972656 7.363281-10.375-42.460937-48.5625-74.019531-94.226563-74.019531-20.25 0-39.042968 6.214844-54.609375 16.824219-4.570312-12.109375-7.183593-25.183594-7.183593-38.894531 0-60.933594 49.40625-110.34375 110.34375-110.34375zm0 0" fill="#466aaa"/><path d="m230.566406 125.785156-10.503906-1.949218c-8.421875-1.5625-16.4375 4.253906-17.546875 12.753906l-1.394531 10.59375-5.09375 9.382812c-4.089844 7.53125-1.035156 16.949219 6.699218 20.632813l9.640626 4.597656 7.351562 7.75c5.898438 6.214844 15.800781 6.214844 21.699219 0l7.351562-7.75 9.640625-4.597656c7.734375-3.691407 10.796875-13.101563 6.699219-20.632813l-5.09375-9.382812-1.394531-10.59375c-1.121094-8.492188-9.125-14.308594-17.546875-12.753906zm0 0" fill="#1f436d"/></svg>