<svg height="511pt" viewBox="0 0 511.99021 511" width="511pt" xmlns="http://www.w3.org/2000/svg"><path d="m128.046875 43.152344 61.269531 27.960937c3.078125.960938 5.082032 3.933594 4.816406 7.15625l-16.195312 62.421875c1.925781 4.785156 3.425781 9.789063 4.335938 14.996094 1.851562-.144531 3.714843-.285156 5.601562-.285156 8.375 0 16.40625 1.429687 23.925781 3.964844l15.90625-76.269532c.371094-4.40625 4.710938-7.328125 8.929688-6.011718l36.953125 7.28125c7.730468-9.074219 16.089844-13.253907 16.089844-13.253907s-10.449219-7-7.238282-20.972656l-21.632812.46875c-31.921875 1.863281-63.675782-5.914063-91.121094-22.308594l-28.480469-18.96875s-7.078125 0-8.824219 0c-8.136718 0-7.125 9.011719-8.828124 17.652344-1.773438 8.992187-4.261719 13.433594 4.492187 16.167969zm0 0" fill="#6c4127"/><path d="m353.019531 234.292969c0-4.359375-.453125-8.601563-1.203125-12.742188l-37.507812-16.257812h-18.65625l-16.386719-24.851563c-10.53125-11.824218-24.070313 2.242188-29.515625-7.609375-2.273438 1.28125-4.550781 2.550781-6.652344 4.070313-12.65625-13.132813-30.308594-21.3125-49.875-21.3125-1.753906 0-3.476562.132812-5.207031.265625-5.707031-33.089844-34.1875-58.265625-68.546875-58.265625-38.46875 0-69.65625 31.53125-69.65625 70.425781 0 11.632813 2.832031 22.574219 7.773438 32.238281-28.269532 8.976563-48.761719 35.65625-48.761719 67.179688 0 19.441406 7.8125 37.023437 20.414062 49.75-.015625-.019532-.035156-.027344-.042969-.042969-12.578124 12.734375-20.371093 30.296875-20.371093 49.710937 0 18.597657 7.183593 35.460938 18.835937 48.054688-1.546875 5.824219-2.445312 11.914062-2.445312 18.234375 0 38.894531 31.1875 70.425781 69.660156 70.425781 21.761719 0 41.1875-10.105468 53.957031-25.910156 3.777344.644531 7.644531 1.058594 11.605469 1.058594 38.46875 0 69.660156-31.53125 69.660156-70.425782 0-1.492187-.160156-2.929687-.257812-4.394531 1.449218.085938 2.878906.253907 4.351562.253907 38.472656 0 69.660156-31.53125 69.660156-70.425782 0-10.890625-2.515624-21.15625-6.875-30.359375 31.949219-6.410156 56.042969-34.886719 56.042969-69.070312zm0 0" fill="#7fa24d"/><path d="m273.589844 216.730469c0 41.429687-33.585938 75.015625-75.015625 75.015625-41.433594 0-75.019531-33.585938-75.019531-75.015625 0-41.429688 33.585937-75.015625 75.019531-75.015625 41.429687 0 75.015625 33.585937 75.015625 75.015625zm0 0" fill="#7fa24d"/><path d="m123.554688 216.730469c0-39.535157 30.609374-71.855469 69.414062-74.734375-6.152344-35.238282-36.820312-62.058594-73.824219-62.058594-41.425781 0-75.015625 33.589844-75.015625 75.015625s33.589844 75.015625 75.015625 75.015625c1.886719 0 3.75-.140625 5.601563-.28125-.730469-4.21875-1.191406-8.527344-1.191406-12.957031zm0 0" fill="#a8da64"/><path d="m198.574219 291.746094c-32.910157 0-60.800781-21.222656-70.914063-50.699219-32.742187 8.066406-57.054687 37.535156-57.054687 72.765625 0 41.425781 33.585937 75.015625 75.015625 75.015625 41.425781 0 75.015625-33.589844 75.015625-75.015625 0-8.527344-1.492188-16.679688-4.105469-24.316406-5.761719 1.421875-11.753906 2.25-17.957031 2.25zm0 0" fill="#d0e8ac"/><path d="m310.3125 299.117188c-4.738281.9375-9.636719 1.457031-14.660156 1.457031-21.066406 0-40.085938-8.71875-53.710938-22.707031-8.359375 5.9375-18.03125 10.058593-28.425781 12.195312.996094-.203125 2.027344-.328125 3.007813-.566406 2.621093 7.636718 4.113281 15.789062 4.113281 24.316406 0 27.367188-14.703125 51.238281-36.589844 64.335938 13.742187 17.246093 34.886719 28.332031 58.652344 28.332031 41.425781 0 75.015625-33.589844 75.015625-75.019531 0-11.59375-2.707032-22.539063-7.402344-32.34375zm0 0" fill="#a8da64"/><path d="m70.605469 313.8125c0-35.230469 24.3125-64.710938 57.054687-72.765625.042969.132813.113282.246094.160156.378906-1.324218-3.785156-2.375-7.707031-3.082031-11.746093v.007812c-1.851562.140625-3.714843.28125-5.601562.28125-29.046875 0-54.179688-16.539062-66.652344-40.675781-30.410156 9.566406-52.484375 37.984375-52.484375 71.566406 0 41.054687 32.988281 74.355469 73.894531 74.964844-2.125-6.964844-3.289062-14.351563-3.289062-22.011719zm0 0" fill="#7fa24d"/><path d="m89.71875 425.605469c-.0625-.300781-.078125-.609375-.140625-.910157-.386719-2.074218-.730469-4.167968-.945313-6.292968-.246093-2.472656-.378906-4.976563-.378906-7.511719 0-13.386719 3.644532-25.867187 9.804688-36.730469.308594-.546875.546875-1.148437.875-1.695312-12.125-9.664063-21.09375-23.023438-25.417969-38.347656.160156.558593.222656 1.148437.390625 1.707031-20.300781-.300781-38.632812-8.660157-51.964844-22.011719-13.546875 13.554688-21.941406 32.265625-21.941406 52.953125 0 41.425781 33.589844 75.015625 75.015625 75.015625 6.523437 0 12.816406-.917969 18.84375-2.480469-1.792969-4.378906-3.195313-8.949219-4.140625-13.695312zm0 0" fill="#a8da64"/><path d="m93.859375 439.300781c-6.027344 1.5625-12.320313 2.480469-18.84375 2.480469-21.621094 0-41.046875-9.195312-54.734375-23.828125-1.660156 6.203125-2.628906 12.691406-2.628906 19.414063 0 41.425781 33.589844 75.015624 75.015625 75.015624 23.441406 0 44.355469-10.757812 58.105469-27.59375-25.867188-4.351562-47.234376-21.871093-56.914063-45.488281zm0 0" fill="#d0e8ac"/><path d="m112.59375 344.664062c-2.847656 0-5.636719-1.375-7.339844-3.917968-5.351562-7.984375-8.175781-17.304688-8.175781-26.933594 0-4.871094 3.957031-8.828125 8.828125-8.828125s8.824219 3.957031 8.824219 8.828125c0 6.125 1.792969 12.035156 5.191406 17.113281 2.707031 4.050781 1.621094 9.53125-2.429687 12.238281-1.507813 1.015626-3.210938 1.5-4.898438 1.5zm0 0" fill="#7fa24d"/><path d="m196.304688 265.273438c-4.871094 0-8.824219-3.957032-8.824219-8.828126 0-4.871093 3.953125-8.824218 8.824219-8.824218 6.125 0 12.046874-1.800782 17.113281-5.191406 4.050781-2.714844 9.53125-1.621094 12.238281 2.417968 2.710938 4.054688 1.632812 9.535156-2.417969 12.25-7.984375 5.351563-17.304687 8.175782-26.933593 8.175782zm0 0" fill="#d0e8ac"/><path d="m236.019531 238.796875c-.707031 0-1.429687-.082031-2.144531-.265625-4.730469-1.183594-7.609375-5.976562-6.425781-10.707031.070312-.289063.167969-.589844.273437-.882813.777344-2.195312 1.289063-4.492187 1.554688-6.804687.121094-1.121094.183594-2.257813.183594-3.414063 0-4.871094 3.953124-8.824218 8.828124-8.824218 4.871094 0 8.824219 3.953124 8.824219 8.824218 0 1.808594-.097656 3.59375-.292969 5.347656-.40625 3.671876-1.234374 7.300782-2.460937 10.785157v.007812c-1.253906 3.59375-4.632813 5.933594-8.339844 5.933594zm0 0" fill="#d0e8ac"/><path d="m242.699219 380.003906c-4.871094 0-8.824219-3.957031-8.824219-8.828125 0-4.871093 3.953125-8.824219 8.824219-8.824219 17.035156 0 30.890625-13.855468 30.890625-30.890624 0-4.871094 3.953125-8.824219 8.824218-8.824219 4.871094 0 8.824219 3.953125 8.824219 8.824219 0 26.769531-21.769531 48.542968-48.539062 48.542968zm0 0" fill="#7fa24d"/><path d="m35.699219 274.777344c-4.402344 0-8.207031-3.292969-8.753907-7.765625-1.785156-14.820313 3.335938-29.9375 13.703126-40.441407 3.425781-3.476562 9.011718-3.503906 12.480468-.078124 3.46875 3.425781 3.503906 9.011718.078125 12.480468-6.617187 6.707032-9.890625 16.398438-8.734375 25.917969.582032 4.839844-2.871094 9.234375-7.707031 9.816406-.359375.050781-.714844.070313-1.066406.070313zm0 0" fill="#d0e8ac"/><path d="m166.007812 459.300781c-4.554687 0-8.421874-3.503906-8.792968-8.121093-.386719-4.855469 3.242187-9.109376 8.09375-9.503907 7.449218-.59375 14.519531-3.804687 19.886718-9.03125 3.492188-3.394531 9.078126-3.316406 12.476563.179688 3.398437 3.492187 3.328125 9.082031-.167969 12.476562-8.3125 8.09375-19.246094 13.054688-30.792968 13.972657-.238282.015624-.476563.027343-.703126.027343zm0 0"/><path d="m50.066406 406.503906c-1.921875 0-3.855468-.632812-5.480468-1.941406-4.324219-3.484375-14.492188-16.46875-16.625-19.652344-2.710938-4.050781-1.625-9.53125 2.425781-12.242187 4.050781-2.707031 9.53125-1.625 12.238281 2.425781 2.296875 3.425781 11 14.035156 13.046875 15.738281 3.730469 3.097657 4.304687 8.65625 1.234375 12.417969-1.746094 2.132812-4.28125 3.253906-6.839844 3.253906zm0 0" fill="#7fa24d"/><path d="m328.988281 194.667969h-20.097656l-17.652344-26.476563c-11.339843-12.601562-25.917969 2.390625-31.789062-8.101562-2.441407 1.359375-4.898438 2.71875-7.164063 4.332031 13.167969 13.511719 21.304688 31.949219 21.304688 52.308594 0 25.25-12.515625 47.542969-31.648438 61.136719 13.625 13.988281 32.636719 22.707031 53.710938 22.707031 41.425781 0 75.015625-33.589844 75.015625-75.015625 0-4.644532.8125-17.652344 0-22.066406zm0 0" fill="#d0e8ac"/><path d="m184.046875 378.15625c.371094-.21875.695313-.5 1.066406-.730469-11.472656 7.167969-24.957031 11.410157-39.492187 11.410157-17.667969 0-33.875-6.140626-46.6875-16.363282-6.734375 11.253906-10.679688 24.359375-10.679688 38.429688 0 41.425781 33.589844 75.015625 75.015625 75.015625 41.429688 0 75.019531-33.589844 75.019531-75.015625 0-1.589844-.179687-3.125-.273437-4.6875-21.835937-1.367188-41.144531-11.96875-53.96875-28.058594zm0 0" fill="#7fa24d"/><path d="m269.007812 75.734375c-15.628906 12.101563-47.207031 48.734375 15.65625 118.722656.125.140625.257813.28125.390626.414063l19.230468 19.230468c3.644532 3.644532 9.714844 3.042969 12.574219-1.246093l8.351563-12.523438c2.1875-3.273437 6.398437-4.527343 10.015624-2.980469l49.28125 21.117188c3.617188 1.554688 7.835938.300781 10.015626-2.980469l11.527343-17.289062c1.457031-2.191407 3.828125-3.53125 6.460938-3.628907 13.679687-.503906 58.875-3.589843 95.277343-22.714843 3.753907-1.96875 5.199219-6.621094 3.488282-10.496094l-30.441406-68.484375c-1.136719-2.558594-.882813-5.523438.671874-7.855469l9.222657-13.828125c2.992187-4.484375.898437-10.582031-4.21875-12.285156l-59.121094-19.707031c-5.109375-1.703125-7.203125-7.800781-4.21875-12.285157l5.179687-7.765624c3.203126-4.800782.601563-11.394532-5.054687-12.523438-24.199219-4.820312-91.796875-15.367188-129.613281 11.542969-30.703125 21.84375-27.453125 39.21875-22.882813 47.066406 2.074219 3.546875 1.464844 7.976563-1.792969 10.5zm0 0" fill="#23a24d"/><g fill="#198239"><path d="m478.277344 159.367188c-2.207032 0-4.414063-.820313-6.117188-2.472657-71.300781-68.652343-195.410156-76.894531-196.65625-76.976562-4.863281-.289063-8.570312-4.472657-8.277344-9.34375.289063-4.863281 4.449219-8.632813 9.34375-8.277344 5.351563.324219 131.90625 8.753906 207.839844 81.878906 3.515625 3.382813 3.621094 8.96875.238282 12.480469-1.738282 1.808594-4.050782 2.710938-6.371094 2.710938zm0 0"/><path d="m452.542969 97.597656c-1.101563 0-2.222657-.210937-3.308594-.652344-30.847656-12.5-80.402344.226563-80.894531.359376-4.703125 1.238281-9.539063-1.585938-10.777344-6.292969-1.234375-4.710938 1.582031-9.539063 6.292969-10.773438 2.257812-.59375 55.699219-14.359375 92.015625.359375 4.519531 1.835938 6.699218 6.980469 4.863281 11.492188-1.40625 3.425781-4.707031 5.5-8.191406 5.507812zm0 0"/><path d="m364.296875 168.191406c-.273437 0-.546875-.007812-.828125-.035156-4.855469-.449219-8.421875-4.746094-7.96875-9.601562 1.859375-20.015626-14.539062-59.121094-21.007812-72.5-2.117188-4.386719-.28125-9.664063 4.105468-11.792969 4.394532-2.117188 9.664063-.28125 11.789063 4.105469 1.042969 2.144531 25.382812 52.871093 22.691406 81.828124-.433594 4.5625-4.269531 7.996094-8.78125 7.996094zm0 0"/><path d="m332.808594 88.699219c-1.472656 0-2.957032-.367188-4.324219-1.144531-4.191406-2.394532-5.730469-7.652344-3.398437-11.878907.566406-1.035156 14.480468-25.425781 63.214843-39.523437 4.6875-1.347656 9.578125 1.34375 10.9375 6.03125 1.347657 4.683594-1.34375 9.574218-6.027343 10.925781-40.96875 11.84375-52.609376 30.992187-52.726563 31.1875-1.640625 2.816406-4.621094 4.402344-7.675781 4.402344zm0 0"/><path d="m320.160156 177.015625c-4.871094 0-8.824218-3.953125-8.824218-8.824219 0-38.523437-17.148438-90.679687-17.324219-91.203125-1.535157-4.625.96875-9.617187 5.59375-11.152343 4.617187-1.519532 9.621093.960937 11.15625 5.59375.742187 2.242187 18.226562 55.363281 18.226562 96.761718 0 4.871094-3.957031 8.824219-8.828125 8.824219zm0 0"/><path d="m408.425781 159.367188c-.132812 0-.257812 0-.390625-.011719-4.871094-.210938-8.648437-4.324219-8.4375-9.195313.558594-12.894531-14.824218-37.964844-24.648437-50.746094-2.972657-3.863281-2.25-9.398437 1.617187-12.371093 3.863282-2.957031 9.398438-2.242188 12.371094 1.605469 3 3.898437 29.320312 38.777343 28.304688 62.28125-.214844 4.730468-4.121094 8.4375-8.816407 8.4375zm0 0"/><path d="m276.035156 79.9375c-2.226562 0-4.457031-.839844-6.179687-2.523438-3.484375-3.40625-3.539063-9.003906-.132813-12.480468 4.6875-4.78125 46.679688-46.773438 76.914063-46.773438 4.871093 0 8.824219 3.953125 8.824219 8.824219s-3.953126 8.824219-8.824219 8.824219c-17.253907 0-48.59375 25.445312-64.292969 41.480468-1.738281 1.765626-4.023438 2.648438-6.308594 2.648438zm0 0"/></g><path d="m166.007812 459.300781c-4.554687 0-8.421874-3.503906-8.792968-8.121093-.386719-4.855469 3.242187-9.109376 8.09375-9.503907 7.449218-.59375 14.519531-3.804687 19.886718-9.03125 3.492188-3.394531 9.078126-3.316406 12.476563.179688 3.398437 3.492187 3.328125 9.082031-.167969 12.476562-8.3125 8.09375-19.246094 13.054688-30.792968 13.972657-.238282.015624-.476563.027343-.703126.027343zm0 0" fill="#d0e8ac"/></svg>