<svg height="511pt" viewBox="0 -16 511.9995 511" width="511pt" xmlns="http://www.w3.org/2000/svg"><path d="m380.207031 279.386719c2.621094 1.460937 5.195313 2.996093 7.65625 4.699219 4.304688-11.605469 6.773438-24.117188 6.773438-37.253907 0-58.375-46.558594-105.691406-103.980469-105.691406-48.570312 0-89.246094 33.902344-100.671875 79.65625.222656.125.429687.296875.652344.421875-13.433594-7.898438-29.019531-12.441406-45.660157-12.441406-50.539062.015625-91.5 41.65625-91.5 93.023437 0 49.035157 37.359376 89.113281 84.710938 92.664063 0-.011719 0-.011719 0-.019532 7.691406 43.457032 44.996094 76.46875 89.96875 76.46875 25.558594 0 48.644531-10.679687 65.246094-27.851562-.019532.015625-.027344.035156-.042969.042969 12.804687 6.933593 27.402344 10.890625 42.929687 10.890625 50.53125 0 91.5-41.636719 91.5-93.007813 0-35.183593-19.230468-65.800781-47.582031-81.601562zm0 0" fill="#b02721"/><path d="m510.539062 249.761719c2.257813-3.269531 1.863282-7.6875-.941406-10.515625l-14.804687-14.863282c-1.871094-1.882812-2.738281-4.503906-2.300781-7.121093 2.238281-13.636719 8.210937-58.992188-3.4375-98.855469-1.203126-4.101562-5.519532-6.46875-9.6875-5.542969l-73.882813 16.441407c-2.765625.617187-5.644531-.230469-7.640625-2.226563l-11.84375-11.890625c-3.839844-3.859375-10.292969-3.003906-13.003906 1.722656l-20.085938 34.996094c29.132813 20.082031-14.242187 53.660156-14.242187 91.734375 0 13.839844-2.636719 27.03125-7.253907 39.257813 0 .027343-.011718.0625-.019531.089843 24.492188 16.746094 103.402344 44.320313 105.039063 75.816407v.007812c9.234375-3.609375 19.3125-8.492188 30.367187-15.007812.160157-.097657.328125-.203126.488281-.300782l22.886719-15.195312c4.339844-2.878906 4.957031-9.011719 1.285157-12.703125l-10.730469-10.765625c-2.808594-2.816406-3.210938-7.234375-.945313-10.515625zm0 0" fill="#3d6f44"/><path d="m44.054688 231.921875c4.796874 2.796875 9.386718 5.265625 13.832031 7.496094 2.175781-2.65625 4.5-5.179688 6.953125-7.59375 30.300781-29.902344 93.488281 30.816406 130.917968 51.921875.101563-.144532.214844-.277344.324219-.429688 6.550781-25.335937 7.769531-114.707031 28.304688-129.699218 1.371093-36.433594-14.457031-77.902344-22.871094-97.167969-2.332031-5.339844-9.320313-6.585938-13.410156-2.441407l-6.625 6.710938c-3.820313 3.875-10.28125 3.046875-13.011719-1.660156l-31.566406-54.445313c-2.726563-4.7031248-9.1875-5.535156-13.011719-1.65625l-11.789063 11.941407c-1.988281 2.015624-4.867187 2.871093-7.628906 2.265624l-73.972656-16.113281c-4.179688-.910156-8.484375 1.476563-9.671875 5.578125-11.46875 39.917969-5.300781 85.246094-3 98.871094.445313 2.621094-.402344 5.242188-2.273437 7.128906l-13.171876 18.003906c-2.800781 2.835938-3.175781 7.253907-.902343 10.515626l29.386719 41.355468c2.269531 3.261719 1.894531 7.679688-.902344 10.515625l-9.757813 10.515625c-3.664062 3.707032-3.011719 9.832032 1.335938 12.699219l22.023437 15.382813c.160156.109374.328125.214843.488282.304687zm0 0" fill="#61b872"/><g fill="#3d6f44"><path d="m131.957031 138.707031c-.160156 0-.320312 0-.480469-.007812-4.910156-.257813-8.691406-4.457031-8.433593-9.367188.027343-.515625 2.496093-52.117187-16.164063-80.078125-2.738281-4.089844-1.632812-9.625 2.457032-12.359375 4.082031-2.734375 9.625-1.640625 12.363281 2.460938 21.976562 32.902343 19.269531 88.570312 19.144531 90.921875-.25 4.757812-4.179688 8.429687-8.886719 8.429687zm0 0"/><path d="m143.277344 160.765625c-.722656 0-1.453125-.089844-2.183594-.265625-14.5625-3.664062-56.613281-11.882812-75.996094-5.964844-4.707031 1.425782-9.6875-1.210937-11.132812-5.925781-1.433594-4.707031 1.214844-9.6875 5.925781-11.132813 28.09375-8.5625 83.222656 5.144532 85.558594 5.730469 4.777343 1.203125 7.664062 6.042969 6.472656 10.820313-1.027344 4.046875-4.664063 6.738281-8.644531 6.738281zm0 0"/><path d="m147.480469 169.820312c-2.511719 0-5.007813-1.058593-6.78125-3.117187-3.171875-3.71875-2.761719-9.289063.902343-12.496094.488282-.457031 16.746094-16 20.058594-58.5.382813-4.902343 4.644532-8.519531 9.582032-8.191406 4.910156.382813 8.574218 4.671875 8.191406 9.582031-3.984375 51.074219-25.265625 69.816406-26.175782 70.59375-1.667968 1.425782-3.726562 2.128906-5.777343 2.128906zm0 0"/><path d="m123.492188 124.128906c-1.304688 0-2.632813-.285156-3.886719-.902344-14.652344-7.109374-42.566407-17.199218-55.222657-14.019531-4.757812 1.195313-9.613281-1.683593-10.816406-6.46875-1.203125-4.777343 1.691406-9.617187 6.46875-10.820312 23.027344-5.800781 62.894532 13.09375 67.367188 15.265625 4.429687 2.160156 6.265625 7.488281 4.117187 11.910156-1.542969 3.1875-4.722656 5.035156-8.027343 5.035156zm0 0"/></g><path d="m396.578125 221.066406c-1.710937 0-3.4375-.492187-4.960937-1.515625-4.082032-2.746093-5.171876-8.289062-2.425782-12.371093 20.222656-30.078126 43.027344-54.007813 67.785156-71.128907 4.054688-2.796875 9.601563-1.789062 12.398438 2.257813 2.796875 4.042968 1.792969 9.597656-2.253906 12.394531-22.921875 15.855469-44.171875 38.199219-63.136719 66.421875-1.71875 2.558594-4.535156 3.941406-7.40625 3.941406zm0 0" fill="#61b872"/><path d="m399.058594 231.011719c-3.53125 0-6.863282-2.101563-8.273438-5.570313-1.84375-4.5625.367188-9.757812 4.921875-11.601562 23.855469-9.652344 42.199219-12.996094 54.507813-9.949219 4.777344 1.179687 7.699218 6.007813 6.511718 10.785156-1.175781 4.777344-6.023437 7.691407-10.78125 6.515625-8.253906-2.042968-24.117187 1.308594-43.554687 9.171875-1.097656.433594-2.226563.648438-3.332031.648438zm0 0" fill="#61b872"/><path d="m448.003906 266.894531c-.847656 0-1.710937-.125-2.578125-.386719-6.289062-1.886718-19.035156-3.394531-44.042969.136719-4.902343.703125-9.382812-2.710937-10.070312-7.578125-.6875-4.875 2.699219-9.382812 7.574219-10.070312 22.65625-3.199219 40.042969-3.054688 51.683593.445312 4.714844 1.417969 7.386719 6.382813 5.960938 11.105469-1.15625 3.851563-4.695312 6.347656-8.527344 6.347656zm0 0" fill="#61b872"/><path d="m165.957031 218.007812c-3.796875 0-7.316406-2.449218-8.503906-6.265624-8.777344-28.167969-43-123.90625-114.546875-172.914063-4.066406-2.78125-5.097656-8.332031-2.316406-12.386719 2.78125-4.066406 8.339844-5.089844 12.386718-2.316406 76.289063 52.257812 112.285157 152.761719 121.5 182.316406 1.472657 4.695313-1.15625 9.695313-5.855468 11.15625-.882813.277344-1.78125.410156-2.664063.410156zm0 0" fill="#3d6f44"/><path d="m124.773438 381.78125c0-54.140625 43.894531-98.035156 98.035156-98.035156 2.449218 0 4.855468.1875 7.273437.367187-8.246093-45.800781-48.214843-80.578125-96.394531-80.578125-54.144531 0-98.035156 43.894532-98.035156 98.035156 0 51.691407 40.023437 93.933594 90.761718 97.667969-1.027343-5.675781-1.640624-11.484375-1.640624-17.457031zm0 0" fill="#f76363"/><path d="m320.84375 381.78125c0 54.144531-43.890625 98.035156-98.035156 98.035156-54.144532 0-98.035156-43.890625-98.035156-98.035156s43.890624-98.035156 98.035156-98.035156c54.144531 0 98.035156 43.890625 98.035156 98.035156zm0 0" fill="#dd352e"/><path d="m338.667969 265.921875c-27.359375 0-52.074219 11.230469-69.863281 29.304687 30.953124 16.484376 52.039062 49.042969 52.039062 86.554688 0 26.78125-10.765625 51.03125-28.171875 68.730469 13.722656 7.308593 29.367187 11.480469 45.996094 11.480469 54.140625 0 98.035156-43.894532 98.035156-98.035157 0-54.144531-43.894531-98.035156-98.035156-98.035156zm0 0" fill="#f76363"/><path d="m289.773438 132.238281c-52.035157 0-95.617188 35.738281-107.863282 83.96875 24.925782 14.074219 42.914063 38.769531 48.179688 67.914063 13.984375 1.03125 27.164062 4.917968 38.902344 11.203125 17.753906-18.101563 42.414062-29.402344 69.792968-29.402344 20.441406 0 39.417969 6.273437 55.128906 16.988281 4.617188-12.230468 7.253907-25.429687 7.253907-39.269531.011719-61.519531-49.871094-111.402344-111.394531-111.402344zm0 0" fill="#b02721"/><path d="m120.316406 249.488281 6.4375-1.230469c5.160156-.988281 10.070313 2.683594 10.753906 8.046876l.855469 6.683593 3.128907 5.925781c2.503906 4.753907.632812 10.695313-4.109376 13.023438l-5.90625 2.894531-4.5 4.894531c-3.609374 3.921876-9.679687 3.921876-13.296874 0l-4.503907-4.894531-5.90625-2.894531c-4.742187-2.328125-6.613281-8.269531-4.109375-13.023438l3.128906-5.925781.855469-6.683593c.683594-5.355469 5.597657-9.027344 10.757813-8.046876zm0 0" fill="#f7e6a1"/><path d="m307.476562 169.277344 6.433594-1.230469c5.160156-.988281 10.070313 2.683594 10.757813 8.046875l.855469 6.683594 3.125 5.929687c2.507812 4.75.632812 10.695313-4.105469 13.019531l-5.910157 2.894532-4.5 4.894531c-3.609374 3.921875-9.679687 3.921875-13.296874 0l-4.5-4.894531-5.910157-2.894532c-4.742187-2.324218-6.613281-8.269531-4.109375-13.019531l3.128906-5.929687.855469-6.683594c.6875-5.355469 5.597657-9.027344 10.757813-8.046875zm0 0" fill="#f7e6a1"/><path d="m369.859375 356.433594 6.4375-1.230469c5.160156-.988281 10.070313 2.683594 10.753906 8.050781l.855469 6.683594 3.128906 5.925781c2.503906 4.75.632813 10.695313-4.109375 13.019531l-5.90625 2.898438-4.5 4.890625c-3.609375 3.921875-9.679687 3.921875-13.296875 0l-4.503906-4.890625-5.90625-2.898438c-4.742188-2.324218-6.613281-8.269531-4.109375-13.019531l3.128906-5.925781.855469-6.683594c.683594-5.359375 5.597656-9.03125 10.757812-8.050781zm0 0" fill="#f7e6a1"/><path d="m227.265625 320.785156 6.433594-1.230468c5.160156-.988282 10.070312 2.683593 10.757812 8.046874l.855469 6.6875 3.128906 5.925782c2.503906 4.75.632813 10.695312-4.109375 13.019531l-5.910156 2.898437-4.5 4.890626c-3.609375 3.921874-9.679687 3.921874-13.296875 0l-4.5-4.890626-5.910156-2.898437c-4.742188-2.324219-6.613282-8.269531-4.109375-13.019531l3.128906-5.925782.855469-6.6875c.6875-5.355468 5.597656-9.027343 10.757812-8.046874zm0 0" fill="#f7e6a1"/></svg>