<svg height="512pt" viewBox="-62 0 511 512" width="512pt" xmlns="http://www.w3.org/2000/svg"><path d="m198.113281 273.265625c-5.542969 0-10.75-3.460937-15.324219-9.523437-15.960937-2.316407 7.707032-15.808594-11.621093-37.277344-28.824219-32.011719-23.75-69.503906-10.941407-83.734375 7.355469-8.164063 21.621094-6.851563 37.886719 1.769531-2.992187-2.875-5.972656-5.882812-8.890625-9.125-18.066406-20.066406-93.132812-42.273438-96.300781-59.5625-18.917969-11.929688-36.09375-14.839844-44.417969-5.597656-12.351562 13.71875-.691406 49.019531 25.976563 80.222656-36.605469 2.164062-64.996094 17.507812-64.996094 36.15625 0 20.121094 33.042969 36.433594 73.808594 36.433594 4.128906 0 8.144531-.207032 12.097656-.53125-16.996094 6.671875-27.917969 16.949218-27.917969 28.5 0 20.121094 33.046875 36.433594 73.808594 36.433594 24.046875 0 45.363281-5.695313 58.835938-14.488282-.664063.117188-1.320313.324219-2.003907.324219zm0 0" fill="#23a24d"/><path d="m386.746094 186.59375c0-18.648438-28.394532-34-64.988282-36.15625 26.667969-31.203125 38.328126-66.503906 25.976563-80.222656-8.238281-9.144532-25.132813-6.386719-43.808594 5.230468-3.0625 17.34375-51.773437 39.71875-69.960937 59.929688-2.921875 3.242188-5.894532 6.25-8.894532 9.125 16.265626-8.621094 30.53125-9.933594 37.886719-1.769531 12.808594 14.230469 8.902344 51.710937-19.921875 83.734375-19.589844 21.757812-13.652344 35.347656-29.679687 37.386718-4.550781 5.980469-9.726563 9.402344-15.234375 9.402344-.679688 0-1.335938-.207031-2.011719-.3125 13.476563 8.792969 34.789063 14.488282 58.835937 14.488282 40.761719 0 73.820313-16.3125 73.808594-36.433594 0-11.550782-10.921875-21.828125-27.917968-28.5 3.945312.324218 7.96875.53125 12.101562.53125 40.761719 0 73.808594-16.3125 73.808594-36.433594zm0 0" fill="#23a24d"/><path d="m283.449219 314.386719c-16.144531 0-31.40625 3.699219-45.003907 10.257812 34.5625 16.5625-22.367187 56.894531-22.367187 97.53125 0 40.554688 57.03125 56.964844 22.566406 67.628907 9.933594 3.082031 20.667969 5.308593 32.074219 6.699218 7.304688 5.273438 12.730469 10.761719 12.730469 15.496094 0 0 .015625-5.777344 12.796875-15.503906 51.003906-6.269532 90.5-27.359375 90.5-79.648438 0-56.589844-46.25-102.460937-103.296875-102.460937zm0 0" fill="#93326e"/><path d="m162.183594 413.191406c0-40.636718-47.949219-71.984375-13.382813-88.546875-13.601562-6.558593-28.859375-10.257812-45.003906-10.257812-57.046875 0-103.296875 45.871093-103.296875 102.460937 0 52.304688 39.539062 73.421875 90.570312 79.65625 7.300782 5.273438 12.726563 10.761719 12.726563 15.496094 0 0 .019531-5.777344 12.800781-15.503906 11.363282-1.402344 22.070313-3.628906 31.96875-6.691406-34.4375-10.664063 13.617188-36.074219 13.617188-76.613282zm0 0" fill="#93326e"/><path d="m296.921875 416.847656c0-56.589844-46.25-102.460937-103.300781-102.460937-57.046875 0-103.296875 45.871093-103.296875 102.460937 0 52.304688 39.542969 73.421875 90.570312 79.65625 7.304688 5.273438 12.726563 10.761719 12.726563 15.496094 0 0 .019531-5.777344 12.800781-15.503906 51.003906-6.269532 90.5-27.359375 90.5-79.648438zm0 0" fill="#bf4d90"/><path d="m261.90625 144.5c2.992188-2.875 5.972656-5.882812 8.894531-9.125 28.824219-32.015625 41.804688-69.507812 28.996094-83.734375-11.875-13.1875-41.726563-1.742187-68.976563 25.484375-1.007812-43-15.246093-77.125-32.707031-77.125-17.390625 0-31.582031 33.835938-32.695312 76.59375-27.101563-26.832031-56.632813-38.042969-68.429688-24.945312-12.808593 14.230468.171875 51.710937 28.996094 83.734374 2.917969 3.242188 5.894531 6.253907 8.894531 9.125-16.269531-8.621093-30.53125-9.933593-37.890625-1.769531-12.808593 14.230469.171875 51.714844 28.996094 83.738281 19.332031 21.464844 40.84375 34.957032 56.796875 37.273438 4.582031 6.054688 9.789062 9.523438 15.324219 9.523438 5.503906 0 10.679687-3.421876 15.234375-9.40625 16.023437-2.039063 37.859375-15.636719 57.453125-37.382813 28.824219-32.015625 41.800781-69.507813 28.992187-83.734375-7.347656-8.183594-21.609375-6.871094-37.878906 1.75zm0 0" fill="#61b872"/><path d="m198.113281 350.316406c-4.957031 0-8.980469-4.023437-8.980469-8.984375v-224.558593c0-4.960938 4.023438-8.984376 8.980469-8.984376 4.960938 0 8.984375 4.023438 8.984375 8.984376v224.558593c0 4.960938-4.023437 8.984375-8.984375 8.984375zm0 0" fill="#fbce9d"/><path d="m278.964844 332.351562c-3.296875 0-6.46875-1.816406-8.039063-4.96875l-26.949219-53.894531c-2.214843-4.4375-.421874-9.835937 4.015626-12.054687 4.429687-2.21875 9.828124-.421875 12.054687 4.015625l26.949219 53.894531c2.21875 4.4375.421875 9.835938-4.015625 12.054688-1.292969.648437-2.667969.953124-4.015625.953124zm0 0" fill="#fbce9d"/><path d="m108.28125 332.351562c-1.714844 0-3.441406-.484374-4.976562-1.507812-4.125-2.75-5.246094-8.328125-2.488282-12.460938l35.929688-53.894531c2.75-4.121093 8.328125-5.238281 12.457031-2.488281 4.125 2.75 5.246094 8.328125 2.488281 12.457031l-35.929687 53.898438c-1.734375 2.59375-4.578125 3.996093-7.480469 3.996093zm0 0" fill="#fbce9d"/><g fill="#6b1e31"><path d="m341.554688 413.191406c0 4.960938 4.023437 8.984375 8.984374 8.984375h35.945313c.097656-1.769531.261719-3.484375.261719-5.328125 0-4.292968-.351563-8.488281-.871094-12.636718h-35.347656c-4.949219 0-8.972656 4.023437-8.972656 8.980468zm0 0"/><path d="m152.644531 359.296875h-44.472656c-3.851563 5.617187-7.148437 11.625-9.835937 17.964844h54.308593c4.957031 0 8.984375-4.023438 8.984375-8.980469s-4.027344-8.984375-8.984375-8.984375zm0 0"/><path d="m117.550781 440.140625h-24.046875c1.921875 6.65625 4.644532 12.648437 8.164063 17.964844h15.882812c4.957031 0 8.980469-4.023438 8.980469-8.984375 0-4.957032-4.023438-8.980469-8.980469-8.980469zm0 0"/><path d="m251.730469 413.191406c0 4.960938 4.023437 8.984375 8.980469 8.984375h35.949218c.097656-1.769531.261719-3.484375.261719-5.328125 0-4.292968-.351563-8.488281-.871094-12.636718h-35.347656c-4.949219 0-8.972656 4.023437-8.972656 8.980468zm0 0"/><path d="m8.511719 377.261719h54.308593c4.957032 0 8.984376-4.023438 8.984376-8.980469s-4.027344-8.984375-8.984376-8.984375h-44.480468c-3.84375 5.617187-7.152344 11.625-9.828125 17.964844zm0 0"/><path d="m3.679688 440.140625c1.921874 6.65625 4.644531 12.648437 8.164062 17.964844h15.882812c4.957032 0 8.980469-4.023438 8.980469-8.984375 0-4.957032-4.023437-8.980469-8.980469-8.980469zm0 0"/></g></svg>