<svg height="512pt" viewBox="0 0 512 512" width="512pt" xmlns="http://www.w3.org/2000/svg"><path d="m475.863281 102.722656c36.136719-13.230468 36.136719-37.921875 36.136719-37.921875-8.679688-8.675781-26.082031-2.820312-36.628906 1.988281-.789063.359376-1.375-.660156-.714844-1.207031 24.386719-20.445312 24.386719-52.625 24.386719-52.625s-32.179688 0-52.625 24.386719c-.546875.660156-1.566407.066406-1.207031-.714844 4.808593-10.546875 10.664062-27.949218 1.988281-36.628906 0 0-24.691407 0-37.921875 36.136719-.25.675781-1.191406.730469-1.347656.027343-1.035157-4.765624-4.875-15.507812-19.054688-29.683593 0 0-32.40625 45.363281-19.4375 136.082031 90.71875 12.957031 136.082031-19.4375 136.082031-19.4375-14.183593-14.1875-24.917969-18.019531-29.683593-19.054688-.703126-.15625-.648438-1.097656.027343-1.347656zm0 0" fill="#61b872"/><path d="m404.1875 254.003906c19.667969 15.449219 33.316406 7.019532 33.316406 7.019532 1.832032-7.773438-7.351562-15.386719-13.621094-19.578126-.464843-.308593-.109374-.988281.421876-.804687 19.640624 6.496094 37.429687-4.5 37.429687-4.5s-11-17.789063-31.472656-20.757813c-.558594-.082031-.578125-.84375-.019531-.917968 7.480468-.941406 19.101562-3.65625 20.933593-11.417969 0 0-8.441406-13.644531-32.9375-8.613281-.457031.089844-.816406-.402344-.476562-.734375 2.28125-2.199219 6.910156-7.992188 9.898437-20.683594 0 0-36.15625-2.410156-81.886718 35.761719 23.839843 54.589844 57.261718 68.59375 57.261718 68.59375 2.996094-12.691406 1.449219-19.933594.394532-22.929688-.148438-.4375.394531-.722656.757812-.4375zm0 0" fill="#23a24d"/><path d="m251.757812 79.730469c-18.007812-17.367188-11.519531-32.039063-11.519531-32.039063 7.441407-2.878906 16.246094 5.179688 21.25 10.804688.378907.421875.992188-.027344.742188-.53125-9.125-18.566406-.675781-37.691406-.675781-37.691406s19.125 8.449218 24.871093 28.324218c.15625.542969.917969.449219.90625-.109375-.089843-7.53125 1-19.417969 8.441407-22.296875 0 0 14.671874 6.488282 13.050781 31.445313-.027344.464843.511719.75.789062.375 1.867188-2.566407 6.972657-7.9375 19.125-12.636719 0 0 7.339844 35.484375-24.203125 86.015625-57.34375-16.128906-75.800781-47.316406-75.800781-47.316406 12.164063-4.699219 19.550781-4.167969 22.65625-3.527344.484375.089844.695313-.484375.367187-.816406zm0 0" fill="#23a24d"/><g fill="#f7b563"><path d="m298.148438 223.015625c-2.347657 0-4.691407-.898437-6.480469-2.683594-3.582031-3.582031-3.582031-9.375 0-12.957031l142.570312-142.574219c3.574219-3.582031 9.375-3.582031 12.960938 0 3.582031 3.585938 3.582031 9.375 0 12.960938l-142.574219 142.570312c-1.785156 1.785157-4.132812 2.683594-6.476562 2.683594zm0 0"/><path d="m317.585938 203.570312c-4.199219 0-7.992188-2.90625-8.9375-7.175781l-25.925782-116.644531c-1.097656-4.941406 2.015625-9.835938 6.957032-10.933594 4.957031-1.082031 9.832031 2.015625 10.933593 6.957032l25.917969 116.644531c1.097656 4.9375-2.019531 9.832031-6.957031 10.933593-.667969.144532-1.339844.21875-1.988281.21875zm0 0"/><path d="m401.835938 235.976562c-1.09375 0-2.210938-.203124-3.292969-.613281l-84.238281-32.40625c-4.730469-1.816406-7.085938-7.121093-5.261719-11.839843 1.816406-4.730469 7.121093-7.078126 11.839843-5.261719l84.242188 32.40625c4.726562 1.8125 7.082031 7.121093 5.257812 11.839843-1.402343 3.636719-4.863281 5.875-8.546874 5.875zm0 0"/></g><path d="m285.382812 314.605469c58.878907-76.300781 19.1875-107.175781 19.1875-107.175781s-30.875-39.703126-107.175781 19.1875c-30.472656 23.515624-55.429687 53.347656-74.753906 86.640624-32.085937 55.246094-94.421875 161.121094-122.640625 198.742188 20.0625-15.046875 59.523438-39.792969 100.378906-64.480469 35.757813-21.609375 72.574219-43.175781 98.371094-58.148437 33.285156-19.335938 63.117188-44.292969 86.632812-74.765625zm0 0" fill="#ed8a19"/><path d="m279.351562 322.003906c-25.9375-13.4375-53.097656-36.621094-53.429687-36.90625-3.839844-3.289062-9.632813-2.859375-12.921875.980469-3.300781 3.839844-2.859375 9.621094.980469 12.921875 1.355469 1.164062 26.441406 22.5625 52.933593 37.097656 4.308594-4.535156 8.421876-9.265625 12.4375-14.09375zm0 0" fill="#dc691d"/><path d="m152.753906 355.617188c.886719.265624 1.777344.394531 2.667969.394531 3.929687 0 7.566406-2.546875 8.769531-6.507813 1.464844-4.835937-1.265625-9.960937-6.113281-11.425781-8.898437-2.695313-20.035156-18.660156-28.933594-35.484375-2.214843 3.515625-4.40625 7.054688-6.496093 10.65625-1.394532 2.402344-2.914063 5.011719-4.417969 7.589844 9.117187 15.394531 21.144531 30.71875 34.523437 34.777344zm0 0" fill="#dc691d"/><path d="m112.539062 440.195312c-6.835937-6.625-14.324218-15.292968-18.988281-21.214843-3.125-3.96875-8.890625-4.65625-12.867187-1.53125-3.976563 3.136719-4.664063 8.890625-1.53125 12.867187 1.300781 1.648438 8.660156 10.84375 17.257812 19.613282 1.339844-.808594 2.648438-1.613282 3.988282-2.421876 4.019531-2.4375 8.082031-4.882812 12.140624-7.3125zm0 0" fill="#dc691d"/></svg>