<svg height="464pt" viewBox="-104 0 464 464.14349" width="464pt" xmlns="http://www.w3.org/2000/svg"><path d="m251.40625 424.074219-11.335938-11.335938c-1.097656-1.066406-2.347656-1.96875-3.703124-2.671875 7.085937-37.605468 11-75.734375 11.703124-113.992187-.359374-40.507813-5.734374-80.816407-16-120h-208c-10.269531 39.183593-15.644531 79.492187-16 120 .695313 38.257812 4.605469 76.386719 11.6875 113.992187-1.359374.703125-2.605468 1.605469-3.703124 2.671875l-11.320313 11.335938c-6.214844 6.261719-6.214844 16.363281 0 22.625l5.65625 5.652343c6.257813 6.226563 16.371094 6.226563 22.628906 0l8.273438-8.277343c26.746093 13.964843 56.617187 20.847656 86.777343 20 30.15625.847656 60.03125-6.035157 86.773438-20l8.273438 8.269531c6.261718 6.226562 16.371093 6.226562 22.632812 0l5.65625-5.65625c6.210938-6.257812 6.210938-16.355469 0-22.613281zm0 0" fill="#d3843d"/><path d="m24.070312 144.074219h208c8.835938 0 16 7.164062 16 16 0 8.835937-7.164062 16-16 16h-208c-8.835937 0-16-7.164063-16-16 0-8.835938 7.164063-16 16-16zm0 0" fill="#9c2d20"/><path d="m144.070312 328.074219c17.671876 0 32-14.328125 32-32h-16c-9.222656.023437-17.980468 4.050781-24 11.039062v-43.039062h8c17.671876 0 32-14.328125 32-32h-16c-11.839843.03125-22.683593 6.621093-28.167968 17.109375-2.339844-1.480469-5.324219-1.480469-7.664063 0-5.484375-10.488282-16.332031-17.078125-28.167969-17.109375h-16c0 17.671875 14.324219 32 32 32h8v43.039062c-6.019531-6.988281-14.777343-11.015625-24-11.039062h-16c0 17.671875 14.324219 32 32 32h8v43.039062c-6.019531-6.988281-14.777343-11.015625-24-11.039062h-16c0 17.671875 14.324219 32 32 32h8v24c0 4.417969 3.582032 8 8 8 4.417969 0 8-3.582031 8-8v-24h8c17.671876 0 32-14.328125 32-32h-16c-9.222656.023437-17.980468 4.050781-24 11.039062v-43.039062zm0 0" fill="#c8d952"/><path d="m216.070312 96.074219c-.273437 0-.527343.070312-.800781.078125-3.769531-18.65625-20.164062-32.074219-39.199219-32.078125-.992187 0-1.921874.222656-2.898437.289062 7.3125-20.171875.355469-42.742187-17.042969-55.292969-17.398437-12.550781-41.015625-12.03125-57.84375 1.273438-16.832031 13.300781-22.792968 36.15625-14.601562 55.984375-3.695313-1.472656-7.636719-2.238281-11.613282-2.253906-17.675781 0-32 14.324219-32 32 0 .519531.128907 1 .152344 1.519531-2.609375-.980469-5.367187-1.496094-8.152344-1.519531-13.257812 0-24 10.746093-24 24 0 13.253906 10.742188 24 24 24h184c13.253907 0 24-10.746094 24-24 0-13.253907-10.746093-24-24-24zm0 0" fill="#ffd782"/><g fill="#e97424"><path d="m128.070312 48.074219h-8c-4.417968 0-8-3.582031-8-8s3.582032-8 8-8h8c4.417969 0 8 3.582031 8 8s-3.582031 8-8 8zm0 0"/><path d="m144.070312 80.074219h-8c-4.417968 0-8-3.582031-8-8s3.582032-8 8-8h8c4.417969 0 8 3.582031 8 8s-3.582031 8-8 8zm0 0"/><path d="m120.070312 104.074219h-8c-4.417968 0-8-3.582031-8-8s3.582032-8 8-8h8c4.417969 0 8 3.582031 8 8s-3.582031 8-8 8zm0 0"/><path d="m168.070312 120.074219h-8c-4.417968 0-8-3.582031-8-8s3.582032-8 8-8h8c4.417969 0 8 3.582031 8 8s-3.582031 8-8 8zm0 0"/><path d="m80.070312 120.074219h-8c-4.417968 0-8-3.582031-8-8s3.582032-8 8-8h8c4.417969 0 8 3.582031 8 8s-3.582031 8-8 8zm0 0"/></g></svg>