<svg height="512pt" viewBox="-13 0 512 512" width="512pt" xmlns="http://www.w3.org/2000/svg"><path d="m242.972656 59.503906 17.359375 70.664063 34.710938-130.167969zm0 0" fill="#61b872"/><path d="m370.125 159.542969c-32.699219-16.6875-72.410156-27.65625-98.410156-55.40625l-29.9375 34.710937-35.058594-34.710937c-43.832031 51.320312-128.347656 82.875-167.917969 132.875-54.003906 68.226562-55.992187 154.808593 21.839844 202.699219 62.335937 38.367187 136.46875 37.578124 206.902344 37.578124 82.195312 0 194.082031-13 214.832031-111.027343 18.613281-87.984375-37.699219-168.664063-112.25-206.71875zm0 0" fill="#bf4d90"/><path d="m208.261719 104.136719v-104.136719l60.746093 104.136719-26.035156 34.710937zm0 0" fill="#23a24d"/><path d="m251.652344 512c-4.789063 0-8.679688-3.886719-8.679688-8.679688v-26.03125c0-4.792968 3.890625-8.679687 8.679688-8.679687 4.789062 0 8.679687 3.886719 8.679687 8.679687v26.03125c0 4.792969-3.890625 8.679688-8.679687 8.679688zm0 0" fill="#f7b563"/><path d="m277.6875 512c-2.222656 0-4.445312-.851562-6.136719-2.542969l-26.035156-26.035156c-3.390625-3.390625-3.390625-8.875 0-12.269531 3.386719-3.394532 8.886719-3.394532 12.273437 0l26.03125 26.035156c3.394532 3.390625 3.394532 8.875 0 12.269531-1.691406 1.691407-3.914062 2.542969-6.132812 2.542969zm0 0" fill="#f7b563"/><path d="m225.617188 512c-2.21875 0-4.441407-.851562-6.132813-2.542969-3.394531-3.394531-3.394531-8.878906 0-12.269531l26.03125-26.035156c3.386719-3.394532 8.886719-3.394532 12.273437 0 3.390626 3.394531 3.390626 8.878906 0 12.269531l-26.035156 26.035156c-1.691406 1.691407-3.914062 2.542969-6.136718 2.542969zm0 0" fill="#f7b563"/><g fill="#d877b4"><path d="m267.0625 485.964844h-7.070312c-53.003907 0-113.082032-.007813-164.484376-39.363282-21.226562-16.261718-36.253906-37.113281-44.664062-61.992187-1.535156-4.539063.902344-9.46875 5.441406-11.003906 4.554688-1.546875 9.46875.902343 11.003906 5.4375 7.289063 21.558593 20.332032 39.644531 38.78125 53.769531 46.722657 35.789062 103.675782 35.796875 153.921876 35.796875h7.070312c84.492188 0 133.789062-23.144531 155.144531-72.851563 1.894531-4.398437 7.003907-6.4375 11.394531-4.546874 4.410157 1.890624 6.441407 6.996093 4.546876 11.402343-24.097657 56.085938-80.0625 83.351563-171.085938 83.351563zm0 0"/><path d="m439.695312 374.941406c-.484374 0-.972656-.035156-1.46875-.121094-4.726562-.800781-7.902343-5.285156-7.097656-10.007812 1.492188-8.808594 2.394532-17.761719 2.671875-26.632812 2.109375-68.398438-32.808593-135.636719-88.964843-171.292969l-2.367188-1.511719c-15.101562-9.578125-32.179688-20.425781-47.921875-33.234375-8.199219-5.035156-15.054687-10.023437-21.015625-15.351563l-23.980469 27.742188c-1.570312 1.8125-3.824219 2.898438-6.222656 2.996094-2.445313.09375-4.726563-.808594-6.4375-2.5l-26.15625-25.851563c-15.941406 18.535157-35.207031 35.804688-53.90625 52.578125-26.042969 23.351563-50.652344 45.402344-66.246094 69.925782-4.984375 7.835937-9.441406 16.019531-13.261719 24.324218-2.003906 4.359375-7.160156 6.257813-11.507812 4.261719-4.355469-1.996094-6.265625-7.148437-4.261719-11.507813 4.140625-9.015624 8.984375-17.890624 14.390625-26.398437 16.878906-26.535156 43.527344-50.433594 69.308594-73.535156 20.648438-18.5 41.996094-37.644531 58.058594-57.882813 1.535156-1.933594 3.808594-3.113281 6.273437-3.261718 2.464844-.15625 4.867188.753906 6.621094 2.488281l26.300781 26 23.933594-27.691407c1.605469-1.855468 3.933594-2.949218 6.390625-3 2.453125.042969 4.824219.945313 6.507813 2.730469 6.480468 6.902344 14.359374 13.078125 24.78125 19.421875.347656.210938.671874.445313.984374.695313 15.054688 12.3125 31.863282 22.980469 46.695313 32.394531l2.375 1.511719c61.226563 38.882812 99.304687 112.082031 97.011719 186.480469-.292969 9.664062-1.273438 19.421874-2.90625 29.007812-.753906 4.226562-4.433594 7.222656-8.582032 7.222656zm0 0"/><path d="m260.953125 485.964844-12.113281-.015625c-36.941406-.242188-75.757813-3.566407-108.917969-40.429688-32.644531-36.285156-43.855469-96.464843-30.007813-160.96875 1.007813-4.6875 5.625-7.664062 10.308594-6.664062 4.6875.996093 7.671875 5.613281 6.667969 10.308593-12.6875 59.089844-2.996094 113.558594 25.9375 145.71875 28.453125 31.632813 61.691406 34.453126 96.097656 34.6875l12.027344.007813c42.132813-.007813 99.417969-10.734375 110.265625-103.363281 1.039062-8.910156 1.671875-17.988282 1.863281-26.996094.105469-4.789062 4.121094-8.425781 8.859375-8.496094 4.792969.105469 8.59375 4.070313 8.496094 8.859375-.199219 9.554688-.867188 19.1875-1.976562 28.648438-9.234376 78.75-52.128907 118.695312-127.507813 118.703125zm0 0"/><path d="m131.757812 251.660156c-1.09375 0-2.195312-.207031-3.273437-.640625-4.433594-1.804687-6.578125-6.875-4.761719-11.308593.839844-2.074219 1.71875-4.140626 2.609375-6.1875 13.425781-30.632813 35.476563-67.914063 56.816407-103.960938 5.988281-10.128906 11.871093-20.0625 17.390624-29.582031 1.34375-2.328125 3.695313-3.890625 6.359376-4.246094 2.675781-.335937 5.339843.539063 7.246093 2.429687l28.328125 27.996094 23.933594-27.691406c1.605469-1.855469 3.929688-2.949219 6.386719-3.003906 2.480469-.058594 4.824219.9375 6.507812 2.734375 2.523438 2.691406 5.328125 5.148437 7.964844 7.410156.53125.453125 1 .964844 1.40625 1.527344l6.371094 8.894531c10.101562 14.148438 22.675781 31.746094 28.53125 37.144531 14.03125 12.9375 26.988281 30.625 37.464843 51.148438 2.175782 4.269531.484376 9.492187-3.785156 11.671875-4.261718 2.167968-9.492187.484375-11.671875-3.785156-9.554687-18.71875-21.226562-34.710938-33.765625-46.28125-7.175781-6.609376-19.230468-23.488282-30.894531-39.8125l-5.734375-8.011719c-.53125-.457031-1.066406-.917969-1.613281-1.394531l-24.039063 27.8125c-1.570312 1.8125-3.828125 2.898437-6.222656 2.992187-2.445312.097656-4.730469-.804687-6.4375-2.5l-26.972656-26.65625c-3.84375 6.550781-7.800782 13.25-11.820313 20.035156-21.070312 35.605469-42.851562 72.429688-55.851562 102.097657-.832031 1.910156-1.648438 3.828124-2.4375 5.761718-1.363281 3.367188-4.609375 5.40625-8.035157 5.40625zm0 0"/><path d="m312.09375 295.050781c-4.6875 0-8.539062-3.730469-8.667969-8.445312-1.816406-66.382813-11.734375-128.546875-26.597656-167.003907-1.136719-.949218-2.238281-1.894531-3.296875-2.847656l-23.988281 27.761719c-1.570313 1.8125-3.828125 2.898437-6.222657 2.992187-2.445312.097657-4.726562-.808593-6.4375-2.5l-19.640624-19.410156c-5.882813 24.59375-11.914063 51.042969-16.078126 73.847656-2.101562 11.523438-3.921874 23.605469-5.40625 35.890626-.574218 4.757812-4.914062 8.105468-9.660156 7.578124-4.753906-.574218-8.148437-4.894531-7.574218-9.660156 1.527343-12.632812 3.402343-25.050781 5.5625-36.914062 5.09375-27.945313 12.914062-61.058594 19.890624-89.765625.738282-3.039063 3.054688-5.441407 6.066407-6.300781 3.007812-.875 6.238281-.015626 8.46875 2.171874l23.976562 23.6875 23.933594-27.691406c1.605469-1.855468 3.929687-2.949218 6.386719-3 2.542968.042969 4.824218.945313 6.507812 2.734375 2.953125 3.140625 6.292969 6.203125 10.222656 9.378907 1.15625.9375 2.058594 2.152343 2.605469 3.53125 16.035157 40.085937 26.746094 105.515624 28.636719 175.035156.128906 4.789062-3.644531 8.78125-8.433594 8.914062-.097656.015625-.175781.015625-.253906.015625zm0 0"/><path d="m254.132812 485.964844-5.777343-.015625c-19.464844-.304688-41.195313-4.382813-58.011719-49.308594-3.863281-10.316406-7.125-22.371094-9.6875-35.824219-.890625-4.710937 2.195312-9.25 6.902344-10.152344 4.703125-.875 9.25 2.195313 10.152344 6.898438 2.375 12.496094 5.371093 23.597656 8.894531 32.996094 14.074219 37.601562 29.339843 37.835937 41.601562 38.027344l5.910157.023437c8.476562-.035156 34.449218-.148437 45.03125-79.246094 1.664062-12.425781 2.878906-26.417969 3.617187-41.59375.234375-4.78125 4.269531-8.398437 9.085937-8.242187 4.789063.230468 8.476563 4.300781 8.242188 9.09375-.761719 15.664062-2.019531 30.144531-3.746094 43.050781-8.460937 63.304687-28.8125 94.148437-62.214844 94.292969zm0 0"/><path d="m251.652344 485.964844c-4.789063 0-8.679688-3.886719-8.679688-8.675782v-130.171874c0-4.789063 3.890625-8.675782 8.679688-8.675782 4.789062 0 8.679687 3.886719 8.679687 8.675782v130.171874c0 4.789063-3.890625 8.675782-8.679687 8.675782zm0 0"/><path d="m251.652344 312.40625c-4.789063 0-8.679688-3.886719-8.679688-8.675781v-8.679688c0-4.789062 3.890625-8.679687 8.679688-8.679687 4.789062 0 8.679687 3.890625 8.679687 8.679687v8.679688c0 4.789062-3.890625 8.675781-8.679687 8.675781zm0 0"/><path d="m251.652344 260.339844c-4.789063 0-8.679688-3.886719-8.679688-8.679688v-60.746094c0-4.789062 3.890625-8.675781 8.679688-8.675781 4.789062 0 8.679687 3.886719 8.679687 8.675781v60.746094c0 4.792969-3.890625 8.679688-8.679687 8.679688zm0 0"/></g></svg>