<svg height="511pt" viewBox="0 -3 511.99514 511" width="511pt" xmlns="http://www.w3.org/2000/svg"><path d="m139.445312 391.316406 35.480469-35.480468 8.871094 8.867187-35.484375 35.484375zm0 0" fill="#61b872"/><path d="m334.597656 205.042969-8.871094-8.871094-44.347656 62.09375 17.738282 17.738281 53.222656-53.21875zm0 0" fill="#f7e6a1"/><g fill="#be6e41"><path d="m290.238281 506.625c-2.15625 0-4.320312-.777344-6.03125-2.367188l-15.902343-14.757812c-3.59375-3.328125-3.796876-8.941406-.472657-12.535156 3.328125-3.59375 8.941407-3.796875 12.535157-.46875l15.902343 14.757812c3.59375 3.328125 3.796875 8.941406.472657 12.535156-1.742188 1.886719-4.117188 2.835938-6.503907 2.835938zm0 0"/><path d="m307.988281 480.015625h-24.675781c-4.898438 0-8.871094-3.972656-8.871094-8.871094 0-4.894531 3.972656-8.867187 8.871094-8.867187h24.675781c4.894531 0 8.871094 3.972656 8.871094 8.867187 0 4.898438-3.976563 8.871094-8.871094 8.871094zm0 0"/><path d="m503.128906 427.355469c-2.554687 0-5.089844-1.101563-6.847656-3.230469l-14.855469-18.015625c-3.113281-3.777344-2.582031-9.375 1.195313-12.488281 3.789062-3.121094 9.367187-2.582032 12.488281 1.199218l14.859375 18.015626c3.113281 3.777343 2.582031 9.375-1.199219 12.488281-1.65625 1.363281-3.652343 2.03125-5.640625 2.03125zm0 0"/><path d="m476.519531 444.535156c-.035156 0-.0625 0-.097656 0-4.894531-.050781-8.824219-4.0625-8.773437-8.96875l.257812-23.707031c.054688-4.90625 3.664062-8.960937 8.96875-8.773437 4.894531.054687 8.824219 4.0625 8.773438 8.96875l-.257813 23.707031c-.0625 4.871093-4.019531 8.773437-8.871094 8.773437zm0 0"/></g><path d="m249.328125 9.367188s37.816406 125.984374 100.835937 201.574218l-63.019531 62.988282s-157.5625-157.480469-252.097656-163.777344c0 0 63.019531-37.796875 132.351563 6.296875 0 0-63.023438-75.589844-63.023438-113.386719 0 0 50.417969 0 113.4375 100.78125.011719.007812.011719-75.574219 31.515625-94.476562zm0 0" fill="#23a24d"/><path d="m190.078125 140.441406c-1.6875 0-3.398437-.476562-4.90625-1.488281l-22.6875-15.117187c-63.804687-40.578126-122.285156-6.421876-122.878906-6.074219-4.195313 2.519531-9.652344 1.152343-12.171875-3.042969-2.515625-4.195312-1.152344-9.648438 3.054687-12.167969 2.757813-1.660156 68.554688-40.085937 141.671875 6.421875l22.839844 15.21875c4.082031 2.714844 5.179688 8.222656 2.464844 12.304688-1.703125 2.554687-4.523438 3.945312-7.386719 3.945312zm0 0" fill="#3d6f44"/><path d="m230.425781 163.113281c-3.253906 0-6.382812-1.789062-7.9375-4.902343-13.382812-26.761719-13.542969-53.25-13.542969-54.359376 0-8.246093 1-81.214843 35.816407-102.085937 4.203125-2.527344 9.652343-1.160156 12.167969 3.042969 2.519531 4.207031 1.15625 9.652344-3.039063 12.171875-22.320313 13.382812-27.207031 67.253906-27.207031 86.871093 0 .214844.222656 23.542969 11.664062 46.425782 2.191406 4.382812.417969 9.714844-3.964844 11.90625-1.269531.636718-2.617187.929687-3.957031.929687zm0 0" fill="#3d6f44"/><path d="m306.054688 263.90625c-2.269532 0-4.542969-.871094-6.273438-2.589844l-18.910156-18.894531c-3.46875-3.46875-3.46875-9.082031 0-12.550781 3.46875-3.460938 9.082031-3.46875 12.542968 0l18.910157 18.894531c3.46875 3.464844 3.46875 9.082031 0 12.550781-1.730469 1.71875-4 2.589844-6.269531 2.589844zm0 0" fill="#3d6f44"/><path d="m327.757812 238.707031c-2.269531 0-4.539062-.871093-6.269531-2.589843l-18.910156-18.894532c-3.46875-3.46875-3.46875-9.082031 0-12.550781 3.457031-3.460937 9.082031-3.46875 12.542969 0l18.910156 18.890625c3.46875 3.46875 3.46875 9.085938 0 12.554688-1.730469 1.726562-4 2.589843-6.273438 2.589843zm0 0" fill="#3d6f44"/><path d="m146.417969 405.011719-6.945313-6.953125 42.265625-42.285156 6.945313 6.953124c14.726562 14.726563 33.671875 24.492188 54.207031 27.914063l1.96875.328125c11.167969 1.863281 21.472656 7.167969 29.476563 15.175781 21.207031 21.226563 21.207031 55.636719 0 76.851563l-7.710938 7.71875c-21.207031 21.226562-55.597656 21.226562-76.8125 0-8.003906-8.011719-13.304688-18.316406-15.167969-29.496094l-.328125-1.96875c-3.425781-20.550781-13.183594-39.515625-27.898437-54.238281zm0 0" fill="#f7e6a1"/><path d="m4.222656 330.40625s84.523438 25.367188 135.242188 67.652344l42.265625-42.285156s-105.652344-105.714844-109.882813-169.144532c0 0-25.359375 42.285156 4.222656 88.796875 0 0-50.71875-42.28125-76.070312-42.28125 0 0 0 33.828125 67.617188 76.113281 0 0-50.710938 0-63.394532 21.148438zm0 0" fill="#61b872"/><path d="m360.535156 221.300781-10.359375-10.359375-63.023437 62.988282 10.359375 10.359374c21.953125 21.945313 36.5 50.1875 41.601562 80.796876l.488281 2.9375c2.777344 16.640624 10.6875 32.003906 22.617188 43.933593 31.632812 31.613281 82.917969 31.613281 114.550781 0l11.492188-11.496093c31.632812-31.613282 31.632812-82.875 0-114.488282-11.9375-11.929687-27.300781-19.832031-43.957031-22.609375l-2.929688-.488281c-30.628906-5.097656-58.886719-19.636719-80.839844-41.574219zm0 0" fill="#f7e6a1"/></svg>