<svg height="464pt" viewBox="0 -52 464 464" width="464pt" xmlns="http://www.w3.org/2000/svg"><path d="m350.03125 104h-122.101562v.0625c-38.328126.882812-97.851563 43.203125-133.3125 71.3125-7.25-18.960938-25.476563-31.453125-45.777344-31.375h-48.839844c.234375 26.742188 22.097656 48.230469 48.839844 48-26.742188-.230469-48.605469 21.257812-48.839844 48h48.839844c15.726562.039062 30.515625-7.46875 39.761718-20.191406 34.398438 27.832031 98.742188 75.199218 139.328126 76.128906v.0625h122.101562c49.457031 0 113.96875-96 113.96875-96s-64.511719-96-113.96875-96zm0 0" fill="#cfdfe8"/><path d="m350.03125 104h-10.664062c-23.332032 26.476562-35.945313 60.710938-35.367188 96-.578125 35.289062 12.035156 69.523438 35.367188 96h10.664062c49.457031 0 113.96875-96 113.96875-96s-64.511719-96-113.96875-96zm0 0" fill="#8b97a3"/><path d="m278.855469 291.878906c-44.6875-74.496094-9.648438-133.085937-8.0625-135.65625 2.335937-3.753906 1.1875-8.695312-2.570313-11.03125-3.753906-2.335937-8.695312-1.1875-11.03125 2.570313-6.515625 11.417969-11.148437 23.8125-13.726562 36.703125-1.140625-.246094-2.300782-.402344-3.464844-.464844h-32c-13.253906 0-24 10.746094-24 24s10.746094 24 24 24h32c.414062 0 .800781-.105469 1.207031-.121094 2.949219 24.210938 11.117188 47.492188 23.9375 68.242188 2.3125 3.695312 7.164063 4.859375 10.902344 2.613281s4.988281-7.074219 2.808594-10.855469zm0 0" fill="#8b97a3"/><path d="m392 192c-4.417969 0-8-3.582031-8-8v-16c0-4.417969 3.582031-8 8-8s8 3.582031 8 8v16c0 4.417969-3.582031 8-8 8zm0 0" fill="#fff"/><g fill="#aabece"><path d="m272 360h-64c0-35.347656 28.652344-64 64-64h64c0 35.347656-28.652344 64-64 64zm0 0"/><path d="m212.710938 293.742188c-23.03125-5.542969-50.535157-20.980469-75.542969-37.8125-20.453125 11.242187-33.164063 32.730468-33.167969 56.070312h64c16.722656.015625 32.777344-6.542969 44.710938-18.257812zm0 0"/><path d="m208 40h64c35.347656 0 64 28.652344 64 64h-64c-35.347656 0-64-28.652344-64-64zm0 0"/></g><path d="m304 112c-3.652344-.003906-6.839844-2.484375-7.742188-6.023438-.304687-1.121093-7.089843-25.976562-32.257812-25.976562-4.417969 0-8-3.582031-8-8s3.582031-8 8-8c22.710938.378906 42.320312 16.003906 47.761719 38.054688 1.070312 4.289062-1.535157 8.636718-5.824219 9.707031-.632812.160156-1.285156.238281-1.9375.238281zm0 0" fill="#cfdfe8"/><path d="m256 336c-4.417969 0-8-3.582031-8-8s3.582031-8 8-8c31.632812 0 32-23.015625 32-24 0-4.417969 3.582031-8 8-8s8 3.582031 8 8c0 13.832031-10.03125 40-48 40zm0 0" fill="#cfdfe8"/><path d="m464 92c0 11.046875-8.953125 20-20 20s-20-8.953125-20-20 8.953125-20 20-20 20 8.953125 20 20zm0 0" fill="#87cee9"/><path d="m432 24c0 13.253906-10.746094 24-24 24s-24-10.746094-24-24 10.746094-24 24-24 24 10.746094 24 24zm0 0" fill="#87cee9"/></svg>