<svg height="512pt" viewBox="-36 0 512 512" width="512pt" xmlns="http://www.w3.org/2000/svg"><path d="m132.40625 158.921875c-14.875 3.792969-32.15625 16.65625-43.03125 18.996094 3.679688 8.347656.582031 22.570312-15.996094 47.445312l10.300782 14.128907 48.726562 35.910156zm0 0" fill="#61b872"/><path d="m193.957031 197.566406c-26.136719-11.210937-26.242187-29.855468-26.242187-29.855468 2.9375-2.9375 6.867187-4.90625 10.785156-6.210938 3.769531-1.253906 6.144531-4.398438 6.636719-7.875-4.890625 2.054688-10.574219 3.882812-17.421875 5.261719h-26.480469l11.402344 93.988281zm0 0" fill="#61b872"/><path d="m141.234375 132.441406c2.9375-2.941406 6.867187-4.910156 10.785156-6.214844 3.355469-1.121093-29.710937-12.597656-28.882812-15.617187-5.648438-2.292969-12.613281-4.6875-17.210938-4.6875 0-26.480469-17.65625-35.304687-17.65625-35.304687s-17.652343 8.824218-17.652343 35.304687c-8.828126 0-26.480469 8.828125-26.480469 8.828125s0 4.707031 6.875 14.132812c3.945312 5.394532 1.421875 12.851563-4.917969 14.96875-3.917969 1.300782-7.84375 3.269532-10.785156 6.207032 0 0 .070312 9.003906 8.808594 18.253906 7.980468-4.625 8.847656 17.089844 8.847656 17.089844s15.859375-2.703125 17.652344 8.828125c1.023437 6.601562 11.679687 20.644531 17.652343 17.652343 3.699219-1.84375 4.671875-17.652343 8.828125-17.652343 0 0-.371094-13.453125 1.484375-9.234375 29.320313-6.304688 38.527344-20.480469 41.363281-28.714844-33.914062-10.519531 1.289063-23.839844 1.289063-23.839844zm0 0" fill="#80d68f"/><path d="m308.945312 158.921875v116.480469l65.769532-39.449219 11.464844 11.0625-23.585938-24.964844c45.109375 67.667969 17.285156-121.265625-19.832031-37.0625-6.328125-1.359375-11.5625-24.109375-33.816407-26.066406zm0 0" fill="#23a24d"/><path d="m254.304688 194.15625 42.769531 58.851562 11.871093-96.046874c-8.90625-.210938-8.261718-.46875-7.539062-.6875-3.105469.960937-6.398438 1.871093-10.113281 2.613281h-17.65625c-6.859375-1.371094-12.535157-3.207031-17.421875-5.261719.492187 3.476562 2.867187 6.621094 6.636718 7.875 3.917969 1.304688 7.847657 3.273438 10.785157 6.210938 0 0-.042969 15.238281-19.332031 26.445312zm0 0" fill="#23a24d"/><g fill="#0d8432"><path d="m324.640625 117.363281c-6.347656-2.109375-8.863281-9.566406-4.917969-14.96875 6.875-9.421875 6.875-14.125 6.875-14.125s-17.652344-8.828125-26.480468-8.828125c0-26.480468-17.652344-35.304687-17.652344-35.304687s-15.058594 7.808593-17.222656 30.132812c3.074218 1.261719 6.066406 2.84375 8.394531 5.171875 0 0-43.796875 18.863282-70.394531 30.058594-.519532 3.46875-2.886719 6.617188-6.65625 7.871094-.8125.273437-1.589844.707031-2.390626 1.035156.167969 1.703125.433594 3.300781.433594 5.171875 8.824219 0-.433594 8.828125-.433594 8.828125s70.613282 4.703125 63.738282 14.128906c-1.605469 2.191406-2.089844 4.714844-1.738282 7.089844 4.890626 2.054688 10.582032 3.882812 17.441407 5.261719h17.65625c44.132812-8.828125 44.132812-35.308594 44.132812-35.308594-2.9375-2.941406-6.867187-4.910156-10.785156-6.214844zm0 0"/><path d="m220.675781 109.5c-26.597656-11.195312-52.960937-30.058594-52.960937-30.058594 2.328125-2.328125 5.320312-3.910156 8.394531-5.171875-2.164063-22.324219-17.222656-30.132812-17.222656-30.132812s-17.652344 8.824219-17.652344 35.304687c-8.828125 0-26.484375 8.828125-26.484375 8.828125s0 4.703125 6.878906 14.132813c3.945313 5.394531 1.421875 12.851562-4.917968 14.96875-3.917969 1.296875-7.847657 3.265625-10.785157 6.207031 0 0 0 26.480469 44.132813 35.308594h17.65625c6.855468-1.378907 12.542968-3.207031 17.433594-5.261719.371093-2.375-.125-4.898438-1.730469-7.089844-6.878907-9.425781 37.257812-14.128906 37.257812-14.128906s-.210937-8.828125 8.613281-8.828125c0-1.878906.265626-3.46875.433594-5.171875-.804687-.335938-1.578125-.769531-2.390625-1.035156-3.761719-1.261719-6.136719-4.402344-6.65625-7.871094zm0 0"/><path d="m158.886719 450.210938c7.21875 7.414062 54.53125 20.894531 61.789062 26.480468 7.253907-5.585937 45.742188-10.238281 52.960938-17.652344 10.929687-11.210937-5.535157-48.398437 1.023437-69.953124-17.933594-19.359376-27.503906-40.746094-27.503906-62.550782l-8.828125-141.132812h-26.480469l-8.824218 141.132812c0 21.804688-9.570313 43.191406-27.507813 62.550782 6.558594 21.554687-27.558594 49.90625-16.628906 61.125zm0 0"/></g><path d="m262.851562 73.230469c-6.347656-2.113281-8.863281-9.570313-4.917968-14.972657 6.875-9.417968 6.875-14.121093 6.875-14.121093s-17.652344-8.828125-26.480469-8.828125c0-26.480469-17.652344-35.308594-17.652344-35.308594s-17.652343 8.828125-17.652343 35.308594c-8.828126 0-26.484376 8.828125-26.484376 8.828125s0 4.703125 6.878907 14.128906c3.945312 5.394531 1.421875 12.851563-4.917969 14.972656-3.917969 1.296875-7.847656 3.265625-10.785156 6.203125 0 0 .007812 23.3125 36.472656 33.480469h32.976562c36.464844-10.167969 36.472657-33.480469 36.472657-33.480469-2.9375-2.9375-6.867188-4.90625-10.785157-6.210937zm0 0" fill="#23a24d"/><path d="m346.726562 203.054688c4.15625 0 29.136719 2.464843 32.835938 4.308593 5.972656 2.992188 13.035156-.503906 14.058594-7.105469 1.792968-11.527343 5.128906-14.855468 5.128906-14.855468s-9.488281-21.714844-1.515625-17.089844c8.738281-9.25 8.808594-18.253906 8.808594-18.253906-2.941407-2.9375-6.867188-4.90625-10.789063-6.214844-6.34375-2.109375-8.859375-9.566406-4.914062-14.96875 6.875-9.417969 6.875-14.125 6.875-14.125s-17.652344-8.828125-26.480469-8.828125c0-26.480469-17.652344-35.304687-17.652344-35.304687s-17.65625 8.824218-17.65625 35.304687c-4.597656 0-11.5625 2.394531-17.203125 4.6875.828125 3.011719 3.0625 5.640625 6.417969 6.753906 3.917969 1.304688 7.847656 3.273438 10.785156 6.214844 0 0-.105469 22.183594-34.019531 32.695313 2.835938 8.234374 12.039062 22.410156 41.363281 28.714843 1.855469-4.21875 3.957031 18.066407 3.957031 18.066407zm0 0" fill="#80d68f"/><path d="m301.40625 156.273438c-.722656.21875-1.375.476562-2.136719.6875l-11.375 92.101562c-3.242187 26.199219-5.394531 52.5625-5.4375 78.964844v.34375c0 59.0625-16.3125 88.542968-35.308593 108.035156-7.222657 7.414062-14.8125 13.382812-22.066407 18.976562 10.253907 7.910157-6.109375 32.300782 4.410157 38.964844 9.347656 5.914063 45.503906-5.765625 55.902343-.8125 18.996094-13.179687 33.101563-32.574218 38.804688-55.707031 1.878906-7.617187 2.382812-15.511719 2.382812-23.355469v-234.578125c-16.65625-7.105469-22.960937-17.160156-25.175781-23.621093zm0 0" fill="#61b872"/><path d="m275.050781 488.695312c-1.820312-.773437-3.753906-1.667968-5.78125-2.648437-.1875-.085937-.363281-.175781-.546875-.261719-2.164062-1.058594-4.425781-2.242187-6.773437-3.550781-.132813-.070313-.261719-.148437-.394531-.226563-2.277344-1.28125-4.644532-2.695312-7.054688-4.230468-.160156-.097656-.308594-.195313-.457031-.289063-2.253907-1.449219-4.554688-3.054687-6.886719-4.742187-3.011719-2.179688-6.0625-4.511719-9.144531-7.113282-.042969-.035156-.089844-.070312-.125-.105468-4.007813-3.398438-8.339844-6.710938-12.796875-10.152344-7.257813-5.585938-14.847656-11.5625-22.066406-18.976562-18.996094-19.492188-35.308594-48.972657-35.308594-108.035157 0-.113281 0-.230469 0-.34375-.035156-26.445312-2.171875-52.847656-5.359375-79.097656l-10.917969-90.035156h-1.378906c-3.714844-.742188-7.007813-1.652344-10.113282-2.613281h.007813c-1.785156 5.179687-6.117187 12.710937-16.367187 19.152343v239.035157c0 7.847656.511718 15.738281 2.386718 23.355468 5.699219 23.136719 19.804688 42.53125 38.800782 55.707032 15.871093 11.019531 35.140624 17.707031 55.902343 18.441406 1.484375.054687 2.9375.015625 4.414063.035156 1.472656-.007812 2.929687.019531 4.414062-.035156 20.757813-.734375 40.027344-7.421875 55.898438-18.429688-2.417969-1.148437-8.464844-4.027344-10.007813-4.679687-.105469-.054688-.230469-.105469-.34375-.160157zm0 0" fill="#23a24d"/><path d="m425.496094 227.425781c11.527344-1.789062 14.855468-5.128906 14.855468-5.128906s-6.238281-18.71875-12.480468-24.960937c18.722656-18.722657 12.480468-37.453126 12.480468-37.453126s-18.722656-6.242187-37.453124 12.480469c-6.238282-6.238281-24.960938-12.480469-24.960938-12.480469s-3.320312 3.320313-5.121094 14.820313c-1.03125 6.566406-8.03125 10.1875-13.972656 7.195313-3.722656-1.882813-7.917969-3.292969-12.117188-3.292969 0 0-14.671874 14.671875-.71875 44.027343 3.257813 6.851563 7.839844 13.019532 13.199219 18.386719 5.355469 5.359375 11.535157 9.941407 18.386719 13.199219 29.359375 13.953125 44.027344-.714844 44.027344-.714844 0-4.160156-1.386719-8.324218-3.238282-12.023437-2.984374-5.96875.511719-13.03125 7.113282-14.054688zm0 0" fill="#0d8432"/><path d="m15.855469 227.425781c-11.527344-1.789062-14.855469-5.128906-14.855469-5.128906s6.238281-18.71875 12.480469-24.960937c-18.722657-18.722657-12.480469-37.453126-12.480469-37.453126s18.71875-6.242187 37.453125 12.480469c6.238281-6.238281 24.960937-12.480469 24.960937-12.480469s3.320313 3.320313 5.121094 14.820313c1.03125 6.566406 8.03125 10.1875 13.972656 7.195313 3.722657-1.882813 7.917969-3.292969 12.117188-3.292969 0 0 14.671875 14.671875.714844 44.027343-3.253906 6.851563-7.835938 13.019532-13.195313 18.386719-5.359375 5.359375-11.535156 9.941407-18.386719 13.199219-29.359374 13.953125-44.027343-.714844-44.027343-.714844 0-4.160156 1.382812-8.324218 3.238281-12.023437 2.984375-5.96875-.511719-13.03125-7.113281-14.054688zm0 0" fill="#0d8432"/><path d="m257.933594 146.535156c6.875-9.417968 6.875-14.128906 6.875-14.128906s-17.652344-8.828125-26.480469-8.828125c0-26.480469-17.652344-35.308594-17.652344-35.308594s-17.652343 8.828125-17.652343 35.308594c-8.828126 0-26.484376 8.828125-26.484376 8.828125s0 4.710938 6.878907 14.128906c3.945312 5.394532 1.421875 12.855469-4.917969 14.972656-3.917969 1.296876-7.847656 3.265626-10.785156 6.203126 0 0 0 23.375 36.605468 33.527343 4.28125 1.183594 8.753907 1.78125 13.195313 1.78125h5.136719c5.226562 0 10.488281-.644531 15.5-2.101562 35.484375-10.308594 35.484375-33.207031 35.484375-33.207031-2.9375-2.9375-6.867188-4.90625-10.785157-6.210938-6.347656-2.109375-8.863281-9.570312-4.917968-14.964844zm0 0" fill="#80d68f"/></svg>