<svg height="511pt" viewBox="-91 1 511 511.99929" width="511pt" xmlns="http://www.w3.org/2000/svg"><path d="m255 162.703125-98.296875-15.179687-91.726563 18.5625c-38.339843 15.605468-64.476562 62.535156-64.476562 106.316406 0 53.472656 65.953125 230.917968 117.246094 230.917968 10.535156 0 19.65625-5.753906 27.519531-15.488281 7.296875 9.734375 14.179687 15.488281 20.117187 15.488281 5.933594 0 12.816407-5.769531 20.105469-15.496093 7.871094 9.734375 16.980469 15.496093 27.527344 15.496093 51.292969 0 117.246094-177.445312 117.246094-230.917968 0-47.773438-31.136719-99.21875-75.261719-109.699219zm0 0" fill="#ebba16"/><path d="m254.46875 161.808594c-18.925781-26.371094-50.019531-50.460938-80.410156-57.671875v-60.746094c.363281-8.984375 6.066406-18.746094 2.316406-26.355469-8.554688-17.332031-32.429688-22.945312-46.789062-9.753906-10.640626 9.753906 1.082031 27.429688 1.082031 27.429688v69.425781c-9.621094 2.453125-18.152344 10.402343-25.945313 17.015625-26.574218 22.527344-45.03125 44.910156-50.523437 73.972656 2.558593 1.359375 2.628906 1.394531 5.1875 2.757812l38.957031-32.679687 36.527344 35.976563c.953125-.164063 1.292968-.214844 2.246094-.382813l12.132812-25.3125s4.148438-8 9.101562-14.527344l23.671876 40.890625c.609374.070313.84375.089844 1.449218.15625l26.652344-28.6875 58.003906 30.171875c-1.121094-14.472656-4.6875-29.175781-13.660156-41.679687zm0 0" fill="#23a24d"/><g fill="#dc691d"><path d="m104.800781 415.082031c-3.488281 0-6.777343-2.125-8.105469-5.578125-2.628906-6.863281-5.191406-13.851562-7.644531-20.851562-1.589843-4.523438.796875-9.476563 5.320313-11.058594 4.519531-1.578125 9.472656.800781 11.054687 5.320312 2.402344 6.847657 4.902344 13.667969 7.472657 20.386719 1.714843 4.476563-.523438 9.492188-5 11.210938-1.015626.390625-2.066407.570312-3.097657.570312zm0 0"/><path d="m165.382812 512c-9.679687 0-25.585937-6.472656-51.800781-62.472656-2.03125-4.339844-.164062-9.511719 4.175781-11.542969 4.347657-2.039063 9.5-.164063 11.539063 4.175781 20.160156 43.058594 32.882813 52.484375 36.085937 52.484375 3.609376 0 17.882813-11.117187 40.359376-61.875 1.945312-4.382812 7.074218-6.351562 11.445312-4.425781 4.382812 1.945312 6.363281 7.0625 4.425781 11.445312-31.976562 72.210938-50.234375 72.210938-56.230469 72.210938zm0 0"/><path d="m234.09375 392.816406c-.945312 0-1.910156-.15625-2.855469-.484375-4.519531-1.574219-6.917969-6.519531-5.347656-11.050781 4.816406-13.839844 9.175781-27.613281 12.957031-40.933594 1.3125-4.605468 6.117188-7.304687 10.71875-5.976562 4.609375 1.308594 7.289063 6.109375 5.980469 10.714844-3.871094 13.652343-8.332031 27.746093-13.261719 41.90625-1.242187 3.578124-4.597656 5.824218-8.191406 5.824218zm0 0"/></g></svg>