<svg height="464pt" viewBox="-52 0 464 464" width="464pt" xmlns="http://www.w3.org/2000/svg"><path d="m56 112h256c8.835938 0 16 7.164062 16 16v304c0 17.671875-14.328125 32-32 32h-224c-17.671875 0-32-14.328125-32-32v-304c0-8.835938 7.164062-16 16-16zm0 0" fill="#e97424"/><path d="m72 216h224v200c0 8.835938-7.164062 16-16 16h-192c-8.835938 0-16-7.164062-16-16zm0 0" fill="#fcf05a"/><path d="m152 360c0 8.835938-7.164062 16-16 16s-16-7.164062-16-16 7.164062-16 16-16 16 7.164062 16 16zm0 0" fill="#e97424"/><path d="m248 312c0 8.835938-7.164062 16-16 16s-16-7.164062-16-16 7.164062-16 16-16 16 7.164062 16 16zm0 0" fill="#e97424"/><path d="m56 80h256v32h-256zm0 0" fill="#9c2d20"/><path d="m24 0h320c8.835938 0 16 7.164062 16 16v48c0 8.835938-7.164062 16-16 16h-320c-8.835938 0-16-7.164062-16-16v-48c0-8.835938 7.164062-16 16-16zm0 0" fill="#d3843d"/><g fill="#fcf05a"><path d="m208 80h-48v56c0 13.253906 10.746094 24 24 24s24-10.746094 24-24v24c0 13.253906 10.746094 24 24 24s24-10.746094 24-24v-80zm0 0"/><path d="m224 40h-216c-4.417969 0-8-3.582031-8-8s3.582031-8 8-8h216c4.417969 0 8 3.582031 8 8s-3.582031 8-8 8zm0 0"/><path d="m280 40h-24c-4.417969 0-8-3.582031-8-8s3.582031-8 8-8h24c4.417969 0 8 3.582031 8 8s-3.582031 8-8 8zm0 0"/></g><path d="m224 392h-8c-4.417969 0-8-3.582031-8-8s3.582031-8 8-8h8c4.417969 0 8 3.582031 8 8s-3.582031 8-8 8zm0 0" fill="#e97424"/><path d="m40 136h56v16h-56zm0 0" fill="#fcf05a"/><path d="m112 136h16v16h-16zm0 0" fill="#fcf05a"/><path d="m280 136h48v16h-48zm0 0" fill="#fcf05a"/></svg>