<svg height="512pt" viewBox="-13 0 512 512" width="512pt" xmlns="http://www.w3.org/2000/svg"><path d="m325.761719 289.722656c-20.203125 51.832032-48.066407 126.820313-48.066407 126.820313v-147.527344c-2.75-1.621094-5.269531-3.609375-7.472656-5.910156-.007812-.007813-.015625-.007813-.015625-.007813-.035156-.035156-.070312-.058594-.097656-.09375-.972656-1.023437-1.863281-2.117187-2.707031-3.253906-.007813-.019531-.015625-.027344-.035156-.035156-.078126-.105469-.164063-.199219-.242188-.296875-.980469-1.351563-1.882812-2.757813-2.664062-4.25-6.890626 6.117187-15.871094 9.953125-25.816407 9.953125-4.625 0-9-.945313-13.113281-2.421875-.007812.171875-.058594.328125-.070312.503906.011718 38.226563.167968 127.304687.167968 127.304687l-43.390625-58.742187h-.007812c-1.988281.59375-3.992188 1.121094-6.085938 1.449219-2.429687.445312-4.902343.738281-7.460937.738281-3.828125 0-7.507813-.5625-11.066406-1.414063-.363282-.085937-.726563-.148437-1.085938-.242187-2.515625-.660156-4.953125-1.484375-7.289062-2.527344h-.007813l33.003906 60.738281v88.097657c0 18.441406 14.949219 33.394531 33.390625 33.394531h72.0625c18.441406 0 33.394532-14.953125 33.394532-33.394531v-88.097657s23.535156-59.746093 34.710937-78.101562c-13.945313-.9375-25.46875-10.074219-30.035156-22.683594zm0 0" fill="#0d8432"/><path d="m225.628906 451.253906c-4.792968 0-8.679687-3.886718-8.679687-8.675781v-52.070313c0-4.789062 3.886719-8.675781 8.679687-8.675781 4.789063 0 8.675782 3.886719 8.675782 8.675781v52.070313c0 4.789063-3.886719 8.675781-8.675782 8.675781zm0 0" fill="#0f6b29"/><path d="m251.660156 416.542969c-4.789062 0-8.675781-3.886719-8.675781-8.679688v-104.132812c0-4.792969 3.886719-8.679688 8.675781-8.679688 4.792969 0 8.679688 3.886719 8.679688 8.679688v104.132812c0 4.792969-3.886719 8.679688-8.679688 8.679688zm0 0" fill="#0f6b29"/><path d="m480.222656 188.632812c3.667969-7.125 5.742188-15.1875 5.742188-23.75 0-25.878906-18.898438-47.296874-43.648438-51.332031.128906-1.675781.261719-3.359375.261719-5.078125 0-35.941406-29.140625-65.082031-65.085937-65.082031-10.171876 0-19.785157 2.351563-28.34375 6.515625-9.527344 4.644531-21.242188 1.355469-26.050782-8.085938-10.039062-19.664062-30.476562-33.140624-54.082031-33.140624-14.136719 0-27.117187 4.847656-37.417969 12.953124-6.847656 5.390626-16.148437 5.5625-23.082031.289063-10.917969-8.304687-24.523437-13.242187-39.296875-13.242187-30.753906 0-56.464844 21.335937-63.261719 50.019531-1.578125 6.679687-7.828125 10.75-14.699219 10.722656h-.140624c-14.792969 0-27.542969 8.28125-34.128907 20.421875-2.464843 4.546875-6.09375 8.339844-10.863281 10.316406-21.984375 9.140625-37.445312 30.753906-37.445312 56.042969 0 3.550781.363281 7.003906.953124 10.386719-6.023437 7.992187-9.632812 17.894531-9.632812 28.664062 0 12.0625 4.511719 23.058594 11.898438 31.457032-2.039063 5.035156-3.21875 10.511718-3.21875 16.273437 0 23.957031 19.429687 43.386719 43.386718 43.386719.261719 0 .503906-.066406.773438-.078125 4.105468 24.65625 25.480468 43.46875 51.296875 43.46875 11.480469 0 21.960937-3.878907 30.5625-10.179688 7.609375 16.253907 24.0625 27.535157 43.199219 27.535157 25.710937 0 46.617187-20.347657 47.632812-45.808594 4.113281 1.472656 8.488281 2.421875 13.113281 2.421875 9.945313 0 18.917969-3.835938 25.816407-9.957031 5.8125 11.03125 17.25 18.632812 30.589843 18.632812 6.507813 0 12.523438-1.898438 17.71875-5.015625 1.859375 17.425781 16.4375 31.050781 34.347657 31.050781 6.996093 0 13.46875-2.109375 18.917968-5.667968 9.972656 8.894531 23.074219 14.34375 37.492188 14.34375 31.152344 0 56.40625-25.25 56.40625-56.40625 0-1.5-.113282-2.976563-.226563-4.449219 15.765625-10 26.257813-27.5625 26.257813-47.617188 0-9.078125-2.160156-17.632812-5.976563-25.21875-3.90625-7.742187-3.742187-17.09375.234375-24.792969zm0 0" fill="#80d68f"/><g fill="#23a24d"><path d="m277.695312 199.59375c-4.789062 0-8.679687-3.886719-8.679687-8.679688 0-4.789062 3.890625-8.675781 8.679687-8.675781 14.351563 0 26.035157-11.679687 26.035157-26.035156 0-4.789063 3.886719-8.675781 8.675781-8.675781 14.355469 0 26.035156-11.683594 26.035156-26.035156 0-14.355469-11.679687-26.035157-26.035156-26.035157-4.789062 0-8.675781-3.886719-8.675781-8.675781 0-4.792969 3.886719-8.679688 8.675781-8.679688 23.925781 0 43.390625 19.464844 43.390625 43.390626 0 21.207031-15.300781 38.910156-35.441406 42.660156-3.75 20.140625-21.453125 35.441406-42.660157 35.441406zm0 0"/><path d="m347.117188 269.015625c-4.789063 0-8.675782-3.886719-8.675782-8.675781 0-21.210938 15.296875-38.914063 35.441406-42.660156 3.746094-20.144532 21.449219-35.441407 42.660157-35.441407 4.789062 0 8.675781 3.886719 8.675781 8.675781 0 4.792969-3.886719 8.679688-8.675781 8.679688-14.355469 0-26.035157 11.679688-26.035157 26.035156 0 4.789063-3.886718 8.675782-8.675781 8.675782-14.355469 0-26.035156 11.679687-26.035156 26.035156 0 4.789062-3.886719 8.675781-8.679687 8.675781zm0 0"/><path d="m194.871094 217.496094c-11.972656 0-22.519532-6.96875-27.421875-17.382813-16.105469-.726562-28.984375-14.058593-28.984375-30.347656 0-8.226563 3.289062-15.914063 9.027344-21.554687-.234376-1.492188-.347657-2.984376-.347657-4.476563 0-16.75 13.625-30.375 30.371094-30.375 4.792969 0 8.679687 3.886719 8.679687 8.679687 0 4.789063-3.886718 8.675782-8.679687 8.675782-7.175781 0-13.015625 5.839844-13.015625 13.019531 0 1.507813.292969 3.019531.902344 4.617187 1.476562 3.859376.027344 8.234376-3.472656 10.4375-3.824219 2.414063-6.117188 6.515626-6.117188 10.976563 0 7.179687 5.839844 13.019531 13.015625 13.019531.871094 0 1.796875-.113281 2.839844-.347656 2.308593-.511719 4.730469-.0625 6.699219 1.25 1.96875 1.308594 3.316406 3.375 3.730468 5.710938 1.101563 6.21875 6.472656 10.742187 12.765625 10.742187 7.175781 0 13.015625-5.839844 13.015625-13.019531 0-4.789063 3.890625-8.675782 8.679688-8.675782 4.789062 0 8.679687 3.886719 8.679687 8.675782.007813 16.75-13.617187 30.375-30.367187 30.375zm0 0"/><path d="m147.527344 242.984375c-4.792969 0-8.679688-3.890625-8.679688-8.679687 0-4.78125-3.886718-8.675782-8.679687-8.675782-4.789063 0-8.675781-3.890625-8.675781-8.679687 0-4.789063 3.886718-8.679688 8.675781-8.679688 14.355469 0 26.035156 11.683594 26.035156 26.035157 0 4.789062-3.886719 8.679687-8.675781 8.679687zm0 0"/><path d="m277.695312 130.167969c-4.789062 0-8.679687-3.886719-8.679687-8.675781 0-4.78125-3.894531-8.679688-8.675781-8.679688-4.792969 0-8.679688-3.886719-8.679688-8.675781 0-4.792969 3.886719-8.679688 8.679688-8.679688 14.351562 0 26.03125 11.679688 26.03125 26.035157 0 4.789062-3.886719 8.675781-8.675782 8.675781zm0 0"/><path d="m190.914062 95.457031c-4.789062 0-8.675781-3.886719-8.675781-8.675781 0-4.792969 3.886719-8.679688 8.675781-8.679688 4.792969 0 8.679688-3.894531 8.679688-8.679687 0-4.789063 3.886719-8.675781 8.675781-8.675781 4.792969 0 8.679688 3.886718 8.679688 8.675781 0 14.355469-11.679688 26.035156-26.035157 26.035156zm0 0"/><path d="m60.746094 216.949219c-4.789063 0-8.679688-3.886719-8.679688-8.679688 0-4.789062 3.890625-8.675781 8.679688-8.675781 4.789062 0 8.675781-3.898438 8.675781-8.679688 0-4.789062 3.890625-8.675781 8.679687-8.675781 4.789063 0 8.679688 3.886719 8.679688 8.675781 0 14.355469-11.683594 26.035157-26.035156 26.035157zm0 0"/><path d="m242.984375 251.660156c-4.792969 0-8.679687-3.886718-8.679687-8.675781 0-4.792969 3.886718-8.679687 8.679687-8.679687 4.789063 0 8.675781-3.894532 8.675781-8.675782 0-4.792968 3.886719-8.679687 8.679688-8.679687 4.789062 0 8.675781 3.886719 8.675781 8.679687 0 14.351563-11.679687 26.03125-26.03125 26.03125zm0 0"/><path d="m395.585938 156.195312c-6.664063 0-13.332032-2.535156-18.40625-7.609374-3.394532-3.394532-3.394532-8.878907 0-12.273438 3.390624-3.390625 8.878906-3.390625 12.269531 0 3.375 3.375 8.886719 3.375 12.28125 0 3.390625-3.390625 8.875-3.390625 12.269531 0 3.394531 3.394531 3.394531 8.878906 0 12.273438-5.078125 5.066406-11.742188 7.609374-18.414062 7.609374zm0 0"/><path d="m390.507812 286.371094c-4.789062 0-8.675781-3.886719-8.675781-8.675782 0-4.789062 3.886719-8.679687 8.675781-8.679687 4.78125 0 8.679688-3.894531 8.679688-8.675781 0-4.792969 3.886719-8.679688 8.675781-8.679688 4.792969 0 8.679688 3.886719 8.679688 8.679688 0 14.351562-11.679688 26.03125-26.035157 26.03125zm0 0"/><path d="m177.898438 355.796875c-4.789063 0-8.679688-3.886719-8.679688-8.679687 0-4.789063 3.890625-8.675782 8.679688-8.675782 21.53125 0 39.050781-17.523437 39.050781-39.050781 0-9.070313-3.175781-17.902344-8.945313-24.878906-3.054687-3.691407-2.542968-9.164063 1.152344-12.21875 3.695312-3.066407 9.164062-2.535157 12.21875 1.152343 8.332031 10.074219 12.929688 22.839844 12.929688 35.945313 0 31.101563-25.304688 56.40625-56.40625 56.40625zm0 0"/><path d="m104.136719 338.441406c-33.5 0-60.746094-27.25-60.746094-60.746094 0-14.980468 5.492187-29.359374 15.472656-40.5 3.191407-3.585937 8.675781-3.878906 12.253907-.675781 3.566406 3.191407 3.878906 8.675781.675781 12.25-7.125 7.949219-11.046875 18.234375-11.046875 28.925781 0 23.925782 19.464844 43.390626 43.390625 43.390626s43.390625-19.464844 43.390625-43.390626c0-4.789062 3.886718-8.679687 8.675781-8.679687s8.679687 3.890625 8.679687 8.679687c0 33.496094-27.25 60.746094-60.746093 60.746094zm0 0"/><path d="m111.667969 112.855469c-3.105469 0-6.117188-1.671875-7.679688-4.613281-5.582031-10.554688-8.53125-22.46875-8.53125-34.480469 0-40.671875 33.089844-73.761719 73.761719-73.761719 31.199219 0 59.152344 19.75 69.554688 49.144531 1.597656 4.519531-.761719 9.476563-5.285157 11.070313-4.519531 1.597656-9.476562-.761719-11.070312-5.285156-7.96875-22.472657-29.34375-37.574219-53.199219-37.574219-31.101562 0-56.40625 25.304687-56.40625 56.40625 0 9.191406 2.257812 18.304687 6.519531 26.355469 2.238281 4.234374.625 9.484374-3.613281 11.734374-1.28125.683594-2.679688 1.003907-4.050781 1.003907zm0 0"/></g></svg>