<svg height="512pt" viewBox="-5 0 512 512.01062" width="512pt" xmlns="http://www.w3.org/2000/svg"><path d="m56.644531 167.375c-1.136719 2.265625-3.984375 6.089844-6.578125 9.917969 43.023438 2.132812 55.816406 68.5625 88.785156 91.734375 35.050782 24.636718 89.582032 7.167968 111.96875 47.632812-.085937.226563-.144531.46875-.234374.703125 14.953124-40.125 65.113281-37.644531 96.535156-65.691406-.007813-.007813 55.730468-92.464844 104.597656-100.714844-.203125-.167969-.3125-.324219-.53125-.488281-.746094-.554688-1.484375-1.015625-2.203125-1.414062-7.863281-4.253907-12.183594-13.027344-12.351563-21.859376-.179687-9.996093-5.152343-21.859374-8.191406-28.941406-5.101562-11.890625-16.765625-19.4375-29.0625-20.253906-6.644531-.441406-13.207031-2.898438-17.5625-7.984375-2.75-3.203125-6.449218-5.257813-9.824218-9.78125-5.214844-6.984375-13.335938-12.234375-21.433594-18.414063-5.15625 3.652344-8.203125 1.597657-9.164063-6.144531-3.644531-4.839843-8.246093-8.476562-13.796875-10.914062-6.023437-2.605469-12.515625-3.308594-18.695312-2.265625-8.328125 1.40625-16.433594-2.542969-22.214844-8.816406-5.363281-5.824219-13.050781-9.425782-21.320312-9.675782-6.527344-.199218-13.242188 6.003906-18.242188 5.699219-8.234375-.503906-8.539062-11.261719-20.566406-9.511719-7.984375 1.164063-10.664063 10.414063-15.507813 12.296875-5.277343 2.058594-11.855469-.179687-20.175781.945313-9.882812 1.339844-18.234375 7.273437-23.171875 15.351562-4.761719 7.804688-14.394531 11.769532-23.488281 9.894532-4.054688-.832032-8.246094-1.007813-12.394532-.433594-16.46875 2.246094-28.445312 15.144531-30.988281 30.320312-1.300781 7.75-6.265625 14.742188-13.640625 17.484375-10.042968 3.742188-12.558594 15.71875-14.199218 26.085938-.875 5.53125-2.984376 11.015625-7.160157 14.703125-2.117187 1.875-3.652343 4.355468-4.632812 7.453125-1.890625 5.648437-1.476563 11.074219 1.242187 16.261719 1.308594 1.726562 2.613282 3.457031 3.921875 5.183593-4.519531 2.84375-7.757812 6.714844-9.71875 11.636719zm0 0" fill="#f7e6a1"/><path d="m483.460938 147.554688c-61.40625 2.707031-117.292969 26.890624-160.585938 65.023437 0 .007813-.007812.007813-.015625.007813-.089844.105468-.199219.183593-.304687.261718-.164063.199219-.390626.335938-.597657.503906-.125.121094-.246093.257813-.410156.34375 0 .011719 0 .019532.007813.027344-36.828126 32.882813-64.40625 75.890625-77.882813 124.730469-.417969 1.492187-.703125 3.027344-1.09375 4.535156.761719.183594 1.441406.480469 2.132813.835938 9.765624-18.148438 24.308593-5.371094 24.308593-5.371094 28.636719-4.773437 48.632813 12.78125 52.066407 0 2.691406-10.015625 11.640624-17.28125 21.929687-18.5625 17.773437-2.222656 27.890625 8.441406 33.488281-.269531 4.84375-7.542969 2.726563-54.722656 11.664063-55.382813 22.527343-1.648437 31.371093-17.644531 34.824219-29.929687 2.449218-8.695313 10.25-35.277344 19.203124-36.421875 47.140626-5.988281 60.011719-19.378907 61.058594-30.773438 1.007813-10.890625-8.859375-20.039062-19.792968-19.558593zm0 0" fill="#23a24d"/><path d="m472.855469 191.722656c-8.105469 2.457032-18.144531 4.582032-30.660157 6.171875-8.953124 1.136719-16.753906 7.316407-19.203124 16-3.460938 12.28125-12.296876 28.273438-34.832032 29.933594-8.929687.65625-16.550781 6.34375-21.390625 13.875-5.597656 8.703125-15.71875 18.457031-33.488281 20.679687-10.292969 1.285157-19.230469 8.546876-21.929688 18.5625-3.429687 12.78125-13.695312 28.054688-42.332031 32.828126-14.34375 0-43.128906-9.589844-37.601562-8.679688-.511719 1.703125-14.683594 8.332031-15.160157 10.050781-6.101562 22.101563-7.984374 61.371094-7.984374 85.410157 0 32.992187 43.390624 86.769531 43.390624 86.777343 129.40625 0 234.304688-104.898437 234.304688-234.304687 0-27.09375-4.652344-53.089844-13.113281-77.304688zm0 0" fill="#0f6b29"/><path d="m245.285156 333.390625c1.683594-5.648437 3.488282-11.246094 5.546875-16.730469-47.894531-86.542968-126.144531-146.457031-228.464843-139.253906-15.222657 1.074219-26.207032 16.496094-21.089844 30.867188 2.195312 6.1875 7.691406 13.511718 24.757812 16.957031 8.863282 1.796875 9.773438 10.082031 26.035156 9.085937 0 0 1.691407 76.511719 52.066407 60.746094 0 0 31.128906 50.480469 81.503906 34.710938 0 0-2.621094 2.992187 50.152344 4.417968 0 0 3.957031-1.71875 9.492187-.800781zm0 0" fill="#0f6b29"/><path d="m234.308594 407.875c0-24.039062 3.253906-47.320312 9.355468-69.421875.46875-1.710937 1.09375-3.359375 1.59375-5.0625-1.839843-.300781-3.511718-.3125-4.910156-.199219-8.0625.679688-16.226562.425782-23.960937-1.976562-32.679688-10.171875-30.753907-42.617188-30.753907-42.617188-50.375 15.765625-64.945312-26.019531-64.945312-26.019531-50.375 15.769531-57.542969-35.804687-57.542969-35.804687-19.136719 1.171874-32.273437-.085938-41.445312-2.601563-2.820313 14.515625-4.339844 29.503906-4.339844 44.855469 0 129.40625 104.898437 234.304687 234.304687 234.304687 0-.007812-17.355468-62.464843-17.355468-95.457031zm0 0" fill="#0d8432"/><path d="m357.875 124.480469c-3.992188 0-7.585938-2.769531-8.472656-6.832031-3.0625-14.023438-16.957032-22.953126-30.980469-19.898438-4.703125 1.035156-9.308594-1.953125-10.324219-6.628906-1.023437-4.6875 1.953125-9.3125 6.628906-10.328125 23.386719-5.085938 46.539063 9.789062 51.632813 33.167969 1.023437 4.6875-1.953125 9.304687-6.628906 10.328124-.625.128907-1.242188.191407-1.855469.191407zm0 0" fill="#f7b563"/><path d="m312.359375 175.546875c-.175781 0-.347656 0-.523437-.015625-4.78125-.277344-8.433594-4.390625-8.148438-9.171875.410156-6.953125-1.910156-13.632813-6.523438-18.824219-4.617187-5.195312-10.988281-8.277344-17.929687-8.6875-4.78125-.277344-8.4375-4.378906-8.148437-9.171875.277343-4.78125 4.398437-8.582031 9.171874-8.148437 11.578126.675781 22.199219 5.824218 29.886719 14.484375 7.699219 8.660156 11.558594 19.804687 10.875 31.378906-.277343 4.601563-4.105469 8.15625-8.660156 8.15625zm0 0" fill="#f7b563"/><path d="m209.929688 88.238281c-1.785157 0-3.589844-.546875-5.144532-1.691406-3.851562-2.847656-4.675781-8.277344-1.832031-12.132813 14.207031-19.253906 41.421875-23.359374 60.675781-9.164062 3.855469 2.847656 4.679688 8.28125 1.832032 12.132812-2.84375 3.84375-8.277344 4.679688-12.132813 1.832032-5.605469-4.132813-12.476563-5.847656-19.339844-4.800782-6.875 1.042969-12.933593 4.695313-17.0625 10.300782-1.710937 2.300781-4.332031 3.523437-6.996093 3.523437zm0 0" fill="#f7b563"/><path d="m115.039062 168.484375c-3.550781 0-6.875-2.1875-8.160156-5.71875-8.171875-22.484375 3.464844-47.425781 25.949219-55.609375 4.496094-1.648438 9.476563.679688 11.125 5.191406 1.632813 4.503906-.6875 9.484375-5.191406 11.125-6.542969 2.378906-11.757813 7.160156-14.699219 13.449219-2.941406 6.300781-3.246094 13.375-.867188 19.910156 1.632813 4.503907-.6875 9.484375-5.191406 11.125-.96875.363281-1.976562.527344-2.964844.527344zm0 0" fill="#f7b563"/><path d="m253.773438 242.992188c-3.542969 0-6.875-2.183594-8.148438-5.707032-3.976562-10.902344-3.453125-22.6875 1.441406-33.1875 4.890625-10.5 13.597656-18.464844 24.496094-22.429687 4.496094-1.632813 9.476562.683593 11.125 5.1875 1.632812 4.503906-.6875 9.484375-5.1875 11.125-6.546875 2.378906-11.761719 7.160156-14.703125 13.453125-2.941406 6.289062-3.246094 13.371094-.867187 19.90625 1.640624 4.503906-.683594 9.484375-5.179688 11.125-.988281.363281-1.988281.527344-2.976562.527344zm0 0" fill="#f7b563"/><path d="m190.925781 164.890625c-.589843 0-1.1875-.058594-1.785156-.179687-4.695313-.980469-7.699219-5.582032-6.710937-10.277344 2.378906-11.347656 9.035156-21.09375 18.726562-27.429688 9.703125-6.335937 21.316406-8.511718 32.640625-6.136718 4.695313.980468 7.695313 5.582031 6.707031 10.277343-.980468 4.683594-5.5625 7.714844-10.273437 6.707031-6.820313-1.433593-13.773438-.113281-19.585938 3.679688-5.816406 3.800781-9.808593 9.640625-11.238281 16.453125-.851562 4.097656-4.453125 6.90625-8.480469 6.90625zm0 0" fill="#f7b563"/><g fill="#23a24d"><path d="m251.664062 512.011719c-4.789062 0-8.679687-3.890625-8.679687-8.679688 0-4.789062 3.890625-8.675781 8.679687-8.675781 76.558594 0 138.847657-85.644531 138.847657-190.917969 0-4.789062 3.886719-8.675781 8.675781-8.675781 4.792969 0 8.679688 3.886719 8.679688 8.675781 0 114.835938-70.074219 208.273438-156.203126 208.273438zm0 0"/><path d="m364.476562 364.484375c-2.222656 0-4.441406-.851563-6.132812-2.542969l-17.359375-17.355468c-3.390625-3.390626-3.390625-8.875 0-12.269532 3.394531-3.394531 8.878906-3.394531 12.273437 0l17.355469 17.355469c3.390625 3.394531 3.390625 8.878906 0 12.269531-1.691406 1.691406-3.914062 2.542969-6.136719 2.542969zm0 0"/><path d="m416.546875 355.808594c-2.222656 0-4.445313-.851563-6.136719-2.542969-3.394531-3.394531-3.394531-8.878906 0-12.273437l17.355469-17.355469c3.394531-3.390625 8.878906-3.390625 12.269531 0 3.394532 3.394531 3.394532 8.878906 0 12.273437l-17.355468 17.355469c-1.691407 1.691406-3.914063 2.542969-6.132813 2.542969zm0 0"/><path d="m338.433594 416.554688c-1.648438 0-3.324219-.46875-4.804688-1.460938l-26.035156-17.355469c-3.984375-2.65625-5.058594-8.042969-2.402344-12.035156 2.652344-3.992187 8.042969-5.078125 12.035156-2.402344l26.03125 17.355469c3.984376 2.652344 5.0625 8.042969 2.40625 12.035156-1.675781 2.507813-4.425781 3.863282-7.230468 3.863282zm0 0"/><path d="m407.867188 407.875c-2.222657 0-4.441407-.851562-6.136719-2.542969-3.390625-3.394531-3.390625-8.878906 0-12.269531l8.679687-8.679688c3.394532-3.390624 8.878906-3.390624 12.269532 0 3.394531 3.394532 3.394531 8.878907 0 12.273438l-8.675782 8.675781c-1.695312 1.691407-3.914062 2.542969-6.136718 2.542969zm0 0"/><path d="m251.664062 512.011719c-86.128906 0-156.203124-93.4375-156.203124-208.273438 0-4.789062 3.886718-8.675781 8.675781-8.675781 4.792969 0 8.679687 3.886719 8.679687 8.675781 0 105.273438 62.289063 190.917969 138.847656 190.917969 4.789063 0 8.675782 3.886719 8.675782 8.675781 0 4.789063-3.886719 8.679688-8.675782 8.679688zm0 0"/><path d="m138.851562 364.484375c-2.222656 0-4.445312-.851563-6.136718-2.542969-3.394532-3.390625-3.394532-8.875 0-12.269531l17.355468-17.355469c3.394532-3.394531 8.878907-3.394531 12.269532 0 3.394531 3.394532 3.394531 8.878906 0 12.269532l-17.355469 17.355468c-1.691406 1.691406-3.914063 2.542969-6.132813 2.542969zm0 0"/><path d="m86.78125 355.808594c-2.21875 0-4.441406-.851563-6.132812-2.542969l-17.355469-17.355469c-3.394531-3.394531-3.394531-8.878906 0-12.273437 3.390625-3.390625 8.875-3.390625 12.269531 0l17.355469 17.355469c3.394531 3.394531 3.394531 8.878906 0 12.273437-1.691407 1.691406-3.914063 2.542969-6.136719 2.542969zm0 0"/><path d="m164.894531 416.554688c-2.804687 0-5.554687-1.355469-7.230469-3.863282-2.65625-3.984375-1.578124-9.382812 2.402344-12.035156l26.035156-17.355469c3.984376-2.675781 9.371094-1.589843 12.035157 2.402344 2.65625 3.984375 1.582031 9.378906-2.402344 12.035156l-26.035156 17.355469c-1.484375.992188-3.148438 1.460938-4.804688 1.460938zm0 0"/><path d="m95.460938 407.875c-2.222657 0-4.445313-.851562-6.136719-2.542969l-8.675781-8.675781c-3.394532-3.394531-3.394532-8.878906 0-12.273438 3.390624-3.390624 8.875-3.390624 12.269531 0l8.679687 8.679688c3.390625 3.390625 3.390625 8.875 0 12.269531-1.695312 1.691407-3.914062 2.542969-6.136718 2.542969zm0 0"/></g></svg>