<svg height="512pt" viewBox="-117 0 512 512" width="512pt" xmlns="http://www.w3.org/2000/svg"><path d="m138.855469 251.660156c-2.800781 0-5.554688-1.351562-7.226563-3.859375l-34.714844-52.070312c-2.652343-3.980469-1.578124-9.378907 2.40625-12.035157 3.980469-2.671874 9.371094-1.589843 12.035157 2.402344l34.710937 52.070313c2.65625 3.980469 1.582032 9.378906-2.402344 12.035156-1.484374.988281-3.160156 1.457031-4.808593 1.457031zm0 0" fill="#f7b563"/><path d="m47.371094 69.1875 1.695312-.613281c-.382812-.84375-.757812-1.703125-1.09375-2.585938-6.058594-15.941406-1.035156-32.472656 11.21875-36.925781 10.761719-3.90625 23.5 2.792969 30.554688 15.273438-5.648438 4.390624-9.554688 10.464843-10.351563 17.484374-1.5625 13.789063 8.390625 25.863282 22.285157 29.464844 5.476562 1.421875 9.769531 5.195313 11.160156 10.125l.078125.269532c.683593 2.445312.910156 5.042968.113281 7.453124-1.441406 4.324219-4.902344 7.957032-9.476562 10.292969-6.257813 3.183594-10.507813 9.207031-10.507813 16.0625 0 10.164063 9.320313 18.476563 20.710937 18.476563v4.824218c-5.058593 4.078126-7.949218 10.273438-6.558593 17.042969 1.578125 7.679688 8.746093 13.277344 17.191406 14.703125l-13.632813 4.953125c-8.183593 2.976563-17.722656.476563-22.09375-6.613281-3.316406-5.363281-3.003906-11.480469-.253906-16.433594l-1.5625-4.113281c-9.152344 3.320313-19.332031-1.042969-22.621094-9.703125-2.222656-5.839844-.757812-12.210938 3.234376-16.757812 2.925781-3.316407 4.53125-7.4375 4.289062-11.53125-.128906-2.292969-1.164062-4.4375-2.5-6.320313l-.148438-.207031c-2.707031-3.800782-7.382812-5.761719-12.242187-5.378906-12.332031.980468-24.246094-6.40625-27.449219-18.605469-3.351562-12.722657 4.945313-25.90625 17.960938-30.636719zm0 0" fill="#0f6b29"/><path d="m138.839844 251.660156c-1.648438 0-3.324219-.46875-4.808594-1.457031-3.984375-2.65625-5.058594-8.042969-2.402344-12.035156l34.710938-52.070313c2.65625-3.992187 8.042968-5.074218 12.035156-2.402344 3.984375 2.65625 5.058594 8.042969 2.40625 12.035157l-34.714844 52.070312c-1.671875 2.507813-4.425781 3.859375-7.226562 3.859375zm0 0" fill="#f7b563"/><path d="m229.828125 69.1875-1.746094-.613281c.398438-.84375.78125-1.703125 1.128907-2.585938 6.214843-15.941406 1.058593-32.472656-11.515626-36.925781-11.046874-3.90625-24.117187 2.792969-31.363281 15.273438 5.796875 4.398437 9.808594 10.464843 10.625 17.484374 1.601563 13.789063-8.609375 25.863282-22.867187 29.464844-5.625 1.421875-10.03125 5.195313-11.457032 10.125l-.078124.269532c-.703126 2.445312-.9375 5.042968-.121094 7.453124 1.476562 4.324219 5.035156 7.957032 9.730468 10.292969 6.417969 3.183594 10.785157 9.207031 10.785157 16.0625 0 10.164063-9.5625 18.476563-21.261719 18.476563v4.824218c5.191406 4.078126 8.15625 10.273438 6.734375 17.042969-1.621094 7.679688-8.972656 13.277344-17.652344 14.703125l14 4.953125c8.398438 2.976563 18.1875.476563 22.675781-6.613281 3.402344-5.363281 3.078126-11.480469.25-16.433594l1.605469-4.113281c9.398438 3.320313 19.847657-1.042969 23.222657-9.703125 2.273437-5.839844.773437-12.210938-3.324219-16.757812-2.992188-3.316407-4.640625-7.4375-4.398438-11.53125.136719-2.292969 1.195313-4.4375 2.566407-6.320313l.15625-.207031c2.777343-3.800782 7.585937-5.761719 12.566406-5.378906 12.652344.980468 24.890625-6.40625 28.179687-18.605469 3.433594-12.722657-5.078125-25.90625-18.441406-30.636719zm0 0" fill="#0f6b29"/><path d="m177.648438 91.285156c13.578124-3.601562 23.316406-15.683594 21.789062-29.464844-1.597656-14.378906-15.8125-24.871093-31.648438-24.871093h-2.066406c.070313-1.015625.121094-2.039063.121094-3.078125 0-18.703125-12.085938-33.871094-26.996094-33.871094s-26.996094 15.167969-26.996094 33.871094c0 1.039062.050782 2.0625.121094 3.078125h-2.066406c-15.835938 0-30.050781 10.492187-31.648438 24.871093-1.527343 13.789063 8.199219 25.863282 21.789063 29.464844 5.355469 1.421875 9.554687 5.195313 10.910156 10.125l.070313.269532c.667968 2.445312.890625 5.042968.113281 7.453124-1.40625 4.324219-4.800781 7.957032-9.269531 10.292969-6.117188 3.183594-10.273438 9.207031-10.273438 16.0625 0 10.164063 9.109375 18.476563 20.242188 18.476563v4.824218c-4.945313 4.078126-7.765625 10.273438-6.410156 17.042969 1.804687 8.9375 10.984374 15.082031 20.949218 15.082031h24.949219c9.960937 0 19.140625-6.144531 20.929687-15.089843 1.355469-6.769531-1.457031-12.964844-6.414062-17.042969v-4.824219c11.132812 0 20.246094-8.316406 20.246094-18.476562 0-6.855469-4.148438-12.878907-10.273438-16.0625-4.46875-2.328125-7.863281-5.972657-9.269531-10.292969-.789063-2.410156-.5625-5.015625.113281-7.453125l.070313-.269531c1.363281-4.921875 5.5625-8.695313 10.917969-10.117188zm0 0" fill="#23a24d"/><path d="m138.847656 251.660156c-4.789062 0-8.679687-3.886718-8.679687-8.675781v-199.59375c0-4.792969 3.890625-8.679687 8.679687-8.679687 4.789063 0 8.679688 3.886718 8.679688 8.679687v199.59375c0 4.789063-3.890625 8.675781-8.679688 8.675781zm0 0" fill="#f7b563"/><path d="m277.695312 364.472656c0-67.097656-62.167968-121.488281-138.847656-121.488281-76.679687 0-138.847656 54.390625-138.847656 121.488281 0 62.023438 53.144531 87.050782 121.742188 94.445313 9.816406 6.246093 17.105468 12.765625 17.105468 18.371093 0 0 .027344-6.847656 17.207032-18.390624 68.546874-7.425782 121.640624-32.4375 121.640624-94.425782zm0 0" fill="#f7e6a1"/><path d="m55.582031 321.085938c-2.074219 0-4.15625-.738282-5.804687-2.238282-3.558594-3.210937-3.835938-8.695312-.625-12.253906 13.484375-14.9375 31.648437-26.085938 52.527344-32.257812 4.582031-1.363282 9.425781 1.269531 10.777343 5.867187 1.363281 4.589844-1.265625 9.425781-5.867187 10.777344-17.8125 5.257812-33.226563 14.683593-44.558594 27.242187-1.710938 1.890625-4.070312 2.863282-6.449219 2.863282zm0 0" fill="#d1c180"/><path d="m34.710938 373.152344c-4.789063 0-8.675782-3.886719-8.675782-8.679688 0-9.925781 1.796875-19.714844 5.34375-29.105468 1.691406-4.484376 6.71875-6.734376 11.1875-5.050782 4.484375 1.695313 6.742188 6.699219 5.050782 11.1875-2.804688 7.417969-4.226563 15.152344-4.226563 22.96875 0 4.792969-3.886719 8.679688-8.679687 8.679688zm0 0" fill="#d1c180"/><path d="m112.8125 512c-4.789062 0-8.675781-3.886719-8.675781-8.679688 0-4.789062 3.886719-8.675781 8.675781-8.675781 9.574219 0 17.355469-7.785156 17.355469-17.355469 0-4.792968 3.890625-8.679687 8.679687-8.679687 4.789063 0 8.679688 3.886719 8.679688 8.679687 0 19.144532-15.570313 34.710938-34.714844 34.710938zm0 0" fill="#be6e41"/></svg>