<svg height="464pt" viewBox="0 -76 464 464" width="464pt" xmlns="http://www.w3.org/2000/svg"><path d="m376 244c-.058594-1.339844-.203125-2.675781-.433594-4-45.640625 18.226562-94.425781 27.289062-143.566406 26.671875-49.140625.617187-97.925781-8.445313-143.566406-26.671875-.230469 1.324219-.375 2.660156-.433594 4 0 37.601562 64.472656 68 144 68s144-30.398438 144-68zm0 0" fill="#5a6470"/><path d="m464 184.335938c0-48.414063-103.871094-87.664063-232-87.664063s-232 39.25-232 87.664063c0 48.417968 103.871094 87.664062 232 87.664062s232-39.246094 232-87.664062zm0 0" fill="#cfdfe8"/><path d="m440 176v-32c-.042969-3.476562-.65625-6.925781-1.816406-10.207031-11.464844-52.433594-74.679688-46.542969-118.183594-53.792969-34.078125-5.679688-84.273438-35.542969-110.527344-52.398438-33.070312-28.871093-79.96875-35.734374-119.925781-17.554687-39.957031 18.183594-65.589844 58.054687-65.546875 101.953125v32c0 35.347656 28.652344 64 64 64h320" fill="#d3843d"/><path d="m408 144h-320c-23.671875 0-56-8-64-32v32c0 35.347656 28.652344 64 64 64h320c17.671875 0 32-14.324219 32-32v-32c.386719-5.359375-.722656-10.71875-3.199219-15.488281-6.253906 9.820312-17.160156 15.6875-28.800781 15.488281zm0 0" fill="#ad6327"/><g fill="#ffd782"><path d="m160 72c0 17.675781-14.328125 32-32 32s-32-14.324219-32-32c0-17.671875 14.328125-32 32-32s32 14.328125 32 32zm0 0"/><path d="m160 184h-16c-4.417969 0-8-3.582031-8-8s3.582031-8 8-8h16c4.417969 0 8 3.582031 8 8s-3.582031 8-8 8zm0 0"/><path d="m408 184h-152c-4.417969 0-8-3.582031-8-8s3.582031-8 8-8h152c9.777344 0 24-3.199219 24-8 0-4.417969 3.582031-8 8-8s8 3.582031 8 8c0 17.714844-21.542969 24-40 24zm0 0"/></g></svg>