<svg height="472pt" viewBox="-8 0 472 472" width="472pt" xmlns="http://www.w3.org/2000/svg"><path d="m240 72-40 80v320h168v-320l40-80zm0 0" fill="#2d75bb"/><path d="m408 72-40 80v320h80v-320zm0 0" fill="#155c96"/><path d="m240 8h168v64h-168zm0 0" fill="#7fcac9"/><path d="m336 244c0 28.71875-23.28125 52-52 52s-52-23.28125-52-52 23.28125-52 52-52 52 23.28125 52 52zm0 0" fill="#f4f4e6"/><path d="m200 360s24-32 88-32 80-32 80-32v176h-168zm0 0" fill="#f4f4e6"/><path d="m328 384h-88c-4.417969 0-8-3.582031-8-8s3.582031-8 8-8h88c4.417969 0 8 3.582031 8 8s-3.582031 8-8 8zm0 0" fill="#2d75bb"/><path d="m328 416h-88c-4.417969 0-8-3.582031-8-8s3.582031-8 8-8h88c4.417969 0 8 3.582031 8 8s-3.582031 8-8 8zm0 0" fill="#2d75bb"/><path d="m328 448h-88c-4.417969 0-8-3.582031-8-8s3.582031-8 8-8h88c4.417969 0 8 3.582031 8 8s-3.582031 8-8 8zm0 0" fill="#2d75bb"/><g fill="#f4f4e6"><path d="m416 208h-16c-4.417969 0-8-3.582031-8-8s3.582031-8 8-8h16c4.417969 0 8 3.582031 8 8s-3.582031 8-8 8zm0 0"/><path d="m416 240h-16c-4.417969 0-8-3.582031-8-8s3.582031-8 8-8h16c4.417969 0 8 3.582031 8 8s-3.582031 8-8 8zm0 0"/><path d="m416 272h-16c-4.417969 0-8-3.582031-8-8s3.582031-8 8-8h16c4.417969 0 8 3.582031 8 8s-3.582031 8-8 8zm0 0"/><path d="m448 416h-32c-4.417969 0-8-3.582031-8-8s3.582031-8 8-8h32c4.417969 0 8 3.582031 8 8s-3.582031 8-8 8zm0 0"/><path d="m448 448h-48c-4.417969 0-8-3.582031-8-8s3.582031-8 8-8h48c4.417969 0 8 3.582031 8 8s-3.582031 8-8 8zm0 0"/></g><path d="m152 472h-136l-16-240h168zm0 0" fill="#cfdfe8"/><path d="m4.800781 304 11.199219 168h136l11.199219-168zm0 0" fill="#f4f4e6"/><path d="m48 432c-4.152344.015625-7.625-3.144531-8-7.28125l-8-88c-.398438-4.417969 2.863281-8.320312 7.28125-8.71875s8.320312 2.863281 8.71875 7.28125l8 88c.199219 2.121094-.457031 4.234375-1.820312 5.871094-1.367188 1.636718-3.328126 2.664062-5.453126 2.847656-.246093 0-.496093 0-.726562 0zm0 0" fill="#cfdfe8"/><path d="m344 40c-4.417969 0-8-3.582031-8-8v-24c0-4.417969 3.582031-8 8-8s8 3.582031 8 8v24c0 4.417969-3.582031 8-8 8zm0 0" fill="#f4f4e6"/><path d="m376 48c-4.417969 0-8-3.582031-8-8v-32c0-4.417969 3.582031-8 8-8s8 3.582031 8 8v32c0 4.417969-3.582031 8-8 8zm0 0" fill="#f4f4e6"/><path d="m336 160h-104c-4.417969 0-8-3.582031-8-8s3.582031-8 8-8h104c4.417969 0 8 3.582031 8 8s-3.582031 8-8 8zm0 0" fill="#f4f4e6"/></svg>