<svg height="510pt" viewBox="-12 0 510 510.09953" width="510pt" xmlns="http://www.w3.org/2000/svg"><path d="m243.03125 60.746094c-4.789062 0-8.675781-3.886719-8.675781-8.679688v-8.675781c0-23.925781 19.464843-43.390625 43.390625-43.390625 4.789062 0 8.675781 3.886719 8.675781 8.679688 0 4.789062-3.886719 8.675781-8.675781 8.675781-14.355469 0-26.035156 11.679687-26.035156 26.035156v8.675781c0 4.792969-3.886719 8.679688-8.679688 8.679688zm0 0" fill="#be6e41"/><path d="m85.832031 112.492188c-62.785156 49.535156 200.21875-54.027344 154.625-53.585938l-8.125-8.738281c-16.269531-12.738281-40.03125-22.539063-72.746093-15.34375-11.222657 2.464843-21.789063 7.21875-31.640626 13.128906-20.269531 12.167969-62.777343 36.710937-75.828124 36.710937 0 0 5.292968 5.257813 14.804687 12.191407 6.621094 4.832031 12.921875 10.074219 18.910156 15.636719zm0 0" fill="#3d6f44"/><path d="m400.234375 112.492188c62.785156 49.535156-200.21875-54.027344-154.625-53.585938l8.125-8.738281c16.269531-12.738281 40.03125-22.539063 72.746094-15.34375 11.21875 2.464843 21.789062 7.21875 31.640625 13.128906 20.269531 12.167969 62.773437 36.710937 75.828125 36.710937 0 0-5.292969 5.257813-14.804688 12.191407-6.621093 4.832031-12.921875 10.074219-18.910156 15.636719zm0 0" fill="#3d6f44"/><path d="m486.015625 284.472656c0-124.609375-108.785156-225.628906-242.984375-225.628906-134.195312 0-242.9804688 101.019531-242.9804688 225.628906s108.7851568 225.625 242.9804688 225.625c134.199219 0 242.984375-101.015625 242.984375-225.625zm0 0" fill="#dd352e"/><path d="m83.53125 187.773438c-2.066406 0-4.128906-.730469-5.789062-2.210938-3.566407-3.203125-3.867188-8.6875-.675782-12.253906 5.390625-6.015625 11.230469-11.714844 17.382813-16.941406 3.644531-3.105469 9.128906-2.65625 12.234375.992187 3.109375 3.652344 2.664062 9.128906-.988282 12.234375-5.554687 4.71875-10.832031 9.867188-15.699218 15.300781-1.707032 1.90625-4.078125 2.878907-6.464844 2.878907zm0 0" fill="#e57373"/><path d="m40.339844 300.585938c-4.789063 0-8.675782-3.886719-8.675782-8.675782 0-29.566406 7.4375-58.863281 21.503907-84.722656 2.289062-4.210938 7.558593-5.78125 11.765625-3.480469 4.210937 2.289063 5.773437 7.558594 3.480468 11.765625-12.6875 23.328125-19.394531 49.761719-19.394531 76.4375 0 4.796875-3.886719 8.675782-8.679687 8.675782zm0 0" fill="#e57373"/><path d="m177.339844 67.253906c-2.585938 12.296875-4.078125 19.074219-3.660156 27.292969v.027344c0 .066406-.011719.121093 0 .1875.667968 13.226562 6.488281 25.515625 15.0625 34.886719l54.289062 59.367187 54.289062-59.367187c8.566407-9.363282 14.398438-21.660157 15.066407-34.886719 0-.066407-.007813-.128907 0-.199219v-.007812c.417969-8.21875-1.074219-14.996094-3.660157-27.292969-20.90625-5.441407-42.914062-8.417969-65.695312-8.417969-22.777344 0-44.785156 2.96875-65.691406 8.410156zm0 0" fill="#61b872"/></svg>