<svg height="512pt" viewBox="0 -40 512.00392 512" width="512pt" xmlns="http://www.w3.org/2000/svg"><path d="m487.28125 185.0625c-.882812-.757812-1.71875-1.421875-2.550781-2.089844.175781-2.226562.308593-4.460937.308593-6.71875 0-36.148437-22.695312-67.179687-55.125-80.765625-.832031-43.113281-37.421874-77.832031-82.503906-77.832031-11.492187 0-22.429687 2.261719-32.371094 6.339844-11.378906-4.027344-23.613281-6.339844-36.449218-6.339844-32.890625 0-62.171875 14.523438-81.515625 37.191406-21.371094-3.152344-44.921875-4.765625-66.328125-1.941406-52.074219 6.867188-85.882813 52.628906-85.882813 103.105469 0 35.609375-.222656 69.648437-24.726562 91.628906 2.304687 1.203125 4.640625 2.367187 7.007812 3.480469-3.214843-1.519532-6.390625-3.082032-9.488281-4.757813 5.789062 78.777344 91.503906 141.347657 196.703125 141.347657 7.917969 0 15.695313-.460938 23.375-1.148438-3.945313-3.132812-7.996094-6.425781-12.046875-9.765625 7.539062 1.085937 15.183594 1.882813 23.011719 1.988281.007812.050782.027343.113282.027343.113282 208.78125 88.109374 267.960938-168.464844 238.554688-193.835938zm0 0" fill="#0d8432"/><path d="m250.703125 39.347656c-100.6875 0-182.316406 81.460938-182.316406 181.953125 0 18.96875 2.949219 37.242188 8.34375 54.429688 71.050781 3.433593 81.082031 49.949219 100.058593 78.347656 8.394532 12.558594 27.480469 30.417969 46.65625 46.835937 8.101563 1.21875 16.304688 2.09375 24.714844 2.21875-.492187-2.667968-9.824218-59.492187 90.441406-84.683593 17.769532-4.46875 30.488282-20.214844 42.027344-34.417969 13.417969-16.527344 18.695313-39.152344 51.933594-53.796875.148438-2.984375.449219-5.914063.449219-8.933594.007812-100.492187-81.621094-181.953125-182.308594-181.953125zm0 0" fill="#1e8e40"/><path d="m280.839844 42.03125c-9.824219-1.632812-19.84375-2.695312-30.136719-2.695312-100.6875 0-182.316406 81.460937-182.316406 181.957031 0 1.773437.152343 3.511719.203125 5.269531 0 0 .042968 0 .070312-.007812-.007812-.117188-.015625-.230469-.015625-.347657h55.019531c21.796876 0 43.097657 6.4375 61.230469 18.503907l14.414063 9.597656c6.285156 4.183594 12.976562 7.527344 19.84375 10.300781 27.765625-53.777344 105.464844-49.65625 105.464844-136.757813-.007813-41.382812-18.636719-68.28125-43.777344-85.820312zm0 0" fill="#177730"/><path d="m433.019531 221.300781c0 2.984375-.183593 5.933594-.335937 8.878907 3.160156-1.382813 6.488281-2.726563 10.1875-3.960938 28.882812-9.613281 20.761718-73.21875 58.800781-41.675781.183594-2.480469.328125-4.96875.328125-7.503907 0-40.351562-24.375-74.988281-59.21875-90.15625-.882812-48.128906-40.171875-86.87890575-88.601562-86.87890575-12.339844 0-24.089844 2.52343775-34.761719 7.07031275-12.226563-4.496094-25.371094-7.07031275-39.152344-7.07031275-39.863281 0-74.847656 20.58593775-95.054687 51.64062475 20.347656-7.832031 42.375-12.296875 65.492187-12.296875 100.6875 0 182.316406 81.460938 182.316406 181.953125zm0 0" fill="#23a24d"/><path d="m68.386719 221.300781c0-86.148437 60.054687-158.136719 140.613281-176.984375-26.738281-5.191406-58.949219-8.890625-87.53125-4.96875-55.925781 7.660156-92.25 58.746094-92.25 115.085938 0 39.75-.238281 77.742187-26.554688 102.285156 20.039063 10.882812 42.425782 18.667969 65.714844 18.667969 2.878906 0 5.605469.105469 8.304688.238281-5.375-17.160156-8.296875-35.398438-8.296875-54.324219zm0 0" fill="#23a24d"/><path d="m504.417969 186.875c31.585937 28.324219-31.984375 314.726562-256.230469 216.378906 0 0-12.269531-59.011718 90.414062-84.804687 17.769532-4.46875 30.488282-20.214844 42.027344-34.417969 14.714844-18.117188 19.515625-43.601562 62.242188-57.8125 29.5625-9.835938 20.328125-76.308594 61.546875-39.34375zm0 0" fill="#0d8432"/><path d="m211.28125 413.089844c8.507812 0 16.859375-.511719 25.105469-1.28125-22.898438-18.898438-49.304688-42.320313-59.597657-57.730469-19.710937-29.503906-29.5625-78.683594-108.402343-78.683594-24.3125 0-47.675781-8.445312-68.386719-20.089843 6.222656 87.929687 98.285156 157.785156 211.28125 157.785156zm0 0" fill="#0d8432"/><path d="m378.304688 247.890625c-15.898438-1.324219-31.890626.8125-46.890626 6.25l-33.164062 12.03125c-33 11.976563-69.738281 7.566406-98.949219-11.875l-14.414062-9.59375c-18.132813-12.066406-39.433594-18.503906-61.230469-18.503906h-55.023438c.460938 17.230469 3.4375 33.808593 8.363282 49.523437 70.8125 3.539063 80.839844 49.964844 99.785156 78.335938 8.394531 12.5625 27.480469 30.421875 46.652344 46.839844 8.097656 1.21875 16.304687 2.089843 24.71875 2.214843-.484375-2.621093-9.871094-59.480469 90.4375-84.683593 17.769531-4.464844 30.492187-20.214844 42.027344-34.417969 8.210937-10.105469 13.347656-22.511719 23.703124-33.96875zm0 0" fill="#146628"/><path d="m68.386719 226.015625c-4.871094 0-8.828125-3.957031-8.828125-8.828125 0-53.679688 63.640625-97.34375 141.871094-97.34375 1.382812-.078125 44.894531-2.097656 76.171874 13.507812 4.359376 2.179688 6.132813 7.476563 3.953126 11.835938-2.171876 4.371094-7.476563 6.136719-11.835938 3.957031-27.082031-13.515625-67.453125-11.679687-67.847656-11.660156-68.9375.007813-124.664063 35.757813-124.664063 79.703125.007813 4.871094-3.945312 8.828125-8.820312 8.828125zm0 0" fill="#b9eac0"/><path d="m159.003906 196.503906c-2.730468 0-5.414062-1.253906-7.144531-3.621094-9.902344-13.546874-12.90625-30.03125-8.472656-46.414062 6.628906-24.503906 28.300781-46.34375 59.4375-59.914062 4.464843-1.949219 9.671875.097656 11.617187 4.574218 1.941406 4.46875-.097656 9.675782-4.574218 11.617188-25.8125 11.246094-44.296876 29.316406-49.453126 48.332031-3.042968 11.261719-1.085937 22.113281 5.695313 31.390625 2.878906 3.9375 2.019531 9.453125-1.925781 12.332031-1.554688 1.15625-3.371094 1.703125-5.179688 1.703125zm0 0" fill="#b9eac0"/><path d="m504.417969 186.875c31.585937 28.324219-31.984375 314.726562-256.230469 216.378906 0 0-12.269531-59.011718 90.414062-84.804687 17.769532-4.46875 30.488282-20.214844 42.027344-34.417969 14.714844-18.117188 19.515625-43.601562 62.242188-57.8125 29.5625-9.835938 20.328125-76.308594 61.546875-39.34375zm0 0" fill="#0d8432"/><g fill="#b9eac0"><path d="m334.46875 432.554688c-4.875 0-8.828125-3.957032-8.828125-8.828126 0-4.875 3.953125-8.828124 8.828125-8.828124 45.101562 0 80.429688-46.53125 80.429688-105.929688 0-4.875 3.953124-8.828125 8.824218-8.828125 4.875 0 8.828125 3.953125 8.828125 8.828125 0 69.304688-43.085937 123.585938-98.082031 123.585938zm0 0"/><path d="m80.003906 385.855469c-1.730468 0-3.46875-.503907-4.996094-1.5625-4.015624-2.761719-5.023437-8.261719-2.257812-12.277344l34.742188-50.40625c2.765624-4.015625 8.273437-5.023437 12.28125-2.261719 4.015624 2.765625 5.023437 8.265625 2.257812 12.28125l-34.742188 50.40625c-1.714843 2.488282-4.476562 3.820313-7.285156 3.820313zm0 0"/><path d="m361.921875 370.761719c-1.324219 0-2.675781-.300781-3.9375-.929688l-17.65625-8.824219c-4.359375-2.183593-6.125-7.488281-3.945313-11.847656 2.179688-4.351562 7.476563-6.136718 11.847657-3.945312l17.65625 8.828125c4.359375 2.179687 6.125 7.484375 3.945312 11.84375-1.554687 3.089843-4.671875 4.875-7.910156 4.875zm0 0"/><path d="m79.449219 335.449219c-2.261719 0-4.519531-.863281-6.242188-2.585938l-17.65625-17.65625c-3.449219-3.449219-3.449219-9.027343 0-12.480469 3.453125-3.453124 9.03125-3.453124 12.484375 0l17.652344 17.65625c3.453125 3.449219 3.453125 9.03125 0 12.480469-1.71875 1.722657-3.980469 2.585938-6.238281 2.585938zm0 0"/></g></svg>