<svg height="464pt" viewBox="0 0 464 464" width="464pt" xmlns="http://www.w3.org/2000/svg"><path d="m368 0h96v48c0 26.507812-21.492188 48-48 48h-96v-48c0-26.507812 21.492188-48 48-48zm0 0" fill="#d3843d"/><path d="m144 96h-96c-26.507812 0-48-21.492188-48-48v-48h96c26.507812 0 48 21.492188 48 48zm0 0" fill="#d3843d"/><path d="m432 240c0 110.457031-89.542969 224-200 224s-200-113.542969-200-224 89.542969-200 200-200 200 89.542969 200 200zm0 0" fill="#ffd782"/><path d="m312 368h-160v-40c0-44.183594 24-72 80-72s80 27.816406 80 72zm0 0" fill="#d3843d"/><g fill="#ffd782"><path d="m216 312c0 8.835938-7.164062 16-16 16s-16-7.164062-16-16 7.164062-16 16-16 16 7.164062 16 16zm0 0"/><path d="m280 312c0 8.835938-7.164062 16-16 16s-16-7.164062-16-16 7.164062-16 16-16 16 7.164062 16 16zm0 0"/><path d="m232 376c-4.417969 0-8-3.582031-8-8v-24c0-4.417969 3.582031-8 8-8s8 3.582031 8 8v24c0 4.417969-3.582031 8-8 8zm0 0"/></g><path d="m168 368h128c0 17.671875-14.328125 32-32 32h-64c-17.671875 0-32-14.328125-32-32zm0 0" fill="#f7a969"/><path d="m320 104c-3.59375.003906-6.75-2.394531-7.714844-5.859375-.960937-3.464844.503906-7.144531 3.585938-8.996094l80-48c2.453125-1.535156 5.542968-1.625 8.082031-.238281 2.535156 1.386719 4.128906 4.035156 4.164063 6.925781.03125 2.894531-1.5 5.578125-4.003907 7.023438l-80 48c-1.242187.75-2.664062 1.144531-4.113281 1.144531zm0 0" fill="#ffd782"/><path d="m144 104c-1.449219 0-2.871094-.394531-4.113281-1.144531l-80-48c-3.695313-2.3125-4.859375-7.164063-2.613281-10.902344 2.246093-3.738281 7.074218-4.988281 10.855468-2.808594l80 48c3.082032 1.851563 4.546875 5.53125 3.585938 8.996094-.964844 3.464844-4.121094 5.863281-7.714844 5.859375zm0 0" fill="#ffd782"/><path d="m144 248c-2.121094 0-4.15625-.84375-5.65625-2.34375l-10.34375-10.34375-10.34375 10.34375c-3.125 3.121094-8.1875 3.121094-11.3125 0l-10.34375-10.34375-10.34375 10.34375c-3.140625 3.03125-8.128906 2.988281-11.214844-.097656-3.085937-3.085938-3.128906-8.074219-.097656-11.214844l16-16c3.125-3.121094 8.1875-3.121094 11.3125 0l10.34375 10.34375 10.34375-10.34375c3.125-3.121094 8.1875-3.121094 11.3125 0l16 16c2.285156 2.289062 2.972656 5.730469 1.734375 8.71875s-4.15625 4.9375-7.390625 4.9375zm0 0" fill="#f98c96"/><path d="m384 248c-2.121094 0-4.15625-.84375-5.65625-2.34375l-10.34375-10.34375-10.34375 10.34375c-3.125 3.121094-8.1875 3.121094-11.3125 0l-10.34375-10.34375-10.34375 10.34375c-3.140625 3.03125-8.128906 2.988281-11.214844-.097656-3.085937-3.085938-3.128906-8.074219-.097656-11.214844l16-16c3.125-3.121094 8.1875-3.121094 11.3125 0l10.34375 10.34375 10.34375-10.34375c3.125-3.121094 8.1875-3.121094 11.3125 0l16 16c2.285156 2.289062 2.972656 5.730469 1.734375 8.71875s-4.15625 4.9375-7.390625 4.9375zm0 0" fill="#f98c96"/><path d="m208 176h-48c-4.417969 0-8 3.582031-8 8s3.582031 8 8 8h16v16c0 4.417969 3.582031 8 8 8s8-3.582031 8-8v-16h16c4.417969 0 8-3.582031 8-8s-3.582031-8-8-8zm0 0" fill="#61707c"/><path d="m304 176h-48c-4.417969 0-8 3.582031-8 8s3.582031 8 8 8h16v16c0 4.417969 3.582031 8 8 8s8-3.582031 8-8v-16h16c4.417969 0 8-3.582031 8-8s-3.582031-8-8-8zm0 0" fill="#61707c"/></svg>