<svg height="511pt" viewBox="-2 0 511 511.98597" width="511pt" xmlns="http://www.w3.org/2000/svg"><path d="m45.695312 105.210938s-6.355468-29.242188 1.328126-32.074219c-4.222657-13.738281-6.917969-32.984375-1.484376-56.207031 1.492188-6.375-1.980468-12.871094-8.1875-14.941407l-3.996093-1.332031c-6.746094-2.25-13.96875 1.464844-16.027344 8.265625-5.480469 18.085937-13.054687 53.695313-2.359375 88.613281 4.945312-6.507812 22.265625 13.226563 30.726562 7.675782zm0 0" fill="#f7e6a1"/><path d="m7.328125 178.007812s-27.34375-62.851562 27.347656-98.777343c0 0 53.613281-37.722657 97.644531 32.0625 15.167969 24.039062 33.339844 46.050781 55.578126 63.976562 41.355468 33.355469 114.152343 79.511719 227.457031 111.65625 29.585937 8.398438 56.171875 26.035157 72.769531 51.582031 18.230469 28.058594 29.621094 68.464844 2.277344 117.851563-25.636719 46.300781-75.300782 57.085937-120.832032 55.476563-55.964843-1.980469-109.492187-22.800782-153.613281-56.777344-58.648437-45.164063-150.386719-133.609375-208.628906-277.050782zm0 0" fill="#521b68"/><path d="m434.402344 448.71875c-4.992188 0-9.039063-4.039062-9.039063-9.039062s4.046875-9.039063 9.039063-9.039063c9.96875 0 18.078125-8.109375 18.078125-18.078125 0-5 4.050781-9.042969 9.039062-9.042969 4.992188 0 9.039063 4.042969 9.039063 9.042969 0 19.941406-16.214844 36.15625-36.15625 36.15625zm0 0" fill="#a16ab7"/></svg>