<svg height="512pt" viewBox="-4 0 512 512" width="512pt" xmlns="http://www.w3.org/2000/svg"><path d="m254.550781 77.746094v-.261719l-29.097656-10.96875h-96.074219l-29.097656 10.960937v.277344c-1.28125-.070312-2.558594-.269531-3.851562-.269531-55.390626 0-96.429688 60.589844-96.429688 116.214844 0 55.628906 69.421875 240.199219 123.417969 240.199219 11.097656 0 20.6875-5.988282 28.96875-16.105469 7.679687 10.125 14.925781 16.105469 21.171875 16.105469 6.238281 0 13.484375-5.996094 21.167968-16.113282 8.277344 10.125 17.875 16.113282 28.972657 16.113282 13.175781 0 27.257812-11.03125 41.039062-28.445313l70.195313-145.113281c1.226562-.46875 2.351562-1.078125 3.507812-1.660156 2.308594-11.390626 8.675782-57.488282 8.675782-64.96875 0-54.324219-39.164063-113.207032-92.566407-115.964844zm0 0" fill="#61b872"/><path d="m136.816406 88.394531c-2.351562 1.285157 23.734375-10.917969 40.605469-10.917969 12.988281 0 25.140625 3.4375 36.210937 9.25 11.65625-5.777343 24.152344-9.25 37.074219-9.25 1.308594 0 2.566407.199219 3.851563.261719v-.261719l-29.105469-10.960937c-19.613281-7.382813-32.613281-26.222656-32.613281-47.269531v-19.246094h-30.855469v19.257812c0 21.042969-12.992187 39.875-32.613281 47.265626l-29.097656 10.960937v.269531c12.773437.667969 25.125 4.425782 36.542968 10.640625zm0 0" fill="#f7e6a1"/><path d="m433.898438 232.648438c-.972657-.054688-1.910157-.199219-2.890626-.199219-9.691406 0-19.066406 2.636719-27.804687 7.027343-8.304687-4.425781-17.414063-7.027343-27.152344-7.027343-12.652343 0-24.820312 4.3125-35.648437 11.445312 1.699218-1.121093 3.4375-2.179687 5.199218-3.152343-8.566406-4.71875-17.824218-7.574219-27.398437-8.085938-.972656-.050781-1.917969-.207031-2.890625-.207031-41.53125 0-72.3125 46.054687-72.3125 88.332031-.015625 42.269531 52.050781 182.539062 92.550781 182.539062 8.324219 0 15.515625-4.546874 21.722657-12.242187 5.761718 7.695313 11.191406 12.242187 15.878906 12.242187s10.117187-4.554687 15.882812-12.25c6.203125 7.703126 13.398438 12.25 21.71875 12.25 40.5 0 92.566406-140.269531 92.566406-182.546874 0-41.28125-29.375-86.035157-69.421874-88.125zm0 0" fill="#ebba16"/><path d="m173.558594 442.578125c-44.421875 0-94.953125-175.027344-95.457032-176.789063-1.300781-4.617187 1.386719-9.40625 6.003907-10.707031 4.625-1.285156 9.410156 1.386719 10.710937 5.996094 24.894532 88.390625 64.101563 164.140625 78.742188 164.140625.140625 0 14.300781-.734375 42.914062-64.597656 1.960938-4.375 7.105469-6.316406 11.472656-4.363282 4.371094 1.960938 6.324219 7.089844 4.371094 11.460938-33.546875 74.859375-52.519531 74.859375-58.757812 74.859375zm0 0" fill="#3d6f44"/><path d="m273.84375 202.378906c-4.792969 0-8.679688-3.878906-8.679688-8.679687 0-50.765625-37.523437-107.542969-87.742187-107.542969-31.34375 0-63.574219 22.527344-82.113281 57.378906-2.246094 4.222656-7.496094 5.847656-11.738282 3.582032-4.238281-2.257813-5.839843-7.507813-3.585937-11.742188 21.511719-40.445312 59.757813-66.585938 97.4375-66.585938 61.933594 0 105.097656 65.824219 105.097656 124.902344 0 4.808594-3.886719 8.6875-8.675781 8.6875zm0 0" fill="#3d6f44"/><g fill="#b28b1d"><path d="m373.152344 512c-35.5 0-73.3125-134.542969-73.683594-135.90625-1.285156-4.617188 1.421875-9.398438 6.039062-10.683594 4.625-1.246094 9.40625 1.433594 10.683594 6.042969 19.125 68.796875 47.390625 121.34375 57.117188 123.199219 2.480468-.539063 13.382812-10.160156 30.035156-47.832032 1.933594-4.390624 7.054688-6.363281 11.445312-4.433593 4.382813 1.941406 6.359376 7.0625 4.425782 11.445312-23.058594 52.144531-37.332032 58.167969-46.0625 58.167969zm0 0"/><path d="m427.398438 417.785156c-.945313 0-1.902344-.15625-2.847657-.488281-4.527343-1.570313-6.921875-6.515625-5.34375-11.039063 12.445313-35.804687 20.480469-69.363281 20.480469-85.484374 0-37.59375-27.214844-79.648438-63.636719-79.648438-22.691406 0-46.105469 16.671875-59.644531 42.460938-2.230469 4.246093-7.46875 5.867187-11.714844 3.65625-4.242187-2.230469-5.875-7.472657-3.652344-11.726563 16.503907-31.429687 45.949219-51.746094 75.011719-51.746094 47.730469 0 80.992188 51.121094 80.992188 97.003907 0 21.730468-11.074219 61.34375-21.445313 91.179687-1.25 3.582031-4.605468 5.832031-8.199218 5.832031zm0 0"/></g></svg>