<svg height="464pt" viewBox="0 -56 464 463" width="464pt" xmlns="http://www.w3.org/2000/svg"><path d="m328 24.492188c-25.421875.023437-47.636719 17.167968-54.105469 41.753906-11.59375-10.171875-28.070312-12.617188-42.117187-6.25-2.308594-33.011719-29.414063-58.8125-62.5-59.484375-33.085938-.667969-61.21875 24.011719-64.863282 56.902343-14.976562-3.269531-30.507812 2.3125-39.980468 14.367188-9.472656 12.058594-11.21875 28.46875-4.496094 42.25s20.730469 22.503906 36.0625 22.460938h232c30.929688 0 56-25.070313 56-56 0-30.925782-25.070312-56-56-56zm0 0" fill="#55b56a"/><path d="m144 184.492188h-32c-53.019531 0-96-42.980469-96-96h32c53.019531 0 96 42.980468 96 96zm0 0" fill="#c8d952"/><path d="m432 64.492188h32c0 53.019531-42.980469 96-96 96h-32c0-53.019532 42.980469-96 96-96zm0 0" fill="#c8d952"/><path d="m232 120.492188c0 30.929687-25.070312 56-56 56s-56-25.070313-56-56c0-30.925782 25.070312-56 56-56s56 25.074218 56 56zm0 0" fill="#dd3e46"/><path d="m280 168.492188c35.390625 13.410156 75.414062 1.03125 88-32l-128.414062-48c-12.585938 33.03125 7.359374 67.480468 40.414062 80zm0 0" fill="#fcf05a"/><path d="m354.496094 320.492188h-244.992188c-27.242187 0-51.5-17.246094-60.449218-42.976563l-49.054688-141.023437h464l-49.054688 141.023437c-8.949218 25.730469-33.207031 42.976563-60.449218 42.976563zm0 0" fill="#d3843d"/><path d="m104 320.492188h256v32h-256zm0 0" fill="#9c2d20"/><g fill="#ffd782"><path d="m424 248.492188h-192c-4.417969 0-8-3.582032-8-8 0-4.417969 3.582031-8 8-8h192c4.417969 0 8 3.582031 8 8 0 4.417968-3.582031 8-8 8zm0 0"/><path d="m416 280.492188h-64c-4.417969 0-8-3.582032-8-8 0-4.417969 3.582031-8 8-8h64c4.417969 0 8 3.582031 8 8 0 4.417968-3.582031 8-8 8zm0 0"/><path d="m320 280.492188h-16c-4.417969 0-8-3.582032-8-8 0-4.417969 3.582031-8 8-8h16c4.417969 0 8 3.582031 8 8 0 4.417968-3.582031 8-8 8zm0 0"/></g></svg>