<svg height="512pt" viewBox="0 0 512.00111 512" width="512pt" xmlns="http://www.w3.org/2000/svg"><path d="m319.125 148.832031-55.621094-24.507812c-4.671875 3.46875-8.605468 8.015625-11.097656 13.753906l-74.027344 186.871094 86.449219-33.640625 51.816406-124.929688c2.492188-5.738281 3.125-11.738281 2.480469-17.546875zm0 0" fill="#ed8a19"/><path d="m141.242188 406.066406c-5.605469 5.640625-4.476563 58.933594-10.910157 63.027344 2.613281 28.003906 20.285157 42.902344 20.285157 42.902344 36.96875-22.613282 47.183593-49.804688 47.183593-49.804688 2.578125-4.199218 4.898438-8.640625 6.910157-13.292968l33.511718-84.59375zm0 0" fill="#ed8a19"/><path d="m312.636719 131.519531 36.828125-84.902343c5.449218-12.554688 4.558594-26.324219-1.25-37.675782-6.515625-12.75-25.222656-11.539062-30.898438 1.5625-1.976562 4.554688-2.558594 9.945313-.246094 14.359375 1.191407 2.289063 1.386719 5.070313.28125 7.609375l-36.828124 84.90625c-6.1875.742188-12.101563 3.125-17.089844 6.902344 14.820312 9.023438 21.203125 27.710938 14.105468 44.058594 7.089844-16.347656 25.035157-24.320313 41.675782-19.484375-.636719-6.265625-2.914063-12.261719-6.578125-17.335938zm0 0" fill="#23a24d"/><path d="m375.472656 126.734375-276.480468 278.050781s-55.683594 55.996094-98.992188 49.78125c41.039062 41.269532 107.449219 41.269532 148.488281 0l276.480469-278.050781c4.421875-4.449219 7.203125-9.808594 8.722656-15.457031l-42.839844-43.082032c-5.625 1.519532-10.957031 4.316407-15.378906 8.757813zm0 0" fill="#ebba16"/><path d="m74.238281 467.859375-1.5625-.007813c-4.871093-.097656-8.746093-4.125-8.65625-8.996093.085938-4.871094 3.96875-8.710938 8.984375-8.660157l1.234375.007813c18.558594 0 36.035157-7.289063 49.207031-20.53125 3.441407-3.460937 9.03125-3.480469 12.480469-.035156 3.460938 3.441406 3.46875 9.019531.035157 12.480469-16.507813 16.605468-38.425782 25.742187-61.722657 25.742187zm0 0" fill="#b28b1d"/><path d="m433.957031 142.589844 65.25-65.625c9.648438-9.699219 13.84375-22.84375 12.574219-35.539063-1.421875-14.25-19.273438-19.933593-29.34375-9.816406-3.503906 3.523437-6.011719 8.332031-5.472656 13.285156.28125 2.558594-.558594 5.226563-2.507813 7.1875l-65.253906 65.621094c-6.039063-1.5625-12.410156-1.5-18.433594.195313 10.515625 13.804687 9.640625 33.535156-2.929687 46.167968 12.5625-12.632812 32.183594-13.515625 45.914062-2.9375 1.691406-6.058594 1.753906-12.464844.203125-18.539062zm0 0" fill="#23a24d"/></svg>