<svg height="512pt" viewBox="0 -5 512 512" width="512pt" xmlns="http://www.w3.org/2000/svg"><path d="m393.089844 111.40625c-.496094-.164062-1-.246094-1.492188-.402344-30.050781-37.53125-75.300781-62.363281-126.453125-65.023437l-27.429687.730469c-47.386719 4.972656-89.070313 29.011718-117.320313 64.292968-.511719.15625-1.035156.246094-1.539062.421875-71.449219 24.355469-118.855469 71.503907-118.855469 144.574219 0 113.609375 91.429688 246.855469 256 246.855469s256-133.246094 256-246.855469c0-73.089844-47.433594-120.246094-118.910156-144.59375zm0 0" fill="#dd352e"/><g fill="#b02721"><path d="m312.367188 128c-4.070313 0-7.78125-2.734375-8.84375-6.847656-1.261719-4.890625 1.675781-9.875 6.554687-11.144532l6-1.574218c28.09375-7.359375 54.636719-14.296875 79.953125-5.675782 4.78125 1.625 7.332031 6.820313 5.707031 11.601563-1.628906 4.773437-6.839843 7.359375-11.601562 5.703125-20.117188-6.835938-44.070313-.574219-69.433594 6.074219l-6.042969 1.570312c-.769531.203125-1.535156.292969-2.292968.292969zm0 0"/><path d="m199.644531 128.019531c-.761719 0-1.527343-.09375-2.296875-.292969l-6.015625-1.574218c-25.390625-6.644532-49.378906-12.898438-69.523437-6.070313-4.789063 1.664063-9.972656-.933593-11.601563-5.703125-1.625-4.773437.925781-9.976562 5.707031-11.605468 25.34375-8.648438 51.921876-1.691407 80.054688 5.6875l5.96875 1.5625c4.890625 1.273437 7.828125 6.253906 6.554688 11.148437-1.066407 4.113281-4.78125 6.847656-8.847657 6.847656zm0 0"/><path d="m93.277344 406.5c-2.480469 0-4.949219-.996094-6.75-2.972656-30.199219-33.039063-50.414063-75.207032-56.921875-118.753906-.75-4.992188 2.695312-9.648438 7.6875-10.394532 5.03125-.667968 9.644531 2.695313 10.394531 7.695313 5.890625 39.40625 24.972656 79.167969 52.335938 109.113281 3.410156 3.730469 3.144531 9.507812-.578126 12.917969-1.753906 1.601562-3.964843 2.394531-6.167968 2.394531zm-55.28125-159.632812c-.484375 0-.96875-.039063-1.460938-.121094-4.984375-.804688-8.375-5.484375-7.578125-10.46875 2.328125-14.507813 7.367188-27.976563 14.992188-40.015625 2.699219-4.269531 8.347656-5.550781 12.617187-2.84375 4.269532 2.695312 5.542969 8.335937 2.84375 12.605469-6.289062 9.949218-10.460937 21.101562-12.386718 33.144531-.734376 4.5-4.617188 7.699219-9.027344 7.699219zm0 0"/><path d="m137.144531 248.410156c-2.5625 0-5.09375-1.058594-6.90625-3.144531-3.308593-3.8125-2.90625-9.589844.898438-12.898437 27.730469-24.109376 70.636719-38.722657 117.722656-40.109376 5.191406.042969 9.261719 3.828126 9.40625 8.875.148437 5.046876-3.820313 9.261719-8.867187 9.410157-42.933594 1.25-81.664063 14.242187-106.265626 35.621093-1.730468 1.507813-3.859374 2.246094-5.988281 2.246094zm0 0"/><path d="m374.847656 248.394531c-2.121094 0-4.261718-.742187-5.996094-2.242187-19.367187-16.832032-48.082031-28.734375-80.859374-33.507813-5.003907-.722656-8.457032-5.367187-7.726563-10.367187.730469-4.992188 5.347656-8.53125 10.367187-7.726563 36.207032 5.265625 68.242188 18.695313 90.222657 37.796875 3.8125 3.308594 4.214843 9.085938.90625 12.898438-1.820313 2.085937-4.363281 3.148437-6.914063 3.148437zm0 0"/></g><path d="m109.203125 159.972656c-5.722656 1.753906-8.632813 4.597656-8.632813 4.597656 2.84375-1.707031 5.722657-3.234374 8.632813-4.597656zm0 0" fill="#61b872"/><path d="m301.714844 155.429688s-36.570313-18.285157-36.570313-82.285157v-73.144531l-27.429687 18.285156v54.859375s0 82.285157-18.285156 82.285157c-17.144532 0-66.460938-16.082032-110.226563 4.542968 8.738281-2.695312 24.117187-2.835937 46.226563 13.742188 0 0 18.285156 18.285156 82.285156 9.140625 0 0 36.570312 54.859375 36.570312 82.289062 0 0 27.429688-45.714843 9.144532-82.289062 0 0 18.285156 18.289062 54.855468-9.140625 0 0 36.570313-27.429688 64 9.140625 0 0-27.429687-64-100.570312-27.425781zm0 0" fill="#61b872"/></svg>