<svg height="511pt" viewBox="0 -6 511.99884 511" width="511pt" xmlns="http://www.w3.org/2000/svg"><path d="m388.414062 129.753906c34.433594-33.535156 19.976563-69.148437 43.113282-92.902344-9.515625-2.675781-19.507813-4.203124-29.875-4.203124-60.945313 0-110.34375 49.402343-110.34375 110.347656 0 3.476562.203125 6.910156.519531 10.308594 19.632813-6.214844 83.210937-10.882813 96.585937-23.550782zm0 0" fill="#ed8a19"/><path d="m465.238281 52.910156c-34.710937 35.867188-100.359375 58.394532-147.445312 103.324219-7.972657 7.609375 3.300781 7.144531 0 17.65625-1.441407 4.589844 3.539062 38.832031 2.601562 43.574219 20.171875 21.996094 49.054688 35.875 81.257813 35.875 60.949218 0 110.347656-49.398438 110.347656-110.34375 0-37.234375-18.503906-70.101563-46.761719-90.085938zm0 0" fill="#ed8a19"/><path d="m254.402344 161.957031c-8.105469-43.378906-47.730469-76.339843-95.507813-76.339843-53.625 0-97.101562 41.496093-97.101562 92.6875 0 51.191406 43.476562 92.691406 97.101562 92.691406 9.527344 0 18.707031-1.371094 27.402344-3.804688 19.84375-15.980468 40.871094-34.03125 62.179687-53.109375 2.339844-5.332031 4.167969-10.910156 5.429688-16.683593l-12.289062-33.703126c4.238281-.484374 8.511718-1.078124 12.785156-1.738281zm0 0" fill="#dd352e"/><path d="m335.730469 272.644531-52.859375 7c-.046875-.707031-.097656-1.542969-.140625-2.3125-36.28125 13.425781-62.042969 46.980469-62.042969 86.351563 0 51.191406 43.476562 92.691406 97.105469 92.691406 53.625 0 97.101562-41.5 97.101562-92.691406 0-45.328125-34.117187-82.996094-79.164062-91.039063zm0 0" fill="#ebba16"/><path d="m152.453125 335.753906c-1.105469.722656-2.28125 1.554688-3.375 2.257813l-87.523437-18.042969c-21.796876 7.671875-40.714844 23.28125-51.820313 45.417969-22.949219 45.761719-3.9375 101.722656 42.480469 125 46.40625 23.277343 102.636718 5.058593 125.589844-40.703125 19.871093-39.609375 8.234374-86.847656-25.351563-113.929688zm0 0" fill="#b02721"/><path d="m341.539062 175.992188c67.796876-64.699219 127.273438-126.597657 148.71875-149.152344 4.289063-4.507813 3.496094-11.757813-1.644531-15.269532l-13.558593-9.289062c-4.128907-2.832031-9.683594-2.2421875-13.089844 1.433594-15.679688 16.910156-61.140625 65.410156-119.085938 121.84375-24.40625 23.113281-64.226562 33.917968-101.269531 38.136718-8.808594 1.007813-16.90625-4.953124-18.652344-13.65625-1.191406-5.957031-7.496093-9.375-13.136719-7.113281l-9.382812 3.75c-5.417969 2.164063-11.511719-.890625-13.003906-6.53125l-1.347656-5.113281c-2.226563-8.402344-13.527344-9.878906-17.832032-2.328125l-1.121094 1.957031c-2.21875 3.875-6.789062 5.746094-11.078124 4.53125-7.292969-2.058594-14.027344 4.640625-12.007813 11.941406l2.894531 10.46875c1.113282 4.007813-.449218 8.28125-3.882812 10.621094l-16.410156 11.203125c-5.695313 3.882813-5.640626 12.289063.089843 16.109375l11.367188 7.582032c2.011719 1.34375 3.453125 3.382812 4.035156 5.730468l4.511719 18.050782c1.667968 6.683593 9.542968 9.605468 15.09375 5.546874 2.851562-2.085937 6.152344-4.566406 9.84375-7.460937 1.710937-1.34375 3.875-2.128906 6.054687-2.128906h12.925781c3.6875 0 7.828126-6.917969 10.335938-13.910157 2.675781-7.453124 9.277344-12.730468 17.179688-13.066406 14.777343-.625 37.066406-1.949218 51.144531-4.605468-55.640625 50.976562-111.457031 97.691406-151.261719 120.511718-.582031-.121094-1.09375-.363281-1.683594-.457031-.777344-.132813-1.605468-.179687-2.394531-.144531l-46.097656 2.03125c-8.683594.378906-12.535157 11.097656-6.082031 16.921875l1.679687 1.511719c3.308594 2.992187 4.164063 7.855468 2.054687 11.792968 0 8.03125 6.746094 14.414063 14.761719 13.972656l7.6875-.421874c2.824219-.160157 5.578125.925781 7.539063 2.964843l15.632812 16.253907c5.414063 5.621093 14.910156 2.894531 16.507813-4.75l.195312-.925782c1.375-6.5625 8.828125-9.792968 14.546875-6.3125l2.800782 1.695313c7.8125 4.738281 17.414062-2.976563 14.226562-11.546875-2.453125-6.613282-5.796875-13.773438-10.273438-20.347656 37.921876-24.390626 85.007813-63.4375 132.238282-106.039063-.546875 10.824219.707031 34.613281 1.542968 47.660156l-23.59375 12.898438c-7.628906 4.167969-6.367187 15.484375 1.984376 17.867187l2.171874.617188c4.289063 1.226562 7.195313 5.21875 7.042969 9.675781-.253906 7.574219 7.859375 12.515625 14.46875 8.808594l11.652344-6.53125c2.464844-1.386719 5.414063-1.625 8.078125-.652344l21.1875 7.695313c7.335938 2.667968 14.660156-3.972657 12.726562-11.535157l-.238281-.917969c-1.648437-6.5 3.613281-12.679687 10.285157-12.078124l3.265624.292968c9.242188.828125 14.230469-10.460937 7.476563-16.835937-10.554687-9.964844-25.484375-20.179688-42.421875-21.105469-.609375-15.035156-.3125-41.382812 6.929688-64.441406 3.308593-10.515625 9.699218-19.800782 17.671874-27.410156zm0 0" fill="#61b872"/><path d="m435.179688 112.089844-9.453126-5.351563c-3.132812-1.773437-4.871093-5.117187-4.8125-8.632812-17.867187 17.972656-37.859374 37.808593-59.082031 58.359375l18.316407 12.210937c5.058593 3.371094 11.925781 1.324219 14.320312-4.257812l3.980469-9.292969c2.296875-5.359375 8.765625-7.503906 13.816406-4.574219l4.570313 2.65625c7.515624 4.371094 16.542968-2.578125 14.257812-10.960937l-.589844-2.183594c-1.175781-4.304688.730469-8.863281 4.632813-11.03125 6.613281-3.710938 6.636719-13.207031.042969-16.941406zm0 0" fill="#3d6f44"/><path d="m317.792969 429.890625c-38.941407 0-70.621094-29.695313-70.621094-66.207031 0-1.78125.070313-3.558594.21875-5.3125.417969-4.863282 4.714844-8.527344 9.554687-8.042969 4.851563.414063 8.453126 4.6875 8.039063 9.542969-.105469 1.269531-.15625 2.53125-.15625 3.8125 0 26.765625 23.761719 48.550781 52.964844 48.550781 4.871093 0 8.828125 3.949219 8.828125 8.828125 0 4.882812-3.957032 8.828125-8.828125 8.828125zm0 0" fill="#dc691d"/><path d="m38.398438 433.785156c-3.679688 0-7.105469-2.3125-8.359376-5.996094-5.71875-16.832031-4.527343-34.78125 3.363282-50.535156l.988281-1.863281c2.347656-4.265625 7.714844-5.820313 11.988281-3.488281 4.273438 2.347656 5.828125 7.714844 3.476563 11.980468l-.6875 1.3125c-5.738281 11.449219-6.601563 24.570313-2.410157 36.910157 1.570313 4.609375-.898437 9.628906-5.515624 11.203125-.945313.324218-1.90625.476562-2.84375.476562zm0 0" fill="#fc3952"/><path d="m406.066406 218.027344c-4.871094 0-8.828125-3.945313-8.828125-8.824219 0-4.882813 3.957031-8.828125 8.828125-8.828125 34.074219 0 61.792969-27.730469 61.792969-61.792969 0-4.882812 3.957031-8.828125 8.828125-8.828125 4.875 0 8.828125 3.945313 8.828125 8.828125 0 43.808594-35.636719 79.445313-79.449219 79.445313zm0 0" fill="#c5411e"/></svg>