<svg height="512pt" viewBox="0 -6 512.01009 512" width="512pt" xmlns="http://www.w3.org/2000/svg"><path d="m113.789062 434.230469c-6.421874-6.5625-4.238281-19.589844-9.484374-22.871094-4.816407-3.011719-14.667969.664063-20.894532-5.574219-9.386718-9.394531-32.957031 3.167969-37.890625-4.378906-2.179687-3.339844-7.992187-5.234375-12.5625-8.289062 1.605469 4.089843 3.160157 8.164062 5.007813 12.289062 8.683594 19.34375 14.648437 77.484375-4.257813 95.195312 19.058594-12.195312 38.875-28.71875 56.605469-48.441406-1.679688-1.175781 24.945312-16.421875 23.476562-17.929687zm0 0" fill="#23a24d"/><path d="m464.109375 188.175781c1.546875-6.285156.921875-13.09375-2.105469-19.125-4.550781-9.042969-16.980468-8.988281-20.914062-14.65625-4.078125-5.871093 2.851562-14.886719-4.417969-22.984375-2.34375-2.605468-4.703125-4.160156-7.09375-5.070312-8.363281-3.195313-15.710937-9.339844-17.558594-18.253906-.53125-2.570313-1.886719-5.042969-3.660156-7.375-20.59375-6.960938-79.511719-68.683594-104.941406-55.222657-104.96875 55.582031-157.308594 64.882813-209.046875 2.484375-1.082032 2.03125-2.097656 4.117188-2.816406 6.371094-2.636719 8.242188-9.558594 14.640625-17.808594 16.753906-15.480469 3.964844-16.296875 28.285156-22.195313 38.277344-4.921875 8.335938-15.84375 6.867188-15.804687 21.351562 0 1.015626.074218 1.964844.199218 2.855469 1.394532 9.660157-3.46875 19.179688-11.101562 25.078125-8.640625 6.683594-15.796875 18.78125-20.015625 26.054688-7.09375 12.230468-6.097656 27.375 1.203125 38.695312 3.945312 6.113282 6.078125 13.464844 4.464844 20.601563-1.003906 4.503906-.398438 9.085937-2.152344 15-2.71875 9.132812-2.019531 19.675781-2.152344 30.796875 6.5625 2.132812 6.75 6.144531.589844 12.042968-1.859375 6.351563-2.050781 12.761719-.570312 19.21875 1.648437 6.96875 5.261718 13.121094 10.210937 17.863282 6.675781 6.378906 8.496094 16.058594 6.769531 25.230468-1.601562 8.492188.257813 17.585938 5.433594 25 4.078125 5.851563 13.898438 7.691407 16.886719 12.269532 4.929687 7.546875-4.304688 14.839844 5.082031 24.234375 6.230469 6.238281 16.082031 2.558593 20.898438 5.574219 5.242187 3.28125 7.574218 10.507812 13.992187 17.066406 7.625 7.796875 18.261719 11.238281 28.570313 10.296875 9.945312-.910157 19.710937 4.941406 23.996093 14.128906 1.914063 4.097656 4.496094 7.878906 7.699219 11.152344 12.714844 12.96875 31.828125 15.046875 46.792969 7.375 7.628906-3.917969 17.007812-4.125 24.222656.539062 9.824219 6.355469 21.960937.757813 32.125-4.578125 5.414063-2.84375 11.59375-4.570312 17.558594-3.320312 3.023437.636718 6.210937.363281 9.558593-.804688 6.179688-2.027344 10.664063-5.925781 13.445313-11.691406.660156-2.273438 1.316406-4.539062 1.980469-6.816406 5.414062 2.105468 10.914062 2.417968 16.507812.929687 5.300782-.9375 19.996094-.039062 24.574219-2.492187 4.523437-2.4375 10.070313-12.003906 12.175781-12.914063 3.023438-1.308593 30.957032-25.363281 34.558594-25.328125l90.132812-216.308594c-4.503906-5.851562-7.046874-13.085937-5.273437-20.300781zm0 0" fill="#f7e6a1"/><path d="m369.789062 382.082031c4.398438 39.574219-9.691406 67.320313-33.726562 86.746094 86.507812-35.328125 147.503906-120.261719 147.503906-219.488281 0-16.609375 9.480469-47.40625 28.445313-56.886719-66.371094 18.960937-155.582031 69.367187-142.222657 189.628906zm0 0" fill="#23a24d"/><path d="m339.445312 107.214844c41.929688-22.195313 76.972657-7.917969 106.195313 14.125-56.890625-94.8125-161.1875-151.703125-284.445313-104.292969-19.789062 7.613281-78.175781 10.371094-94.816406-9.484375 42.667969 75.484375 145.664063 167.113281 273.066406 99.652344zm0 0" fill="#23a24d"/><g fill="#c99d71"><path d="m94.824219 178.230469c-5.234375 0-9.480469-4.238281-9.480469-9.480469 0-26.140625 21.265625-47.410156 47.40625-47.410156 5.234375 0 9.480469 4.238281 9.480469 9.484375 0 5.242187-4.246094 9.480469-9.480469 9.480469-15.679688 0-28.445312 12.761718-28.445312 28.445312 0 5.242188-4.246094 9.480469-9.480469 9.480469zm0 0"/><path d="m69.917969 298.113281c-2.210938 0-4.429688-.765625-6.222657-2.332031-9.554687-8.324219-15.300781-19.863281-16.164062-32.492188-.871094-12.621093 3.234375-24.84375 11.558594-34.398437 3.441406-3.945313 9.425781-4.351563 13.378906-.921875 3.953125 3.433594 4.359375 9.425781.917969 13.378906-4.996094 5.726563-7.460938 13.066406-6.929688 20.640625.53125 7.578125 3.960938 14.488281 9.699219 19.496094 3.953125 3.429687 4.359375 9.421875.917969 13.378906-1.875 2.152344-4.511719 3.25-7.15625 3.25zm0 0"/><path d="m140.839844 259.191406c-3.09375 0-6.117188-1.496094-7.9375-4.273437-6.960938-10.59375-9.367188-23.25-6.808594-35.640625 2.570312-12.402344 9.8125-23.0625 20.40625-30.011719 4.378906-2.890625 10.257812-1.65625 13.128906 2.722656 2.875 4.378907 1.660156 10.25-2.71875 13.132813-6.363281 4.171875-10.707031 10.5625-12.25 17.996094-1.535156 7.433593-.085937 15.027343 4.085938 21.386718 2.871094 4.382813 1.660156 10.25-2.722656 13.132813-1.589844 1.0625-3.394532 1.554687-5.183594 1.554687zm0 0"/><path d="m130.816406 397.90625c-26.046875 0-47.285156-21.125-47.40625-47.1875-.019531-5.246094 4.199219-9.5 9.433594-9.53125h.046875c5.214844 0 9.460937 4.210938 9.480469 9.433594.078125 15.636718 12.820312 28.3125 28.445312 28.3125.058594 0 .113282.011718.171875 0 5.214844 0 9.460938 4.210937 9.480469 9.433594.019531 5.246093-4.199219 9.5-9.445312 9.53125-.066407.007812-.140626.007812-.207032.007812zm0 0"/><path d="m246.527344 263.402344c-12.589844 0-24.433594-4.875-33.375-13.730469-8.988282-8.902344-13.972656-20.792969-14.023438-33.457031-.015625-5.246094 4.203125-9.503906 9.445313-9.53125h.039062c5.214844 0 9.460938 4.210937 9.480469 9.433594.066406 15.644531 12.820312 28.320312 28.445312 28.320312.054688 0 .113282.011719.167969 0 5.214844 0 9.464844 4.210938 9.484375 9.4375.019532 5.242188-4.203125 9.5-9.445312 9.527344-.074219 0-.152344 0-.21875 0zm0 0"/><path d="m231.472656 445.789062c-8.941406 0-17.976562-2.511718-25.980468-7.777343-4.371094-2.878907-5.585938-8.757813-2.710938-13.140625 2.871094-4.371094 8.75-5.59375 13.132812-2.710938 13.101563 8.628906 30.777344 4.976563 39.394532-8.117187 2.882812-4.378907 8.761718-5.601563 13.132812-2.699219 4.371094 2.878906 5.582032 8.757812 2.710938 13.128906-9.101563 13.816406-24.246094 21.316406-39.679688 21.316406zm0 0"/><path d="m328.542969 271.1875c-9.167969 0-18.136719-2.664062-25.980469-7.832031-4.371094-2.882813-5.582031-8.761719-2.699219-13.132813 2.882813-4.378906 8.757813-5.613281 13.128907-2.703125 6.355468 4.171875 13.949218 5.652344 21.382812 4.105469 7.433594-1.535156 13.832031-5.878906 18.015625-12.230469 2.871094-4.371093 8.757813-5.601562 13.128906-2.703125 4.371094 2.882813 5.585938 8.761719 2.714844 13.132813-6.96875 10.582031-17.628906 17.824219-30.03125 20.375-3.210937.664062-6.453125.988281-9.660156.988281zm0 0"/><path d="m295.738281 366c-9.167969 0-18.140625-2.664062-25.980469-7.832031-4.371093-2.878907-5.585937-8.757813-2.703124-13.128907 2.875-4.371093 8.761718-5.605468 13.132812-2.703124 6.351562 4.171874 13.957031 5.640624 21.382812 4.105468 7.433594-1.535156 13.832032-5.878906 18.011719-12.230468 2.882813-4.382813 8.761719-5.605469 13.132813-2.703126 4.371094 2.882813 5.585937 8.761719 2.710937 13.132813-6.96875 10.582031-17.625 17.824219-30.027343 20.375-3.214844.664063-6.445313.984375-9.660157.984375zm0 0"/><path d="m215.675781 350.007812c-5.507812 0-11.035156-.976562-16.363281-2.941406-11.882812-4.359375-21.355469-13.101562-26.671875-24.605468-2.199219-4.75-.125-10.390626 4.625-12.582032 4.761719-2.207031 10.390625-.132812 12.59375 4.621094 3.195313 6.910156 8.875 12.144531 16.003906 14.769531 7.128907 2.628907 14.847657 2.296875 21.75-.890625 4.742188-2.238281 10.382813-.132812 12.582031 4.617188 2.199219 4.75.132813 10.390625-4.628906 12.582031-6.332031 2.949219-13.101562 4.429687-19.890625 4.429687zm0 0"/></g><path d="m445.640625 130.824219c-2.21875 0-4.4375-.769531-6.238281-2.34375-72.25-63.222657-218.246094-64.511719-246.757813-55.039063-4.949219 1.667969-10.335937-1.023437-11.992187-5.992187-1.660156-4.96875 1.03125-10.34375 6-11.996094 27.382812-9.140625 184.046875-12.304687 265.246094 58.738281 3.941406 3.453125 4.339843 9.445313.890624 13.378906-1.886718 2.164063-4.511718 3.253907-7.148437 3.253907zm0 0" fill="#a1e5ac"/><path d="m246.527344 45.488281c-2.425782 0-4.851563-.929687-6.703125-2.777343l-9.480469-9.480469c-3.707031-3.707031-3.707031-9.699219 0-13.40625 3.699219-3.707031 9.710938-3.707031 13.40625 0l9.480469 9.480469c3.707031 3.707031 3.707031 9.699218 0 13.40625-1.847657 1.859374-4.273438 2.777343-6.703125 2.777343zm0 0" fill="#a1e5ac"/><path d="m256.011719 111.859375c-2.429688 0-4.855469-.929687-6.703125-2.777344-3.710938-3.707031-3.710938-9.699219 0-13.40625l9.480468-9.480469c3.695313-3.710937 9.707032-3.710937 13.40625 0 3.707032 3.707032 3.707032 9.699219 0 13.40625l-9.480468 9.480469c-1.851563 1.859375-4.277344 2.777344-6.703125 2.777344zm0 0" fill="#a1e5ac"/><path d="m322.378906 54.972656c-2.425781 0-4.851562-.929687-6.703125-2.78125l-9.480469-9.480468c-3.707031-3.707032-3.707031-9.699219 0-13.40625 3.699219-3.707032 9.710938-3.707032 13.40625 0l9.480469 9.480468c3.710938 3.707032 3.710938 9.699219 0 13.40625-1.847656 1.859375-4.273437 2.78125-6.703125 2.78125zm0 0" fill="#a1e5ac"/></svg>