<svg height="480pt" viewBox="0 -8 480 480" width="480pt" xmlns="http://www.w3.org/2000/svg"><path d="m88 104h-32l-8-104h48zm0 0" fill="#c8d952"/><path d="m64 104h-32l-16-80h40zm0 0" fill="#55b56a"/><path d="m80 104h32l16-80h-40zm0 0" fill="#55b56a"/><path d="m248 152c0 22.089844-17.910156 40-40 40s-40-17.910156-40-40 17.910156-40 40-40 40 17.910156 40 40zm0 0" fill="#ffd782"/><path d="m462.625 194.742188c-7.144531-7.113282-17.230469-10.425782-27.199219-8.933594l17.832031-17.808594c8.566407-8.507812 11.597657-21.125 7.820313-32.59375s-13.707031-19.820312-25.652344-21.574219l17.832031-17.832031c11.171876-11.121094 12.550782-28.738281 3.242188-41.460938-9.3125-12.726562-26.515625-16.742187-40.5-9.460937v-13.078125c0-17.671875-14.328125-32-32-32s-32 14.328125-32 32v13.078125c-13.984375-7.28125-31.1875-3.265625-40.5 9.460937-9.308594 12.722657-7.929688 30.339844 3.242188 41.460938l17.832031 17.832031c-11.945313 1.753907-21.875 10.105469-25.652344 21.574219s-.746094 24.085938 7.820313 32.59375l17.808593 17.808594c-13.628906-2.015625-27.015625 4.945312-33.195312 17.261718-6.175781 12.320313-3.75 27.210938 6.019531 36.929688l22.625 22.625c12.496094 12.496094 32.757812 12.496094 45.257812 0 12.496094-12.496094 8.988282-12.496094 21.484376 0 12.5 12.496094 32.761718 12.496094 45.257812 0l22.625-22.625c12.496094-12.496094 12.496094-32.757812 0-45.257812zm0 0" fill="#c8d952"/><path d="m8 384h464v80h-464zm0 0" fill="#ad6327"/><path d="m8 304h464v80h-464zm0 0" fill="#d3843d"/><g fill="#ffd782"><path d="m304 432h-296c-4.417969 0-8-3.582031-8-8s3.582031-8 8-8h296c4.417969 0 8 3.582031 8 8s-3.582031 8-8 8zm0 0"/><path d="m472 432h-72c-4.417969 0-8-3.582031-8-8s3.582031-8 8-8h72c4.417969 0 8 3.582031 8 8s-3.582031 8-8 8zm0 0"/><path d="m472 352h-216c-4.417969 0-8-3.582031-8-8s3.582031-8 8-8h216c4.417969 0 8 3.582031 8 8s-3.582031 8-8 8zm0 0"/><path d="m152 352h-144c-4.417969 0-8-3.582031-8-8s3.582031-8 8-8h144c4.417969 0 8 3.582031 8 8s-3.582031 8-8 8zm0 0"/></g><path d="m411.199219 145.601562-19.199219 14.398438v-44l28.800781-21.601562c3.535157-2.648438 4.25-7.664063 1.597657-11.199219-2.648438-3.535157-7.664063-4.25-11.199219-1.597657l-19.199219 14.398438v-24c0-4.417969-3.582031-8-8-8s-8 3.582031-8 8v24l-19.199219-14.398438c-3.535156-2.652343-8.550781-1.9375-11.199219 1.597657-2.652343 3.535156-1.9375 8.550781 1.597657 11.199219l28.800781 21.601562v44l-19.199219-14.398438c-3.535156-2.652343-8.550781-1.9375-11.199219 1.597657-2.652343 3.535156-1.9375 8.550781 1.597657 11.199219l28.800781 21.601562v82.625c0 4.417969 3.582031 8 8 8s8-3.582031 8-8v-82.625l28.800781-21.601562c3.535157-2.648438 4.25-7.664063 1.597657-11.199219-2.648438-3.535157-7.664063-4.25-11.199219-1.597657zm0 0" fill="#388e48"/><path d="m336 184c0 35.347656-28.652344 64-64 64s-64-28.652344-64-64 28.652344-64 64-64 64 28.652344 64 64zm0 0" fill="#dd3e46"/><path d="m120 304h-88l-16-168c0-30.929688 25.070312-56 56-56h8c30.929688 0 56 25.070312 56 56zm0 0" fill="#e97424"/><path d="m56 168h-32c-4.417969 0-8-3.582031-8-8s3.582031-8 8-8h32c4.417969 0 8 3.582031 8 8s-3.582031 8-8 8zm0 0" fill="#ffd782"/><path d="m72 200h-40c-4.417969 0-8-3.582031-8-8s3.582031-8 8-8h40c4.417969 0 8 3.582031 8 8s-3.582031 8-8 8zm0 0" fill="#ffd782"/><path d="m56 232h-24c-4.417969 0-8-3.582031-8-8s3.582031-8 8-8h24c4.417969 0 8 3.582031 8 8s-3.582031 8-8 8zm0 0" fill="#ffd782"/><path d="m64 264h-32c-4.417969 0-8-3.582031-8-8s3.582031-8 8-8h32c4.417969 0 8 3.582031 8 8s-3.582031 8-8 8zm0 0" fill="#ffd782"/><path d="m360 192c-25.421875.023438-47.636719 17.167969-54.105469 41.753906-11.59375-10.175781-28.070312-12.617187-42.117187-6.25-2.308594-33.011718-29.414063-58.8125-62.5-59.484375-33.085938-.671875-61.21875 24.007813-64.863282 56.902344-14.976562-3.269531-30.507812 2.308594-39.980468 14.367187-9.472656 12.058594-11.21875 28.46875-4.496094 42.25 6.722656 13.777344 20.730469 22.503907 36.0625 22.460938h232c30.929688 0 56-25.070312 56-56s-25.070312-56-56-56zm0 0" fill="#55b56a"/></svg>