<svg height="511pt" viewBox="0 -17 511.99476 511" width="511pt" xmlns="http://www.w3.org/2000/svg"><path d="m445.976562 143.980469c46.863282-31.0625 39.050782-100.941407 39.050782-100.941407-31.246094 31.0625-70.292969 31.0625-70.292969 31.0625l7.8125-15.527343c-23.4375 0-46.863281 15.527343-46.863281 15.527343l7.8125-15.527343c-47.6875-12.933594-85.734375 2.851562-110.160156 19.457031.007812.070312.015624.148438.023437.21875-3.421875-32.492188-42.335937-51.269531-42.335937-51.269531 7.222656 25.636719-4.6875 44.835937-4.6875 44.835937l-5.992188-8.980468c-7.152344 11.523437-5.914062 28.179687-5.914062 28.179687l-5.996094-8.976563c-38.769532 34.53125-17.75 84.53125-17.75 84.53125l-13.144532 2.542969c1.597657 7.300781 4.324219 13.816407 7.75 19.703125l1.90625.105469-30.921874-1.722656 2.558593 13.066406-36.085937 6.601563 5.144531 8.898437-21.917969 9.542969 5.136719 8.898437c-33.507813 2.445313-52.886719 42.277344-52.886719 42.277344 13.066406-3.636719 24.453125-2.386719 32.523438-.273437l-32.523438 26.949218 15.625 7.769532-23.4375 31.0625 15.625 7.769531c-46.882812 31.054687-39.070312 100.941406-39.070312 100.941406 31.242187-31.0625 70.292968-31.0625 70.292968-31.0625l-7.808593 15.527344c23.433593 0 46.863281-15.527344 46.863281-15.527344l-7.8125 15.527344c85.910156 23.296875 140.589844-46.59375 140.589844-46.59375l15.625 15.527343c13.742187-12.144531 22.960937-26.082031 28.972656-40.632812l19.171875 7.453125 2.691406-9.914063c14.824219 12.71875 35.242188 13.074219 49.734375 11.167969 2.878906-3.515625 6.207032-6.480469 9.710938-9.21875-16.542969-12.929687-20.542969-29.667969-20.542969-29.667969l10.621094 2.136719c-3.140625-13.171875-15.855469-24.082031-15.855469-24.082031l10.621094 2.136719c.546875-10.011719-.925782-18.832031-3.621094-26.582031 14.117188-1.535157 22.890625-3.160157 22.890625-3.160157l-23.425781-15.527343 46.863281-23.296876-15.625-15.527343 46.867187-38.824219-15.617187-7.765625 23.429687-31.066406zm0 0" fill="#23a24d"/><path d="m35.386719 281.195312s21.621093-44.816406 58.996093-47.5625l-5.738281-10.007812 24.453125-10.746094-5.738281-10.007812 40.253906-7.433594-2.851562-14.699219 34.488281 1.933594-7.160156-17.363281s28.859375 10.636718 56.242187 30.746094c41.375 30.382812 41.082031 96.960937-2.550781 130.480468-8.6875 6.675782-18.917969 11.863282-30.933594 14.488282l-2.851562-14.699219s-56.082032 23.5-94.832032-19.863281l10.070313-6.699219s-18.6875 1.375-31.609375-6.621094l10.070312-6.699219c-.007812 0-21.546874-13.320312-50.308593-5.246094zm0 0" fill="#61b872"/><path d="m222.910156 50.9375-6.679687-10.097656c-7.972657 12.957031-6.605469 31.699218-6.605469 31.699218l-6.679688-10.097656c-43.238281 38.859375-19.8125 95.089844-19.8125 95.089844l-14.652343 2.859375c1.785156 8.21875 4.828125 15.539063 8.640625 22.167969l2.128906.121094-7.160156-17.363282s28.859375 10.636719 56.242187 30.746094c10.34375 7.601562 18.085938 17.460938 23.199219 28.503906 23.738281-.316406 46.855469-10.511718 61.519531-30.59375 20.054688-27.464844 30.65625-56.402344 30.65625-56.402344l-17.308593 7.1875 1.933593-34.585937-14.65625 2.859375-7.40625-40.367188-9.984375 5.753907-10.722656-24.515625-9.984375 5.75c-2.738281-37.472656-47.433594-59.15625-47.433594-59.15625 8.050781 28.839844-5.234375 50.441406-5.234375 50.441406zm0 0" fill="#3d6f44"/><path d="m388.121094 345.117188 11.84375 2.402343c-3.503906-14.824219-17.679688-27.09375-17.679688-27.09375l11.847656 2.402344c3.175782-58.140625-53.054687-81.285156-53.054687-81.285156l8.351563-12.410157c-10.355469-6.675781-21.25-10.25-32.089844-11.6875-23.347656-3.101562-45.304688 3.777344-62.207032 16.59375 9.78125 31.144532.554688 68.554688-28.132812 91.464844 5.984375 25.253906 14.625 44.003906 14.625 44.003906l7.179688-17.355468 23.019531 25.832031 8.34375-12.421875 33.703125 23.285156 3-11.148437 24.859375 9.738281 3-11.148438c28.363281 24.558594 75.257812 8.199219 75.257812 8.199219-26.023437-14.679687-31.867187-39.371093-31.867187-39.371093zm0 0" fill="#1a9172"/><path d="m349.011719 337.507812c-1.03125 0-2.082031-.183593-3.105469-.566406-57.503906-21.617187-81.496094-81.890625-89.140625-106.804687-1.429687-4.660157 1.191406-9.601563 5.851563-11.03125 4.644531-1.433594 9.597656 1.191406 11.035156 5.84375 6.886718 22.421875 28.308594 76.605469 78.476562 95.46875 4.566406 1.710937 6.867188 6.804687 5.15625 11.359375-1.34375 3.550781-4.707031 5.730468-8.273437 5.730468zm0 0" fill="#83dd9f"/><path d="m467.894531 132.117188c52.269531-34.941407 43.554688-113.566407 43.554688-113.566407-34.839844 34.9375-78.40625 34.9375-78.40625 34.9375l8.714843-17.46875c-26.140624 0-52.269531 17.46875-52.269531 17.46875l8.710938-17.46875c-53.191407-14.539062-95.617188 3.214844-122.871094 21.890625.0625.59375.203125 1.148438.25 1.742188l9.984375-5.75 10.707031 24.515625 9.984375-5.746094 7.40625 40.367187 14.652344-2.859374-1.933594 34.585937 17.3125-7.175781s-10.601562 28.9375-30.660156 56.398437c-14.660156 20.074219-37.78125 30.269531-61.519531 30.597657 1.421875 3.070312 2.585937 6.242187 3.601562 9.464843v-.011719c16.90625-12.824218 38.871094-19.703124 62.210938-16.605468 10.839843 1.441406 21.742187 5.023437 32.085937 11.6875l-8.351562 12.414062s36.511718 15.085938 49.011718 51.386719c15.75-1.722656 25.53125-3.550781 25.53125-3.550781l-26.140624-17.46875 52.269531-26.210938-17.425781-17.46875 52.269531-43.679687-17.425781-8.738281 26.136718-34.941407zm0 0" fill="#23a24d"/><path d="m316.863281 377.699219-3 11.148437-33.703125-23.285156-8.34375 12.421875-23.023437-25.832031-7.175781 17.355468s-8.640626-18.757812-14.628907-44.015624c.011719-.007813.019531-.015626.027344-.023438-.433594.34375-.800781.738281-1.242187 1.074219-8.6875 6.667969-18.917969 11.867187-30.933594 14.488281l-2.851563-14.699219s-56.082031 23.5-94.835937-19.863281l10.074218-6.699219s-18.6875 1.367188-31.613281-6.621093l10.074219-6.699219s-5.253906-3.238281-14.019531-5.550781l-36.28125 30.3125 17.425781 8.738281-26.136719 34.941406 17.425781 8.738281c-52.269531 34.941406-43.558593 113.558594-43.558593 113.558594 34.84375-34.941406 78.410156-34.941406 78.410156-34.941406l-8.714844 17.472656c26.140625 0 52.269531-17.472656 52.269531-17.472656l-8.714843 17.472656c95.832031 26.207031 156.8125-52.417969 156.8125-52.417969l17.425781 17.46875c15.335938-13.664062 25.609375-29.34375 32.320312-45.710937zm0 0" fill="#23a24d"/><g fill="#83dd9f"><path d="m105.089844 398.65625c-3.152344 0-6.207032-1.683594-7.792969-4.667969-2.296875-4.292969-.671875-9.648437 3.625-11.945312 2.375-1.269531 58.898437-31.257813 128.0625-49.476563 4.714844-1.230468 9.542969 1.578125 10.789063 6.285156 1.242187 4.710938-1.574219 9.539063-6.285157 10.785157-67.089843 17.683593-123.675781 47.679687-124.242187 47.988281-1.332032.6875-2.753906 1.03125-4.15625 1.03125zm0 0"/><path d="m298.300781 225.960938c-3.292969 0-6.445312-1.84375-7.964843-5.003907-2.109376-4.394531-.253907-9.675781 4.140624-11.777343 71.160157-34.144532 134.125-112.355469 134.753907-113.132813 3.035156-3.8125 8.605469-4.441406 12.402343-1.386719 3.8125 3.046875 4.429688 8.597656 1.386719 12.402344-2.667969 3.339844-66.144531 82.167969-140.90625 118.035156-1.238281.589844-2.535156.863282-3.8125.863282zm0 0"/><path d="m122.515625 276.351562c-3.222656 0-6.339844-1.773437-7.882813-4.847656-2.199218-4.351562-.460937-9.65625 3.882813-11.863281 3.171875-1.617187 78.425781-39.152344 141.992187-20.886719 4.6875 1.332032 7.398438 6.222656 6.054688 10.910156-1.339844 4.6875-6.230469 7.390626-10.917969 6.054688-56.867187-16.265625-128.449219 19.316406-129.164062 19.679688-1.265625.652343-2.625.953124-3.964844.953124zm0 0"/><path d="m265.203125 236.371094c-2.839844 0-5.628906-1.367188-7.335937-3.902344-39.449219-58.667969-14.464844-139.714844-13.382813-143.140625 1.476563-4.632813 6.4375-7.167969 11.070313-5.746094 4.644531 1.464844 7.230468 6.425781 5.765624 11.070313-.238281.757812-23.453124 76.429687 11.203126 127.972656 2.71875 4.042969 1.640624 9.527344-2.402344 12.253906-1.507813 1.007813-3.222656 1.492188-4.917969 1.492188zm0 0"/></g></svg>