<svg height="512pt" viewBox="-74 0 512 512" width="512pt" xmlns="http://www.w3.org/2000/svg"><path d="m195.285156 404.839844c-3.144531-24.363282 53.945313-45.449219 41.222656-55.832032-23.371093-19.085937-15.6875-27.273437-4.492187-30.78125 16.199219-5.078124 21.671875-23.886718 9.597656-35.652343-14.53125-14.148438-49.5625-31.378907-55.472656-56.402344-6.078125-25.71875 23.152344-23.460937 37.839844-16.222656 7.886719 3.890625 16.800781-2.53125 14.636719-10.71875-7.519532-28.457031-66.785157-48.277344-60.6875-61.148438-11.359376-17.640625-25.722657-22.347656-25.722657-22.347656-2.347656-48-39.796875-39.867187-39.796875-39.867187-6.917968-35.988282-72.667968-43.757813-72.667968-43.757813l-12.234376-3.96875-4.574218 12.019531s-35.09375 56.136719-11.355469 84.0625c0 0-29.78125 24.109375 6.183594 55.996094 0 0-14.148438 37.210938 31.929687 75.953125 6.476563 5.449219 2.886719 15.832031-5.804687 17.1875-16.175781 2.535156-29.707031 9.285156-9.929688 26.828125 19.242188 17.066406 46.125 19.199219 66.15625 22.417969 16.648438 2.664062 23 21.207031 12.675781 34.675781-7.128906 9.320312-8.707031 20.429688 21.390626 22.582031 16.378906 1.171875 33.613281 14.824219 50.207031 32.941407 4.652343 5.078124 9.691406 10.039062 14.839843 15-1.53125-7.761719-2.976562-15.441407-3.941406-22.964844zm0 0" fill="#3d6f44"/><path d="m340.691406 240.136719c-8.71875 1.105469-15.050781-7.875-10.339844-14.902344 33.527344-50.003906 9.605469-81.828125 9.605469-81.828125 25.710938-40.605469-9.585937-55.507812-9.585937-55.507812 15.050781-33.410157-34.234375-77.613282-34.234375-77.613282l-7.734375-10.285156-10.660156 7.195312s-61 25.703126-57.675782 62.195313c0 0-38.230468 2.578125-27.175781 49.347656 0 0-32.992187 22.285157-17.613281 80.492188 2.164062 8.179687-6.75 14.601562-14.632813 10.71875-14.691406-7.246094-29.636719-9.503907-23.558593 16.222656 5.917968 25.03125 26.667968 42.253906 41.195312 56.402344 12.085938 11.765625 6.601562 30.574219-9.59375 35.652343-11.199219 3.507813-18.878906 11.695313 4.492188 30.78125 12.722656 10.382813 18.949218 31.46875 22.097656 55.832032 3.808594 29.582031 14.910156 61.585937 10 90.875l-1.390625 8.285156 1.957031-11.695312c3.917969-23.335938 25.386719-43.695313 34.367188-65.640626 11.457031-27.964843 24.835937-52.398437 43.253906-59.175781 28.328125-10.410156 23.726562-20.652343 14.292968-27.625-13.652343-10.082031-12.695312-29.65625 2.558594-36.839843 18.351563-8.636719 43.582032-18.152344 57.34375-39.886719 14.148438-22.316407-.726562-25.054688-16.96875-23zm0 0" fill="#86b2a2"/><path d="m340.691406 240.136719c-8.71875 1.105469-15.050781-7.875-10.339844-14.902344 33.527344-50.003906 9.605469-81.828125 9.605469-81.828125 25.710938-40.605469-9.585937-55.507812-9.585937-55.507812 15.050781-33.410157-34.234375-77.613282-34.234375-77.613282l-7.734375-10.285156-10.660156 7.195312s-61 25.703126-57.675782 62.195313c0 0-38.230468 2.578125-27.175781 49.347656 0 0-32.992187 22.285157-17.613281 80.492188 2.164062 8.179687-6.75 14.601562-14.632813 10.71875-14.691406-7.246094-29.636719-9.503907-23.558593 16.222656 5.917968 25.03125 26.667968 42.253906 41.195312 56.402344 12.085938 11.765625 6.601562 30.574219-9.59375 35.652343-11.199219 3.507813-18.878906 11.695313 4.492188 30.78125 12.722656 10.382813 18.949218 31.46875 22.097656 55.832032 3.808594 29.582031 14.910156 61.585937 10 90.875l-1.390625 8.285156 1.957031-11.695312c3.917969-23.335938 25.386719-43.695313 34.367188-65.640626 11.457031-27.964843 24.835937-52.398437 43.253906-59.175781 28.328125-10.410156 23.726562-20.652343 14.292968-27.625-13.652343-10.082031-12.695312-29.65625 2.558594-36.839843 18.351563-8.636719 43.582032-18.152344 57.34375-39.886719 14.148438-22.316407-.726562-25.054688-16.96875-23zm0 0" fill="#61b872"/><path d="m204.082031 512c-.371093 0-.734375-.019531-1.105469-.070312-4.855468-.601563-8.304687-5.023438-7.699218-9.878907 8.9375-71.863281 22.867187-145.496093 36.324218-216.695312 12.898438-68.21875 26.234376-138.769531 35.429688-208.683594.636719-4.84375 5.050781-8.308594 9.941406-7.617187 4.855469.628906 8.265625 5.085937 7.628906 9.9375-9.257812 70.394531-22.648437 141.191406-35.589843 209.652343-13.414063 70.941407-27.28125 144.28125-36.15625 215.585938-.550781 4.492187-4.371094 7.769531-8.773438 7.769531zm0 0" fill="#3d6f44"/><path d="m101.742188 189.421875c-3.277344 0-6.433594-1.832031-7.964844-4.976563l-39.71875-81.53125c-2.144532-4.394531-.316406-9.699218 4.085937-11.84375 4.402344-2.136718 9.699219-.308593 11.84375 4.09375l39.71875 81.527344c2.144531 4.394532.320313 9.703125-4.082031 11.84375-1.257812.605469-2.589844.886719-3.882812.886719zm0 0" fill="#61b872"/></svg>