<svg height="512pt" viewBox="0 -57 512.00661 512" width="512pt" xmlns="http://www.w3.org/2000/svg"><path d="m410.914062 354.359375c-3.777343-1.839844 17.460938-52.226563 13.53125-54.214844-2.039062-1.03125-4.148437-2.109375-6.222656-3.167969-.695312-.351562-1.367187-.695312-2.074218-1.058593-4.519532-2.3125-9.128907-4.667969-13.832032-7.035157-4.707031-2.367187-9.351562-4.660156-13.90625-6.914062-5.867187-2.902344-36.640625 42.71875-42.117187 39.921875.292969 13.425781-2.71875 26.773437-8.789063 38.847656l-2.984375 5.933594c-6.261719 12.449219 3.175781 18.539063 15.484375 24.726563 12.304688 6.1875 22.828125 10.132812 29.085938-2.3125 7.28125-14.488282 18.671875-26.378907 32.554687-34.367188 0 0-.015625-.007812-.015625-.007812-.230468-.105469-.476562-.238282-.714844-.351563zm0 0" fill="#a57c58"/><path d="m445.21875 202.132812c-12.976562-6.523437-26.449219-10.542968-39.8125-12.421874l-114.742188 74.746093c-.027343 1.03125-.027343 2.054688.023438 3.0625.019531.363281.027344.730469.0625 1.09375 1.070312 12.554688 9.753906 23.527344 19.191406 31.382813 9.171875 7.628906 19.890625 13.117187 30.519532 18.539062 20.285156 10.355469 40.5625 20.699219 60.847656 31.054688 16.136718 8.238281 32.53125 16.5625 50.292968 20.136718 8.773438 1.765626 18.113282 2.296876 26.472657-.910156 19.976562-7.652344 30.121093-32.75 32.980469-52.417968 2.835937-19.464844-.792969-39.46875-9.144532-57.1875-11.707031-24.8125-32.292968-44.808594-56.691406-57.078126zm0 0" fill="#c99d71"/><path d="m219.253906 166.132812c-5.359375-.027343-10.75-.054687-16.214844-.054687-9.605468 0-19.042968.070313-28.277343.132813-3.519531.027343-6.734375-1.613282-8.792969-4.296876-.6875-.894531-1.242188-1.90625-1.648438-3.011718l-37.84375 24.964844c-3.398437-9.339844-16.421874-9.851563-20.535156-.804688l19.304688 46.363281-1.4375 3.160157-.804688 1.757812 13.863282 22c14.394531 22.84375 22.03125 49.300781 22.03125 76.316406v11.625c0 24.375 19.765624 26.484375 44.140624 26.484375 24.371094 0 44.136719-2.109375 44.136719-26.484375 0-28.382812 8.546875-55.914062 24.136719-79.324218h-.046875c-16.453125.226562-33.90625-98.722657-52.011719-98.828126zm0 0" fill="#c99d71"/><path d="m203.039062.00390625c-112.140624 0-203.039062 79.04296875-203.039062 176.55468775 0 65.429687 40.960938 82.785156 101.773438 87.128906 4.601562.328125 8.933593-2.304688 10.84375-6.496094l17.378906-38.234375c4.113281-9.046875 17.136718-8.542969 20.535156.804688l13.78125 37.90625c1.605469 4.414062 5.746094 7.335937 10.441406 7.308593 9.242188-.070312 18.679688-.140624 28.285156-.140624 112.136719 0 203.035157 9.234374 203.035157-88.277344 0-97.511719-90.898438-176.55468775-203.035157-176.55468775zm0 0" fill="#fbce9d"/></svg>