<svg height="511pt" viewBox="-44 0 511 511.99658" width="511pt" xmlns="http://www.w3.org/2000/svg"><path d="m423.957031 179.550781c2.871094-81.820312-57.921875-142.605469-139.734375-139.730469-2.871094 81.8125 57.910156 142.605469 139.734375 139.730469zm0 0" fill="#61b872"/><path d="m423.957031 179.550781c2.871094-81.820312-57.921875-142.605469-139.734375-139.730469-2.871094 81.8125 57.910156 142.605469 139.734375 139.730469zm0 0" fill="#61b872"/><path d="m167.453125 116.773438c-4.957031 0-8.984375-4.023438-8.984375-8.980469v-44.914063c0-34.671875 28.207031-62.87499975 62.878906-62.87499975h67.96875c4.960938 0 8.984375 4.02343775 8.984375 8.98046875s-4.023437 8.984375-8.984375 8.984375h-67.96875c-24.765625 0-44.914062 20.144531-44.914062 44.910156v44.914063c0 4.957031-4.023438 8.980469-8.980469 8.980469zm0 0" fill="#be6e41"/><path d="m370.160156 134.738281c-2.300781 0-4.597656-.878906-6.351562-2.632812l-116.769532-116.769531c-3.515624-3.511719-3.515624-9.191407 0-12.703126 3.5-3.511718 9.195313-3.511718 12.699219 0l116.773438 116.773438c3.511719 3.511719 3.511719 9.1875 0 12.699219-1.753907 1.753906-4.050781 2.632812-6.351563 2.632812zm0 0" fill="#be6e41"/><path d="m322.984375 396.640625c-15.378906-45.144531-22.519531-92.636719-20.175781-140.164063 3.324218-67.410156-11.613282-175.632812-141.824219-175.632812-105.050781 0-140.628906 67.746094-151.496094 127.957031-10.707031 59.308594 2.15625 120.164063 32.371094 172.6875 35.867187 62.328125 104.816406 136.746094 228.101563 130.089844 11.902343-.636719 23.667968-4.355469 33.234374-11.46875 17.695313-13.160156 35.644532-41.75 19.878907-103.207031 0 .007812-.035157-.089844-.089844-.261719zm0 0" fill="#ed8a19"/><g fill="#dc691d"><path d="m73.011719 372.558594c-3.109375 0-6.136719-1.617188-7.796875-4.5-28.027344-48.703125-38.390625-103.558594-29.203125-154.460938.882812-4.886718 5.570312-8.140625 10.4375-7.242187 4.878906.882812 8.128906 5.550781 7.242187 10.4375-8.445312 46.738281 1.183594 97.273437 27.089844 142.308593 2.46875 4.304688.996094 9.792969-3.304688 12.261719-1.402343.808594-2.949218 1.195313-4.464843 1.195313zm0 0"/><path d="m266.925781 263.683594c-.152343 0-.296875 0-.449219-.011719-4.960937-.242187-8.777343-4.464844-8.535156-9.414063 1.195313-24.234374-.601562-45.675781-5.335937-63.738281-1.257813-4.796875 1.609375-9.710937 6.414062-10.96875 4.796875-1.265625 9.710938 1.617188 10.96875 6.414063 5.199219 19.835937 7.183594 43.097656 5.902344 69.175781-.246094 4.804687-4.214844 8.542969-8.964844 8.542969zm0 0"/><path d="m250.855469 170.265625c-3.179688 0-6.261719-1.691406-7.886719-4.679687-3.289062-6.011719-7.152344-11.371094-11.488281-15.925782-3.421875-3.59375-3.28125-9.28125.3125-12.703125s9.28125-3.277343 12.703125.316407c5.40625 5.683593 10.195312 12.3125 14.234375 19.695312 2.382812 4.347656.785156 9.8125-3.574219 12.191406-1.375.746094-2.847656 1.105469-4.300781 1.105469zm0 0"/><path d="m9.496094 217.789062c-.519532 0-1.050782-.042968-1.589844-.140624-4.886719-.871094-8.136719-5.535157-7.265625-10.421876 2.019531-11.371093 4.875-22.132812 8.488281-31.996093 15.519532-42.476563 57.667969-70.007813 102.496094-66.863281 12.632812.871093 25.621094 4.875 38.609375 11.910156 8.847656 4.796875 27.035156 12.53125 49.554687 10.5625 4.886719-.476563 9.296876 3.226562 9.726563 8.164062.433594 4.941406-3.222656 9.296875-8.164063 9.730469-27.144531 2.351563-49.050781-6.917969-59.667968-12.664063-10.707032-5.804687-21.246094-9.09375-31.296875-9.792968-36.898438-2.570313-71.589844 20.101562-84.378907 55.117187-3.253906 8.882813-5.832031 18.636719-7.671874 28.976563-.78125 4.355468-4.5625 7.417968-8.839844 7.417968zm0 0"/></g></svg>