<svg height="472pt" viewBox="-4 0 472 472" width="472pt" xmlns="http://www.w3.org/2000/svg"><path d="m224 388.382812h32v67.617188c0 8.835938-7.164062 16-16 16s-16-7.164062-16-16zm0 0" fill="#d3843d"/><path d="m93.257812 72.566406c0 26.511719-22.625 45.257813-22.625 45.257813s-22.632812-18.746094-22.632812-45.257813c0-26.511718 22.632812-56.566406 22.632812-56.566406s22.625 30.054688 22.625 56.566406zm0 0" fill="#ffd782"/><path d="m72 472c-8.835938 0-16-7.164062-16-16l.070312-69.335938h32l-.070312 69.335938c0 8.835938-7.164062 16-16 16zm0 0" fill="#d3843d"/><path d="m413.398438 72.566406c0 26.511719-22.628907 45.257813-22.628907 45.257813s-22.625-18.746094-22.625-45.257813c0-26.511718 22.625-56.566406 22.625-56.566406s22.628907 30.054688 22.628907 56.566406zm0 0" fill="#ffd782"/><path d="m376.144531 389.71875h32v66.28125c0 8.835938-7.164062 16-16 16-8.835937 0-16-7.164062-16-16zm0 0" fill="#d3843d"/><g fill="#ffd782"><path d="m72.070312 384.847656c-.1875-15.121094-5.90625-29.652344-16.070312-40.847656-18.742188-18.742188-56-24-56-24s5.257812 37.257812 24 56 48 16 48 16h.144531s29.253907 2.742188 48-16c18.742188-18.742188 24-56 24-56s-37.257812 5.257812-56 24c-10.167969 11.195312-15.882812 25.726562-16.074219 40.847656zm0 0"/><path d="m72.070312 328.703125c-.1875-15.121094-5.90625-29.652344-16.070312-40.847656-18.742188-18.742188-56-24-56-24s5.257812 37.257812 24 56c18.742188 18.746093 48 16 48 16h.144531s29.253907 2.753906 48-16c18.742188-18.75 24-56 24-56s-37.257812 5.257812-56 24c-10.167969 11.195312-15.882812 25.726562-16.074219 40.847656zm0 0"/><path d="m72.070312 272.703125c-.1875-15.121094-5.90625-29.652344-16.070312-40.847656-18.742188-18.742188-56-24-56-24s5.257812 37.257812 24 56c18.742188 18.746093 48 16 48 16h.144531s29.253907 2.753906 48-16c18.742188-18.75 24-56 24-56s-37.257812 5.257812-56 24c-10.167969 11.195312-15.882812 25.726562-16.074219 40.847656zm0 0"/><path d="m72.070312 216.984375c-.1875-15.121094-5.90625-29.644531-16.070312-40.839844-18.742188-18.753906-56-24-56-24s5.257812 37.246094 24 56c18.742188 18.75 48 16 48 16h.144531s29.253907 2.742188 48-16c18.742188-18.746093 24-56 24-56s-37.257812 5.246094-56 24c-10.164062 11.195313-15.882812 25.71875-16.074219 40.839844zm0 0"/><path d="m72.070312 160.847656c-.1875-15.121094-5.90625-29.652344-16.070312-40.847656-18.742188-18.742188-56-24-56-24s5.257812 37.257812 24 56 48 16 48 16h.144531s29.253907 2.742188 48-16c18.742188-18.742188 24-56 24-56s-37.257812 5.257812-56 24c-10.167969 11.195312-15.882812 25.726562-16.074219 40.847656zm0 0"/><path d="m392.214844 384.847656c-.1875-15.121094-5.90625-29.652344-16.070313-40.847656-18.746093-18.742188-56-24-56-24s5.253907 37.257812 24 56c18.742188 18.742188 48 16 48 16h.144531s29.246094 2.742188 48-16c18.75-18.742188 24-56 24-56s-37.257812 5.257812-56 24c-10.167968 11.195312-15.882812 25.726562-16.074218 40.847656zm0 0"/><path d="m392.214844 328.703125c-.1875-15.121094-5.90625-29.652344-16.070313-40.847656-18.746093-18.742188-56-24-56-24s5.253907 37.257812 24 56c18.742188 18.746093 48 16 48 16h.144531s29.246094 2.753906 48-16c18.75-18.75 24-56 24-56s-37.257812 5.257812-56 24c-10.167968 11.195312-15.882812 25.726562-16.074218 40.847656zm0 0"/><path d="m392.214844 272.703125c-.1875-15.121094-5.90625-29.652344-16.070313-40.847656-18.746093-18.742188-56-24-56-24s5.253907 37.257812 24 56c18.742188 18.746093 48 16 48 16h.144531s29.246094 2.753906 48-16c18.75-18.75 24-56 24-56s-37.257812 5.257812-56 24c-10.167968 11.195312-15.882812 25.726562-16.074218 40.847656zm0 0"/><path d="m392.214844 216.984375c-.1875-15.121094-5.90625-29.644531-16.070313-40.839844-18.746093-18.753906-56-24-56-24s5.253907 37.246094 24 56c18.742188 18.75 48 16 48 16h.144531s29.246094 2.742188 48-16c18.75-18.746093 24-56 24-56s-37.257812 5.246094-56 24c-10.164062 11.195313-15.882812 25.71875-16.074218 40.839844zm0 0"/><path d="m392.144531 168h.144531s29.246094 2.742188 48-16c18.75-18.742188 24-56 24-56s-37.257812 5.257812-56 24c-10.167968 11.195312-15.882812 25.726562-16.074218 40.847656-.1875-15.121094-5.90625-29.652344-16.070313-40.847656-18.746093-18.742188-56-24-56-24s5.253907 37.257812 24 56c18.742188 18.742188 48 16 48 16zm0 0"/><path d="m238.632812 189.824219s22.625-18.746094 22.625-45.257813c0-26.511718-22.625-56.566406-22.625-56.566406s-22.632812 30.054688-22.632812 56.566406c0 26.511719 22.632812 45.257813 22.632812 45.257813zm0 0"/><path d="m240.070312 384.847656c-.1875-15.121094-5.90625-29.652344-16.070312-40.847656-18.742188-18.742188-56-24-56-24s5.257812 37.257812 24 56 48 16 48 16h.144531s29.253907 2.742188 48-16c18.742188-18.742188 24-56 24-56s-37.257812 5.257812-56 24c-10.167969 11.195312-15.882812 25.726562-16.074219 40.847656zm0 0"/><path d="m240.070312 328.703125c-.1875-15.121094-5.90625-29.652344-16.070312-40.847656-18.742188-18.742188-56-24-56-24s5.257812 37.257812 24 56c18.742188 18.746093 48 16 48 16h.144531s29.253907 2.753906 48-16c18.742188-18.75 24-56 24-56s-37.257812 5.257812-56 24c-10.167969 11.195312-15.882812 25.726562-16.074219 40.847656zm0 0"/><path d="m240.070312 272.703125c-.1875-15.121094-5.90625-29.652344-16.070312-40.847656-18.742188-18.742188-56-24-56-24s5.257812 37.257812 24 56c18.742188 18.746093 48 16 48 16h.144531s29.253907 2.753906 48-16c18.742188-18.75 24-56 24-56s-37.257812 5.257812-56 24c-10.167969 11.195312-15.882812 25.726562-16.074219 40.847656zm0 0"/><path d="m240.070312 216.984375c-.1875-15.121094-5.90625-29.644531-16.070312-40.839844-18.742188-18.753906-56-24-56-24s5.257812 37.246094 24 56c18.742188 18.75 48 16 48 16h.144531s29.253907 2.742188 48-16c18.742188-18.746093 24-56 24-56s-37.257812 5.246094-56 24c-10.164062 11.195313-15.882812 25.71875-16.074219 40.839844zm0 0"/></g><path d="m264.144531 24h16v16h-16zm0 0" fill="#e97424"/><path d="m264.144531 56h16v16h-16zm0 0" fill="#e97424"/><path d="m248.144531 40h16v16h-16zm0 0" fill="#e97424"/><path d="m280.144531 40h16v16h-16zm0 0" fill="#e97424"/><path d="m176.144531 0h16v16h-16zm0 0" fill="#e97424"/><path d="m176.144531 32h16v16h-16zm0 0" fill="#e97424"/><path d="m160.144531 16h16v16h-16zm0 0" fill="#e97424"/><path d="m192.144531 16h16v16h-16zm0 0" fill="#e97424"/></svg>