<svg height="511pt" viewBox="0 -59 511.99773 511" width="511pt" xmlns="http://www.w3.org/2000/svg"><path d="m443.308594 384.554688c13.515625 0 26.226562-3.390626 37.335937-9.378907 31.910157-17.179687 40.960938-59.425781 20.1875-89.132812-10.003906-14.308594-18.6875-17.683594-15.988281-24.851563 1.96875-5.230468 3.054688-10.894531 3.054688-16.8125 0-19.191406-11.34375-35.703125-27.679688-43.269531-4.773438-2.214844-7.816406-7.316406-7.28125-12.546875.167969-1.613281.253906-3.253906.253906-4.910156 0-23.089844-16.398437-42.316406-38.1875-46.734375-3.054687-.613281-5.378906-3.242188-5.671875-6.339844-2.152343-22.734375-22.742187-43.78125-40.839843-46.296875-2.128907-.296875-3.890626-1.632812-4.617188-3.65625-8.425781-23.539062-29.214844-31.824219-55.253906-31.824219-4.371094 0-7.207032.953125-11.21875 2.066407-5.125 1.414062-10.601563-1.625-12.589844-6.558594-7.0625-17.492188-24.171875-29.847656-44.195312-29.847656-7.617188 0-14.636719 7.773437-21.199219 4.96875-16.535157-7.050782-54.488281-25.316407-89.191407-16.640626-26.933593 6.734376-39.558593 21.789063-45.8125 50.496094-6.925781 31.785156 13.847657 63.53125 45.273438 71.957032 162.222656 43.46875 229.355469 148.964843 256.652344 218.941406 9.074218 23.261718 30.644531 39.9375 55.605468 40.363281.460938.007813.910157.007813 1.363282.007813zm0 0" fill="#426d5f"/><g fill="#86b2a2"><path d="m421.425781 274.382812c-19.140625 0-34.707031-15.566406-34.707031-34.707031 0-4.796875 3.886719-8.675781 8.675781-8.675781 4.792969 0 8.679688 3.878906 8.679688 8.675781 0 9.570313 7.78125 17.351563 17.351562 17.351563 4.789063 0 8.675781 3.878906 8.675781 8.675781 0 4.800781-3.878906 8.679687-8.675781 8.679687zm0 0"/><path d="m395.394531 196.292969c-19.136719 0-34.703125-15.566407-34.703125-34.707031 0-4.796876 3.886719-8.675782 8.675782-8.675782 4.789062 0 8.675781 3.878906 8.675781 8.675782 0 9.570312 7.785156 17.355468 17.351562 17.355468 4.792969 0 8.679688 3.878906 8.679688 8.675782 0 4.796874-3.878907 8.675781-8.679688 8.675781zm0 0"/><path d="m325.984375 178.941406c-19.140625 0-34.707031-15.566406-34.707031-34.707031 0-4.796875 3.886718-8.675781 8.675781-8.675781 4.792969 0 8.679687 3.878906 8.679687 8.675781 0 9.570313 7.78125 17.351563 17.351563 17.351563 4.789063 0 8.675781 3.878906 8.675781 8.675781 0 4.800781-3.878906 8.679687-8.675781 8.679687zm0 0"/><path d="m282.601562 109.527344c-19.140624 0-34.707031-15.566406-34.707031-34.707032 0-4.796874 3.886719-8.675781 8.679688-8.675781 4.789062 0 8.675781 3.878907 8.675781 8.675781 0 9.570313 7.78125 17.355469 17.351562 17.355469 4.789063 0 8.675782 3.878907 8.675782 8.675781 0 4.796876-3.878906 8.675782-8.675782 8.675782zm0 0"/></g><path d="m234.351562 349.847656c-2.542968 0-5.066406-1.109375-6.777343-3.25-50.425781-63.046875-107.34375-114.304687-145.703125-138.332031 1.804687 5.058594 2.613281 10.136719 2.066406 15.324219-.945312 9.117187-6.125 17.386718-15.382812 24.570312-13.738282 10.664063-36.488282 5.925782-44.824219.375-12.695313-8.417968-18.253907-23.738281-14.488281-40 3.660156-15.824218 15.285156-28.042968 29.507812-31.46875-27.261719-32.347656-60.414062-75.902344-19.707031-133.28125 10.484375-14.800781 23.929687-30.183594 44.128906-32.242187 20.609375-2.105469 43.75 9.648437 72.988281 36.964843 3.503906 3.269532 3.6875 8.761719.417969 12.257813-3.28125 3.496094-8.765625 3.695313-12.269531.417969-24.605469-22.976563-44.546875-33.875-59.382813-32.371094-10.707031 1.082031-19.902343 8.335938-31.738281 25.011719-34.699219 48.910156-4.390625 84.675781 22.351562 116.222656 2.800782 3.304687 5.535157 6.53125 8.136719 9.699219 46.167969 16.519531 122.566407 87.40625 177.453125 156.003906 2.992188 3.75 2.386719 9.207031-1.355468 12.199219-1.605469 1.277343-3.511719 1.898437-5.421876 1.898437zm-187.820312-156.375c-.675781 0-1.328125.042969-1.941406.121094-10.039063 1.320312-16.496094 10.414062-18.449219 18.847656-.789063 3.433594-2.617187 15.128906 7.175781 21.621094 3.929688 2.609375 18.316406 5.238281 24.589844.382812 5.449219-4.226562 8.320312-8.375 8.773438-12.660156.769531-7.417968-5.222657-16.917968-13.449219-27.332031-2.492188-.648437-4.730469-.980469-6.699219-.980469zm0 0" fill="#fbce9d"/><path d="m121.992188 343.144531c-5.910157 17.714844 4.527343 34.511719 11.3125 44.621094 3.054687 4.554687 9.597656 5.128906 13.292968 1.074219 14.757813-16.171875 43.957032-19.695313 43.957032-19.695313 40.1875 35.460938 92.203124 21.277344 92.203124 21.277344 1.25 1.855469 15.210938-50.488281-21.273437-92.207031 0 0 6.039063-31.710938 22.210937-46.46875 4.050782-3.699219 3.480469-10.238282-1.074218-13.292969-10.117188-6.785156-29.421875-14.707031-47.140625-8.800781 0 0 7.558593-18.636719-2.359375-35.460938 0 0-41.378906-10.738281-76.847656 34.1875l5.917968 41.472656-33.101562-9.457031c-44.917969 35.460938-42.558594 80.386719-42.558594 80.386719 28.363281 9.457031 35.460938 2.363281 35.460938 2.363281zm0 0" fill="#61b872"/><path d="m121.558594 323.820312c-3.445313 0-6.699219-2.054687-8.0625-5.457031-1.777344-4.453125.382812-9.5 4.832031-11.28125l130.148437-52.058593c4.460938-1.777344 9.5.382812 11.28125 4.84375 1.777344 4.449218-.382812 9.5-4.832031 11.277343l-130.148437 52.058594c-1.058594.417969-2.144532.617187-3.21875.617187zm0 0" fill="#3d6f44"/><path d="m164.941406 358.527344c-.789062 0-1.597656-.113282-2.386718-.332032-4.609376-1.316406-7.273438-6.125-5.960938-10.722656l34.707031-121.472656c1.316407-4.605469 6.125-7.21875 10.722657-5.96875 4.605468 1.320312 7.269531 6.125 5.960937 10.726562l-34.707031 121.46875c-1.082032 3.816407-4.5625 6.300782-8.335938 6.300782zm0 0" fill="#3d6f44"/></svg>