<svg height="512pt" viewBox="0 -26 512 512" width="512pt" xmlns="http://www.w3.org/2000/svg"><path d="m503.464844 366.933594h-4.871094c-20.128906 0-37.792969-17.664063-37.792969-37.804688v-209.59375l-25.601562-.070312c-4.710938 0-8.53125-3.8125-8.53125-8.53125s3.820312-8.535156 8.53125-8.535156h25.601562c10.042969 0 17.066407 7.015624 17.066407 17.066406v209.664062c0 10.847656 9.882812 20.738282 20.726562 20.738282h4.871094c4.710937 0 8.535156 3.8125 8.535156 8.53125s-3.824219 8.535156-8.535156 8.535156zm-42.007813-247.398438h.085938zm0 0" fill="#e7eced"/><path d="m25.601562 187.734375h51.199219v204.800781h-51.199219zm0 0" fill="#ebba16"/><path d="m419.457031 34.132812h-35.457031v366.933594h51.199219v-350.8125c0-8.902344-7.046875-16.121094-15.742188-16.121094zm0 0" fill="#ebba16"/><path d="m345.242188 409.601562h55.824218v-264.535156h-59.734375v238.933594c0 8.925781 1.375 17.519531 3.910157 25.601562zm0 0" fill="#dd352e"/><path d="m128 384v-238.933594h-68.265625v264.535156h64.355469c2.535156-8.082031 3.910156-16.675781 3.910156-25.601562zm0 0" fill="#dd352e"/><path d="m187.734375 392.535156h-136.535156l-7.945313 55.609375c26.277344-8.457031 136.210938-29.261719 144.480469-55.609375zm0 0" fill="#b02721"/><path d="m460.800781 392.535156h-179.199219c10.863282 34.636719 132.417969 59.730469 170.664063 59.730469h17.066406zm0 0" fill="#b02721"/><path d="m85.332031 153.601562h-72.632812c-2.304688 0-4.164063-1.863281-4.164063-4.164062v-77.007812c0-2.304688 1.859375-4.164063 4.164063-4.164063h72.632812zm0 0" fill="#ebba16"/><path d="m59.734375 51.199219h341.332031v102.402343h-341.332031zm0 0" fill="#dd352e"/><path d="m401.066406 68.265625h-341.332031v-18.667969c0-27.394531 22.203125-49.597656 49.59375-49.597656h242.152344c27.382812 0 49.585937 22.203125 49.585937 49.597656zm0 0" fill="#b02721"/><path d="m119.464844 110.933594h-17.066406c-4.707032 0-8.53125-3.816406-8.53125-8.535156s3.824218-8.53125 8.53125-8.53125h17.066406c4.710937 0 8.535156 3.8125 8.535156 8.53125s-3.824219 8.535156-8.535156 8.535156zm0 0" fill="#fff"/><path d="m196.265625 110.933594h-42.664063c-4.710937 0-8.535156-3.816406-8.535156-8.535156s3.824219-8.53125 8.535156-8.53125h42.664063c4.710937 0 8.535156 3.8125 8.535156 8.53125s-3.824219 8.535156-8.535156 8.535156zm0 0" fill="#fff"/><path d="m366.933594 366.933594v-196.265625h-264.535156v196.265625c0 47.164062-38.167969 85.332031-85.332032 85.332031h435.199219c-47.164063 0-85.332031-38.167969-85.332031-85.332031zm0 0" fill="#f7e6a1"/><path d="m136.535156 460.800781c-4.710937 0-8.535156-3.816406-8.535156-8.535156s3.824219-8.53125 8.535156-8.53125c8.054688 0 17.066406-14.601563 17.066406-34.132813 0-4.71875 3.820313-8.535156 8.53125-8.535156 4.710938 0 8.535157 3.816406 8.535157 8.535156 0 28.703126-14.996094 51.199219-34.132813 51.199219zm0 0" fill="#baab6a"/><path d="m162.132812 230.398438c-4.710937 0-8.53125-3.8125-8.53125-8.53125v-51.199219c0-4.71875 3.820313-8.535157 8.53125-8.535157 4.710938 0 8.535157 3.816407 8.535157 8.535157v51.199219c0 4.71875-3.824219 8.53125-8.535157 8.53125zm0 0" fill="#baab6a"/><path d="m247.464844 332.800781c-4.707032 0-8.53125-3.816406-8.53125-8.535156v-51.199219c0-4.71875 3.824218-8.53125 8.53125-8.53125 4.710937 0 8.535156 3.8125 8.535156 8.53125v51.199219c0 4.71875-3.824219 8.535156-8.535156 8.535156zm0 0" fill="#baab6a"/><path d="m162.132812 273.066406c-4.710937 0-8.53125-3.8125-8.53125-8.53125v-8.535156c0-4.71875 3.820313-8.535156 8.53125-8.535156 4.710938 0 8.535157 3.816406 8.535157 8.535156v8.535156c0 4.71875-3.824219 8.53125-8.535157 8.53125zm0 0" fill="#baab6a"/><path d="m298.667969 204.800781c-4.710938 0-8.535157-3.816406-8.535157-8.535156v-25.597656c0-4.71875 3.824219-8.535157 8.535157-8.535157 4.710937 0 8.53125 3.816407 8.53125 8.535157v25.597656c0 4.71875-3.820313 8.535156-8.53125 8.535156zm0 0" fill="#baab6a"/><path d="m247.464844 375.464844c-4.707032 0-8.53125-3.8125-8.53125-8.53125v-8.535156c0-4.71875 3.824218-8.53125 8.53125-8.53125 4.710937 0 8.535156 3.8125 8.535156 8.53125v8.535156c0 4.71875-3.824219 8.53125-8.535156 8.53125zm0 0" fill="#baab6a"/><path d="m332.800781 460.800781c-19.140625 0-34.132812-22.496093-34.132812-51.199219 0-4.71875 3.820312-8.535156 8.53125-8.535156 4.710937 0 8.535156 3.816406 8.535156 8.535156 0 19.53125 9.011719 34.132813 17.066406 34.132813 4.710938 0 8.53125 3.8125 8.53125 8.53125s-3.820312 8.535156-8.53125 8.535156zm0 0" fill="#baab6a"/><path d="m503.464844 460.800781h-494.929688c-4.710937 0-8.535156-3.816406-8.535156-8.535156s3.824219-8.53125 8.535156-8.53125h494.929688c4.710937 0 8.535156 3.8125 8.535156 8.53125s-3.824219 8.535156-8.535156 8.535156zm0 0" fill="#ebba16"/><path d="m59.734375 136.535156h341.332031v34.132813h-341.332031zm0 0" fill="#b02721"/><path d="m25.601562 102.398438h-17.066406v17.066406h17.066406c4.707032 0 8.53125-3.8125 8.53125-8.53125s-3.824218-8.535156-8.53125-8.535156zm0 0" fill="#dc691d"/><g fill="#fff"><path d="m366.933594 34.132812c-4.710938 0-8.535156 3.816407-8.535156 8.535157v25.597656h17.066406v-25.597656c0-4.71875-3.820313-8.535157-8.53125-8.535157zm0 0"/><path d="m332.800781 34.132812c-4.710937 0-8.535156 3.816407-8.535156 8.535157v25.597656h17.066406v-25.597656c0-4.71875-3.820312-8.535157-8.53125-8.535157zm0 0"/><path d="m298.667969 34.132812c-4.710938 0-8.535157 3.816407-8.535157 8.535157v25.597656h17.066407v-25.597656c0-4.71875-3.820313-8.535157-8.53125-8.535157zm0 0"/><path d="m264.535156 34.132812c-4.710937 0-8.535156 3.816407-8.535156 8.535157v25.597656h17.066406v-25.597656c0-4.71875-3.824218-8.535157-8.53125-8.535157zm0 0"/><path d="m230.398438 34.132812c-4.707032 0-8.53125 3.816407-8.53125 8.535157v25.597656h17.066406v-25.597656c0-4.71875-3.824219-8.535157-8.535156-8.535157zm0 0"/><path d="m196.265625 34.132812c-4.710937 0-8.53125 3.816407-8.53125 8.535157v25.597656h17.066406v-25.597656c0-4.71875-3.824219-8.535157-8.535156-8.535157zm0 0"/><path d="m162.132812 34.132812c-4.710937 0-8.53125 3.816407-8.53125 8.535157v25.597656h17.066407v-25.597656c0-4.71875-3.824219-8.535157-8.535157-8.535157zm0 0"/><path d="m128 34.132812c-4.710938 0-8.535156 3.816407-8.535156 8.535157v25.597656h17.070312v-25.597656c0-4.71875-3.824218-8.535157-8.535156-8.535157zm0 0"/><path d="m93.867188 34.132812c-4.710938 0-8.535157 3.816407-8.535157 8.535157v25.597656h17.066407v-25.597656c0-4.71875-3.820313-8.535157-8.53125-8.535157zm0 0"/></g></svg>