<svg height="511pt" viewBox="0 -35 511.99774 511" width="511pt" xmlns="http://www.w3.org/2000/svg"><path d="m510.234375 110.117188c-9.183594-56.894532-53.410156-100.035157-110.558594-108.226563-15.78125-2.257813-31.054687-1.5625-45.503906 1.371094 53.492187 10.742187 43.113281 52.46875 51.894531 106.855469 7.238282 44.871093-10.089844 86.324218-38.679687 114.777343-20.242188 20.136719-31.941407 46.769531-31.941407 75.308594l17.65625 94.789063c0 25.902343 14.285157 46.882812-11.660156 46.882812h52.964844c25.945312 0 46.972656-20.980469 46.972656-46.882812v-94.789063c0-28.539063 11.695313-55.164063 31.9375-75.308594 28.59375-28.453125 44.15625-69.898437 36.917969-114.777343zm0 0" fill="#6c4127"/><path d="m457.265625 110.117188c-9.179687-56.894532-53.40625-100.035157-110.554687-108.226563-18.042969-2.585937-35.488282-1.492187-51.710938 2.632813-37.199219 9.453124-93.769531 9.445312-130.96875 0-16.222656-4.125-33.65625-5.21875-51.691406-2.632813-56.648438 8.113281-100.699219 50.554687-110.347656 106.851563-7.617188 44.429687 7.152343 85.644531 34.863281 114.324218 19.144531 19.816406 33.765625 45.769532 33.765625 73.285156v98.640626c0 25.902343 21.027344 46.882812 46.96875 46.882812h223.851562c25.945313 0 46.972656-20.980469 46.972656-46.882812v-94.789063c0-28.539063 11.695313-55.164063 31.9375-75.308594 28.589844-28.453125 44.15625-69.898437 36.914063-114.777343zm0 0" fill="#f7e6a1"/><path d="m308.964844 44.636719c-19.5 0-35.3125 15.808593-35.3125 35.308593v48.550782c0 21.9375-17.785156 39.726562-39.722656 39.726562s-39.722657-17.789062-39.722657-39.726562v-13.242188c0-19.5-15.8125-35.308594-35.3125-35.308594s-35.308593 15.808594-35.308593 35.308594v229.519532c0 19.5 15.808593 35.308593 35.308593 35.308593s35.3125-15.808593 35.3125-35.308593v-57.378907c0-21.9375 17.785157-39.726562 39.722657-39.726562s39.722656 17.789062 39.722656 39.726562v4.414063c0 19.5 15.8125 35.308594 35.3125 35.308594s35.308594-15.808594 35.308594-35.308594v-211.863282c0-19.5-15.808594-35.308593-35.308594-35.308593zm0 0" fill="#ebba16"/><g fill="#f2e1b1"><path d="m158.894531 150.566406c-4.871093 0-8.828125-3.945312-8.828125-8.828125v-17.65625c0-4.878906 3.957032-8.828125 8.828125-8.828125 4.875 0 8.828125 3.949219 8.828125 8.828125v17.65625c0 4.882813-3.953125 8.828125-8.828125 8.828125zm0 0"/><path d="m158.894531 344.773438c-4.871093 0-8.828125-3.945313-8.828125-8.828126v-79.449218c0-4.882813 3.957032-8.828125 8.828125-8.828125 4.875 0 8.828125 3.945312 8.828125 8.828125v79.449218c0 4.882813-3.953125 8.828126-8.828125 8.828126zm0 0"/><path d="m158.894531 230.015625c-4.871093 0-8.828125-3.949219-8.828125-8.828125v-44.140625c0-4.878906 3.957032-8.824219 8.828125-8.824219 4.875 0 8.828125 3.945313 8.828125 8.824219v44.140625c0 4.878906-3.953125 8.828125-8.828125 8.828125zm0 0"/><path d="m308.964844 300.636719c-4.875 0-8.828125-3.949219-8.828125-8.828125v-17.65625c0-4.882813 3.953125-8.828125 8.828125-8.828125 4.871094 0 8.828125 3.945312 8.828125 8.828125v17.65625c0 4.878906-3.957031 8.828125-8.828125 8.828125zm0 0"/><path d="m308.964844 168.222656c-4.875 0-8.828125-3.949218-8.828125-8.828125v-79.449219c0-4.882812 3.953125-8.828124 8.828125-8.828124 4.871094 0 8.828125 3.945312 8.828125 8.828124v79.449219c0 4.878907-3.957031 8.828125-8.828125 8.828125zm0 0"/><path d="m308.964844 247.667969c-4.875 0-8.828125-3.945313-8.828125-8.828125v-44.136719c0-4.882813 3.953125-8.828125 8.828125-8.828125 4.871094 0 8.828125 3.945312 8.828125 8.828125v44.136719c0 4.882812-3.957031 8.828125-8.828125 8.828125zm0 0"/></g></svg>