<svg height="512pt" viewBox="0 -132 512 511" width="512pt" xmlns="http://www.w3.org/2000/svg"><path d="m388.414062 124.085938c0-68.253907-68.253906-123.585938 0-123.585938h-194.207031c-68.253906 0-123.585937 55.332031-123.585937 123.585938 0 68.253906 55.332031 123.585937 123.585937 123.585937h194.207031c-68.253906 0 0-55.332031 0-123.585937zm0 0" fill="#aa374f"/><path d="m512 124.085938c0 68.253906-55.332031 123.585937-123.585938 123.585937-68.253906 0-123.585937-55.332031-123.585937-123.585937 0-68.253907 55.332031-123.585938 123.585937-123.585938 68.253907 0 123.585938 55.332031 123.585938 123.585938zm0 0" fill="#cb465f"/><path d="m0 89.128906s17.65625 10.707032 17.65625 34.957032-17.65625 34.957031-17.65625 34.957031c23.542969 18.183593 8.828125 44.492187 8.828125 44.492187 47.078125-6.066406 61.792969-60.621094 61.792969-60.621094v-36.367187s-14.714844-55.84375-61.792969-61.910156c0 0 14.714844 26.308593-8.828125 44.492187zm0 0" fill="#84253c"/><path d="m256.351562 44.636719h-79.800781c-4.871093 0-8.828125-3.945313-8.828125-8.828125 0-4.878906 3.957032-8.824219 8.828125-8.824219h79.800781c4.875 0 8.828126 3.945313 8.828126 8.824219 0 4.882812-3.953126 8.828125-8.828126 8.828125zm0 0" fill="#84253c"/><path d="m105.929688 132.914062c-5.109376-.019531-8.835938-3.953124-8.828126-8.84375.0625-35.902343 12.96875-61.449218 39.445313-78.082031 4.128906-2.578125 9.574219-1.332031 12.171875 2.773438 2.59375 4.140625 1.351562 9.585937-2.78125 12.179687-21.222656 13.332032-31.125 33.394532-31.179688 63.164063-.007812 4.871093-3.953124 8.808593-8.828124 8.808593zm0 0" fill="#84253c"/><g fill="#ea92a5"><path d="m495.828125 63.113281c-13.242187-23.285156-33.785156-41.859375-58.570313-52.539062-8.238281 7.273437-13.535156 17.792969-13.535156 29.648437 0 21.9375 17.789063 39.726563 39.726563 39.726563 13.398437 0 25.183593-6.675781 32.378906-16.835938zm0 0"/><path d="m322.207031 168.222656c-16.488281 0-30.621093 10.054688-36.632812 24.367188 14.371093 21.539062 35.371093 38.1875 60.035156 47.3125 9.851563-7.226563 16.320313-18.800782 16.320313-31.953125 0-21.9375-17.785157-39.726563-39.722657-39.726563zm0 0"/><path d="m370.757812 79.949219c0 14.625-11.855468 26.480469-26.480468 26.480469-14.628906 0-26.484375-11.855469-26.484375-26.480469 0-14.628907 11.855469-26.484375 26.484375-26.484375 14.625 0 26.480468 11.855468 26.480468 26.484375zm0 0"/><path d="m459.035156 159.398438c0 14.625-11.855468 26.480468-26.484375 26.480468-14.625 0-26.480469-11.855468-26.480469-26.480468 0-14.628907 11.855469-26.484376 26.480469-26.484376 14.628907 0 26.484375 11.855469 26.484375 26.484376zm0 0"/></g></svg>