<svg height="512pt" viewBox="0 -35 512 512" width="512pt" xmlns="http://www.w3.org/2000/svg"><path d="m354.234375 32.820312c-14.621094-28.414062-53.53125-32.988281-73.226563-7.820312-10.726562 13.71875-15.472656 27.964844-15.472656 27.964844l-1.078125 4.308594-16.578125 66.3125h8.121094v8.828124h97.101562v-8.828124h.707032c17.425781-39.210938 11.203125-69.816407.425781-90.765626zm0 0" fill="#ed8a19"/><path d="m70.621094 388.414062v17.65625c0 19.5 15.808594 35.308594 35.308594 35.308594h300.140624c19.5 0 35.308594-15.808594 35.308594-35.308594v-17.65625zm0 0" fill="#afb6bb"/><path d="m300.136719 361.929688h-273.652344v-220.6875c0-9.746094 7.898437-17.65625 17.652344-17.65625h256zm0 0" fill="#f7e6a1"/><path d="m485.515625 361.929688h-194.207031v-238.34375h176.554687c9.746094 0 17.652344 7.902343 17.652344 17.65625zm0 0" fill="#cebe7a"/><path d="m26.484375 264.828125h264.824219v35.308594h-264.824219zm0 0" fill="#ed8a19"/><path d="m26.484375 176.550781h264.824219v35.3125h-264.824219zm0 0" fill="#ed8a19"/><path d="m291.308594 264.828125h194.207031v35.308594h-194.207031zm0 0" fill="#c66e17"/><path d="m291.308594 176.550781h194.207031v35.3125h-194.207031zm0 0" fill="#c66e17"/><path d="m459.035156 406.070312h-406.070312c-29.253906 0-52.964844-23.710937-52.964844-52.96875h512c0 29.257813-23.710938 52.96875-52.964844 52.96875zm0 0" fill="#e7eced"/><path d="m186.792969 80.851562c2.566406-.839843 5.269531-1.402343 8.121093-1.402343 7.519532 0 14.273438 3.167969 19.09375 8.199219 4.148438-14.875 17.664063-25.855469 33.871094-25.855469-26.484375-61.792969-70.621094-61.792969-70.621094-61.792969s-26.484374 44.136719 8.828126 79.449219zm0 0" fill="#43b05c"/><path d="m212.578125 79.449219c-3.242187 0-6.355469-1.785157-7.902344-4.882813l-8.828125-17.65625c-2.179687-4.359375-.414062-9.664062 3.945313-11.84375 4.355469-2.191406 9.667969-.417968 11.847656 3.945313l8.828125 17.652343c2.179688 4.363282.414062 9.667969-3.945312 11.847657-1.273438.636719-2.621094.9375-3.945313.9375zm0 0" fill="#64cc77"/><path d="m283.1875 88.277344c0 19.5-15.808594 35.308594-35.308594 35.308594s-35.3125-15.808594-35.3125-35.308594c0-19.503906 15.8125-35.3125 35.3125-35.3125s35.308594 15.808594 35.308594 35.3125zm0 0" fill="#dd352e"/><path d="m212.566406 88.277344c0-3.292969.601563-6.429688 1.441406-9.457032-4.820312-5.03125-11.574218-8.199218-19.09375-8.199218-14.628906 0-26.484374 11.855468-26.484374 26.480468 0 14.628907 11.855468 26.484376 26.484374 26.484376 10.609376 0 19.695313-6.277344 23.921876-15.28125-3.9375-5.691407-6.269532-12.585938-6.269532-20.027344zm0 0" fill="#b02721"/><g fill="#c5411e"><path d="m309.671875 61.792969c-2.261719 0-4.519531-.863281-6.242187-2.585938-3.449219-3.453125-3.449219-9.03125 0-12.484375l8.828124-8.824218c3.441407-3.453126 9.039063-3.453126 12.484376 0 3.449218 3.449218 3.449218 9.027343 0 12.480468l-8.828126 8.828125c-1.722656 1.722657-3.984374 2.585938-6.242187 2.585938zm0 0"/><path d="m318.5 105.929688c-2.261719 0-4.519531-.863282-6.242188-2.585938-3.453124-3.449219-3.453124-9.03125 0-12.480469l8.828126-8.828125c3.441406-3.453125 9.039062-3.453125 12.480468 0 3.453125 3.453125 3.453125 9.03125 0 12.480469l-8.824218 8.828125c-1.722657 1.722656-3.984376 2.585938-6.242188 2.585938zm0 0"/></g></svg>