<svg height="512pt" viewBox="0 -9 512.0105 512" width="512pt" xmlns="http://www.w3.org/2000/svg"><path d="m93.988281 116.675781c-16.566406 3.773438-33.105469 11.382813-48.382812 23.15625-34.359375 26.476563-51.464844 68.753907-43.796875 104.804688 4.089844 19.199219 14.054687 34.570312 27.648437 45.515625 9.730469 7.832031 14.125 20.523437 11.035157 33.085937-4.175782 16.933594-3.574219 34.699219 2.734374 51.59375 13.75 36.863281 51.574219 60.433594 94.664063 61.632813 20.226563.546875 39.015625 9.527344 50.488281 24.308594 24.183594 31.179687 55.203125 38.097656 92.800782 29.613281 33.890624-7.632813 58.925781-29.683594 66.652343-55.972657 4.535157-15.421874 21.585938-27.8125 42.789063-30.5 12.570312-1.597656 25.480468-4.714843 38.371094-9.570312 54.125-20.417969 89.570312-66.617188 82-110.492188-2.585938-15.003906-9.578126-28.003906-19.8125-38.628906-17.425782-18.09375-17.515626-44.582031-1.679688-69.375 15.351562-24.039062 20.578125-50.660156 11.765625-74.269531-10.53125-28.230469-63.871094-33.371094-107.027344-32.042969-32.691406.984375-57.707031-12.070312-70.371093-33.539062-.164063-.292969-.339844-.574219-.511719-.847656-21.578125-35.429688-72.449219-45.039063-120.421875-24.394532-38.335938 16.492188-65.789063 46.664063-77.675782 77.859375-5.195312 13.632813-17.601562 24.933594-31.269531 28.0625zm0 0" fill="#e7eced"/><g fill="#afb6bb"><path d="m292.582031 64c-3.082031 0-6.101562-1.5625-7.820312-4.386719-5.21875-8.574219-17.386719-13.898437-31.761719-13.898437-9.664062 0-18.898438 3.640625-29.960938 8.402344-4.632812 1.957031-10.019531-.152344-12.011718-4.789063-1.996094-4.636719.144531-10.011719 4.789062-12.003906 12.582032-5.421875 24.066406-9.894531 37.183594-9.894531 21.019531 0 38.738281 8.476562 47.378906 22.675781 2.625 4.316406 1.253906 9.9375-3.054687 12.5625-1.480469.902343-3.125 1.332031-4.742188 1.332031zm0 0"/><path d="m100.5625 164.574219c-4.167969 0-7.9375-2.863281-8.90625-7.105469-1.125-4.917969 1.957031-9.820312 6.875-10.945312 16.53125-3.785157 38.347656-13.804688 48.359375-40.0625 1.800781-4.707032 7.085937-7.074219 11.800781-5.285157 4.71875 1.800781 7.085938 7.078125 5.285156 11.804688-10.195312 26.761719-31.414062 44.515625-61.355468 51.363281-.695313.15625-1.382813.230469-2.058594.230469zm0 0"/><path d="m383.992188 374.859375c-4.527344 0-8.457032-3.355469-9.054688-7.964844-.648438-5.007812 2.882812-9.597656 7.890625-10.238281 20.464844-2.660156 36.097656-6.382812 50.773437-16.703125 4.128907-2.917969 9.828126-1.902344 12.734376 2.21875 2.90625 4.132813 1.910156 9.828125-2.222657 12.746094-17.699219 12.433593-36.359375 16.941406-58.941406 19.867187-.394531.046875-.789063.074219-1.179687.074219zm0 0"/><path d="m466.285156 329.144531c-2.03125 0-4.066406-.667969-5.757812-2.046875-3.925782-3.191406-4.519532-8.953125-1.335938-12.863281 12.195313-15.015625 12.316406-21.597656.574219-33.539063-3.539063-3.601562-3.492187-9.386718.109375-12.925781 3.59375-3.546875 9.382812-3.503906 12.929688.109375 22.964843 23.367188 13.183593 42.375.574218 57.890625-1.808594 2.222657-4.441406 3.375-7.09375 3.375zm0 0"/></g><path d="m320 274.289062c0 60.59375-49.121094 109.710938-109.714844 109.710938s-109.714844-49.117188-109.714844-109.710938 49.121094-109.714843 109.714844-109.714843 109.714844 49.121093 109.714844 109.714843zm0 0" fill="#ebba16"/><path d="m173.722656 219.429688c-2.972656 0-5.878906-1.445313-7.632812-4.105469-2.78125-4.214844-1.621094-9.882813 2.585937-12.671875 13.503907-8.914063 25.480469-10.652344 41.609375-10.652344 5.046875 0 9.144532 4.089844 9.144532 9.144531 0 5.054688-4.097657 9.144531-9.144532 9.144531-13.53125 0-21.703125 1.140626-31.535156 7.632813-1.550781 1.015625-3.296875 1.507813-5.027344 1.507813zm0 0" fill="#ed8a19"/><path d="m137.144531 283.429688c-5.046875 0-9.144531-4.085938-9.144531-9.132813-.007812-14.691406 3.65625-29.285156 10.320312-41.078125 2.480469-4.390625 8.054688-5.945312 12.464844-3.457031 4.394532 2.476562 5.941406 8.054687 3.464844 12.453125-5.066406 8.960937-7.964844 20.652344-7.964844 32.0625 0 5.058594-4.085937 9.152344-9.140625 9.152344zm0 0" fill="#ed8a19"/><path d="m317.804688 296.140625c-15.988282-7.945313-35.746094-12.710937-57.234376-12.710937-53.019531 0-96 28.65625-96 64 0 11.410156 4.535157 22.109374 12.378907 31.378906 10.523437 3.355468 21.714843 5.191406 33.335937 5.191406 53.109375 0 97.390625-37.738281 107.519532-87.859375zm0 0" fill="#f7e6a1"/></svg>