<svg height="512pt" viewBox="0 0 512 512" width="512pt" xmlns="http://www.w3.org/2000/svg"><path d="m475.550781 124.320312-100-94.6875c-35.6875-18.890624-76.355469-29.632812-119.550781-29.632812-44.667969 0-86.644531 11.46875-123.199219 31.578125l-79.738281 68.457031c-33.246094 43.183594-53.0625 97.242188-53.0625 155.964844 0 35.636719 7.300781 69.5625 20.453125 100.386719l88.375 109.019531c41.636719 29.316406 92.371094 46.59375 147.171875 46.59375 141.382812 0 256-114.617188 256-256 0-48.164062-13.320312-93.203125-36.449219-131.679688zm0 0" fill="#be6e41"/><g fill="#6c4127"><path d="m485.515625 88.277344c0 39-31.617187 70.621094-70.617187 70.621094-39.003907 0-70.621094-31.621094-70.621094-70.621094 0-39.003906 31.617187-70.621094 70.621094-70.621094 39 0 70.617187 31.617188 70.617187 70.621094zm0 0"/><path d="m141.242188 406.070312c0 39-31.617188 70.621094-70.621094 70.621094s-70.621094-31.621094-70.621094-70.621094c0-39.003906 31.617188-70.621093 70.621094-70.621093s70.621094 31.617187 70.621094 70.621093zm0 0"/><path d="m150.070312 70.621094c0 29.25-23.714843 52.964844-52.96875 52.964844-29.25 0-52.964843-23.714844-52.964843-52.964844 0-29.253906 23.714843-52.964844 52.964843-52.964844 29.253907 0 52.96875 23.710938 52.96875 52.964844zm0 0"/></g><path d="m441.378906 326.621094c0 29.25-23.714844 52.964844-52.964844 52.964844-29.253906 0-52.964843-23.714844-52.964843-52.964844 0-29.253906 23.710937-52.964844 52.964843-52.964844 29.25 0 52.964844 23.710938 52.964844 52.964844zm0 0" fill="#f7e6a1"/><path d="m167.722656 211.863281c0 19.5-15.808594 35.308594-35.308594 35.308594s-35.3125-15.808594-35.3125-35.308594c0-19.503906 15.8125-35.3125 35.3125-35.3125s35.308594 15.808594 35.308594 35.3125zm0 0" fill="#f7e6a1"/><path d="m256 344.277344c0 14.625-11.855469 26.480468-26.484375 26.480468-14.625 0-26.480469-11.855468-26.480469-26.480468 0-14.628906 11.855469-26.484375 26.480469-26.484375 14.628906 0 26.484375 11.855469 26.484375 26.484375zm0 0" fill="#6c4127"/><path d="m300.136719 88.277344c0 14.625-11.855469 26.480468-26.480469 26.480468-14.628906 0-26.484375-11.855468-26.484375-26.480468 0-14.628906 11.855469-26.484375 26.484375-26.484375 14.625 0 26.480469 11.855469 26.480469 26.484375zm0 0" fill="#e0ae94"/><path d="m379.585938 467.863281c0-19.5-15.808594-35.3125-35.308594-35.3125s-35.3125 15.8125-35.3125 35.3125c0 14.960938 9.339844 27.671875 22.484375 32.820313 15.800781-4.863282 30.941406-11.238282 45.277343-18.917969 1.828126-4.265625 2.859376-8.960937 2.859376-13.902344zm0 0" fill="#e0ae94"/><path d="m379.585938 97.101562c-4.871094 0-8.828126-3.945312-8.828126-8.824218 0-24.339844 19.800782-44.140625 44.140626-44.140625 4.871093 0 8.824218 3.945312 8.824218 8.828125 0 4.882812-3.953125 8.828125-8.824218 8.828125-14.601563 0-26.484376 11.882812-26.484376 26.484375 0 4.878906-3.953124 8.824218-8.828124 8.824218zm0 0" fill="#be7c6d"/><path d="m70.621094 450.207031c-4.875 0-8.828125-3.945312-8.828125-8.828125 0-4.882812 3.953125-8.828125 8.828125-8.828125 14.601562 0 26.480468-11.882812 26.480468-26.480469 0-14.601562-11.878906-26.484374-26.480468-26.484374-4.875 0-8.828125-3.945313-8.828125-8.828126 0-4.878906 3.953125-8.828124 8.828125-8.828124 24.335937 0 44.136718 19.800781 44.136718 44.140624 0 24.335938-19.800781 44.136719-44.136718 44.136719zm0 0" fill="#be7c6d"/></svg>