<svg height="512pt" viewBox="-150 0 512 512" width="512pt" xmlns="http://www.w3.org/2000/svg"><path d="m97.101562 52.964844h17.65625v300.136718h-17.65625zm0 0" fill="#bf4d90"/><path d="m26.484375 344.277344v140.101562c0 15.253906 11.855469 27.621094 26.480469 27.621094 14.628906 0 26.484375-12.367188 26.484375-27.621094v-140.101562zm0 0" fill="#fbce9d"/><path d="m105.929688 353.101562h-105.929688v-300.136718c0-29.253906 23.710938-52.964844 52.964844-52.964844s52.964844 23.710938 52.964844 52.964844zm0 0" fill="#bf4d90"/><path d="m52.964844 361.929688c-4.871094 0-8.828125-3.945313-8.828125-8.828126v-264.824218c0-4.882813 3.957031-8.828125 8.828125-8.828125 4.875 0 8.828125 3.945312 8.828125 8.828125v264.824218c0 4.882813-3.953125 8.828126-8.828125 8.828126zm0 0" fill="#6c2e56"/><path d="m132.414062 344.277344v140.101562c0 15.253906 11.855469 27.621094 26.484376 27.621094 14.625 0 26.480468-12.367188 26.480468-27.621094v-140.101562zm0 0" fill="#fbce9d"/><path d="m211.863281 353.101562h-105.933593v-300.136718c0-29.253906 23.710937-52.964844 52.96875-52.964844 29.253906 0 52.964843 23.710938 52.964843 52.964844zm0 0" fill="#ebba16"/><path d="m158.898438 361.929688c-4.875 0-8.828126-3.945313-8.828126-8.828126v-44.136718c0-4.882813 3.953126-8.828125 8.828126-8.828125 4.871093 0 8.824218 3.945312 8.824218 8.828125v44.136718c0 4.882813-3.953125 8.828126-8.824218 8.828126zm0 0" fill="#af8714"/><g fill="#cca37a"><path d="m26.484375 353.101562h52.964844v35.3125h-52.964844zm0 0"/><path d="m26.484375 432.550781h52.964844v35.3125h-52.964844zm0 0"/><path d="m132.414062 353.101562h52.964844v35.3125h-52.964844zm0 0"/><path d="m132.414062 432.550781h52.964844v35.3125h-52.964844zm0 0"/></g><path d="m52.964844 52.964844c4.875 0 8.828125-3.945313 8.828125-8.828125v-43.34375c-2.878907-.484375-5.808594-.792969-8.828125-.792969-3.019532 0-5.949219.308594-8.828125.792969v43.34375c0 4.882812 3.957031 8.828125 8.828125 8.828125zm0 0" fill="#6c2e56"/><path d="m158.898438 273.65625c4.871093 0 8.824218-3.945312 8.824218-8.828125v-264.035156c-2.875-.484375-5.808594-.792969-8.824218-.792969-3.019532 0-5.953126.308594-8.828126.792969v264.035156c0 4.882813 3.953126 8.828125 8.828126 8.828125zm0 0" fill="#af8714"/></svg>