<svg height="512pt" viewBox="0 -84 512 512" width="512pt" xmlns="http://www.w3.org/2000/svg"><path d="m52.964844 247.171875h414.898437v17.65625h-414.898437zm0 0" fill="#fbce9d"/><path d="m70.621094 291.308594v17.65625c0 19.5 15.808594 35.3125 35.308594 35.3125h300.140624c19.5 0 35.308594-15.8125 35.308594-35.3125v-17.65625zm0 0" fill="#afb6bb"/><path d="m459.035156 308.964844h-406.070312c-29.253906 0-52.964844-23.710938-52.964844-52.964844h512c0 29.253906-23.710938 52.964844-52.964844 52.964844zm0 0" fill="#e7eced"/><path d="m463.449219 132.414062h-414.898438c-17.0625 0-30.894531-13.832031-30.894531-30.898437 0-17.0625 13.832031-30.894531 30.894531-30.894531h414.898438c17.0625 0 30.894531 13.832031 30.894531 30.894531 0 17.066406-13.832031 30.898437-30.894531 30.898437zm0 0" fill="#fbce9d"/><path d="m463.449219 194.207031h-414.898438c-17.0625 0-30.894531-13.832031-30.894531-30.898437 0-17.0625 13.832031-30.894532 30.894531-30.894532h414.898438c17.0625 0 30.894531 13.832032 30.894531 30.894532 0 17.066406-13.832031 30.898437-30.894531 30.898437zm0 0" fill="#cea47a"/><path d="m463.449219 256h-414.898438c-17.0625 0-30.894531-13.832031-30.894531-30.898438 0-17.0625 13.832031-30.894531 30.894531-30.894531h414.898438c17.0625 0 30.894531 13.832031 30.894531 30.894531 0 17.066407-13.832031 30.898438-30.894531 30.898438zm0 0" fill="#fbce9d"/><path d="m105.929688 0s-44.136719 17.65625-44.136719 44.136719v35.3125h88.277343v-35.3125c0-26.480469-44.140624-44.136719-44.140624-44.136719zm0 0" fill="#ed8a19"/><path d="m105.929688 79.449219c-4.871094 0-8.828126-3.945313-8.828126-8.828125v-26.484375c0-4.878907 3.957032-8.828125 8.828126-8.828125 4.875 0 8.828124 3.949218 8.828124 8.828125v26.484375c0 4.882812-3.953124 8.828125-8.828124 8.828125zm0 0" fill="#fff"/><path d="m406.070312 0s-44.140624 17.65625-44.140624 44.136719v35.3125h88.277343v-35.3125c0-26.480469-44.136719-44.136719-44.136719-44.136719zm0 0" fill="#ed8a19"/><path d="m406.070312 79.449219c-4.875 0-8.828124-3.945313-8.828124-8.828125v-26.484375c0-4.878907 3.953124-8.828125 8.828124-8.828125 4.871094 0 8.828126 3.949218 8.828126 8.828125v26.484375c0 4.882812-3.957032 8.828125-8.828126 8.828125zm0 0" fill="#fff"/><path d="m256 0s-44.136719 17.65625-44.136719 44.136719v35.3125h88.273438v-35.3125c0-26.480469-44.136719-44.136719-44.136719-44.136719zm0 0" fill="#ed8a19"/><path d="m256 79.449219c-4.871094 0-8.828125-3.945313-8.828125-8.828125v-26.484375c0-4.878907 3.957031-8.828125 8.828125-8.828125s8.828125 3.949218 8.828125 8.828125v26.484375c0 4.882812-3.957031 8.828125-8.828125 8.828125zm0 0" fill="#fff"/><path d="m414.898438 70.621094h-353.105469v132.414062c0 9.753906 7.910156 17.65625 17.65625 17.65625 9.746093 0 17.652343-7.902344 17.652343-17.65625v-35.3125c0-9.753906 7.910157-17.652344 17.65625-17.652344 9.746094 0 17.65625 7.898438 17.65625 17.652344v35.3125c0 9.753906 7.910157 17.65625 17.65625 17.65625 9.746094 0 17.652344-7.902344 17.652344-17.65625v-79.449218c0-9.753907 7.910156-17.65625 17.65625-17.65625s17.65625 7.902343 17.65625 17.65625v52.964843c0 9.753907 7.910156 17.65625 17.65625 17.65625 9.742188 0 17.652344-7.902343 17.652344-17.65625v-26.480469c0-9.753906 7.910156-17.65625 17.65625-17.65625s17.65625 7.902344 17.65625 17.65625v52.964844c0 9.753906 7.910156 17.65625 17.652344 17.65625 9.746094 0 17.65625-7.902344 17.65625-17.65625v-79.449218c0-9.753907 7.910156-17.65625 17.65625-17.65625s17.65625 7.902343 17.65625 17.65625v44.136718c0 9.757813 7.90625 17.65625 17.652344 17.65625 9.746093 0 17.65625-7.898437 17.65625-17.65625v-17.652344c0-9.753906 7.910156-17.65625 17.65625-17.65625 9.746093 0 17.65625 7.902344 17.65625 17.65625v52.964844c0 9.753906 7.90625 17.65625 17.652343 17.65625 9.746094 0 17.65625-7.902344 17.65625-17.65625v-132.414062zm0 0" fill="#fc3952"/></svg>