<svg height="512pt" viewBox="-30 0 512 512.00399" width="512pt" xmlns="http://www.w3.org/2000/svg"><path d="m451.160156 173.464844c2.777344-79.046875-55.953125-137.769532-134.992187-134.992188-2.777344 79.039063 55.953125 137.769532 134.992187 134.992188zm0 0" fill="#ebba16"/><path d="m451.160156 173.464844c2.777344-79.046875-55.953125-137.769532-134.992187-134.992188-2.777344 79.039063 55.953125 137.769532 134.992187 134.992188zm0 0" fill="#ebba16"/><path d="m340.640625 217.542969c-17.503906-19.230469-28.429687-42.800781-32.207031-67.863281-.007813-.078126-.023438-.15625-.035156-.234376-13.121094-84.644531-56.855469-106.054687-108.800782-106.054687-51.949218 0-95.683594 21.410156-108.804687 106.0625-.011719.078125-.027344.15625-.035157.234375-3.777343 25.054688-14.710937 48.632812-32.207031 67.863281-36.167969 39.734375-58.667969 88.808594-58.54687475 135.871094.36328175 140.972656 91.03906275 166.632813 150.96874975 156.671875 32.125-5.347656 65.109375-5.347656 97.238282 0 59.9375 9.960938 150.613281-15.699219 150.976562-156.671875.121094-47.0625-22.378906-96.136719-58.546875-135.878906zm0 0" fill="#61b872"/><path d="m199.597656 104.136719c-9.183594 0-17.722656-4.191407-24.039062-11.816407-3.0625-3.691406-2.550782-9.164062 1.144531-12.21875 3.6875-3.066406 9.164063-2.554687 12.21875 1.144532 5.925781 7.140625 15.429687 7.140625 21.347656 0 3.0625-3.699219 8.53125-4.199219 12.21875-1.144532 3.6875 3.0625 4.199219 8.527344 1.144531 12.21875-6.316406 7.625-14.855468 11.816407-24.035156 11.816407zm0 0" fill="#9ce2a8"/><path d="m399.1875 130.171875c-2.21875 0-4.441406-.851563-6.132812-2.542969l-112.816407-112.8125c-3.390625-3.394531-3.390625-8.878906 0-12.273437 3.386719-3.390625 8.886719-3.390625 12.273438 0l112.8125 112.816406c3.394531 3.390625 3.394531 8.875 0 12.269531-1.691407 1.691406-3.914063 2.542969-6.136719 2.542969zm0 0" fill="#be6e41"/><path d="m199.597656 69.425781c-4.792968 0-8.679687-3.886719-8.679687-8.679687 0-33.496094 27.25-60.74218775 60.746093-60.74218775h69.421876c4.792968 0 8.679687 3.88671875 8.679687 8.67578175 0 4.789062-3.886719 8.679687-8.679687 8.679687h-69.421876c-23.925781 0-43.390624 19.464844-43.390624 43.386719 0 4.792968-3.886719 8.679687-8.675782 8.679687zm0 0" fill="#be6e41"/><g fill="#9ce2a8"><path d="m265.496094 164.769531c-4.207032 0-7.90625-3.0625-8.566406-7.347656-1.484376-9.609375-3.402344-18.136719-5.683594-25.339844-1.449219-4.566406 1.078125-9.441406 5.648437-10.890625 4.574219-1.449218 9.445313 1.082032 10.894531 5.648438 2.550782 8.050781 4.667969 17.449218 6.289063 27.933594.730469 4.738281-2.515625 9.171874-7.246094 9.902343-.441406.058594-.894531.09375-1.335937.09375zm0 0"/><path d="m43.390625 361.984375c-4.78125 0-8.667969-3.867187-8.675781-8.660156-.085938-36.777344 17.953125-77.753907 49.507812-112.414063 3.226563-3.546875 8.710938-3.808594 12.261719-.570312 3.539063 3.226562 3.800781 8.710937.574219 12.261718-28.671875 31.492188-45.066406 68.191407-44.988282 100.679688.007813 4.792969-3.863281 8.6875-8.660156 8.695312 0 .007813-.007812.007813-.019531.007813zm0 0"/></g></svg>