<svg height="512pt" viewBox="0 0 512 512" width="512pt" xmlns="http://www.w3.org/2000/svg"><path d="m164.570312 0c-90.886718 0-164.570312 73.683594-164.570312 164.570312 0 90.890626 73.683594 164.574219 164.570312 164.574219 6.628907 0 13.128907-.503906 19.546876-1.261719l143.753906-143.753906c.769531-6.429687 1.273437-12.929687 1.273437-19.558594 0-90.886718-73.683593-164.570312-164.574219-164.570312zm0 228.570312c-35.34375 0-64-28.652343-64-64 0-35.34375 28.65625-64 64-64 35.347657 0 64 28.65625 64 64 0 35.347657-28.652343 64-64 64zm0 0" fill="#be6e41"/><path d="m347.429688 182.855469c-90.890626 0-164.574219 73.683593-164.574219 164.574219 0 90.886718 73.683593 164.570312 164.574219 164.570312 90.886718 0 164.570312-73.683594 164.570312-164.570312 0-90.890626-73.683594-164.574219-164.570312-164.574219zm0 228.574219c-35.347657 0-64-28.65625-64-64 0-35.347657 28.652343-64 64-64 35.34375 0 64 28.652343 64 64 0 35.34375-28.65625 64-64 64zm0 0" fill="#6c4127"/><path d="m438.855469 310.855469c-2.339844 0-4.679688-.894531-6.460938-2.675781-3.578125-3.578126-3.578125-9.355469 0-12.929688l9.140625-9.140625c3.574219-3.578125 9.355469-3.578125 12.929688 0 3.574218 3.574219 3.574218 9.351563 0 12.925781l-9.144532 9.144532c-1.78125 1.78125-4.121093 2.675781-6.464843 2.675781zm0 0" fill="#dd352e"/><path d="m274.285156 448c-2.339844 0-4.679687-.894531-6.464844-2.679688-3.574218-3.574218-3.574218-9.351562 0-12.925781l9.144532-9.144531c3.574218-3.574219 9.351562-3.574219 12.925781 0 3.578125 3.574219 3.578125 9.351562 0 12.929688l-9.140625 9.140624c-1.78125 1.785157-4.125 2.679688-6.464844 2.679688zm0 0" fill="#57abc1"/><path d="m246.855469 310.855469c-2.339844 0-4.679688-.894531-6.460938-2.675781-3.578125-3.578126-3.578125-9.355469 0-12.929688l9.140625-9.140625c3.574219-3.578125 9.355469-3.578125 12.929688 0 3.574218 3.574219 3.574218 9.351563 0 12.925781l-9.144532 9.144532c-1.78125 1.78125-4.121093 2.675781-6.464843 2.675781zm0 0" fill="#61b872"/><path d="m429.714844 429.714844c-2.339844 0-4.683594-.898438-6.464844-2.679688-3.574219-3.574218-3.574219-9.351562 0-12.925781l9.144531-9.144531c3.574219-3.574219 9.351563-3.574219 12.925781 0 3.574219 3.574218 3.574219 9.351562 0 12.925781l-9.140624 9.144531c-1.785157 1.78125-4.125 2.679688-6.464844 2.679688zm0 0" fill="#ea6248"/><path d="m420.570312 256c-2.339843 0-4.679687-.894531-6.460937-2.679688l-9.144531-9.140624c-3.574219-3.578126-3.574219-9.355469 0-12.929688 3.574218-3.574219 9.351562-3.574219 12.925781 0l9.144531 9.144531c3.574219 3.574219 3.574219 9.351563 0 12.925781-1.78125 1.785157-4.125 2.679688-6.464844 2.679688zm0 0" fill="#28b574"/><path d="m310.855469 256c-2.339844 0-4.679688-.894531-6.460938-2.679688l-9.144531-9.140624c-3.574219-3.578126-3.574219-9.355469 0-12.929688s9.351562-3.574219 12.929688 0l9.140624 9.144531c3.574219 3.574219 3.574219 9.351563 0 12.925781-1.78125 1.785157-4.121093 2.679688-6.464843 2.679688zm0 0" fill="#f7931e"/><path d="m475.429688 374.855469c-2.339844 0-4.683594-.894531-6.464844-2.675781l-9.144532-9.144532c-3.574218-3.574218-3.574218-9.351562 0-12.925781 3.578126-3.578125 9.355469-3.578125 12.929688 0l9.140625 9.140625c3.578125 3.574219 3.578125 9.351562 0 12.929688-1.78125 1.78125-4.121094 2.675781-6.460937 2.675781zm0 0" fill="#f7931e"/><path d="m365.714844 475.429688c-2.339844 0-4.683594-.898438-6.464844-2.679688l-9.140625-9.144531c-3.578125-3.574219-3.578125-9.351563 0-12.925781 3.574219-3.574219 9.351563-3.574219 12.925781 0l9.144532 9.140624c3.574218 3.578126 3.574218 9.355469 0 12.929688-1.785157 1.78125-4.125 2.679688-6.464844 2.679688zm0 0" fill="#c6e2f7"/><path d="m228.570312 374.855469c-2.339843 0-4.679687-.894531-6.460937-2.675781l-9.144531-9.144532c-3.574219-3.574218-3.574219-9.351562 0-12.925781 3.574218-3.578125 9.351562-3.578125 12.925781 0l9.144531 9.140625c3.574219 3.574219 3.574219 9.351562 0 12.929688-1.78125 1.78125-4.125 2.675781-6.464844 2.675781zm0 0" fill="#ebba16"/><path d="m265.144531 146.285156c-2.34375 0-4.683593-.894531-6.464843-2.679687-3.574219-3.574219-3.574219-9.351563 0-12.925781l9.140624-9.144532c3.578126-3.574218 9.355469-3.574218 12.929688 0 3.574219 3.574219 3.574219 9.355469 0 12.929688l-9.144531 9.140625c-1.78125 1.785156-4.121094 2.679687-6.460938 2.679687zm0 0" fill="#dd1f20"/><path d="m128 283.429688c-2.339844 0-4.679688-.898438-6.464844-2.679688-3.574218-3.574219-3.574218-9.351562 0-12.929688l9.144532-9.140624c3.574218-3.574219 9.351562-3.574219 12.925781 0 3.578125 3.574218 3.578125 9.351562 0 12.925781l-9.140625 9.144531c-1.785156 1.78125-4.125 2.679688-6.464844 2.679688zm0 0" fill="#7383bf"/><path d="m64 128c-2.339844 0-4.679688-.894531-6.464844-2.679688-3.574218-3.574218-3.574218-9.351562 0-12.925781l9.144532-9.144531c3.574218-3.574219 9.351562-3.574219 12.925781 0 3.578125 3.574219 3.578125 9.351562 0 12.929688l-9.140625 9.140624c-1.785156 1.785157-4.125 2.679688-6.464844 2.679688zm0 0" fill="#61b872"/><path d="m237.714844 73.144531c-2.339844 0-4.683594-.898437-6.464844-2.679687l-9.140625-9.144532c-3.578125-3.574218-3.578125-9.351562 0-12.925781 3.574219-3.578125 9.351563-3.578125 12.925781 0l9.144532 9.140625c3.574218 3.574219 3.574218 9.355469 0 12.929688-1.785157 1.78125-4.125 2.679687-6.464844 2.679687zm0 0" fill="#28b574"/><path d="m128 73.144531c-2.339844 0-4.679688-.898437-6.464844-2.679687l-9.140625-9.144532c-3.578125-3.574218-3.578125-9.351562 0-12.925781 3.574219-3.578125 9.351563-3.578125 12.925781 0l9.144532 9.140625c3.574218 3.574219 3.574218 9.355469 0 12.929688-1.785156 1.78125-4.125 2.679687-6.464844 2.679687zm0 0" fill="#f7931e"/><path d="m64 210.285156c-2.339844 0-4.679688-.894531-6.464844-2.679687l-9.140625-9.140625c-3.578125-3.574219-3.578125-9.355469 0-12.929688 3.574219-3.574218 9.351563-3.574218 12.925781 0l9.144532 9.144532c3.574218 3.574218 3.574218 9.351562 0 12.925781-1.785156 1.785156-4.125 2.679687-6.464844 2.679687zm0 0" fill="#ebba16"/></svg>