<svg height="512pt" viewBox="0 -9 512 512" width="512pt" xmlns="http://www.w3.org/2000/svg"><path d="m26.484375 397.242188h459.03125v26.480468h-459.03125zm0 0" fill="#ed8a19"/><path d="m70.621094 441.378906v17.65625c0 19.5 15.808594 35.308594 35.308594 35.308594h300.140624c19.5 0 35.308594-15.808594 35.308594-35.308594v-17.65625zm0 0" fill="#afb6bb"/><path d="m150.070312 406.070312-79.820312-92.503906c-19.429688 20.644532-52.59375 59.441406-52.59375 83.675782 0 0 .015625 3.652343.980469 8.828124zm0 0" fill="#ed8a19"/><path d="m120.179688 402.777344c.707031 1.183594 1.527343 2.242187 2.347656 3.292968h70.460937l45.355469-1.246093-44.136719-173.390625-20.402343-1.917969c-37.039063 0-74.089844 29.28125-95.777344 50.132813-11.5625 11.125-13.832032 29.597656-5.4375 43.617187zm0 0" fill="#dc691d"/><path d="m493.363281 406.070312c.964844-5.175781.980469-8.828124.980469-8.828124 0-24.234376-33.535156-65.105469-52.964844-85.753907l-105.929687 94.582031zm0 0" fill="#ed8a19"/><path d="m389.480469 406.070312c.824219-1.0625 1.644531-2.121093 2.347656-3.292968l47.582031-79.503906c8.394532-14.027344 6.117188-32.5-5.4375-43.617188-21.6875-20.859375-58.738281-50.140625-95.777344-50.140625l-38.058593 1.917969-21.050781 173.390625 39.925781 1.246093zm0 0" fill="#dc691d"/><path d="m314.605469 406.070312 23.589843-194.207031c-24.664062-26.484375-82.195312-26.484375-82.195312-26.484375s-57.53125 0-82.195312 26.484375l23.589843 194.207031zm0 0" fill="#ed8a19"/><path d="m282.484375 379.585938h-52.96875c-3.792969 0-7.167969-2.425782-8.375-6.039063l-8.828125-26.480469c-1.546875-4.625.960938-9.632812 5.585938-11.167968 4.617187-1.535157 9.625.953124 11.167968 5.578124l6.816406 20.453126h40.242188l6.816406-20.441407c1.546875-4.617187 6.558594-7.109375 11.167969-5.582031 4.625 1.535156 7.125 6.535156 5.585937 11.167969l-8.828124 26.484375c-1.214844 3.601562-4.589844 6.027344-8.382813 6.027344zm0 0" fill="#f7e6a1"/><path d="m459.035156 459.035156h-406.070312c-29.253906 0-52.964844-23.710937-52.964844-52.964844h512c0 29.253907-23.710938 52.964844-52.964844 52.964844zm0 0" fill="#e7eced"/><g fill="#f7e6a1"><path d="m211.863281 247.171875c-2.261719 0-4.519531-.863281-6.242187-2.585937-3.453125-3.453126-3.453125-9.03125 0-12.480469l8.828125-8.828125c3.441406-3.453125 9.039062-3.453125 12.480469 0 3.453124 3.449218 3.453124 9.03125 0 12.480468l-8.828126 8.828126c-1.71875 1.722656-3.980468 2.585937-6.238281 2.585937zm0 0"/><path d="m291.308594 247.171875c-2.257813 0-4.519532-.863281-6.238282-2.585937-3.453124-3.453126-3.453124-9.03125 0-12.480469l8.828126-8.828125c3.441406-3.453125 9.039062-3.453125 12.480468 0 3.453125 3.449218 3.453125 9.03125 0 12.480468l-8.828125 8.828126c-1.722656 1.722656-3.980469 2.585937-6.242187 2.585937zm0 0"/><path d="m264.828125 273.65625c-2.261719 0-4.519531-.867188-6.242187-2.585938l-8.828126-8.828124c-3.449218-3.453126-3.449218-9.03125 0-12.484376 3.445313-3.449218 9.039063-3.449218 12.484376 0l8.828124 8.828126c3.449219 3.453124 3.449219 9.03125 0 12.484374-1.722656 1.71875-3.984374 2.585938-6.242187 2.585938zm0 0"/></g><path d="m256 79.449219c-4.871094 0-8.828125-3.945313-8.828125-8.828125v-61.792969c0-4.882813 3.957031-8.828125 8.828125-8.828125s8.828125 3.945312 8.828125 8.828125v61.792969c0 4.882812-3.957031 8.828125-8.828125 8.828125zm0 0" fill="#dc691d"/><path d="m256 141.242188c-4.871094 0-8.828125-3.945313-8.828125-8.828126v-26.484374c0-4.878907 3.957031-8.828126 8.828125-8.828126s8.828125 3.949219 8.828125 8.828126v26.484374c0 4.882813-3.957031 8.828126-8.828125 8.828126zm0 0" fill="#ebba16"/><path d="m317.792969 52.964844c-4.871094 0-8.828125-3.945313-8.828125-8.828125v-17.652344c0-4.882813 3.957031-8.828125 8.828125-8.828125 4.871093 0 8.828125 3.945312 8.828125 8.828125v17.652344c0 4.882812-3.957032 8.828125-8.828125 8.828125zm0 0" fill="#ebba16"/><path d="m317.792969 167.722656c-4.871094 0-8.828125-3.945312-8.828125-8.824218v-79.449219c0-4.882813 3.957031-8.828125 8.828125-8.828125 4.871093 0 8.828125 3.945312 8.828125 8.828125v79.449219c0 4.878906-3.957032 8.824218-8.828125 8.824218zm0 0" fill="#dc691d"/><path d="m194.207031 52.964844c-4.871093 0-8.828125-3.945313-8.828125-8.828125v-17.652344c0-4.882813 3.957032-8.828125 8.828125-8.828125 4.871094 0 8.828125 3.945312 8.828125 8.828125v17.652344c0 4.882812-3.957031 8.828125-8.828125 8.828125zm0 0" fill="#ebba16"/><path d="m194.207031 167.722656c-4.871093 0-8.828125-3.945312-8.828125-8.824218v-79.449219c0-4.882813 3.957032-8.828125 8.828125-8.828125 4.871094 0 8.828125 3.945312 8.828125 8.828125v79.449219c0 4.878906-3.957031 8.824218-8.828125 8.824218zm0 0" fill="#dc691d"/></svg>