<svg height="512pt" viewBox="-92 0 511 512" width="512pt" xmlns="http://www.w3.org/2000/svg"><path d="m323.140625 216.664062-27.871094-117.035156c-2.179687-9.164062-8.507812-16.78125-17.117187-20.605468l-59.9375-32.28125c-3.859375-1.722657-8.03125-2.605469-12.261719-2.605469h6.410156v-17.652344h-123.585937v17.652344l-66.136719 104.847656c-14.433594 21.652344-22.140625 47.101563-22.140625 73.125v260.230469c0 16.375 13.285156 29.660156 29.667969 29.660156h231.980469c16.375 0 29.660156-13.285156 29.660156-29.667969v-141.144531c0-17.011719 6.765625-33.335938 18.785156-45.367188 8.757812-9.109374 12.835938-20.089843 14.875-32.742187 2.5-15.421875 1.289062-31.210937-2.328125-46.414063zm-54.449219 38.816407c-9.417968 2.347656-19.050781-3.445313-21.398437-12.871094l-25.582031-102.796875c-2.347657-9.421875 3.441406-19.050781 12.871093-21.398438 9.425781-2.347656 19.050781 3.441407 21.398438 12.871094l25.582031 102.796875c2.339844 9.425781-3.453125 19.050781-12.871094 21.398438zm0 0" fill="#f7e6a1"/><path d="m219.316406 366.582031c-3.363281-13.347656-10.890625-24.617187-21.015625-32.960937l-4-3.035156c-16.285156-11.46875-38.046875-15.972657-59.808593-10.453126-37.964844 9.621094-61.554688 46.007813-52.671876 81.273438 8.878907 35.269531 46.855469 56.066406 84.824219 46.445312 37.96875-9.625 61.554688-46.003906 52.671875-81.269531zm0 0" fill="#ed8a19"/><path d="m150.570312 317.792969c0-29.253907 23.710938-52.964844 52.964844-52.964844 0 29.253906-23.710937 52.964844-52.964844 52.964844zm0 0" fill="#61b872"/><path d="m238.84375 44.136719h-176.550781v-29.890625c0-7.863282 6.382812-14.246094 14.246093-14.246094h148.058594c7.863282 0 14.246094 6.382812 14.246094 14.246094zm0 0" fill="#dd352e"/><g fill="#b02721"><path d="m88.777344 0h17.652344v17.65625h-17.652344zm0 0"/><path d="m124.085938 0h17.65625v17.65625h-17.65625zm0 0"/><path d="m159.398438 0h17.652343v17.65625h-17.652343zm0 0"/><path d="m194.707031 0h17.65625v17.65625h-17.65625zm0 0"/></g><path d="m150.570312 459.035156c-4.875 0-8.828124-3.945312-8.828124-8.828125 0-4.882812 3.953124-8.828125 8.828124-8.828125 8.527344 0 18.210938-9.570312 24.117188-23.796875 6.636719-16.023437 8.015625-37.519531-3.875-49.410156-3.453125-3.453125-3.453125-9.03125 0-12.480469 3.441406-3.453125 9.039062-3.453125 12.480469 0 18.855469 18.863282 15.933593 48.761719 7.699219 68.640625-8.863282 21.40625-24.355469 34.703125-40.421876 34.703125zm0 0" fill="#c5411e"/></svg>