<svg height="512pt" viewBox="-124 0 512 512" width="512pt" xmlns="http://www.w3.org/2000/svg"><path d="m240.570312 138.203125c-6.515624-7.421875-14.195312-14.28125-22.855468-20.117187-14.574219-9.824219-23.507813-26.066407-23.507813-43.652344v-12.640625h-123.585937v12.640625c0 17.578125-8.933594 33.828125-23.515625 43.652344-8.652344 5.828124-16.332031 12.6875-22.855469 20.117187-15.34375 17.488281-24.25 38.15625-24.25 56.003906v301.328125c0 5.6875 2.878906 10.691406 7.257812 13.648438 2.628907 1.785156 5.796876 2.816406 9.207032 2.816406h231.90625c3.410156 0 6.578125-1.03125 9.210937-2.808594 4.367188-2.964844 7.246094-7.96875 7.246094-13.65625v-301.328125c0-17.847656-8.90625-38.515625-24.257813-56.003906zm0 0" fill="#ed8a19"/><path d="m220.691406 70.621094h-176.554687v-60.292969c0-5.703125 4.625-10.328125 10.328125-10.328125h155.898437c5.699219 0 10.328125 4.625 10.328125 10.328125zm0 0" fill="#e7eced"/><g fill="#afb6bb"><path d="m79.449219 35.308594c-4.875 0-8.828125 3.949218-8.828125 8.828125v26.484375h17.65625v-26.484375c0-4.878907-3.957032-8.828125-8.828125-8.828125zm0 0"/><path d="m114.757812 35.308594c-4.871093 0-8.828124 3.949218-8.828124 8.828125v26.484375h17.65625v-26.484375c0-4.878907-3.953126-8.828125-8.828126-8.828125zm0 0"/><path d="m150.070312 35.308594c-4.875 0-8.828124 3.949218-8.828124 8.828125v26.484375h17.65625v-26.484375c0-4.878907-3.957032-8.828125-8.828126-8.828125zm0 0"/><path d="m185.378906 35.308594c-4.871094 0-8.828125 3.949218-8.828125 8.828125v26.484375h17.65625v-26.484375c0-4.878907-3.953125-8.828125-8.828125-8.828125zm0 0"/></g><path d="m97.101562 220.691406h167.726563v220.6875h-167.726563zm0 0" fill="#f7e6a1"/><path d="m0 220.691406h44.136719v220.6875h-44.136719zm0 0" fill="#f7e6a1"/><path d="m161.359375 363.300781-.496094-.433593c-13.734375-12.015626-13.734375-33.378907 0-45.390626l20.347657-17.796874 20.347656 17.796874c13.738281 12.011719 13.738281 33.375 0 45.390626l-.492188.433593c-11.363281 9.945313-28.335937 9.945313-39.707031 0zm0 0" fill="#dd352e"/></svg>