<svg height="511pt" viewBox="0 -70 511.9977 511" width="511pt" xmlns="http://www.w3.org/2000/svg"><path d="m140.445312 88.964844-70.773437-26.539063s-17.691406-8.847656 17.695313 159.234375l230.007812 150.390625 26.539062-35.386719zm0 0" fill="#ccc496"/><path d="m7.746094 283.585938 309.628906 88.464843-247.703125-309.625s-97.3125 53.078125-61.925781 221.160157zm0 0" fill="#ccc496"/><path d="m317.375 372.050781-247.703125-309.625 194.625-61.925781 247.699219 274.242188zm0 0" fill="#f2ecbf"/><path d="m432.378906 283.585938-13.589844 3.398437c-8.5625 2.140625-15.691406-6.75-11.746093-14.640625l7.644531-15.296875-17.695312-35.386719-14.382813-14.382812c-6.289063-6.289063-16.765625-5.253906-21.691406 2.148437l-.886719 1.335938c-4.226562 6.335937-3.386719 14.785156 2 20.160156l8.085938 8.085937c5.742187 5.742188 8.238281 13.980469 6.644531 21.941407l-4.734375 23.644531c-1.007813 5.054688-.15625 10.308594 2.398437 14.785156l19.628907 34.339844 48.65625-24.328125zm0 0" fill="#426d5f"/><path d="m34.285156 212.816406 8.847656-26.542968v-26.539063l-26.539062-8.84375-5.988281-7.484375c-7.625 23.210938-12.128907 52.21875-10.007813 87.949219l15.996094 8zm0 0" fill="#335649"/><path d="m236.480469 326.5625c5.34375-4.007812 5.894531-11.808594 1.179687-16.535156l-9.839844-9.835938c-4.28125-4.28125-11.234374-4.28125-15.515624 0-5.042969 5.042969-13.492188 4.007813-17.160157-2.113281l-13.394531-22.320313c-3.222656-5.371093-10.28125-6.960937-15.492188-3.484374l-9.5625 6.367187c-4.316406 2.875-6.023437 8.386719-4.09375 13.199219l13.605469 34.007812c.40625 1.007813.519531 2.09375.609375 3.175782l48.0625 13.730468zm0 0" fill="#335649"/><path d="m308.527344 62.425781 3.59375-8.980469-47.824219-52.945312-62.023437 19.734375 8.941406 15.652344 35.386718 8.84375-8.84375 44.234375 26.539063 26.539062 26.539063-26.539062 26.539062 8.84375zm0 0" fill="#426d5f"/><path d="m174.882812 193.9375c1.203126-1.035156 2.140626-2.398438 2.664063-3.957031l6.457031-19.382813c.441406-1.324218 1.1875-2.527344 2.175782-3.519531l9.679687-9.679687c5.660156-5.660157 1.644531-15.355469-6.371094-15.355469-3.007812 0-5.820312-1.503907-7.484375-4.007813l-13.089844-19.640625c-1.25-1.863281-3.132812-3.191406-5.308593-3.742187l-24.578125-6.148438c-4.28125-1.070312-8.710938 1.125-10.453125 5.1875l-6.238281 14.558594zm0 0" fill="#426d5f"/><path d="m119.78125 198.023438c1.765625 3.53125 5.632812 5.503906 9.527344 4.847656l41.179687-6.863282c1.664063-.277343 3.167969-1.011718 4.394531-2.070312l-52.539062-65.6875-15.640625 36.484375c-1.042969 2.433594-.964844 5.203125.222656 7.574219zm0 0" fill="#335649"/></svg>