<svg height="512pt" viewBox="0 -128 512 512" width="512pt" xmlns="http://www.w3.org/2000/svg"><path d="m483.441406 62.816406c4.265625-1.375 8.40625-1.898437 12.351563-1.71875 8.996093.386719 16.207031-7.503906 16.207031-16.507812v-44.589844h-158.898438c-.386718 18.433594-20 35.308594-44.136718 35.308594-22.066406 0-40.878906-19.082032-44.136719-35.308594h-142.488281c-3.933594 15.199219-17.628906 26.484375-34.0625 26.484375-16.4375 0-30.128906-11.285156-34.066406-26.484375h-54.210938v158.898438c14.628906 0 26.484375 11.855468 26.484375 26.480468 0 14.628906-11.855469 26.484375-26.484375 26.484375v18.09375c0 14.300781 12.183594 26.289063 26.484375 26.042969h444.042969c23.023437-.40625 41.472656-19.183594 41.472656-42.214844v-65.613281c0-9.5-7.960938-16.542969-17.460938-16.480469-.0625 0-.132812 0-.195312 0-21.863281 0-39.085938-19.871094-34.59375-42.542968 2.4375-12.269532 11.785156-22.492188 23.691406-26.332032zm0 0" fill="#ebba16"/><g fill="#f7e6a1"><path d="m406.070312 79.449219c0 14.625-11.859374 26.480469-26.484374 26.480469s-26.484376-11.855469-26.484376-26.480469c0-14.628907 11.859376-26.484375 26.484376-26.484375s26.484374 11.855468 26.484374 26.484375zm0 0"/><path d="m308.964844 158.898438c0 14.625-11.855469 26.480468-26.480469 26.480468-14.628906 0-26.484375-11.855468-26.484375-26.480468 0-14.628907 11.855469-26.484376 26.484375-26.484376 14.625 0 26.480469 11.855469 26.480469 26.484376zm0 0"/><path d="m132.414062 97.101562c0 19.503907-15.808593 35.3125-35.3125 35.3125-19.5 0-35.308593-15.808593-35.308593-35.3125 0-19.5 15.808593-35.308593 35.308593-35.308593 19.503907 0 35.3125 15.808593 35.3125 35.308593zm0 0"/><path d="m432.550781 249.398438c0-20.730469-17.785156-37.535157-39.722656-37.535157s-39.726563 16.804688-39.726563 37.535157c0 2.265624.328126 4.449218.734376 6.601562h78.007812c.433594-2.144531.707031-4.34375.707031-6.601562zm0 0"/><path d="m194.207031 61.792969h35.308594v35.308593h-35.308594zm0 0"/><path d="m132.414062 176.550781h35.308594v35.3125h-35.308594zm0 0"/></g></svg>