<svg height="512pt" viewBox="0 0 512 512" width="512pt" xmlns="http://www.w3.org/2000/svg"><path d="m503.171875 70.621094v-61.792969l-485.515625 150.070313v203.03125c60.316406 73.066406 117.210938 92.851562 211.859375 97.105468l52.96875 35.308594 194.207031-264.828125 17.652344-70.617187c-2.804688-.039063-6.355469-16.351563-8.828125-17.65625-11.746094-6.222657 4.558594-27.15625 13.632813-44.304688 3.40625-6.445312-.902344-22.574219 4.023437-26.316406zm0 0" fill="#dc691d"/><path d="m300.136719 185.378906c0-11.519531 7-21.652344 17.675781-28.097656.015625-.105469.042969-.210938.042969-.328125 2.566406-1.480469 5.410156-2.683594 8.359375-3.722656.601562-.222657 1.210937-.425781 1.828125-.621094 1.871093-.582031 3.792969-1.046875 5.789062-1.4375.742188-.140625 1.457031-.324219 2.214844-.441406 2.660156-.398438 5.394531-.660157 8.230469-.660157 13.203125 0 24.917968 4.535157 33.015625 11.582032l134.707031-161.652344-512 150.070312 6.410156 6.9375c63.441406 68.730469 152.714844 107.820313 246.253906 107.820313h38.644532l38.523437-46.230469c-17.238281-4.800781-29.695312-17.789062-29.695312-33.21875zm0 0" fill="#ebba16"/><path d="m503.984375 139.253906c-11.75-6.222656-13.910156-25.167968-4.835937-42.316406 3.40625-6.445312 7.925781-11.714844 12.851562-15.457031v-81.480469l-134.707031 161.652344c6.839843 5.957031 11.121093 13.691406 11.121093 22.253906 0 .15625-.0625.308594-.0625.476562-.015624.007813-.042968.015626-.0625.027344.011719.332032.125.632813.125.96875 0 19.5-19.765624 35.3125-44.136718 35.3125-5.085938 0-9.898438-.832031-14.445313-2.09375l-38.523437 46.230469v247.171875l220.691406-300.136719v-70.761719c-2.808594-.035156-5.535156-.539062-8.015625-1.847656zm0 0" fill="#ed8a19"/><path d="m388.414062 185.378906c0-19.5-19.761718-35.308594-44.136718-35.308594-24.378906 0-44.140625 15.808594-44.140625 35.308594s19.761719 35.3125 44.140625 35.3125c24.375 0 44.136718-15.8125 44.136718-35.3125zm0 0" fill="#dc691d"/><path d="m0 150.070312v238.34375c60.320312 73.066407 148.753906 117.1875 243.402344 121.433594l47.90625 2.152344v-247.171875h-38.664063c-93.519531 0-182.792969-39.089844-246.234375-107.8125zm0 0" fill="#dc691d"/><path d="m88.277344 300.136719c0 14.628906-11.859375 26.484375-26.484375 26.484375s-26.484375-11.855469-26.484375-26.484375c0-14.625 11.859375-26.480469 26.484375-26.480469s26.484375 11.855469 26.484375 26.480469zm0 0" fill="#c5411e"/><path d="m167.722656 185.378906c0-9.75-11.855468-17.65625-26.480468-17.65625s-26.484376 7.90625-26.484376 17.65625 11.859376 17.65625 26.484376 17.65625 26.480468-7.90625 26.480468-17.65625zm0 0" fill="#dc691d"/><path d="m300.136719 123.585938c0-9.75-11.855469-17.65625-26.480469-17.65625-14.628906 0-26.484375 7.90625-26.484375 17.65625s11.855469 17.65625 26.484375 17.65625c14.625 0 26.480469-7.90625 26.480469-17.65625zm0 0" fill="#dc691d"/><path d="m247.171875 335.449219c0 19.5-15.808594 35.308593-35.308594 35.308593-19.503906 0-35.3125-15.808593-35.3125-35.308593 0-19.503907 15.808594-35.3125 35.3125-35.3125 19.5 0 35.308594 15.808593 35.308594 35.3125zm0 0" fill="#c5411e"/><path d="m344.277344 150.070312c-9.960938 0-19.035156 2.621094-26.421875 6.882813 0 .160156-.0625.308594-.0625.476563 0 18.691406 19.765625 33.835937 44.136719 33.835937 9.957031 0 19.035156-2.621094 26.421874-6.882813 0-.160156.0625-.308593.0625-.476562 0-18.6875-19.765624-33.835938-44.136718-33.835938zm0 0" fill="#c5411e"/><path d="m448.582031 271.351562c-11.75-6.222656-28.636719 2.640626-37.710937 19.792969-9.074219 17.148438-6.910156 36.09375 4.835937 42.316407 1.765625.9375 3.675781 1.421874 5.632813 1.703124l36.792968-50.03125c-1.410156-6.128906-4.554687-11.140624-9.550781-13.78125zm0 0" fill="#dc691d"/><path d="m149.566406 410.484375c0 12.1875-9.882812 22.066406-22.070312 22.066406s-22.066406-9.878906-22.066406-22.066406c0-12.191406 9.878906-22.070313 22.066406-22.070313s22.070312 9.878907 22.070312 22.070313zm0 0" fill="#c5411e"/></svg>