<svg height="512pt" viewBox="0 -40 512 512" width="512pt" xmlns="http://www.w3.org/2000/svg"><path d="m256 238.34375c-141.382812 0-256 3.152344-256-26.101562v52.964843c0 53.1875 40.316406 88.1875 112.003906 114.28125 7.558594 2.753907 75.742188 53.441407 143.996094 53.441407s136.429688-50.695313 143.996094-53.441407c71.6875-26.09375 112.003906-61.085937 112.003906-114.28125v-52.964843c0 29.253906-114.617188 26.101562-256 26.101562zm0 0" fill="#7383bf"/><path d="m443.71875 177.804688c-15.792969-5.792969-41.726562-10.574219-73.894531-13.628907 2.71875-3.539062 4.191406-7.308593 4.191406-11.210937 0-19.917969-38.144531-36.195313-86.546875-37.6875v-.148438h-27.371094c-29.097656-48.527344-28.683594-111.6875-29.664062-105.929687-3.007813 13.167969-6.453125 25.148437-10.246094 36.015625-13.667969 39.035156-45.09375 68.035156-83.511719 79.933594-30.957031 9.585937-51.128906 25.230468-51.128906 42.945312 0 1.914062.285156 3.796875.734375 5.660156-47.667969 9.65625-77.453125 23.320313-77.453125 38.488282 0 29.253906 110.660156 52.964843 247.171875 52.964843s247.171875-23.710937 247.171875-52.964843c0-13.15625-22.421875-25.175782-59.453125-34.4375zm0 0" fill="#e7eced"/><path d="m450.417969 177.804688c11.132812 3.945312 17.445312 8.34375 17.445312 13.003906 0 14.988281-64.636719 27.859375-149.390625 30.269531h-119.515625v-.160156c-62.113281-1.507813-112.234375-21.59375-118.75-47.15625-49.355469 9.648437-80.207031 23.3125-80.207031 38.480469 0 29.253906 114.617188 52.964843 256 52.964843s256-23.710937 256-52.964843c0-13.15625-23.226562-25.175782-61.582031-34.4375zm0 0" fill="#c7d0d1"/><path d="m373.890625 164.175781c2.816406-3.539062 4.335937-7.308593 4.335937-11.210937 0-19.917969-39.503906-36.195313-89.636718-37.6875v-.148438h-28.351563c-30.136719-48.527344-29.707031-111.6875-30.722656-105.929687-3.113281 13.167969-6.679687 25.148437-10.617187 36.015625-14.160157 39.035156-46.707032 68.035156-86.492188 79.933594-32.0625 9.59375-52.957031 25.238281-52.957031 42.953124 0 28.207032 52.875 51.183594 119.507812 52.808594v.160156h119.515625c84.753906-2.402343 149.390625-15.273437 149.390625-30.261718 0-11.503906-38.011719-21.503906-93.972656-26.632813zm0 0" fill="#e7eced"/><g fill="#c7d0d1"><path d="m282.484375 150.085938c-1.96875 0-3.957031-.652344-5.597656-2.011719-33.253907-27.296875-52.542969-74.125-55.78125-135.441407-.019531-.335937-.035157-.644531-.054688-.917968-.371093-1.28125-.46875-2.648438-.230469-4.042969.777344-4.425781 4.917969-7.945313 9.351563-7.65625 7.960937.488281 8.375 8.335937 8.550781 11.6875 2.976563 56.222656 20.039063 98.667969 49.355469 122.730469 3.769531 3.089844 4.316406 8.652344 1.226563 12.421875-1.746094 2.125-4.269532 3.230469-6.820313 3.230469zm0 0"/><path d="m303.164062 193.730469c-28.40625 0-60.933593-3.816407-92.574218-8.429688-4.820313-.707031-8.164063-5.183593-7.457032-10.011719.703126-4.820312 5.171876-8.238281 10.007813-7.460937 89.167969 13.03125 140.792969 10.136719 153.441406-8.597656 2.730469-4.042969 8.21875-5.09375 12.253907-2.382813 4.042968 2.738282 5.101562 8.226563 2.375 12.261719-12.472657 18.46875-41.921876 24.621094-78.046876 24.621094zm0 0"/></g></svg>