<svg height="511pt" viewBox="-30 0 511 511.99903" width="511pt" xmlns="http://www.w3.org/2000/svg"><path d="m239.515625 86.777344h-26.777344s-64.714843 8.679687-64.714843 130.171875h156.203124c0-121.492188-64.710937-130.171875-64.710937-130.171875zm0 0" fill="#ebba16"/><path d="m252.160156 390.507812v-17.355468h-52.066406v17.355468c0 38.375-23.292969 69.421876-52.070312 69.421876v17.359374h156.203124v-17.359374c-28.773437 0-52.066406-31.058594-52.066406-69.421876zm0 0" fill="#e7eced"/><path d="m61.246094 321.082031h329.761718v26.035157h-329.761718zm0 0" fill="#e7eced"/><path d="m217.441406 52.066406c-3.890625 0-7.421875-2.628906-8.410156-6.578125l-8.679688-34.710937c-1.160156-4.644532 1.667969-9.355469 6.320313-10.519532 4.640625-1.152343 9.363281 1.648438 10.523437 6.320313l8.679688 34.710937c1.164062 4.640626-1.667969 9.355469-6.316406 10.515626-.710938.175781-1.414063.261718-2.117188.261718zm0 0" fill="#75348b"/><path d="m146.296875 86.777344h66.441406s-47.355469 8.679687-47.355469 130.171875h-104.136718l69.421875-120.320313c2.882812-6.023437 8.957031-9.851562 15.628906-9.851562zm0 0" fill="#ed8a19"/><path d="m165.382812 216.949219h-104.136718c0 47.960937 23.289062 86.777343 52.066406 86.777343h78.101562c-14.386718 0-26.03125-38.816406-26.03125-86.777343zm0 0" fill="#ebba16"/><path d="m286.871094 216.949219h104.136718c0 47.960937-23.292968 86.777343-52.066406 86.777343h-78.101562c14.386718 0 26.03125-38.816406 26.03125-86.777343zm0 0" fill="#ebba16"/><path d="m286.871094 216.949219h-121.488282c0 47.960937 11.644532 86.777343 26.03125 86.777343h69.425782c14.386718 0 26.03125-38.816406 26.03125-86.777343zm0 0" fill="#ed8a19"/><path d="m305.957031 86.777344h-66.441406s47.355469 8.679687 47.355469 130.171875h104.136718l-69.421874-120.320313c-2.882813-6.023437-8.957032-9.851562-15.628907-9.851562zm0 0" fill="#ed8a19"/><path d="m417.042969 338.441406h-381.832031c-19.167969 0-34.710938-15.542968-34.710938-34.714844h451.253906c0 19.171876-15.542968 34.714844-34.710937 34.714844zm0 0" fill="#e7eced"/><path d="m391.007812 390.507812h-329.761718c-14.378906 0-26.035156-11.65625-26.035156-26.035156s11.65625-26.03125 26.035156-26.03125h329.761718c14.378907 0 26.035157 11.652344 26.035157 26.03125 0 14.371094-11.65625 26.035156-26.035157 26.035156zm0 0" fill="#afb6bb"/><path d="m321.585938 512h-190.917969c-14.378907 0-26.03125-11.65625-26.03125-26.035156s11.652343-26.035156 26.03125-26.035156h190.917969c14.378906 0 26.03125 11.65625 26.03125 26.035156 0 14.371094-11.652344 26.035156-26.03125 26.035156zm0 0" fill="#afb6bb"/><path d="m286.871094 52.066406c0 19.171875-15.539063 34.710938-34.710938 34.710938s-34.710937-15.539063-34.710937-34.710938 15.539062-34.710937 34.710937-34.710937 34.710938 15.539062 34.710938 34.710937zm0 0" fill="#61b872"/><path d="m217.449219 52.066406c0-3.238281.589843-6.316406 1.414062-9.292968-4.738281-4.957032-11.375-8.0625-18.769531-8.0625-14.378906 0-26.035156 11.65625-26.035156 26.035156s11.65625 26.03125 26.035156 26.03125c10.429688 0 19.359375-6.167969 23.515625-15.019532-3.871094-5.605468-6.160156-12.375-6.160156-19.691406zm0 0" fill="#dd352e"/></svg>