<svg height="512pt" viewBox="-115 0 512 512" width="512pt" xmlns="http://www.w3.org/2000/svg"><g fill="#1f436d"><path d="m8.828125 97.101562h264.828125v17.65625h-264.828125zm0 0"/><path d="m8.828125 397.242188h264.828125v17.65625h-264.828125zm0 0"/><path d="m256 467.863281h-229.515625l-26.484375-61.792969h282.484375zm0 0"/><path d="m256 44.136719h-229.515625l-26.484375 61.792969h282.484375zm0 0"/></g><path d="m211.863281 105.929688h-211.863281v300.140624h282.484375v-300.140624zm0 0" fill="#366db6"/><path d="m209.992188 269.480469c-3.363282-13.347657-10.894532-24.621094-21.019532-32.964844l-4-3.035156c-16.285156-11.464844-38.046875-15.96875-59.804687-10.453125-37.96875 9.625-61.554688 46.011718-52.675781 81.277344 8.878906 35.265624 46.855468 56.0625 84.824218 46.441406s61.554688-46 52.675782-81.265625zm0 0" fill="#ed8a19"/><path d="m141.242188 220.691406c0-29.257812 23.710937-52.96875 52.964843-52.96875 0 29.257813-23.710937 52.96875-52.964843 52.96875zm0 0" fill="#61b872"/><path d="m247.171875 512h-211.863281c-14.625 0-26.480469-11.855469-26.480469-26.484375 0-14.625 11.855469-26.480469 26.480469-26.480469h211.863281c14.628906 0 26.484375 11.855469 26.484375 26.480469 0 14.628906-11.855469 26.484375-26.484375 26.484375zm0 0" fill="#366db6"/><path d="m141.242188 0h-105.933594c-14.625 0-26.480469 11.855469-26.480469 26.484375 0 14.625 11.855469 26.480469 26.480469 26.480469h105.933594zm0 0" fill="#366db6"/><path d="m247.171875 0h-35.308594v52.964844h35.308594c14.628906 0 26.484375-11.855469 26.484375-26.480469 0-14.628906-11.855469-26.484375-26.484375-26.484375zm0 0" fill="#366db6"/><path d="m141.242188 361.929688c-4.875 0-8.828126-3.945313-8.828126-8.828126 0-4.878906 3.953126-8.824218 8.828126-8.824218 8.527343 0 18.210937-9.570313 24.105468-23.800782 6.640625-16.023437 8.015625-37.515624-3.863281-49.40625-3.453125-3.453124-3.453125-9.03125 0-12.484374 3.449219-3.449219 9.027344-3.449219 12.480469 0 18.855468 18.863281 15.933594 48.765624 7.707031 68.644531-8.871094 21.40625-24.363281 34.699219-40.429687 34.699219zm0 0" fill="#dc691d"/><path d="m176.550781 0h-35.308593v61.792969c0 9.753906 7.910156 17.65625 17.65625 17.65625 9.742187 0 17.652343-7.902344 17.652343-17.65625v44.136719c0 9.753906 7.910157 17.65625 17.65625 17.65625 9.746094 0 17.65625-7.902344 17.65625-17.65625v-105.929688zm0 0" fill="#ed8a19"/></svg>