<svg height="511pt" viewBox="0 0 511.98173 511" width="511pt" xmlns="http://www.w3.org/2000/svg"><path d="m414.742188 105.820312c-2.285157 0-4.570313-.875-6.316407-2.613281-3.480469-3.492187-3.480469-9.140625.007813-12.628906 9.136718-9.121094 15.785156-16.328125 20.691406-22.390625-7.351562.234375-14.152344-.703125-19.933594-3.292969-8.914062-3.976562-14.804687-11.429687-17.042968-21.546875-3.988282-18.070312 3.070312-28.683594 9.691406-34.402344 11.707031-10.109374 28.082031-11.242187 41.6875-2.910156 13.246094 8.121094 19.9375 22.398438 17.597656 37.023438 13.78125-4.886719 27.566406-11.410156 37.550781-17.042969 4.300781-2.417969 9.738281-.902344 12.15625 3.390625s.898438 9.738281-3.390625 12.15625c-4.175781 2.355469-28.574218 15.757812-53.9375 22.609375-6.003906 10.878906-15.765625 22.355469-32.480468 39.035156-1.722657 1.746094-4.007813 2.613281-6.28125 2.613281zm9.546874-87.460937c-3.585937 0-7.34375 1.152344-10.777343 4.105469-2.777344 2.390625-6.195313 6.765625-3.929688 17.035156 1.027344 4.632812 3.152344 7.433594 6.890625 9.109375 5.84375 2.605469 14.617188 2.292969 24.558594.25.902344-2.335937 1.578125-4.628906 2.160156-6.996094 2.382813-9.691406-3.347656-17.148437-8.976562-20.601562-2.757813-1.699219-6.25-2.902344-9.925782-2.902344zm0 0" fill="#f2ecbf"/><path d="m481.875 271.074219c0 133.066406-107.871094 240.9375-240.9375 240.9375s-240.9375-107.871094-240.9375-240.9375c0-133.0625 107.871094-240.933594 240.9375-240.933594s240.9375 107.871094 240.9375 240.933594zm0 0" fill="#61b872"/><g fill="#448e51"><path d="m161.785156 484.519531c-38.34375 0-72.664062-11.90625-97.527344-36.773437-66.105468-66.105469-40.628906-199.140625 56.789063-296.566406 97.421875-97.429688 230.453125-122.90625 296.566406-56.78125 66.109375 66.105468 40.632813 199.136718-56.789062 296.566406-60.777344 60.777344-135.433594 93.554687-199.039063 93.554687zm158.019532-409.40625c-58.628907 0-128.6875 31.234375-186.136719 88.683594-90.460938 90.46875-115.9375 212.183594-56.792969 271.332031 59.15625 59.144532 180.875 33.675782 271.332031-56.792968 90.457031-90.464844 115.9375-212.183594 56.789063-271.328126-21.585938-21.578124-51.503906-31.894531-85.191406-31.894531zm34.710937 309.542969h.089844zm0 0"/><path d="m87.148438 456.125c-9.65625 0-17.292969-2.785156-22.878907-8.378906-15.386719-15.375-9.566406-46.324219 17.28125-91.96875 24.210938-41.15625 62.886719-89.164063 108.914063-135.191406 46.027344-46.027344 94.035156-84.710938 135.191406-108.914063 45.644531-26.847656 76.59375-32.667969 91.96875-17.28125 15.382812 15.375 9.566406 46.320313-17.285156 91.964844-24.210938 41.15625-62.886719 89.164062-108.914063 135.191406-46.027343 46.027344-94.035156 84.710937-135.191406 108.914063-29.074219 17.097656-52.167969 25.664062-69.085937 25.664062zm307.542968-352.179688c-11.324218 0-30.886718 5.988282-59.996094 23.113282-39.886718 23.460937-86.628906 61.160156-131.621093 106.15625-44.984375 44.992187-82.6875 91.734375-106.144531 131.621094-24.703126 41.996093-26.238282 64.117187-20.054688 70.300781 6.195312 6.183593 28.316406 4.648437 70.300781-20.050781 39.890625-23.460938 86.632813-61.164063 131.625-106.15625 44.984375-44.992188 82.683594-91.734376 106.144531-131.621094 24.699219-41.996094 26.234376-64.117188 20.050782-70.300782-1.898438-1.894531-5.289063-3.0625-10.304688-3.0625zm0 0"/></g></svg>