<svg height="512pt" viewBox="0 -81 512 512" width="512pt" xmlns="http://www.w3.org/2000/svg"><path d="m42.667969 290.132812h59.730469v51.199219h-59.730469zm0 0" fill="#556080"/><path d="m469.332031 341.332031h-59.730469v-51.199219h59.730469zm0 0" fill="#556080"/><path d="m435.199219 281.601562c-23.527344 0-42.664063-19.140624-42.664063-42.667968s19.136719-42.667969 42.664063-42.667969c23.527343 0 42.667969 19.140625 42.667969 42.667969s-19.140626 42.667968-42.667969 42.667968zm0-68.269531c-14.113281 0-25.597657 11.488281-25.597657 25.601563 0 14.113281 11.484376 25.601562 25.597657 25.601562s25.601562-11.488281 25.601562-25.601562c0-14.113282-11.488281-25.601563-25.601562-25.601563zm0 0"/><path d="m486.398438 0h-460.796876c-9.421874 0-17.066406 7.636719-17.066406 17.066406v273.066406c0 9.429688 7.644532 17.066407 17.066406 17.066407h460.796876c9.421874 0 17.066406-7.636719 17.066406-17.066407v-273.066406c0-9.429687-7.644532-17.066406-17.066406-17.066406zm0 0" fill="#7383bf"/><path d="m366.933594 247.484375v-187.734375c0-14.148438-11.46875-25.617188-25.625-25.617188h-273.015625c-14.15625 0-25.625 11.46875-25.625 25.625v187.734376c0 14.121093 11.449219 25.574218 25.582031 25.574218h273.109375c14.121094 0 25.574219-11.453125 25.574219-25.582031zm0 0" fill="#c6e2f7"/><path d="m418.132812 179.199219h-17.066406c-4.710937 0-8.53125-3.8125-8.53125-8.53125s3.820313-8.535157 8.53125-8.535157h17.066406c4.710938 0 8.535157 3.816407 8.535157 8.535157s-3.824219 8.53125-8.535157 8.53125zm0 0" fill="#61b872"/><path d="m469.332031 179.199219h-17.066406c-4.710937 0-8.53125-3.8125-8.53125-8.53125s3.820313-8.535157 8.53125-8.535157h17.066406c4.710938 0 8.535157 3.816407 8.535157 8.535157s-3.824219 8.53125-8.535157 8.53125zm0 0" fill="#61b872"/><path d="m418.132812 145.066406h-17.066406c-4.710937 0-8.53125-3.8125-8.53125-8.53125 0-4.722656 3.820313-8.535156 8.53125-8.535156h17.066406c4.710938 0 8.535157 3.8125 8.535157 8.535156 0 4.71875-3.824219 8.53125-8.535157 8.53125zm0 0" fill="#ebba16"/><path d="m469.332031 145.066406h-17.066406c-4.710937 0-8.53125-3.8125-8.53125-8.53125 0-4.722656 3.820313-8.535156 8.53125-8.535156h17.066406c4.710938 0 8.535157 3.8125 8.535157 8.535156 0 4.71875-3.824219 8.53125-8.535157 8.53125zm0 0" fill="#ebba16"/><path d="m418.132812 110.933594h-17.066406c-4.710937 0-8.53125-3.816406-8.53125-8.535156s3.820313-8.53125 8.53125-8.53125h17.066406c4.710938 0 8.535157 3.8125 8.535157 8.53125s-3.824219 8.535156-8.535157 8.535156zm0 0" fill="#dd352e"/><path d="m469.332031 110.933594h-17.066406c-4.710937 0-8.53125-3.816406-8.53125-8.535156s3.820313-8.53125 8.53125-8.53125h17.066406c4.710938 0 8.535157 3.8125 8.535157 8.53125s-3.824219 8.535156-8.535157 8.535156zm0 0" fill="#dd352e"/><g fill="#366db6"><path d="m59.734375 349.867188h-51.199219c-4.710937 0-8.535156-3.816407-8.535156-8.535157s3.824219-8.53125 8.535156-8.53125h51.199219c4.710937 0 8.53125 3.8125 8.53125 8.53125s-3.820313 8.535157-8.53125 8.535157zm0 0"/><path d="m503.464844 349.867188h-196.265625c-4.710938 0-8.53125-3.816407-8.53125-8.535157s3.820312-8.53125 8.53125-8.53125h196.265625c4.710937 0 8.535156 3.8125 8.535156 8.53125s-3.824219 8.535157-8.535156 8.535157zm0 0"/><path d="m273.066406 349.867188h-34.132812c-4.710938 0-8.535156-3.816407-8.535156-8.535157s3.824218-8.53125 8.535156-8.53125h34.132812c4.710938 0 8.535156 3.8125 8.535156 8.53125s-3.824218 8.535157-8.535156 8.535157zm0 0"/><path d="m204.800781 349.867188h-68.265625c-4.710937 0-8.535156-3.816407-8.535156-8.535157s3.824219-8.53125 8.535156-8.53125h68.265625c4.710938 0 8.53125 3.8125 8.53125 8.53125s-3.820312 8.535157-8.53125 8.535157zm0 0"/></g><path d="m401.066406 34.132812h68.265625v34.132813h-68.265625zm0 0" fill="#ed8a19"/><path d="m341.351562 273.066406h-273.101562c-14.132812 0-25.582031-11.453125-25.582031-25.582031v-8.550781h324.265625v8.550781c0 14.128906-11.453125 25.582031-25.582032 25.582031zm0 0" fill="#556080"/><path d="m298.667969 238.933594h-187.734375c-18.851563 0-34.132813-15.285156-34.132813-34.132813h256c0 18.847657-15.285156 34.132813-34.132812 34.132813zm0 0" fill="#ebba16"/><path d="m179.199219 128c-2.542969 0-5.058594-1.136719-6.742188-3.292969-2.890625-3.730469-2.21875-9.082031 1.503907-11.972656l76.800781-59.734375c3.710937-2.910156 9.070312-2.234375 11.972656 1.492188 2.890625 3.730468 2.21875 9.082031-1.503906 11.972656l-76.800781 59.734375c-1.542969 1.21875-3.394532 1.800781-5.230469 1.800781zm0 0" fill="#be6e41"/><path d="m204.800781 128c-3.386719 0-6.589843-2.023438-7.929687-5.367188-1.746094-4.378906.375-9.34375 4.753906-11.09375l85.332031-34.132812c4.398438-1.742188 9.347657.382812 11.09375 4.761719 1.75 4.378906-.375 9.34375-4.75 11.09375l-85.335937 34.132812c-1.03125.417969-2.105469.605469-3.164063.605469zm0 0" fill="#be6e41"/><path d="m221.867188 204.800781h-34.132813c-47.128906 0-85.335937-38.203125-85.335937-85.335937h204.800781c0 47.132812-38.203125 85.335937-85.332031 85.335937zm0 0" fill="#e7eced"/><path d="m469.332031 238.933594c0 18.851562-15.28125 34.132812-34.132812 34.132812-18.851563 0-34.132813-15.28125-34.132813-34.132812 0-18.851563 15.28125-34.132813 34.132813-34.132813 18.851562 0 34.132812 15.28125 34.132812 34.132813zm0 0" fill="#fff"/><path d="m435.199219 247.464844c-4.710938 0-8.53125-3.8125-8.53125-8.53125v-34.132813c0-4.71875 3.820312-8.535156 8.53125-8.535156 4.710937 0 8.535156 3.816406 8.535156 8.535156v34.132813c0 4.71875-3.824219 8.53125-8.535156 8.53125zm0 0" fill="#b3c2c4"/></svg>