<svg height="512pt" viewBox="-4 0 511 512" width="512pt" xmlns="http://www.w3.org/2000/svg"><path d="m358.398438 94.953125-97.914063-30.527344c-4.140625-3.480469-8.175781-7.1875-12.046875-11.246093-7.339844-.722657-14.777344-1.113282-22.308594-1.113282-124.609375 0-225.628906 101.023438-225.628906 225.628906 0 124.605469 101.019531 225.625 225.628906 225.625 10.152344 0 20.132813-.734374 29.929688-2.039062l192.71875-187.078125c1.925781-11.890625 2.976562-24.074219 2.976562-36.507813 0-75.1875-36.8125-141.738281-93.355468-182.742187zm0 0" fill="#ed8a19"/><path d="m260.484375 64.425781c.46875 75.855469 57.976563 131.480469 134.914063 128.773438 1.398437-39.875-12.878907-74.546875-37.496094-98.792969-33.800782 4.234375-68.601563-5.769531-97.417969-29.980469zm0 0" fill="#1a9172"/><path d="m338.941406 147.527344c-2.273437 0-4.539062-.886719-6.25-2.65625l-57.835937-59.949219c-3.324219-3.445313-3.230469-8.9375.214843-12.269531 3.453126-3.308594 8.949219-3.230469 12.28125.226562l57.835938 59.945313c3.324219 3.445312 3.230469 8.9375-.214844 12.269531-1.691406 1.625-3.863281 2.433594-6.03125 2.433594zm0 0" fill="#be6e41"/><path d="m90.402344 164.882812c-2.0625 0-4.128906-.730468-5.785156-2.214843-3.566407-3.203125-3.871094-8.6875-.667969-12.253907 5.785156-6.457031 12.058593-12.566406 18.648437-18.171874 3.652344-3.105469 9.128906-2.664063 12.234375.992187 3.105469 3.652344 2.664063 9.128906-.988281 12.234375-5.996094 5.101562-11.707031 10.664062-16.976562 16.539062-1.714844 1.902344-4.085938 2.875-6.464844 2.875zm0 0" fill="#dc691d"/><path d="m43.890625 286.371094c-4.792969 0-8.679687-3.886719-8.679687-8.675782 0-31.726562 7.976562-63.167968 23.074218-90.929687 2.285156-4.207031 7.558594-5.761719 11.769532-3.476563 4.207031 2.289063 5.769531 7.558594 3.480468 11.765626-13.722656 25.226562-20.96875 53.804687-20.96875 82.640624 0 4.789063-3.886718 8.675782-8.675781 8.675782zm0 0" fill="#dc691d"/><path d="m321.585938 373.152344c-22.207032 0-41.664063-11.566406-52.519532-28.914063-12.558594-20.082031-35.242187-31.832031-59.183594-31.832031-55.703124 0-89.253906 60.609375-59.367187 106.929688 35.945313 55.703124 99.128906 92.664062 171.070313 92.664062 71.9375 0 135.125-36.960938 171.058593-92.664062 29.886719-46.320313-3.652343-106.929688-59.355469-106.929688-23.945312 0-46.621093 11.75-59.183593 31.832031-10.859375 17.347657-30.3125 28.914063-52.519531 28.914063zm0 0" fill="#f7e6a1"/><g fill="#f7b563"><path d="m321.585938 407.863281c-4.792969 0-8.679688-3.886719-8.679688-8.675781v-26.035156c0-4.789063 3.886719-8.679688 8.679688-8.679688 4.789062 0 8.675781 3.890625 8.675781 8.679688v26.035156c0 4.789062-3.886719 8.675781-8.675781 8.675781zm0 0"/><path d="m321.585938 407.863281c-4.792969 0-8.679688-3.886719-8.679688-8.675781v-26.035156c0-4.789063 3.886719-8.679688 8.679688-8.679688 4.789062 0 8.675781 3.890625 8.675781 8.679688v26.035156c0 4.789062-3.886719 8.675781-8.675781 8.675781zm0 0"/><path d="m374.425781 399.1875c-2.195312 0-4.402343-.835938-6.09375-2.5l-24.574219-24.21875c-3.410156-3.367188-3.453124-8.863281-.085937-12.28125 3.367187-3.410156 8.859375-3.445312 12.277344-.085938l24.578125 24.21875c3.410156 3.367188 3.453125 8.859376.085937 12.28125-1.710937 1.71875-3.949219 2.585938-6.1875 2.585938zm0 0"/><path d="m268.746094 399.1875c-2.242188 0-4.488282-.867188-6.179688-2.585938-3.359375-3.421874-3.324218-8.914062.085938-12.28125l24.578125-24.21875c3.417969-3.359374 8.910156-3.316406 12.277343.085938 3.367188 3.417969 3.324219 8.914062-.085937 12.28125l-24.578125 24.21875c-1.699219 1.664062-3.894531 2.5-6.097656 2.5zm0 0"/></g><path d="m438.214844 52.066406c-53.933594-57.855468-136.980469-57.855468-190.914063 0 53.933594 57.855469 136.992188 57.855469 190.914063 0zm0 0" fill="#61b872"/><path d="m364.972656 60.746094h-147.523437c-4.789063 0-8.679688-3.886719-8.679688-8.679688 0-4.789062 3.890625-8.675781 8.679688-8.675781h147.523437c4.792969 0 8.679688 3.886719 8.679688 8.675781 0 4.792969-3.886719 8.679688-8.679688 8.679688zm0 0" fill="#be6e41"/><path d="m226.128906 95.457031c-4.792968 0-8.679687-3.886719-8.679687-8.675781 0-38.28125-31.144531-69.425781-69.421875-69.425781-4.792969 0-8.679688-3.886719-8.679688-8.675781 0-4.792969 3.886719-8.679688 8.679688-8.679688 47.847656 0 86.777344 38.929688 86.777344 86.78125 0 4.789062-3.886719 8.675781-8.675782 8.675781zm0 0" fill="#be6e41"/></svg>