<svg height="512pt" viewBox="0 0 512 512" width="512pt" xmlns="http://www.w3.org/2000/svg"><path d="m498.898438 336.394531c-.476563 88.664063-192.8125 176.453125-170.125 175.386719 13.90625.140625 44.042968.21875 59.640624.21875 62.632813 0 123.585938-44.09375 123.585938-105.929688 0-20.71875-4.785156-52.058593-13.101562-69.675781zm0 0" fill="#cc9c15"/><path d="m399.4375 165.199219-118.863281-136.5c-15.71875-7.035157-32.925781-11.042969-51.058594-11.042969-53.5625 0-99.625 33.957031-120.449219 82.773438-9.632812 22.582031-25.027344 42.039062-43.117187 58.632812-40.773438 37.441406-65.949219 88.796875-65.949219 145.488281 0 114.574219 102.761719 207.449219 229.515625 207.449219 16.976563 0 33.511719-1.710938 49.4375-4.871094l177.53125-171.679687c1.667969-10.082031 2.550781-20.394531 2.550781-30.898438 0-53.660156-22.589844-102.53125-59.597656-139.351562zm0 0" fill="#ebba16"/><path d="m264.464844 65.535156c.476562 77.164063 58.976562 133.746094 137.242187 130.992188 1.421875-40.5625-13.097656-75.828125-38.144531-100.492188-34.382812 4.308594-69.78125-5.871094-99.097656-30.5zm0 0" fill="#3d6f44"/><path d="m344.277344 150.070312c-2.3125 0-4.617188-.902343-6.355469-2.703124l-58.835937-60.980469c-3.382813-3.503907-3.285157-9.09375.21875-12.480469 3.511718-3.363281 9.101562-3.285156 12.492187.226562l58.835937 60.980469c3.378907 3.507813 3.28125 9.09375-.222656 12.484375-1.71875 1.648438-3.925781 2.472656-6.132812 2.472656zm0 0" fill="#6c4127"/><path d="m229.515625 97.101562c-4.871094 0-8.824219-3.953124-8.824219-8.824218 0-38.941406-31.683594-70.621094-70.621094-70.621094-4.875 0-8.828124-3.957031-8.828124-8.828125 0-4.875 3.953124-8.828125 8.828124-8.828125 48.675782 0 88.273438 39.601562 88.273438 88.277344 0 4.871094-3.953125 8.824218-8.828125 8.824218zm0 0" fill="#6c4127"/><g fill="#cc9c15"><path d="m141.242188 273.65625c-14.601563 0-26.484376-11.882812-26.484376-26.484375s11.882813-26.480469 26.484376-26.480469c4.871093 0 8.828124 3.953125 8.828124 8.824219 0 4.875-3.957031 8.828125-8.828124 8.828125-4.863282 0-8.828126 3.964844-8.828126 8.828125s3.964844 8.828125 8.828126 8.828125c4.871093 0 8.828124 3.953125 8.828124 8.828125 0 4.871094-3.957031 8.828125-8.828124 8.828125zm0 0"/><path d="m79.449219 300.136719c-14.601563 0-26.484375-11.878907-26.484375-26.480469s11.882812-26.484375 26.484375-26.484375c4.871093 0 8.828125 3.957031 8.828125 8.828125s-3.957032 8.828125-8.828125 8.828125c-4.863281 0-8.828125 3.964844-8.828125 8.828125s3.964844 8.828125 8.828125 8.828125c4.871093 0 8.828125 3.953125 8.828125 8.824219 0 4.875-3.957032 8.828125-8.828125 8.828125zm0 0"/><path d="m97.101562 238.34375c-14.597656 0-26.480468-11.878906-26.480468-26.480469 0-14.601562 11.882812-26.484375 26.480468-26.484375 4.875 0 8.828126 3.957032 8.828126 8.828125 0 4.871094-3.953126 8.828125-8.828126 8.828125-4.863281 0-8.824218 3.964844-8.824218 8.828125s3.960937 8.828125 8.824218 8.828125c4.875 0 8.828126 3.953125 8.828126 8.824219 0 4.875-3.953126 8.828125-8.828126 8.828125zm0 0"/></g><path d="m320.078125 512c98.773437 0 178.839844-79.042969 178.839844-176.550781h-357.675781c0 97.507812 80.066406 176.550781 178.835937 176.550781zm0 0" fill="#f7e6a1"/><path d="m393.261719 463.652344c-13.347657 0-25.203125-7.488282-30.492188-19.386719l-13.125-24.539063c-.257812-.488281-.476562-1-.636719-1.527343l-15.40625-49.398438c-1.453124-4.652343 1.148438-9.605469 5.800782-11.054687 4.644531-1.4375 9.605468 1.140625 11.054687 5.800781l15.15625 48.605469 13.011719 24.378906c2.839844 6.347656 8.605469 9.765625 15.4375 9.457031 4.925781-.210937 9.863281-2.429687 13.550781-6.074219l27.675781-27.304687c3.664063-3.617187 5.886719-8.445313 6.109376-13.230469.296874-6.613281-3.136719-12.289062-8.980469-14.824218l-30.207031-14.679688c-4.386719-2.136719-6.207032-7.414062-4.078126-11.800781 2.136719-4.386719 7.414063-6.214844 11.800782-4.078125l29.855468 14.519531c12.183594 5.269531 19.871094 17.761719 19.246094 31.65625-.425781 9.3125-4.449218 18.183594-11.34375 25l-27.675781 27.304687c-6.867187 6.777344-15.808594 10.734376-25.183594 11.140626-.519531.015624-1.050781.035156-1.570312.035156zm0 0" fill="#ed8a19"/><path d="m300.332031 485.515625c-9.683593 0-18.820312-3.441406-25.742187-9.699219-10.371094-9.394531-13.839844-23.640625-8.828125-36.28125l8.316406-26.554687c.167969-.527344.378906-1.03125.644531-1.519531l25.371094-47.347657c2.304688-4.292969 7.644531-5.917969 11.953125-3.613281 4.296875 2.304688 5.914063 7.65625 3.609375 11.953125l-24.980469 46.617187-8.28125 26.371094c-2.523437 6.433594-.890625 12.824219 4.050781 17.292969 3.601563 3.257813 8.667969 5.128906 13.886719 5.128906h.007813l39.082031-.035156c5.226563 0 10.300781-1.890625 13.9375-5.164063 4.960937-4.496093 6.621094-10.894531 4.324219-16.722656l-24.070313-77.140625c-1.457031-4.652343 1.144531-9.605469 5.796875-11.054687 4.644532-1.4375 9.605469 1.140625 11.054688 5.800781l23.859375 76.535156c4.769531 12.03125 1.273437 26.28125-9.117188 35.671875-6.929687 6.269532-16.085937 9.726563-25.769531 9.738282l-39.078125.023437c-.007813 0-.019531 0-.027344 0zm0 0" fill="#ed8a19"/><path d="m246.527344 463.773438c-.503906 0-1.003906-.007813-1.519532-.035157-9.375-.386719-18.316406-4.332031-25.175781-11.113281l-27.59375-27.257812c-6.886719-6.808594-10.902343-15.6875-11.289062-25.007813-.59375-13.683594 6.902343-26.035156 19.144531-31.585937l25.007812-14.476563c4.222657-2.445313 9.625-1 12.058594 3.210937 2.445313 4.21875 1.007813 9.621094-3.210937 12.058594l-25.40625 14.714844c-.292969.179688-.589844.328125-.910157.460938-5.871093 2.550781-9.328124 8.246093-9.039062 14.863281.203125 4.796875 2.410156 9.605469 6.066406 13.207031l27.59375 27.261719c3.679688 3.625 8.597656 5.824219 13.507813 6.035156 6.847656.179687 12.628906-3.132813 15.21875-8.933594l39.113281-73.0625c2.304688-4.292969 7.644531-5.917969 11.953125-3.613281 4.296875 2.304688 5.914063 7.65625 3.609375 11.953125l-38.832031 72.492187c-5.050781 11.34375-16.929688 18.820313-30.296875 18.828126zm0 0" fill="#ed8a19"/><path d="m445.261719 52.964844c-54.863281-58.851563-139.339844-58.851563-194.207031 0 54.867187 58.855468 139.355468 58.855468 194.207031 0zm0 0" fill="#23a24d"/><path d="m370.757812 61.792969h-150.066406c-4.875 0-8.828125-3.953125-8.828125-8.828125 0-4.871094 3.953125-8.828125 8.828125-8.828125h150.066406c4.875 0 8.828126 3.957031 8.828126 8.828125 0 4.875-3.953126 8.828125-8.828126 8.828125zm0 0" fill="#6c4127"/></svg>