<svg height="512pt" viewBox="-25 0 511 512" width="512pt" xmlns="http://www.w3.org/2000/svg"><path d="m426.726562 217.234375-125.484374-143.199219c-10.542969-2.773437-21.445313-4.339844-32.625-4.476562-11.671876-.148438-23.058594 1.335937-34.109376 4.074218l-16.253906 4.601563c-14.210937-5.183594-29.1875-8.113281-44.714844-8.3125-93.757812-1.191406-171.214843 95.046875-173.007812 214.960937-1.796875 119.902344 72.75 218.085938 166.507812 219.277344 17.296876.214844 34.039063-2.894531 49.851563-8.851562 14.359375 5.296875 29.511719 8.277344 45.226563 8.476562 93.75 1.191406 171.207031-95.042968 173.007812-214.949218.363281-25.058594-2.632812-49.140626-8.398438-71.601563zm0 0" fill="#dd352e"/><path d="m301.191406 90.105469.101563-32.699219 32.703125-.105469c70.339844-.214843 127.421875 56.867188 127.207031 127.207031l-.105469 32.703126-32.699218.101562c-70.34375.21875-127.425782-56.867188-127.207032-127.207031zm0 0" fill="#23a24d"/><g fill="#6c4127"><path d="m409.046875 139.082031h-34.769531c-4.796875 0-8.691406-3.894531-8.691406-8.695312 0-4.796875 3.894531-8.691407 8.691406-8.691407h34.769531c4.796875 0 8.691406 3.894532 8.691406 8.691407 0 4.800781-3.894531 8.695312-8.691406 8.695312zm0 0"/><path d="m374.277344 173.851562c-4.796875 0-8.691406-3.894531-8.691406-8.691406v-34.773437c0-4.796875 3.894531-8.691407 8.691406-8.691407s8.691406 3.894532 8.691406 8.691407v34.773437c0 4.796875-3.894531 8.691406-8.691406 8.691406zm0 0"/><path d="m374.277344 104.3125h-34.769532c-4.800781 0-8.695312-3.894531-8.695312-8.695312 0-4.796876 3.894531-8.691407 8.695312-8.691407h34.769532c4.796875 0 8.691406 3.894531 8.691406 8.691407 0 4.800781-3.894531 8.695312-8.691406 8.695312zm0 0"/><path d="m339.507812 139.082031c-4.800781 0-8.695312-3.894531-8.695312-8.695312v-34.769531c0-4.796876 3.894531-8.691407 8.695312-8.691407 4.796876 0 8.691407 3.894531 8.691407 8.691407v34.769531c0 4.800781-3.894531 8.695312-8.691407 8.695312zm0 0"/></g><path d="m168.933594 512c-.722656 0-1.445313 0-2.164063-.007812-4.800781-.0625-8.640625-4.007813-8.582031-8.804688.0625-4.765625 3.949219-8.582031 8.695312-8.582031.761719-.015625 1.414063.007812 2.121094.007812 43.289063 0 79.832032-18.609375 111.671875-56.855469 3.066407-3.703124 8.554688-4.191406 12.238281-1.121093 3.695313 3.074219 4.191407 8.550781 1.121094 12.238281-34.875 41.898438-76.953125 63.125-125.101562 63.125zm0 0" fill="#e57373"/><path d="m330.8125 269.476562c-3.746094 0-7.203125-2.441406-8.324219-6.222656-22.140625-74.539062-80.339843-123.277344-148.253906-124.171875-4.796875-.0625-8.640625-4.007812-8.578125-8.808593.058594-4.804688 4.214844-8.492188 8.804688-8.578126 74.53125.984376 140.714843 55.875 164.679687 136.605469 1.367187 4.597657-1.257813 9.4375-5.859375 10.804688-.816406.25-1.648438.371093-2.46875.371093zm0 0" fill="#e57373"/><path d="m417.738281 182.542969c-2.222656 0-4.449219-.851563-6.144531-2.546875l-117.921875-117.921875c-12.371094-12.371094-25.863281-21.976563-40.101563-28.546875-5.03125-2.328125-9.828124-4.148438-14.261718-5.40625-4.609375-1.304688-7.285156-6.121094-5.972656-10.734375 1.3125-4.617188 6.121093-7.304688 10.742187-5.980469 5.285156 1.503906 10.9375 3.632812 16.785156 6.335938 16.109375 7.421874 31.277344 18.210937 45.097657 32.039062l117.925781 117.925781c3.398437 3.398438 3.398437 8.890625 0 12.289063-1.695313 1.695312-3.921875 2.546875-6.148438 2.546875zm0 0" fill="#6c4127"/><path d="m217.8125 104.3125s3.675781-49.679688-8.199219-89.605469c-2.171875-7.320312 3.035157-14.707031 10.667969-14.707031h10.039062c6.265626 0 11.289063 5.050781 11.378907 11.308594.269531 20.566406-.941407 70.054687-23.886719 93.003906zm0 0" fill="#be6e41"/></svg>